%TF.GenerationSoftware,KiCad,Pcbnew,7.0.7*%
%TF.CreationDate,2025-07-23T15:48:42-04:00*%
%TF.ProjectId,Prototype1.0,50726f74-6f74-4797-9065-312e302e6b69,rev?*%
%TF.SameCoordinates,Original*%
%TF.FileFunction,Plated,1,2,PTH,Drill*%
%TF.FilePolarity,Positive*%
%FSLAX46Y46*%
G04 Gerber Fmt 4.6, Leading zero omitted, Abs format (unit mm)*
G04 Created by KiCad (PCBNEW 7.0.7) date 2025-07-23 15:48:42*
%MOMM*%
%LPD*%
G01*
G04 APERTURE LIST*
%TA.AperFunction,ComponentDrill*%
%ADD10C,0.700000*%
%TD*%
%TA.AperFunction,ComponentDrill*%
%ADD11C,0.750000*%
%TD*%
%TA.AperFunction,ComponentDrill*%
%ADD12C,0.800000*%
%TD*%
%TA.AperFunction,ComponentDrill*%
%ADD13C,0.900000*%
%TD*%
%TA.AperFunction,ComponentDrill*%
%ADD14C,1.300000*%
%TD*%
%TA.AperFunction,ViaDrill*%
%ADD15C,3.000000*%
%TD*%
%TA.AperFunction,ComponentDrill*%
%ADD16C,3.000000*%
%TD*%
G04 APERTURE END LIST*
D10*
%TO.C,U2*%
X128830000Y-61760000D03*
X128830000Y-63760000D03*
X130830000Y-61760000D03*
X130830000Y-63760000D03*
X132830000Y-61760000D03*
X132830000Y-63760000D03*
D11*
X138570000Y-55140000D03*
X138570000Y-57680000D03*
X138570000Y-60220000D03*
X138570000Y-62760000D03*
X138570000Y-65300000D03*
D12*
%TO.C,J1*%
X111950000Y-98380000D03*
X111950000Y-100920000D03*
X111950000Y-103460000D03*
X111950000Y-106000000D03*
%TO.C,J2*%
X111975000Y-84090000D03*
X111975000Y-86630000D03*
X111975000Y-89170000D03*
X111975000Y-91710000D03*
%TO.C,J16*%
X112025000Y-70680000D03*
X112025000Y-73220000D03*
X112025000Y-75760000D03*
X112025000Y-78300000D03*
%TO.C,J17*%
X115225000Y-56385000D03*
X115225000Y-58925000D03*
%TO.C,J15*%
X117341645Y-70692545D03*
X117341645Y-73232545D03*
X117341645Y-75772545D03*
X117341645Y-78312545D03*
%TO.C,U2*%
X126380000Y-48790000D03*
X126380000Y-51330000D03*
X126380000Y-53870000D03*
X126380000Y-56410000D03*
X126380000Y-58950000D03*
X126380000Y-61490000D03*
X126380000Y-64030000D03*
X126380000Y-66570000D03*
X126380000Y-69110000D03*
X126380000Y-71650000D03*
X126380000Y-74190000D03*
X126380000Y-76730000D03*
X126380000Y-79270000D03*
X126380000Y-81810000D03*
X126380000Y-84350000D03*
X126380000Y-86890000D03*
X126380000Y-89430000D03*
X126380000Y-91970000D03*
X126380000Y-94510000D03*
X126380000Y-97050000D03*
X126380000Y-99590000D03*
X126380000Y-102130000D03*
X126380000Y-104670000D03*
X126380000Y-107210000D03*
X128920000Y-51330000D03*
X128920000Y-94510000D03*
X131460000Y-94510000D03*
X134000000Y-94510000D03*
X136540000Y-94510000D03*
X139080000Y-94510000D03*
X141620000Y-48790000D03*
X141620000Y-51330000D03*
X141620000Y-53870000D03*
X141620000Y-56410000D03*
X141620000Y-58950000D03*
X141620000Y-61490000D03*
X141620000Y-64030000D03*
X141620000Y-66570000D03*
X141620000Y-69110000D03*
X141620000Y-71650000D03*
X141620000Y-74190000D03*
X141620000Y-76730000D03*
X141620000Y-79270000D03*
X141620000Y-81810000D03*
X141620000Y-84350000D03*
X141620000Y-86890000D03*
X141620000Y-89430000D03*
X141620000Y-91970000D03*
X141620000Y-94510000D03*
X141620000Y-97050000D03*
X141620000Y-99590000D03*
X141620000Y-102130000D03*
X141620000Y-104670000D03*
X141620000Y-107210000D03*
%TO.C,J18*%
X149860000Y-70465000D03*
X149860000Y-73005000D03*
%TO.C,J11*%
X156000000Y-42280000D03*
X156000000Y-44820000D03*
X156000000Y-47360000D03*
X156000000Y-49900000D03*
%TO.C,J12*%
X156000000Y-54080000D03*
X156000000Y-56620000D03*
X156000000Y-59160000D03*
X156000000Y-61700000D03*
%TO.C,J10*%
X156000000Y-66080000D03*
X156000000Y-68620000D03*
%TO.C,J13*%
X156000000Y-78800000D03*
X156000000Y-81340000D03*
X156000000Y-83880000D03*
X156000000Y-86420000D03*
X156000000Y-88960000D03*
X156000000Y-91500000D03*
%TO.C,J14*%
X156000000Y-97540000D03*
X156000000Y-100080000D03*
X156000000Y-102620000D03*
X156000000Y-105160000D03*
X156000000Y-107700000D03*
X156000000Y-110240000D03*
D13*
%TO.C,U4*%
X107400000Y-50580559D03*
X107400000Y-53120559D03*
X107400000Y-55660559D03*
X107400000Y-58200559D03*
X107400000Y-60740559D03*
X107400000Y-63280559D03*
%TO.C,Open1*%
X163400000Y-65748000D03*
X163400000Y-68288000D03*
X163400000Y-70828000D03*
X163400000Y-73368000D03*
X163400000Y-75908000D03*
X163400000Y-78448000D03*
X163400000Y-80988000D03*
X163400000Y-83528000D03*
D14*
%TO.C,J6*%
X111120000Y-43000000D03*
X116200000Y-43000000D03*
%TD*%
D15*
X81000000Y-42100000D03*
X81000000Y-109000000D03*
X191600000Y-42000000D03*
X191600000Y-109000000D03*
D16*
%TO.C,U4*%
X97650000Y-51450559D03*
X97650000Y-62450559D03*
%TO.C,Open1*%
X164797000Y-61900000D03*
X164797000Y-87300000D03*
X190197000Y-61900000D03*
X190197000Y-87300000D03*
M02*
