%TF.GenerationSoftware,KiCad,Pcbnew,7.0.7*%
%TF.CreationDate,2024-12-15T19:26:52-03:00*%
%TF.ProjectId,TeensyPCB,5465656e-7379-4504-9342-2e6b69636164,rev?*%
%TF.SameCoordinates,Original*%
%TF.FileFunction,Copper,L2,Bot*%
%TF.FilePolarity,Positive*%
%FSLAX46Y46*%
G04 Gerber Fmt 4.6, Leading zero omitted, Abs format (unit mm)*
G04 Created by KiCad (PCBNEW 7.0.7) date 2024-12-15 19:26:52*
%MOMM*%
%LPD*%
G01*
G04 APERTURE LIST*
%TA.AperFunction,ComponentPad*%
%ADD10R,1.700000X1.700000*%
%TD*%
%TA.AperFunction,ComponentPad*%
%ADD11O,1.700000X1.700000*%
%TD*%
%TA.AperFunction,ComponentPad*%
%ADD12C,1.600000*%
%TD*%
%TA.AperFunction,ComponentPad*%
%ADD13O,1.600000X1.600000*%
%TD*%
%TA.AperFunction,ComponentPad*%
%ADD14C,1.308000*%
%TD*%
%TA.AperFunction,ComponentPad*%
%ADD15C,1.208000*%
%TD*%
%TA.AperFunction,ComponentPad*%
%ADD16C,1.258000*%
%TD*%
%TA.AperFunction,Conductor*%
%ADD17C,0.700000*%
%TD*%
%TA.AperFunction,Conductor*%
%ADD18C,0.250000*%
%TD*%
G04 APERTURE END LIST*
D10*
%TO.P,J4,1,Pin_1*%
%TO.N,Net-(J4-Pin_1)*%
X83500000Y-34000000D03*
%TD*%
%TO.P,J9,1,Pin_1*%
%TO.N,3V3*%
X57960000Y-12000000D03*
D11*
%TO.P,J9,2,Pin_2*%
%TO.N,GND*%
X60500000Y-12000000D03*
%TO.P,J9,3,Pin_3*%
%TO.N,Net-(J9-Pin_3)*%
X63040000Y-12000000D03*
%TO.P,J9,4,Pin_4*%
%TO.N,Net-(J9-Pin_4)*%
X65580000Y-12000000D03*
%TD*%
D10*
%TO.P,J2,1,Pin_1*%
%TO.N,Net-(J2-Pin_1)*%
X73500000Y-67000000D03*
%TD*%
D12*
%TO.P,R6,1*%
%TO.N,Net-(U1-A9)*%
X55798400Y-36000000D03*
D13*
%TO.P,R6,2*%
%TO.N,GND*%
X45638400Y-36000000D03*
%TD*%
D12*
%TO.P,R5,1*%
%TO.N,Net-(J8-Pin_3)*%
X55747600Y-22920000D03*
D13*
%TO.P,R5,2*%
%TO.N,Net-(U1-A9)*%
X55747600Y-33080000D03*
%TD*%
D12*
%TO.P,R2,1*%
%TO.N,Net-(U1-CRX3)*%
X101080000Y-62586200D03*
D13*
%TO.P,R2,2*%
%TO.N,GND*%
X90920000Y-62586200D03*
%TD*%
D12*
%TO.P,R1,1*%
%TO.N,Net-(J3-Pin_3)*%
X101000000Y-77080000D03*
D13*
%TO.P,R1,2*%
%TO.N,Net-(U1-CRX3)*%
X101000000Y-66920000D03*
%TD*%
D10*
%TO.P,J1,1,Pin_1*%
%TO.N,3V3*%
X71165400Y-26772200D03*
D11*
%TO.P,J1,2,Pin_2*%
%TO.N,GND*%
X73705400Y-26772200D03*
%TO.P,J1,3,Pin_3*%
%TO.N,Net-(J1-Pin_3)*%
X76245400Y-26772200D03*
%TO.P,J1,4,Pin_4*%
%TO.N,Net-(J1-Pin_4)*%
X78785400Y-26772200D03*
%TO.P,J1,5,Pin_5*%
%TO.N,unconnected-(J1-Pin_5-Pad5)*%
X81325400Y-26772200D03*
%TO.P,J1,6,Pin_6*%
%TO.N,unconnected-(J1-Pin_6-Pad6)*%
X83865400Y-26772200D03*
%TO.P,J1,7,Pin_7*%
%TO.N,unconnected-(J1-Pin_7-Pad7)*%
X86405400Y-26772200D03*
%TO.P,J1,8,Pin_8*%
%TO.N,unconnected-(J1-Pin_8-Pad8)*%
X88945400Y-26772200D03*
%TD*%
D14*
%TO.P,U1,GND1,GND*%
%TO.N,GND*%
X48280000Y-56160000D03*
%TO.P,U1,0,RX1*%
%TO.N,unconnected-(U1-RX1-Pad0)*%
X50820000Y-56160000D03*
%TO.P,U1,VBAT,VBAT*%
%TO.N,unconnected-(U1-PadVBAT)*%
X94000000Y-53620000D03*
%TO.P,U1,3.3V_3,3.3V*%
%TO.N,3V3*%
X94000000Y-51080000D03*
%TO.P,U1,GND4,GND*%
%TO.N,GND*%
X94000000Y-48540000D03*
%TO.P,U1,ON/OFF,ON/OFF*%
%TO.N,unconnected-(U1-PadON{slash}OFF)*%
X94000000Y-43460000D03*
%TO.P,U1,VUSB,VUSB*%
%TO.N,unconnected-(U1-PadVUSB)*%
X50820000Y-43460000D03*
%TO.P,U1,PROGRAM,PROGRAM*%
%TO.N,unconnected-(U1-PadPROGRAM)*%
X94000000Y-46000000D03*
%TO.P,U1,GND2,GND*%
%TO.N,GND*%
X83840000Y-40920000D03*
D15*
%TO.P,U1,R-,R-*%
%TO.N,unconnected-(U1-PadR-)*%
X63250000Y-43370000D03*
%TO.P,U1,R+,R+*%
%TO.N,unconnected-(U1-PadR+)*%
X61250000Y-43370000D03*
%TO.P,U1,GND5,GND*%
%TO.N,GND*%
X63250000Y-45370000D03*
%TO.P,U1,T+,T+*%
%TO.N,unconnected-(U1-PadT+)*%
X63250000Y-47370000D03*
%TO.P,U1,LED,LED*%
%TO.N,unconnected-(U1-PadLED)*%
X61250000Y-45370000D03*
%TO.P,U1,T-,T-*%
%TO.N,unconnected-(U1-PadT-)*%
X61250000Y-47370000D03*
D16*
%TO.P,U1,5V,5V*%
%TO.N,unconnected-(U1-Pad5V)*%
X54630000Y-53110000D03*
%TO.P,U1,D-,D-*%
%TO.N,unconnected-(U1-PadD-)*%
X57170000Y-53110000D03*
%TO.P,U1,D+,D+*%
%TO.N,unconnected-(U1-PadD+)*%
X59710000Y-53110000D03*
%TO.P,U1,USB_GND1,USB_GND*%
%TO.N,Net-(U1-USB_GND-PadUSB_GND1)*%
X62250000Y-53110000D03*
%TO.P,U1,USB_GND2,USB_GND*%
X64790000Y-53110000D03*
D14*
%TO.P,U1,1,TX1*%
%TO.N,unconnected-(U1-TX1-Pad1)*%
X53360000Y-56160000D03*
%TO.P,U1,2,OUT2*%
%TO.N,unconnected-(U1-OUT2-Pad2)*%
X55900000Y-56160000D03*
%TO.P,U1,3,LRCLK2*%
%TO.N,unconnected-(U1-LRCLK2-Pad3)*%
X58440000Y-56160000D03*
%TO.P,U1,4,BCLK2*%
%TO.N,unconnected-(U1-BCLK2-Pad4)*%
X60980000Y-56160000D03*
%TO.P,U1,5,IN2*%
%TO.N,unconnected-(U1-IN2-Pad5)*%
X63520000Y-56160000D03*
%TO.P,U1,6,OUT1D*%
%TO.N,unconnected-(U1-OUT1D-Pad6)*%
X66060000Y-56160000D03*
%TO.P,U1,7,RX2*%
%TO.N,unconnected-(U1-RX2-Pad7)*%
X68600000Y-56160000D03*
%TO.P,U1,8,TX2*%
%TO.N,unconnected-(U1-TX2-Pad8)*%
X71140000Y-56160000D03*
%TO.P,U1,9,OUT1C*%
%TO.N,unconnected-(U1-OUT1C-Pad9)*%
X73680000Y-56160000D03*
%TO.P,U1,10,CS1*%
%TO.N,Net-(J5-Pin_3)*%
X76220000Y-56160000D03*
%TO.P,U1,11,MOSI*%
%TO.N,Net-(J5-Pin_5)*%
X78760000Y-56160000D03*
%TO.P,U1,12,MISO*%
%TO.N,Net-(J5-Pin_4)*%
X81300000Y-56160000D03*
%TO.P,U1,3.3V_1,3.3V*%
%TO.N,3V3*%
X83840000Y-56160000D03*
%TO.P,U1,13,SCK*%
%TO.N,Net-(J4-Pin_1)*%
X81300000Y-40920000D03*
%TO.P,U1,14,A0*%
%TO.N,unconnected-(U1-A0-Pad14)*%
X78760000Y-40920000D03*
%TO.P,U1,15,A1*%
%TO.N,unconnected-(U1-A1-Pad15)*%
X76220000Y-40920000D03*
%TO.P,U1,16,A2*%
%TO.N,Net-(J1-Pin_4)*%
X73680000Y-40920000D03*
%TO.P,U1,17,A3*%
%TO.N,Net-(J1-Pin_3)*%
X71140000Y-40920000D03*
%TO.P,U1,18,A4*%
%TO.N,Net-(J9-Pin_4)*%
X68600000Y-40920000D03*
%TO.P,U1,19,A5*%
%TO.N,Net-(J9-Pin_3)*%
X66060000Y-40920000D03*
%TO.P,U1,20,A6*%
%TO.N,unconnected-(U1-A6-Pad20)*%
X63520000Y-40920000D03*
%TO.P,U1,21,A7*%
%TO.N,unconnected-(U1-A7-Pad21)*%
X60980000Y-40920000D03*
%TO.P,U1,22,A8*%
%TO.N,Net-(J8-Pin_2)*%
X58440000Y-40920000D03*
%TO.P,U1,23,A9*%
%TO.N,Net-(U1-A9)*%
X55900000Y-40920000D03*
%TO.P,U1,3.3V_2,3.3V*%
%TO.N,3V3*%
X53360000Y-40920000D03*
%TO.P,U1,GND3,GND*%
%TO.N,GND*%
X50820000Y-40920000D03*
%TO.P,U1,VIN,VIN*%
%TO.N,5V*%
X48280000Y-40920000D03*
%TO.P,U1,24,A10*%
%TO.N,Net-(J7-Pin_3)*%
X86380000Y-56160000D03*
%TO.P,U1,25,A11*%
%TO.N,Net-(J7-Pin_4)*%
X88920000Y-56160000D03*
%TO.P,U1,26,A12*%
%TO.N,unconnected-(U1-A12-Pad26)*%
X91460000Y-56160000D03*
%TO.P,U1,27,A13*%
%TO.N,unconnected-(U1-A13-Pad27)*%
X94000000Y-56160000D03*
%TO.P,U1,28,RX7*%
%TO.N,GND*%
X96540000Y-56160000D03*
%TO.P,U1,29,TX7*%
%TO.N,unconnected-(U1-TX7-Pad29)*%
X99080000Y-56160000D03*
%TO.P,U1,30,CRX3*%
%TO.N,Net-(U1-CRX3)*%
X101620000Y-56160000D03*
%TO.P,U1,31,CTX3*%
%TO.N,Net-(J3-Pin_2)*%
X104160000Y-56160000D03*
%TO.P,U1,32,OUT1B*%
%TO.N,unconnected-(U1-OUT1B-Pad32)*%
X106700000Y-56160000D03*
%TO.P,U1,33,MCLK2*%
%TO.N,unconnected-(U1-MCLK2-Pad33)*%
X106700000Y-40920000D03*
%TO.P,U1,34,RX8*%
%TO.N,unconnected-(U1-RX8-Pad34)*%
X104160000Y-40920000D03*
%TO.P,U1,35,TX8*%
%TO.N,unconnected-(U1-TX8-Pad35)*%
X101620000Y-40920000D03*
%TO.P,U1,36,CS2*%
%TO.N,unconnected-(U1-CS2-Pad36)*%
X99080000Y-40920000D03*
%TO.P,U1,37,CS3*%
%TO.N,unconnected-(U1-CS3-Pad37)*%
X96540000Y-40920000D03*
%TO.P,U1,38,A14*%
%TO.N,unconnected-(U1-A14-Pad38)*%
X94000000Y-40920000D03*
%TO.P,U1,39,A15*%
%TO.N,unconnected-(U1-A15-Pad39)*%
X91460000Y-40920000D03*
%TO.P,U1,40,A16*%
%TO.N,unconnected-(U1-A16-Pad40)*%
X88920000Y-40920000D03*
%TO.P,U1,41,A17*%
%TO.N,unconnected-(U1-A17-Pad41)*%
X86380000Y-40920000D03*
%TD*%
D10*
%TO.P,J8,1,Pin_1*%
%TO.N,GND*%
X60802200Y-18415600D03*
D11*
%TO.P,J8,2,Pin_2*%
%TO.N,Net-(J8-Pin_2)*%
X58262200Y-18415600D03*
%TO.P,J8,3,Pin_3*%
%TO.N,Net-(J8-Pin_3)*%
X55722200Y-18415600D03*
%TO.P,J8,4,Pin_4*%
%TO.N,5V*%
X53182200Y-18415600D03*
%TD*%
D10*
%TO.P,J7,1,Pin_1*%
%TO.N,3V3*%
X79039400Y-80772600D03*
D11*
%TO.P,J7,2,Pin_2*%
%TO.N,GND*%
X81579400Y-80772600D03*
%TO.P,J7,3,Pin_3*%
%TO.N,Net-(J7-Pin_3)*%
X84119400Y-80772600D03*
%TO.P,J7,4,Pin_4*%
%TO.N,Net-(J7-Pin_4)*%
X86659400Y-80772600D03*
%TO.P,J7,5,Pin_5*%
%TO.N,unconnected-(J7-Pin_5-Pad5)*%
X89199400Y-80772600D03*
%TO.P,J7,6,Pin_6*%
%TO.N,unconnected-(J7-Pin_6-Pad6)*%
X91739400Y-80772600D03*
%TO.P,J7,7,Pin_7*%
%TO.N,unconnected-(J7-Pin_7-Pad7)*%
X94279400Y-80772600D03*
%TO.P,J7,8,Pin_8*%
%TO.N,unconnected-(J7-Pin_8-Pad8)*%
X96819400Y-80772600D03*
%TD*%
D10*
%TO.P,J5,1,Pin_1*%
%TO.N,3V3*%
X60649800Y-72974800D03*
D11*
%TO.P,J5,2,Pin_2*%
%TO.N,GND*%
X63189800Y-72974800D03*
%TO.P,J5,3,Pin_3*%
%TO.N,Net-(J5-Pin_3)*%
X65729800Y-72974800D03*
%TO.P,J5,4,Pin_4*%
%TO.N,Net-(J5-Pin_4)*%
X68269800Y-72974800D03*
%TO.P,J5,5,Pin_5*%
%TO.N,Net-(J5-Pin_5)*%
X70809800Y-72974800D03*
%TO.P,J5,6,Pin_6*%
%TO.N,Net-(J2-Pin_1)*%
X73349800Y-72974800D03*
%TD*%
D10*
%TO.P,J3,1,Pin_1*%
%TO.N,GND*%
X106928600Y-86843200D03*
D11*
%TO.P,J3,2,Pin_2*%
%TO.N,Net-(J3-Pin_2)*%
X104388600Y-86843200D03*
%TO.P,J3,3,Pin_3*%
%TO.N,Net-(J3-Pin_3)*%
X101848600Y-86843200D03*
%TO.P,J3,4,Pin_4*%
%TO.N,5V*%
X99308600Y-86843200D03*
%TD*%
D17*
%TO.N,Net-(J9-Pin_4)*%
X65580000Y-12000000D02*
X65679000Y-12099000D01*
X67000000Y-39320000D02*
X68600000Y-40920000D01*
X65679000Y-12099000D02*
X65679000Y-14656400D01*
X67000000Y-15977400D02*
X67000000Y-39320000D01*
X65679000Y-14656400D02*
X67000000Y-15977400D01*
%TO.N,Net-(J9-Pin_3)*%
X63040000Y-12000000D02*
X63040000Y-15344800D01*
X64500000Y-39360000D02*
X66060000Y-40920000D01*
X63040000Y-15344800D02*
X64500000Y-16804800D01*
X64500000Y-16804800D02*
X64500000Y-39360000D01*
%TO.N,Net-(J2-Pin_1)*%
X73349800Y-72974800D02*
X73349800Y-67150200D01*
X73349800Y-67150200D02*
X73500000Y-67000000D01*
%TO.N,Net-(J4-Pin_1)*%
X83500000Y-34000000D02*
X83500000Y-38720000D01*
X83500000Y-38720000D02*
X81300000Y-40920000D01*
%TO.N,3V3*%
X104998200Y-21031800D02*
X89021600Y-5055200D01*
X89021600Y-5055200D02*
X64904800Y-5055200D01*
X64904800Y-5055200D02*
X57960000Y-12000000D01*
%TO.N,Net-(J5-Pin_3)*%
X65729800Y-72974800D02*
X65729800Y-66710200D01*
X65729800Y-66710200D02*
X76220000Y-56220000D01*
X76220000Y-56220000D02*
X76220000Y-56160000D01*
%TO.N,Net-(J5-Pin_5)*%
X70809800Y-72974800D02*
X70809800Y-64110200D01*
X70809800Y-64110200D02*
X78760000Y-56160000D01*
%TO.N,Net-(J1-Pin_4)*%
X73680000Y-40920000D02*
X78785400Y-35814600D01*
X78785400Y-35814600D02*
X78785400Y-26772200D01*
%TO.N,Net-(J1-Pin_3)*%
X71140000Y-40920000D02*
X71140000Y-31877600D01*
X71140000Y-31877600D02*
X76245400Y-26772200D01*
%TO.N,5V*%
X53182200Y-18415600D02*
X53182200Y-20142800D01*
X53182200Y-20142800D02*
X42000000Y-31325000D01*
X42000000Y-31325000D02*
X42000000Y-36341800D01*
X46578200Y-40920000D02*
X48280000Y-40920000D01*
X42000000Y-36341800D02*
X46578200Y-40920000D01*
%TO.N,Net-(J8-Pin_3)*%
X55747600Y-22920000D02*
X55747600Y-18441000D01*
X55747600Y-18441000D02*
X55722200Y-18415600D01*
%TO.N,Net-(U1-A9)*%
X55798400Y-36000000D02*
X55798400Y-40818400D01*
X55798400Y-40818400D02*
X55900000Y-40920000D01*
X55798400Y-36000000D02*
X55798400Y-33130800D01*
X55798400Y-33130800D02*
X55747600Y-33080000D01*
%TO.N,Net-(J3-Pin_3)*%
X101848600Y-86843200D02*
X101000000Y-85994600D01*
X101000000Y-85994600D02*
X101000000Y-77080000D01*
%TO.N,Net-(U1-CRX3)*%
X101080000Y-62586200D02*
X101620000Y-62046200D01*
X101620000Y-62046200D02*
X101620000Y-56160000D01*
X101080000Y-62586200D02*
X101000000Y-62666200D01*
X101000000Y-62666200D02*
X101000000Y-66920000D01*
D18*
X101080000Y-66840000D02*
X101000000Y-66920000D01*
D17*
%TO.N,3V3*%
X94000000Y-51080000D02*
X109062200Y-51080000D01*
X111000000Y-27033600D02*
X104998200Y-21031800D01*
X109062200Y-51080000D02*
X111000000Y-49142200D01*
X111000000Y-49142200D02*
X111000000Y-27033600D01*
%TO.N,Net-(J5-Pin_4)*%
X68269800Y-72974800D02*
X68269800Y-75718000D01*
X81300000Y-61468600D02*
X81300000Y-56160000D01*
X68269800Y-75718000D02*
X70047800Y-77496000D01*
X70047800Y-77496000D02*
X76550200Y-77496000D01*
X76550200Y-77496000D02*
X76677200Y-77369000D01*
X76677200Y-77369000D02*
X76677200Y-66091400D01*
X76677200Y-66091400D02*
X81300000Y-61468600D01*
%TO.N,Net-(U1-USB_GND-PadUSB_GND1)*%
X62250000Y-53110000D02*
X64790000Y-53110000D01*
%TO.N,GND*%
X60599000Y-12065600D02*
X60599000Y-11964000D01*
%TO.N,3V3*%
X104998200Y-21031800D02*
X104744200Y-20777800D01*
X104744200Y-20777800D02*
X77159800Y-20777800D01*
X77159800Y-20777800D02*
X71165400Y-26772200D01*
%TO.N,Net-(J1-Pin_4)*%
X78429800Y-27127800D02*
X78785400Y-26772200D01*
%TO.N,3V3*%
X60649800Y-72974800D02*
X59913200Y-72974800D01*
X44825600Y-57887200D02*
X44825600Y-53086600D01*
X44825600Y-53086600D02*
X53360000Y-44552200D01*
X59913200Y-72974800D02*
X44825600Y-57887200D01*
X53360000Y-44552200D02*
X53360000Y-40920000D01*
X60649800Y-72974800D02*
X60649800Y-78435800D01*
X60649800Y-78435800D02*
X62986600Y-80772600D01*
X62986600Y-80772600D02*
X79039400Y-80772600D01*
%TO.N,5V*%
X99029200Y-86843200D02*
X98953000Y-86919400D01*
X39517000Y-79248600D02*
X39517000Y-49632200D01*
X98953000Y-86919400D02*
X47187800Y-86919400D01*
X47187800Y-86919400D02*
X39517000Y-79248600D01*
X39517000Y-49632200D02*
X44190600Y-44958600D01*
X44190600Y-44958600D02*
X44241400Y-44958600D01*
X44241400Y-44958600D02*
X48280000Y-40920000D01*
%TO.N,3V3*%
X83840000Y-56160000D02*
X88920000Y-51080000D01*
X88920000Y-51080000D02*
X94000000Y-51080000D01*
X79039400Y-68479000D02*
X83560600Y-63957800D01*
X79039400Y-80772600D02*
X79039400Y-68479000D01*
X83560600Y-63957800D02*
X83560600Y-56439400D01*
X83560600Y-56439400D02*
X83840000Y-56160000D01*
%TO.N,Net-(J7-Pin_4)*%
X86659400Y-70155400D02*
X88615200Y-68199600D01*
X86659400Y-80772600D02*
X86659400Y-70155400D01*
X88615200Y-68199600D02*
X88615200Y-56464800D01*
X88615200Y-56464800D02*
X88920000Y-56160000D01*
%TO.N,Net-(J7-Pin_3)*%
X84119400Y-68199600D02*
X86049800Y-66269200D01*
X84119400Y-80772600D02*
X84119400Y-68199600D01*
X86049800Y-66269200D02*
X86049800Y-56490200D01*
X86049800Y-56490200D02*
X86380000Y-56160000D01*
%TO.N,Net-(J3-Pin_2)*%
X104160000Y-56160000D02*
X104160000Y-86614600D01*
X104160000Y-86614600D02*
X104388600Y-86843200D01*
%TO.N,Net-(J5-Pin_3)*%
X76296200Y-56236200D02*
X76220000Y-56160000D01*
%TO.N,Net-(J8-Pin_2)*%
X58440000Y-40920000D02*
X58440000Y-18593400D01*
X58440000Y-18593400D02*
X58262200Y-18415600D01*
%TO.N,Net-(J3-Pin_2)*%
X104185400Y-56185400D02*
X104160000Y-56160000D01*
%TO.N,Net-(U1-CRX3)*%
X101493000Y-62663200D02*
X101570000Y-62586200D01*
%TD*%
%TA.AperFunction,Conductor*%
%TO.N,GND*%
G36*
X149942539Y-20185D02*
G01*
X149988294Y-72989D01*
X149999500Y-124500D01*
X149999500Y-99875500D01*
X149979815Y-99942539D01*
X149927011Y-99988294D01*
X149875500Y-99999500D01*
X124500Y-99999500D01*
X57461Y-99979815D01*
X11706Y-99927011D01*
X500Y-99875500D01*
X500Y-79271763D01*
X38661798Y-79271763D01*
X38672729Y-79351992D01*
X38681486Y-79432513D01*
X38681710Y-79433530D01*
X38686525Y-79454073D01*
X38686773Y-79455070D01*
X38714700Y-79531086D01*
X38740557Y-79607823D01*
X38741001Y-79608785D01*
X38750146Y-79627866D01*
X38750564Y-79628709D01*
X38794184Y-79696953D01*
X38835930Y-79766336D01*
X38836538Y-79767136D01*
X38849578Y-79783816D01*
X38850201Y-79784591D01*
X38907459Y-79841849D01*
X38963152Y-79900642D01*
X38963983Y-79901347D01*
X38981118Y-79915507D01*
X46560191Y-87494580D01*
X46563584Y-87498260D01*
X46581364Y-87519192D01*
X46599463Y-87540501D01*
X46599464Y-87540502D01*
X46635141Y-87567621D01*
X46663918Y-87589497D01*
X46727046Y-87640241D01*
X46727047Y-87640241D01*
X46727048Y-87640242D01*
X46727957Y-87640823D01*
X46745809Y-87651897D01*
X46746728Y-87652450D01*
X46746734Y-87652453D01*
X46746736Y-87652454D01*
X46820251Y-87686466D01*
X46820252Y-87686466D01*
X46892783Y-87722438D01*
X46893910Y-87722852D01*
X46913576Y-87729776D01*
X46914630Y-87730130D01*
X46914633Y-87730132D01*
X46954179Y-87738836D01*
X46993725Y-87747541D01*
X47072305Y-87767084D01*
X47073394Y-87767232D01*
X47094175Y-87769777D01*
X47095302Y-87769899D01*
X47095303Y-87769900D01*
X47095304Y-87769900D01*
X47176269Y-87769900D01*
X47257232Y-87772093D01*
X47257232Y-87772092D01*
X47257235Y-87772093D01*
X47258279Y-87772008D01*
X47280448Y-87769900D01*
X98274042Y-87769900D01*
X98341081Y-87789585D01*
X98361723Y-87806219D01*
X98437199Y-87881695D01*
X98533984Y-87949464D01*
X98630765Y-88017232D01*
X98630767Y-88017233D01*
X98630770Y-88017235D01*
X98844937Y-88117103D01*
X99073192Y-88178263D01*
X99261518Y-88194739D01*
X99308599Y-88198859D01*
X99308600Y-88198859D01*
X99308601Y-88198859D01*
X99347834Y-88195426D01*
X99544008Y-88178263D01*
X99772263Y-88117103D01*
X99986430Y-88017235D01*
X100180001Y-87881695D01*
X100347095Y-87714601D01*
X100477026Y-87529041D01*
X100531602Y-87485417D01*
X100601100Y-87478223D01*
X100663455Y-87509746D01*
X100680175Y-87529042D01*
X100810100Y-87714595D01*
X100810105Y-87714601D01*
X100977199Y-87881695D01*
X101073984Y-87949464D01*
X101170765Y-88017232D01*
X101170767Y-88017233D01*
X101170770Y-88017235D01*
X101384937Y-88117103D01*
X101613192Y-88178263D01*
X101801518Y-88194739D01*
X101848599Y-88198859D01*
X101848600Y-88198859D01*
X101848601Y-88198859D01*
X101887834Y-88195426D01*
X102084008Y-88178263D01*
X102312263Y-88117103D01*
X102526430Y-88017235D01*
X102720001Y-87881695D01*
X102887095Y-87714601D01*
X103017026Y-87529040D01*
X103071601Y-87485417D01*
X103141099Y-87478223D01*
X103203454Y-87509746D01*
X103220174Y-87529041D01*
X103228199Y-87540502D01*
X103350105Y-87714601D01*
X103517199Y-87881695D01*
X103613984Y-87949464D01*
X103710765Y-88017232D01*
X103710767Y-88017233D01*
X103710770Y-88017235D01*
X103924937Y-88117103D01*
X104153192Y-88178263D01*
X104341518Y-88194739D01*
X104388599Y-88198859D01*
X104388600Y-88198859D01*
X104388601Y-88198859D01*
X104427834Y-88195426D01*
X104624008Y-88178263D01*
X104852263Y-88117103D01*
X105066430Y-88017235D01*
X105260001Y-87881695D01*
X105427095Y-87714601D01*
X105562635Y-87521030D01*
X105662503Y-87306863D01*
X105723663Y-87078608D01*
X105744259Y-86843200D01*
X105723663Y-86607792D01*
X105662503Y-86379537D01*
X105562635Y-86165371D01*
X105427095Y-85971799D01*
X105427094Y-85971797D01*
X105260002Y-85804706D01*
X105260001Y-85804705D01*
X105066430Y-85669165D01*
X105066429Y-85669164D01*
X105063375Y-85667026D01*
X105019751Y-85612449D01*
X105010499Y-85565451D01*
X105010499Y-71587981D01*
X105010499Y-56991067D01*
X105030184Y-56924032D01*
X105035527Y-56916369D01*
X105145781Y-56770370D01*
X105241151Y-56578840D01*
X105241151Y-56578837D01*
X105241153Y-56578835D01*
X105275639Y-56457628D01*
X105299704Y-56373048D01*
X105306529Y-56299394D01*
X105332315Y-56234457D01*
X105389116Y-56193770D01*
X105458897Y-56190250D01*
X105519503Y-56225015D01*
X105551693Y-56287028D01*
X105553471Y-56299395D01*
X105560295Y-56373047D01*
X105560296Y-56373050D01*
X105618846Y-56578835D01*
X105618849Y-56578840D01*
X105714219Y-56770370D01*
X105843159Y-56941114D01*
X106001278Y-57085258D01*
X106001283Y-57085261D01*
X106001286Y-57085263D01*
X106183186Y-57197891D01*
X106183187Y-57197891D01*
X106183190Y-57197893D01*
X106382703Y-57275185D01*
X106593020Y-57314500D01*
X106593022Y-57314500D01*
X106806978Y-57314500D01*
X106806980Y-57314500D01*
X107017297Y-57275185D01*
X107216810Y-57197893D01*
X107398722Y-57085258D01*
X107556841Y-56941114D01*
X107685781Y-56770370D01*
X107781151Y-56578840D01*
X107781151Y-56578837D01*
X107781153Y-56578835D01*
X107815639Y-56457628D01*
X107839704Y-56373048D01*
X107859446Y-56160000D01*
X107852546Y-56085543D01*
X107839704Y-55946952D01*
X107839703Y-55946949D01*
X107781153Y-55741164D01*
X107781150Y-55741158D01*
X107759992Y-55698667D01*
X107685781Y-55549630D01*
X107556841Y-55378886D01*
X107398722Y-55234742D01*
X107398716Y-55234738D01*
X107398713Y-55234736D01*
X107216813Y-55122108D01*
X107216807Y-55122106D01*
X107213067Y-55120657D01*
X107017297Y-55044815D01*
X106806980Y-55005500D01*
X106593020Y-55005500D01*
X106382703Y-55044815D01*
X106304224Y-55075218D01*
X106183192Y-55122106D01*
X106183186Y-55122108D01*
X106001286Y-55234736D01*
X106001283Y-55234738D01*
X106001279Y-55234740D01*
X106001278Y-55234742D01*
X105955770Y-55276228D01*
X105843158Y-55378887D01*
X105714219Y-55549629D01*
X105618849Y-55741158D01*
X105618846Y-55741164D01*
X105560296Y-55946949D01*
X105560295Y-55946952D01*
X105553471Y-56020604D01*
X105527685Y-56085542D01*
X105470884Y-56126229D01*
X105401103Y-56129749D01*
X105340497Y-56094984D01*
X105308307Y-56032971D01*
X105306529Y-56020604D01*
X105299704Y-55946952D01*
X105299703Y-55946949D01*
X105241153Y-55741164D01*
X105241150Y-55741158D01*
X105219992Y-55698667D01*
X105145781Y-55549630D01*
X105016841Y-55378886D01*
X104858722Y-55234742D01*
X104858716Y-55234738D01*
X104858713Y-55234736D01*
X104676813Y-55122108D01*
X104676807Y-55122106D01*
X104673067Y-55120657D01*
X104477297Y-55044815D01*
X104266980Y-55005500D01*
X104053020Y-55005500D01*
X103842703Y-55044815D01*
X103764224Y-55075218D01*
X103643192Y-55122106D01*
X103643186Y-55122108D01*
X103461286Y-55234736D01*
X103461283Y-55234738D01*
X103461279Y-55234740D01*
X103461278Y-55234742D01*
X103415770Y-55276228D01*
X103303158Y-55378887D01*
X103174219Y-55549629D01*
X103078849Y-55741158D01*
X103078846Y-55741164D01*
X103020296Y-55946949D01*
X103020295Y-55946952D01*
X103013471Y-56020604D01*
X102987685Y-56085542D01*
X102930884Y-56126229D01*
X102861103Y-56129749D01*
X102800497Y-56094984D01*
X102768307Y-56032971D01*
X102766529Y-56020604D01*
X102759704Y-55946952D01*
X102759703Y-55946949D01*
X102701153Y-55741164D01*
X102701150Y-55741158D01*
X102679992Y-55698667D01*
X102605781Y-55549630D01*
X102476841Y-55378886D01*
X102318722Y-55234742D01*
X102318716Y-55234738D01*
X102318713Y-55234736D01*
X102136813Y-55122108D01*
X102136807Y-55122106D01*
X102133067Y-55120657D01*
X101937297Y-55044815D01*
X101726980Y-55005500D01*
X101513020Y-55005500D01*
X101302703Y-55044815D01*
X101224224Y-55075218D01*
X101103192Y-55122106D01*
X101103186Y-55122108D01*
X100921286Y-55234736D01*
X100921283Y-55234738D01*
X100921279Y-55234740D01*
X100921278Y-55234742D01*
X100875770Y-55276228D01*
X100763158Y-55378887D01*
X100634219Y-55549629D01*
X100538849Y-55741158D01*
X100538846Y-55741164D01*
X100480296Y-55946949D01*
X100480295Y-55946952D01*
X100473471Y-56020604D01*
X100447685Y-56085542D01*
X100390884Y-56126229D01*
X100321103Y-56129749D01*
X100260497Y-56094984D01*
X100228307Y-56032971D01*
X100226529Y-56020604D01*
X100219704Y-55946952D01*
X100219703Y-55946949D01*
X100161153Y-55741164D01*
X100161150Y-55741158D01*
X100139992Y-55698667D01*
X100065781Y-55549630D01*
X99936841Y-55378886D01*
X99778722Y-55234742D01*
X99778716Y-55234738D01*
X99778713Y-55234736D01*
X99596813Y-55122108D01*
X99596807Y-55122106D01*
X99593067Y-55120657D01*
X99397297Y-55044815D01*
X99186980Y-55005500D01*
X98973020Y-55005500D01*
X98762703Y-55044815D01*
X98684224Y-55075218D01*
X98563192Y-55122106D01*
X98563186Y-55122108D01*
X98381286Y-55234736D01*
X98381283Y-55234738D01*
X98381279Y-55234740D01*
X98381278Y-55234742D01*
X98335770Y-55276228D01*
X98223158Y-55378887D01*
X98094219Y-55549629D01*
X97998849Y-55741158D01*
X97998846Y-55741164D01*
X97940296Y-55946949D01*
X97940295Y-55946952D01*
X97920554Y-56159999D01*
X97920554Y-56160000D01*
X97940295Y-56373047D01*
X97940296Y-56373050D01*
X97998846Y-56578835D01*
X97998849Y-56578840D01*
X98094219Y-56770370D01*
X98223159Y-56941114D01*
X98381278Y-57085258D01*
X98381283Y-57085261D01*
X98381286Y-57085263D01*
X98563186Y-57197891D01*
X98563187Y-57197891D01*
X98563190Y-57197893D01*
X98762703Y-57275185D01*
X98973020Y-57314500D01*
X98973022Y-57314500D01*
X99186978Y-57314500D01*
X99186980Y-57314500D01*
X99397297Y-57275185D01*
X99596810Y-57197893D01*
X99778722Y-57085258D01*
X99936841Y-56941114D01*
X100065781Y-56770370D01*
X100161151Y-56578840D01*
X100161151Y-56578837D01*
X100161153Y-56578835D01*
X100195639Y-56457628D01*
X100219704Y-56373048D01*
X100226529Y-56299394D01*
X100252315Y-56234457D01*
X100309116Y-56193770D01*
X100378897Y-56190250D01*
X100439503Y-56225015D01*
X100471693Y-56287028D01*
X100473471Y-56299395D01*
X100480295Y-56373047D01*
X100480296Y-56373050D01*
X100538846Y-56578835D01*
X100538849Y-56578841D01*
X100634219Y-56770370D01*
X100744454Y-56916344D01*
X100769146Y-56981705D01*
X100769500Y-56991071D01*
X100769500Y-61227872D01*
X100749815Y-61294911D01*
X100697011Y-61340666D01*
X100677594Y-61347647D01*
X100633508Y-61359459D01*
X100633502Y-61359461D01*
X100427267Y-61455631D01*
X100427265Y-61455632D01*
X100240858Y-61586154D01*
X100079954Y-61747058D01*
X99949432Y-61933465D01*
X99949431Y-61933467D01*
X99853261Y-62139702D01*
X99853258Y-62139711D01*
X99794366Y-62359502D01*
X99794364Y-62359513D01*
X99774532Y-62586198D01*
X99774532Y-62586201D01*
X99794364Y-62812886D01*
X99794366Y-62812897D01*
X99853258Y-63032688D01*
X99853261Y-63032697D01*
X99949431Y-63238932D01*
X99949432Y-63238934D01*
X100079953Y-63425340D01*
X100113180Y-63458566D01*
X100146666Y-63519888D01*
X100149500Y-63546248D01*
X100149500Y-65879950D01*
X100129815Y-65946989D01*
X100113182Y-65967631D01*
X99999951Y-66080862D01*
X99869432Y-66267265D01*
X99869431Y-66267267D01*
X99773261Y-66473502D01*
X99773258Y-66473511D01*
X99714366Y-66693302D01*
X99714364Y-66693313D01*
X99694532Y-66919998D01*
X99694532Y-66920001D01*
X99714364Y-67146686D01*
X99714366Y-67146697D01*
X99773258Y-67366488D01*
X99773261Y-67366497D01*
X99869431Y-67572732D01*
X99869432Y-67572734D01*
X99999954Y-67759141D01*
X100160858Y-67920045D01*
X100160861Y-67920047D01*
X100347266Y-68050568D01*
X100553504Y-68146739D01*
X100773308Y-68205635D01*
X100935230Y-68219801D01*
X100999998Y-68225468D01*
X101000000Y-68225468D01*
X101000002Y-68225468D01*
X101056672Y-68220509D01*
X101226692Y-68205635D01*
X101446496Y-68146739D01*
X101652734Y-68050568D01*
X101839139Y-67920047D01*
X102000047Y-67759139D01*
X102130568Y-67572734D01*
X102226739Y-67366496D01*
X102285635Y-67146692D01*
X102305468Y-66920000D01*
X102285635Y-66693308D01*
X102226739Y-66473504D01*
X102130568Y-66267266D01*
X102000047Y-66080861D01*
X102000045Y-66080858D01*
X101886818Y-65967631D01*
X101853333Y-65906308D01*
X101850499Y-65879959D01*
X101850499Y-63698857D01*
X101870184Y-63631819D01*
X101903376Y-63597284D01*
X101919139Y-63586247D01*
X101919141Y-63586245D01*
X101919146Y-63586241D01*
X102080045Y-63425341D01*
X102080044Y-63425340D01*
X102080047Y-63425339D01*
X102210568Y-63238934D01*
X102306739Y-63032696D01*
X102313916Y-63005910D01*
X102322598Y-62982919D01*
X102373036Y-62881222D01*
X102417684Y-62701695D01*
X102422693Y-62516768D01*
X102406373Y-62431722D01*
X102413070Y-62362178D01*
X102417060Y-62353268D01*
X102423036Y-62341221D01*
X102423037Y-62341218D01*
X102423445Y-62340108D01*
X102430384Y-62320398D01*
X102430727Y-62319377D01*
X102430732Y-62319367D01*
X102448141Y-62240273D01*
X102467684Y-62161695D01*
X102467683Y-62161695D01*
X102467685Y-62161691D01*
X102467830Y-62160626D01*
X102470371Y-62139877D01*
X102470500Y-62138697D01*
X102470500Y-62057731D01*
X102472693Y-61976764D01*
X102472608Y-61975720D01*
X102470500Y-61953552D01*
X102470500Y-56991071D01*
X102490185Y-56924032D01*
X102495546Y-56916344D01*
X102605781Y-56770370D01*
X102701151Y-56578840D01*
X102701151Y-56578837D01*
X102701153Y-56578835D01*
X102735639Y-56457628D01*
X102759704Y-56373048D01*
X102766529Y-56299394D01*
X102792315Y-56234457D01*
X102849116Y-56193770D01*
X102918897Y-56190250D01*
X102979503Y-56225015D01*
X103011693Y-56287028D01*
X103013471Y-56299395D01*
X103020295Y-56373047D01*
X103020296Y-56373050D01*
X103078846Y-56578835D01*
X103078849Y-56578841D01*
X103174219Y-56770370D01*
X103284454Y-56916344D01*
X103309146Y-56981705D01*
X103309500Y-56991071D01*
X103309500Y-85990692D01*
X103289815Y-86057731D01*
X103287075Y-86061815D01*
X103220175Y-86157359D01*
X103165598Y-86200984D01*
X103096100Y-86208178D01*
X103033745Y-86176655D01*
X103017025Y-86157359D01*
X102887094Y-85971797D01*
X102720002Y-85804706D01*
X102719995Y-85804701D01*
X102526434Y-85669167D01*
X102526430Y-85669165D01*
X102404802Y-85612449D01*
X102312263Y-85569297D01*
X102312259Y-85569296D01*
X102312255Y-85569294D01*
X102084013Y-85508138D01*
X102084003Y-85508136D01*
X101963692Y-85497610D01*
X101898623Y-85472157D01*
X101857645Y-85415566D01*
X101850500Y-85374082D01*
X101850500Y-78120048D01*
X101870185Y-78053009D01*
X101886814Y-78032371D01*
X102000047Y-77919139D01*
X102130568Y-77732734D01*
X102226739Y-77526496D01*
X102285635Y-77306692D01*
X102305468Y-77080000D01*
X102285635Y-76853308D01*
X102226739Y-76633504D01*
X102130568Y-76427266D01*
X102008698Y-76253216D01*
X102000045Y-76240858D01*
X101839141Y-76079954D01*
X101652734Y-75949432D01*
X101652732Y-75949431D01*
X101446497Y-75853261D01*
X101446488Y-75853258D01*
X101226697Y-75794366D01*
X101226693Y-75794365D01*
X101226692Y-75794365D01*
X101226691Y-75794364D01*
X101226686Y-75794364D01*
X101000002Y-75774532D01*
X100999998Y-75774532D01*
X100773313Y-75794364D01*
X100773302Y-75794366D01*
X100553511Y-75853258D01*
X100553502Y-75853261D01*
X100347267Y-75949431D01*
X100347265Y-75949432D01*
X100160858Y-76079954D01*
X99999954Y-76240858D01*
X99869432Y-76427265D01*
X99869431Y-76427267D01*
X99773261Y-76633502D01*
X99773258Y-76633511D01*
X99714366Y-76853302D01*
X99714364Y-76853313D01*
X99694532Y-77079998D01*
X99694532Y-77080001D01*
X99714364Y-77306686D01*
X99714366Y-77306697D01*
X99773258Y-77526488D01*
X99773261Y-77526497D01*
X99869431Y-77732732D01*
X99869432Y-77732734D01*
X99999951Y-77919137D01*
X99999952Y-77919138D01*
X99999953Y-77919139D01*
X100113182Y-78032368D01*
X100146666Y-78093689D01*
X100149500Y-78120048D01*
X100149500Y-85550565D01*
X100129815Y-85617604D01*
X100077011Y-85663359D01*
X100007853Y-85673303D01*
X99973095Y-85662947D01*
X99864802Y-85612449D01*
X99772263Y-85569297D01*
X99772259Y-85569296D01*
X99772255Y-85569294D01*
X99544013Y-85508138D01*
X99544003Y-85508136D01*
X99308601Y-85487541D01*
X99308599Y-85487541D01*
X99073196Y-85508136D01*
X99073186Y-85508138D01*
X98844944Y-85569294D01*
X98844935Y-85569298D01*
X98630771Y-85669164D01*
X98630769Y-85669165D01*
X98437197Y-85804705D01*
X98270105Y-85971798D01*
X98239138Y-86016024D01*
X98184561Y-86059649D01*
X98137564Y-86068900D01*
X47591450Y-86068900D01*
X47524411Y-86049215D01*
X47503769Y-86032581D01*
X40403819Y-78932630D01*
X40370334Y-78871307D01*
X40367500Y-78844949D01*
X40367500Y-50035849D01*
X40387185Y-49968810D01*
X40403814Y-49948173D01*
X44627061Y-45724925D01*
X44647948Y-45708135D01*
X44689753Y-45681415D01*
X44759136Y-45639670D01*
X44759145Y-45639661D01*
X44760069Y-45638960D01*
X44776476Y-45626133D01*
X44777386Y-45625402D01*
X44777386Y-45625401D01*
X44777389Y-45625400D01*
X44806018Y-45596770D01*
X44834649Y-45568140D01*
X44865681Y-45538744D01*
X44893441Y-45512449D01*
X44893445Y-45512442D01*
X44894157Y-45511605D01*
X44908304Y-45494483D01*
X46942788Y-43460000D01*
X49660554Y-43460000D01*
X49680295Y-43673047D01*
X49680296Y-43673050D01*
X49738846Y-43878835D01*
X49738849Y-43878841D01*
X49797696Y-43997022D01*
X49834219Y-44070370D01*
X49963159Y-44241114D01*
X50121278Y-44385258D01*
X50121283Y-44385261D01*
X50121286Y-44385263D01*
X50303186Y-44497891D01*
X50303187Y-44497891D01*
X50303190Y-44497893D01*
X50502703Y-44575185D01*
X50713020Y-44614500D01*
X50713022Y-44614500D01*
X50926978Y-44614500D01*
X50926980Y-44614500D01*
X51137297Y-44575185D01*
X51336810Y-44497893D01*
X51518722Y-44385258D01*
X51676841Y-44241114D01*
X51805781Y-44070370D01*
X51901151Y-43878840D01*
X51901151Y-43878837D01*
X51901153Y-43878835D01*
X51959703Y-43673050D01*
X51959704Y-43673047D01*
X51979446Y-43460000D01*
X51979446Y-43459999D01*
X51959704Y-43246952D01*
X51959703Y-43246949D01*
X51901153Y-43041164D01*
X51901150Y-43041158D01*
X51865367Y-42969295D01*
X51805781Y-42849630D01*
X51676841Y-42678886D01*
X51518722Y-42534742D01*
X51518716Y-42534738D01*
X51518713Y-42534736D01*
X51336813Y-42422108D01*
X51336807Y-42422106D01*
X51137297Y-42344815D01*
X50926980Y-42305500D01*
X50713020Y-42305500D01*
X50502703Y-42344815D01*
X50443571Y-42367723D01*
X50303192Y-42422106D01*
X50303186Y-42422108D01*
X50121286Y-42534736D01*
X50121283Y-42534738D01*
X50121279Y-42534740D01*
X50121278Y-42534742D01*
X50024779Y-42622712D01*
X49963158Y-42678887D01*
X49834219Y-42849629D01*
X49738849Y-43041158D01*
X49738846Y-43041164D01*
X49680296Y-43246949D01*
X49680295Y-43246952D01*
X49660554Y-43459999D01*
X49660554Y-43460000D01*
X46942788Y-43460000D01*
X48291969Y-42110819D01*
X48353292Y-42077334D01*
X48379650Y-42074500D01*
X48386978Y-42074500D01*
X48386980Y-42074500D01*
X48597297Y-42035185D01*
X48796810Y-41957893D01*
X48978722Y-41845258D01*
X49136841Y-41701114D01*
X49265781Y-41530370D01*
X49361151Y-41338840D01*
X49361151Y-41338837D01*
X49361153Y-41338835D01*
X49419703Y-41133050D01*
X49419704Y-41133049D01*
X49419704Y-41133048D01*
X49439446Y-40920000D01*
X49419704Y-40706952D01*
X49411200Y-40677065D01*
X49361153Y-40501164D01*
X49361150Y-40501158D01*
X49339992Y-40458667D01*
X49265781Y-40309630D01*
X49136841Y-40138886D01*
X48978722Y-39994742D01*
X48978716Y-39994738D01*
X48978713Y-39994736D01*
X48796813Y-39882108D01*
X48796807Y-39882106D01*
X48597297Y-39804815D01*
X48386980Y-39765500D01*
X48173020Y-39765500D01*
X47962703Y-39804815D01*
X47836533Y-39853693D01*
X47763192Y-39882106D01*
X47763186Y-39882108D01*
X47581286Y-39994736D01*
X47581283Y-39994738D01*
X47581279Y-39994740D01*
X47581278Y-39994742D01*
X47534769Y-40037139D01*
X47471969Y-40067754D01*
X47451235Y-40069500D01*
X46981851Y-40069500D01*
X46914812Y-40049815D01*
X46894170Y-40033181D01*
X42886819Y-36025830D01*
X42853334Y-35964507D01*
X42850500Y-35938149D01*
X42850500Y-31728649D01*
X42870185Y-31661610D01*
X42886814Y-31640973D01*
X53757385Y-20770401D01*
X53761052Y-20767021D01*
X53803300Y-20731137D01*
X53852298Y-20666680D01*
X53903042Y-20603554D01*
X53903042Y-20603552D01*
X53903044Y-20603551D01*
X53903624Y-20602643D01*
X53914649Y-20584869D01*
X53915251Y-20583869D01*
X53915252Y-20583866D01*
X53915254Y-20583864D01*
X53949260Y-20510360D01*
X53985236Y-20437821D01*
X53985237Y-20437814D01*
X53985634Y-20436735D01*
X53992589Y-20416983D01*
X53992927Y-20415977D01*
X53992932Y-20415967D01*
X54010341Y-20336873D01*
X54029884Y-20258295D01*
X54029883Y-20258295D01*
X54029885Y-20258291D01*
X54030030Y-20257226D01*
X54032571Y-20236477D01*
X54032700Y-20235297D01*
X54032700Y-20154331D01*
X54034893Y-20073364D01*
X54034809Y-20072340D01*
X54032699Y-20050161D01*
X54032699Y-19526357D01*
X54052384Y-19459319D01*
X54069009Y-19438686D01*
X54220695Y-19287001D01*
X54350624Y-19101442D01*
X54405202Y-19057817D01*
X54474700Y-19050623D01*
X54537055Y-19082146D01*
X54553775Y-19101442D01*
X54683701Y-19286996D01*
X54683706Y-19287002D01*
X54850797Y-19454094D01*
X54852805Y-19455779D01*
X54853447Y-19456744D01*
X54854627Y-19457924D01*
X54854389Y-19458161D01*
X54891507Y-19513950D01*
X54897099Y-19550768D01*
X54897099Y-21879951D01*
X54877414Y-21946990D01*
X54860781Y-21967632D01*
X54747551Y-22080862D01*
X54617032Y-22267265D01*
X54617031Y-22267267D01*
X54520861Y-22473502D01*
X54520858Y-22473511D01*
X54461966Y-22693302D01*
X54461964Y-22693313D01*
X54442132Y-22919998D01*
X54442132Y-22920001D01*
X54461964Y-23146686D01*
X54461966Y-23146697D01*
X54520858Y-23366488D01*
X54520861Y-23366497D01*
X54617031Y-23572732D01*
X54617032Y-23572734D01*
X54747554Y-23759141D01*
X54908458Y-23920045D01*
X54908461Y-23920047D01*
X55094866Y-24050568D01*
X55301104Y-24146739D01*
X55520908Y-24205635D01*
X55682830Y-24219801D01*
X55747598Y-24225468D01*
X55747600Y-24225468D01*
X55747602Y-24225468D01*
X55804272Y-24220509D01*
X55974292Y-24205635D01*
X56194096Y-24146739D01*
X56400334Y-24050568D01*
X56586739Y-23920047D01*
X56747647Y-23759139D01*
X56878168Y-23572734D01*
X56974339Y-23366496D01*
X57033235Y-23146692D01*
X57053068Y-22920000D01*
X57033235Y-22693308D01*
X56974339Y-22473504D01*
X56878168Y-22267266D01*
X56747647Y-22080861D01*
X56634416Y-21967630D01*
X56600933Y-21906310D01*
X56598100Y-21879960D01*
X56598100Y-19500958D01*
X56617785Y-19433918D01*
X56634419Y-19413277D01*
X56760695Y-19287001D01*
X56890624Y-19101442D01*
X56945202Y-19057817D01*
X57014700Y-19050623D01*
X57077055Y-19082146D01*
X57093775Y-19101442D01*
X57223701Y-19286996D01*
X57223706Y-19287002D01*
X57390797Y-19454093D01*
X57390803Y-19454098D01*
X57536623Y-19556202D01*
X57580248Y-19610779D01*
X57589500Y-19657777D01*
X57589500Y-40088928D01*
X57569815Y-40155967D01*
X57564454Y-40163655D01*
X57454219Y-40309629D01*
X57358849Y-40501158D01*
X57358846Y-40501164D01*
X57300296Y-40706949D01*
X57300295Y-40706952D01*
X57293471Y-40780604D01*
X57267685Y-40845542D01*
X57210884Y-40886229D01*
X57141103Y-40889749D01*
X57080497Y-40854984D01*
X57048307Y-40792971D01*
X57046529Y-40780604D01*
X57039704Y-40706952D01*
X57039703Y-40706949D01*
X56981153Y-40501164D01*
X56981150Y-40501158D01*
X56959992Y-40458667D01*
X56885781Y-40309630D01*
X56756841Y-40138886D01*
X56756839Y-40138883D01*
X56689362Y-40077370D01*
X56653080Y-40017659D01*
X56648900Y-39985733D01*
X56648900Y-37040048D01*
X56668585Y-36973009D01*
X56685214Y-36952371D01*
X56798447Y-36839139D01*
X56928968Y-36652734D01*
X57025139Y-36446496D01*
X57084035Y-36226692D01*
X57103868Y-36000000D01*
X57084035Y-35773308D01*
X57025139Y-35553504D01*
X56928968Y-35347266D01*
X56798447Y-35160861D01*
X56798445Y-35160858D01*
X56685219Y-35047632D01*
X56651734Y-34986309D01*
X56648900Y-34959951D01*
X56648900Y-34069248D01*
X56668585Y-34002209D01*
X56685214Y-33981571D01*
X56747647Y-33919139D01*
X56878168Y-33732734D01*
X56974339Y-33526496D01*
X57033235Y-33306692D01*
X57051132Y-33102127D01*
X57053068Y-33080001D01*
X57053068Y-33079998D01*
X57037991Y-32907669D01*
X57033235Y-32853308D01*
X56974339Y-32633504D01*
X56878168Y-32427266D01*
X56747647Y-32240861D01*
X56747645Y-32240858D01*
X56586741Y-32079954D01*
X56400334Y-31949432D01*
X56400332Y-31949431D01*
X56194097Y-31853261D01*
X56194088Y-31853258D01*
X55974297Y-31794366D01*
X55974293Y-31794365D01*
X55974292Y-31794365D01*
X55974291Y-31794364D01*
X55974286Y-31794364D01*
X55747602Y-31774532D01*
X55747598Y-31774532D01*
X55520913Y-31794364D01*
X55520902Y-31794366D01*
X55301111Y-31853258D01*
X55301102Y-31853261D01*
X55094867Y-31949431D01*
X55094865Y-31949432D01*
X54908458Y-32079954D01*
X54747554Y-32240858D01*
X54617032Y-32427265D01*
X54617031Y-32427267D01*
X54520861Y-32633502D01*
X54520858Y-32633511D01*
X54461966Y-32853302D01*
X54461964Y-32853313D01*
X54442132Y-33079998D01*
X54442132Y-33080001D01*
X54461964Y-33306686D01*
X54461966Y-33306697D01*
X54520858Y-33526488D01*
X54520861Y-33526497D01*
X54617031Y-33732732D01*
X54617032Y-33732734D01*
X54747554Y-33919141D01*
X54911581Y-34083168D01*
X54945066Y-34144491D01*
X54947900Y-34170849D01*
X54947900Y-34959951D01*
X54928215Y-35026990D01*
X54911581Y-35047632D01*
X54798354Y-35160858D01*
X54667832Y-35347265D01*
X54667831Y-35347267D01*
X54571661Y-35553502D01*
X54571658Y-35553511D01*
X54512766Y-35773302D01*
X54512764Y-35773313D01*
X54492932Y-35999998D01*
X54492932Y-36000001D01*
X54512764Y-36226686D01*
X54512766Y-36226697D01*
X54571658Y-36446488D01*
X54571661Y-36446497D01*
X54667831Y-36652732D01*
X54667832Y-36652734D01*
X54798351Y-36839137D01*
X54798352Y-36839138D01*
X54798353Y-36839139D01*
X54911582Y-36952368D01*
X54945066Y-37013689D01*
X54947900Y-37040048D01*
X54947900Y-40223468D01*
X54928215Y-40290507D01*
X54922855Y-40298194D01*
X54914219Y-40309630D01*
X54818849Y-40501158D01*
X54818846Y-40501164D01*
X54760296Y-40706949D01*
X54760295Y-40706952D01*
X54753471Y-40780604D01*
X54727685Y-40845542D01*
X54670884Y-40886229D01*
X54601103Y-40889749D01*
X54540497Y-40854984D01*
X54508307Y-40792971D01*
X54506529Y-40780604D01*
X54499704Y-40706952D01*
X54499703Y-40706949D01*
X54441153Y-40501164D01*
X54441150Y-40501158D01*
X54419992Y-40458667D01*
X54345781Y-40309630D01*
X54216841Y-40138886D01*
X54058722Y-39994742D01*
X54058716Y-39994738D01*
X54058713Y-39994736D01*
X53876813Y-39882108D01*
X53876807Y-39882106D01*
X53677297Y-39804815D01*
X53466980Y-39765500D01*
X53253020Y-39765500D01*
X53042703Y-39804815D01*
X52916533Y-39853693D01*
X52843192Y-39882106D01*
X52843186Y-39882108D01*
X52661286Y-39994736D01*
X52661283Y-39994738D01*
X52661279Y-39994740D01*
X52661278Y-39994742D01*
X52503162Y-40138883D01*
X52503158Y-40138887D01*
X52374219Y-40309629D01*
X52278849Y-40501158D01*
X52278846Y-40501164D01*
X52220296Y-40706949D01*
X52220295Y-40706952D01*
X52200554Y-40919999D01*
X52200554Y-40920000D01*
X52220295Y-41133047D01*
X52220296Y-41133050D01*
X52278846Y-41338835D01*
X52278849Y-41338840D01*
X52374219Y-41530370D01*
X52458082Y-41641423D01*
X52484454Y-41676344D01*
X52509146Y-41741705D01*
X52509500Y-41751071D01*
X52509500Y-44148548D01*
X52489815Y-44215587D01*
X52473181Y-44236229D01*
X44250430Y-52458980D01*
X44246727Y-52462394D01*
X44204498Y-52498265D01*
X44155509Y-52562708D01*
X44104755Y-52625849D01*
X44104249Y-52626641D01*
X44093069Y-52644666D01*
X44092544Y-52645538D01*
X44058539Y-52719039D01*
X44022563Y-52791580D01*
X44022182Y-52792617D01*
X44015180Y-52812506D01*
X44014867Y-52813433D01*
X43997458Y-52892526D01*
X43977914Y-52971113D01*
X43977791Y-52972016D01*
X43975207Y-52993116D01*
X43975100Y-52994101D01*
X43975100Y-53075068D01*
X43972906Y-53156038D01*
X43972989Y-53157047D01*
X43975100Y-53179249D01*
X43975100Y-57850111D01*
X43974895Y-57855145D01*
X43970398Y-57910363D01*
X43981329Y-57990592D01*
X43990086Y-58071113D01*
X43990310Y-58072130D01*
X43995125Y-58092673D01*
X43995373Y-58093670D01*
X44023300Y-58169686D01*
X44049157Y-58246423D01*
X44049601Y-58247385D01*
X44058746Y-58266466D01*
X44059164Y-58267309D01*
X44102784Y-58335553D01*
X44144530Y-58404936D01*
X44145138Y-58405736D01*
X44158178Y-58422416D01*
X44158801Y-58423191D01*
X44216059Y-58480449D01*
X44271752Y-58539242D01*
X44272583Y-58539947D01*
X44289719Y-58554108D01*
X59262981Y-73527369D01*
X59296466Y-73588692D01*
X59299300Y-73615050D01*
X59299300Y-73872669D01*
X59299301Y-73872676D01*
X59305708Y-73932283D01*
X59356002Y-74067128D01*
X59356006Y-74067135D01*
X59442252Y-74182344D01*
X59442255Y-74182347D01*
X59557464Y-74268593D01*
X59557471Y-74268597D01*
X59692317Y-74318891D01*
X59699862Y-74320674D01*
X59699323Y-74322951D01*
X59753087Y-74345208D01*
X59792947Y-74402593D01*
X59799300Y-74441775D01*
X59799300Y-78398711D01*
X59799095Y-78403745D01*
X59794598Y-78458963D01*
X59805529Y-78539192D01*
X59814286Y-78619713D01*
X59814510Y-78620730D01*
X59819325Y-78641273D01*
X59819573Y-78642270D01*
X59847500Y-78718286D01*
X59873357Y-78795023D01*
X59873801Y-78795985D01*
X59882946Y-78815066D01*
X59883364Y-78815909D01*
X59883367Y-78815914D01*
X59883368Y-78815916D01*
X59918773Y-78871307D01*
X59926984Y-78884153D01*
X59968730Y-78953536D01*
X59969338Y-78954336D01*
X59982378Y-78971016D01*
X59983001Y-78971791D01*
X60040259Y-79029049D01*
X60095952Y-79087842D01*
X60096783Y-79088547D01*
X60113919Y-79102708D01*
X62358991Y-81347780D01*
X62362384Y-81351460D01*
X62380164Y-81372392D01*
X62398263Y-81393701D01*
X62398264Y-81393702D01*
X62426042Y-81414817D01*
X62462718Y-81442697D01*
X62525846Y-81493441D01*
X62525847Y-81493441D01*
X62525848Y-81493442D01*
X62526757Y-81494023D01*
X62544609Y-81505097D01*
X62545528Y-81505650D01*
X62545534Y-81505653D01*
X62545536Y-81505654D01*
X62619052Y-81539666D01*
X62691583Y-81575638D01*
X62692710Y-81576052D01*
X62712376Y-81582976D01*
X62713430Y-81583330D01*
X62713433Y-81583332D01*
X62752979Y-81592036D01*
X62792525Y-81600741D01*
X62871105Y-81620284D01*
X62872194Y-81620432D01*
X62892975Y-81622977D01*
X62894102Y-81623099D01*
X62894103Y-81623100D01*
X62894104Y-81623100D01*
X62975069Y-81623100D01*
X63056032Y-81625293D01*
X63056032Y-81625292D01*
X63056035Y-81625293D01*
X63057079Y-81625208D01*
X63079248Y-81623100D01*
X77572423Y-81623100D01*
X77639462Y-81642785D01*
X77685217Y-81695589D01*
X77692666Y-81722734D01*
X77693524Y-81722532D01*
X77695307Y-81730079D01*
X77745602Y-81864928D01*
X77745606Y-81864935D01*
X77831852Y-81980144D01*
X77831855Y-81980147D01*
X77947064Y-82066393D01*
X77947071Y-82066397D01*
X78081917Y-82116691D01*
X78081916Y-82116691D01*
X78088844Y-82117435D01*
X78141527Y-82123100D01*
X79937272Y-82123099D01*
X79996883Y-82116691D01*
X80131731Y-82066396D01*
X80246946Y-81980146D01*
X80333196Y-81864931D01*
X80383491Y-81730083D01*
X80389900Y-81670473D01*
X80389899Y-79874728D01*
X80383491Y-79815117D01*
X80371816Y-79783816D01*
X80333197Y-79680271D01*
X80333193Y-79680264D01*
X80246947Y-79565055D01*
X80246944Y-79565052D01*
X80131735Y-79478806D01*
X80131728Y-79478802D01*
X79996882Y-79428508D01*
X79989338Y-79426726D01*
X79989874Y-79424453D01*
X79936088Y-79402171D01*
X79896243Y-79344777D01*
X79889900Y-79305624D01*
X79889900Y-68882650D01*
X79909585Y-68815611D01*
X79926214Y-68794974D01*
X84135792Y-64585395D01*
X84139459Y-64582015D01*
X84181700Y-64546137D01*
X84230697Y-64481681D01*
X84281441Y-64418554D01*
X84281442Y-64418551D01*
X84282080Y-64417553D01*
X84293006Y-64399938D01*
X84293643Y-64398877D01*
X84293654Y-64398864D01*
X84327666Y-64325347D01*
X84363636Y-64252821D01*
X84363639Y-64252808D01*
X84364052Y-64251686D01*
X84370989Y-64231983D01*
X84371327Y-64230977D01*
X84371332Y-64230967D01*
X84388741Y-64151873D01*
X84408284Y-64073295D01*
X84408283Y-64073295D01*
X84408285Y-64073291D01*
X84408430Y-64072226D01*
X84410971Y-64051477D01*
X84411100Y-64050297D01*
X84411100Y-63969331D01*
X84413293Y-63888364D01*
X84413208Y-63887320D01*
X84411100Y-63865152D01*
X84411100Y-57233345D01*
X84430785Y-57166306D01*
X84469819Y-57127920D01*
X84538722Y-57085258D01*
X84696841Y-56941114D01*
X84825781Y-56770370D01*
X84921151Y-56578840D01*
X84955639Y-56457625D01*
X84992918Y-56398535D01*
X85056227Y-56368977D01*
X85125467Y-56378339D01*
X85178653Y-56423648D01*
X85198901Y-56490520D01*
X85198860Y-56494920D01*
X85197106Y-56559638D01*
X85197189Y-56560647D01*
X85199300Y-56582849D01*
X85199300Y-65865548D01*
X85179615Y-65932587D01*
X85162981Y-65953229D01*
X83544230Y-67571980D01*
X83540527Y-67575394D01*
X83498298Y-67611265D01*
X83449309Y-67675708D01*
X83398555Y-67738849D01*
X83398049Y-67739641D01*
X83386869Y-67757666D01*
X83386344Y-67758538D01*
X83352339Y-67832039D01*
X83316363Y-67904580D01*
X83315982Y-67905617D01*
X83308980Y-67925506D01*
X83308667Y-67926433D01*
X83291258Y-68005526D01*
X83271714Y-68084113D01*
X83271591Y-68085016D01*
X83269007Y-68106116D01*
X83268900Y-68107101D01*
X83268900Y-68188068D01*
X83266706Y-68269038D01*
X83266789Y-68270047D01*
X83268900Y-68292249D01*
X83268900Y-79661841D01*
X83249215Y-79728880D01*
X83232581Y-79749522D01*
X83080905Y-79901197D01*
X82945365Y-80094769D01*
X82945364Y-80094771D01*
X82845498Y-80308935D01*
X82845494Y-80308944D01*
X82784338Y-80537186D01*
X82784336Y-80537196D01*
X82763741Y-80772599D01*
X82763741Y-80772600D01*
X82784336Y-81008003D01*
X82784338Y-81008013D01*
X82845494Y-81236255D01*
X82845496Y-81236259D01*
X82845497Y-81236263D01*
X82849400Y-81244632D01*
X82945365Y-81450430D01*
X82945367Y-81450434D01*
X83035000Y-81578442D01*
X83080905Y-81644001D01*
X83247999Y-81811095D01*
X83344784Y-81878864D01*
X83441565Y-81946632D01*
X83441567Y-81946633D01*
X83441570Y-81946635D01*
X83655737Y-82046503D01*
X83883992Y-82107663D01*
X84060434Y-82123100D01*
X84119399Y-82128259D01*
X84119400Y-82128259D01*
X84119401Y-82128259D01*
X84178366Y-82123100D01*
X84354808Y-82107663D01*
X84583063Y-82046503D01*
X84797230Y-81946635D01*
X84990801Y-81811095D01*
X85157895Y-81644001D01*
X85287824Y-81458442D01*
X85342402Y-81414817D01*
X85411900Y-81407623D01*
X85474255Y-81439146D01*
X85490975Y-81458442D01*
X85620900Y-81643995D01*
X85620905Y-81644001D01*
X85787999Y-81811095D01*
X85884784Y-81878864D01*
X85981565Y-81946632D01*
X85981567Y-81946633D01*
X85981570Y-81946635D01*
X86195737Y-82046503D01*
X86423992Y-82107663D01*
X86600434Y-82123100D01*
X86659399Y-82128259D01*
X86659400Y-82128259D01*
X86659401Y-82128259D01*
X86718366Y-82123100D01*
X86894808Y-82107663D01*
X87123063Y-82046503D01*
X87337230Y-81946635D01*
X87530801Y-81811095D01*
X87697895Y-81644001D01*
X87827824Y-81458442D01*
X87882402Y-81414817D01*
X87951900Y-81407623D01*
X88014255Y-81439146D01*
X88030975Y-81458442D01*
X88160900Y-81643995D01*
X88160905Y-81644001D01*
X88327999Y-81811095D01*
X88424784Y-81878864D01*
X88521565Y-81946632D01*
X88521567Y-81946633D01*
X88521570Y-81946635D01*
X88735737Y-82046503D01*
X88963992Y-82107663D01*
X89140434Y-82123100D01*
X89199399Y-82128259D01*
X89199400Y-82128259D01*
X89199401Y-82128259D01*
X89258366Y-82123100D01*
X89434808Y-82107663D01*
X89663063Y-82046503D01*
X89877230Y-81946635D01*
X90070801Y-81811095D01*
X90237895Y-81644001D01*
X90367824Y-81458442D01*
X90422402Y-81414817D01*
X90491900Y-81407623D01*
X90554255Y-81439146D01*
X90570975Y-81458442D01*
X90700900Y-81643995D01*
X90700905Y-81644001D01*
X90867999Y-81811095D01*
X90964784Y-81878864D01*
X91061565Y-81946632D01*
X91061567Y-81946633D01*
X91061570Y-81946635D01*
X91275737Y-82046503D01*
X91503992Y-82107663D01*
X91680434Y-82123100D01*
X91739399Y-82128259D01*
X91739400Y-82128259D01*
X91739401Y-82128259D01*
X91798366Y-82123100D01*
X91974808Y-82107663D01*
X92203063Y-82046503D01*
X92417230Y-81946635D01*
X92610801Y-81811095D01*
X92777895Y-81644001D01*
X92907824Y-81458442D01*
X92962402Y-81414817D01*
X93031900Y-81407623D01*
X93094255Y-81439146D01*
X93110975Y-81458442D01*
X93240900Y-81643995D01*
X93240905Y-81644001D01*
X93407999Y-81811095D01*
X93504784Y-81878864D01*
X93601565Y-81946632D01*
X93601567Y-81946633D01*
X93601570Y-81946635D01*
X93815737Y-82046503D01*
X94043992Y-82107663D01*
X94220434Y-82123100D01*
X94279399Y-82128259D01*
X94279400Y-82128259D01*
X94279401Y-82128259D01*
X94338366Y-82123100D01*
X94514808Y-82107663D01*
X94743063Y-82046503D01*
X94957230Y-81946635D01*
X95150801Y-81811095D01*
X95317895Y-81644001D01*
X95447824Y-81458442D01*
X95502402Y-81414817D01*
X95571900Y-81407623D01*
X95634255Y-81439146D01*
X95650975Y-81458442D01*
X95780900Y-81643995D01*
X95780905Y-81644001D01*
X95947999Y-81811095D01*
X96044784Y-81878864D01*
X96141565Y-81946632D01*
X96141567Y-81946633D01*
X96141570Y-81946635D01*
X96355737Y-82046503D01*
X96583992Y-82107663D01*
X96760434Y-82123100D01*
X96819399Y-82128259D01*
X96819400Y-82128259D01*
X96819401Y-82128259D01*
X96878366Y-82123100D01*
X97054808Y-82107663D01*
X97283063Y-82046503D01*
X97497230Y-81946635D01*
X97690801Y-81811095D01*
X97857895Y-81644001D01*
X97993435Y-81450430D01*
X98093303Y-81236263D01*
X98154463Y-81008008D01*
X98175059Y-80772600D01*
X98154463Y-80537192D01*
X98093303Y-80308937D01*
X97993435Y-80094771D01*
X97987825Y-80086758D01*
X97857894Y-79901197D01*
X97690802Y-79734106D01*
X97690795Y-79734101D01*
X97497234Y-79598567D01*
X97497230Y-79598565D01*
X97497230Y-79598564D01*
X97283063Y-79498697D01*
X97283059Y-79498696D01*
X97283055Y-79498694D01*
X97054813Y-79437538D01*
X97054803Y-79437536D01*
X96819401Y-79416941D01*
X96819399Y-79416941D01*
X96583996Y-79437536D01*
X96583986Y-79437538D01*
X96355744Y-79498694D01*
X96355735Y-79498698D01*
X96141571Y-79598564D01*
X96141569Y-79598565D01*
X95947997Y-79734105D01*
X95780905Y-79901197D01*
X95650975Y-80086758D01*
X95596398Y-80130383D01*
X95526900Y-80137577D01*
X95464545Y-80106054D01*
X95447825Y-80086758D01*
X95317894Y-79901197D01*
X95150802Y-79734106D01*
X95150795Y-79734101D01*
X94957234Y-79598567D01*
X94957230Y-79598565D01*
X94957230Y-79598564D01*
X94743063Y-79498697D01*
X94743059Y-79498696D01*
X94743055Y-79498694D01*
X94514813Y-79437538D01*
X94514803Y-79437536D01*
X94279401Y-79416941D01*
X94279399Y-79416941D01*
X94043996Y-79437536D01*
X94043986Y-79437538D01*
X93815744Y-79498694D01*
X93815735Y-79498698D01*
X93601571Y-79598564D01*
X93601569Y-79598565D01*
X93407997Y-79734105D01*
X93240908Y-79901194D01*
X93110974Y-80086760D01*
X93056397Y-80130384D01*
X92986898Y-80137577D01*
X92924544Y-80106055D01*
X92907829Y-80086764D01*
X92782076Y-79907170D01*
X92777893Y-79901196D01*
X92610802Y-79734106D01*
X92610795Y-79734101D01*
X92417234Y-79598567D01*
X92417230Y-79598565D01*
X92417230Y-79598564D01*
X92203063Y-79498697D01*
X92203059Y-79498696D01*
X92203055Y-79498694D01*
X91974813Y-79437538D01*
X91974803Y-79437536D01*
X91739401Y-79416941D01*
X91739399Y-79416941D01*
X91503996Y-79437536D01*
X91503986Y-79437538D01*
X91275744Y-79498694D01*
X91275735Y-79498698D01*
X91061571Y-79598564D01*
X91061569Y-79598565D01*
X90867997Y-79734105D01*
X90700905Y-79901197D01*
X90570975Y-80086758D01*
X90516398Y-80130383D01*
X90446900Y-80137577D01*
X90384545Y-80106054D01*
X90367825Y-80086758D01*
X90237894Y-79901197D01*
X90070802Y-79734106D01*
X90070795Y-79734101D01*
X89877234Y-79598567D01*
X89877230Y-79598565D01*
X89877230Y-79598564D01*
X89663063Y-79498697D01*
X89663059Y-79498696D01*
X89663055Y-79498694D01*
X89434813Y-79437538D01*
X89434803Y-79437536D01*
X89199401Y-79416941D01*
X89199399Y-79416941D01*
X88963996Y-79437536D01*
X88963986Y-79437538D01*
X88735744Y-79498694D01*
X88735735Y-79498698D01*
X88521571Y-79598564D01*
X88521569Y-79598565D01*
X88327997Y-79734105D01*
X88160908Y-79901194D01*
X88030974Y-80086760D01*
X87976397Y-80130384D01*
X87906898Y-80137577D01*
X87844544Y-80106055D01*
X87827829Y-80086764D01*
X87702076Y-79907170D01*
X87697893Y-79901196D01*
X87546219Y-79749522D01*
X87512734Y-79688199D01*
X87509900Y-79661841D01*
X87509900Y-70559049D01*
X87529585Y-70492010D01*
X87546214Y-70471373D01*
X89190385Y-68827201D01*
X89194054Y-68823819D01*
X89236300Y-68787937D01*
X89285298Y-68723480D01*
X89336042Y-68660354D01*
X89336050Y-68660337D01*
X89336662Y-68659382D01*
X89347600Y-68641748D01*
X89348244Y-68640676D01*
X89348254Y-68640664D01*
X89382252Y-68567177D01*
X89418237Y-68494621D01*
X89418239Y-68494612D01*
X89418653Y-68493483D01*
X89425554Y-68473886D01*
X89425927Y-68472777D01*
X89425932Y-68472767D01*
X89443339Y-68393683D01*
X89462884Y-68315094D01*
X89462884Y-68315092D01*
X89463033Y-68314000D01*
X89465571Y-68293277D01*
X89465700Y-68292097D01*
X89465700Y-68211130D01*
X89467893Y-68130163D01*
X89467808Y-68129120D01*
X89465700Y-68106952D01*
X89465700Y-57249072D01*
X89485385Y-57182033D01*
X89524422Y-57143645D01*
X89618722Y-57085258D01*
X89776841Y-56941114D01*
X89905781Y-56770370D01*
X90001151Y-56578840D01*
X90001151Y-56578837D01*
X90001153Y-56578835D01*
X90035639Y-56457628D01*
X90059704Y-56373048D01*
X90066529Y-56299394D01*
X90092315Y-56234457D01*
X90149116Y-56193770D01*
X90218897Y-56190250D01*
X90279503Y-56225015D01*
X90311693Y-56287028D01*
X90313471Y-56299395D01*
X90320295Y-56373047D01*
X90320296Y-56373050D01*
X90378846Y-56578835D01*
X90378849Y-56578840D01*
X90474219Y-56770370D01*
X90603159Y-56941114D01*
X90761278Y-57085258D01*
X90761283Y-57085261D01*
X90761286Y-57085263D01*
X90943186Y-57197891D01*
X90943187Y-57197891D01*
X90943190Y-57197893D01*
X91142703Y-57275185D01*
X91353020Y-57314500D01*
X91353022Y-57314500D01*
X91566978Y-57314500D01*
X91566980Y-57314500D01*
X91777297Y-57275185D01*
X91976810Y-57197893D01*
X92158722Y-57085258D01*
X92316841Y-56941114D01*
X92445781Y-56770370D01*
X92541151Y-56578840D01*
X92541151Y-56578837D01*
X92541153Y-56578835D01*
X92575639Y-56457628D01*
X92599704Y-56373048D01*
X92606529Y-56299394D01*
X92632315Y-56234457D01*
X92689116Y-56193770D01*
X92758897Y-56190250D01*
X92819503Y-56225015D01*
X92851693Y-56287028D01*
X92853471Y-56299395D01*
X92860295Y-56373047D01*
X92860296Y-56373050D01*
X92918846Y-56578835D01*
X92918849Y-56578840D01*
X93014219Y-56770370D01*
X93143159Y-56941114D01*
X93301278Y-57085258D01*
X93301283Y-57085261D01*
X93301286Y-57085263D01*
X93483186Y-57197891D01*
X93483187Y-57197891D01*
X93483190Y-57197893D01*
X93682703Y-57275185D01*
X93893020Y-57314500D01*
X93893022Y-57314500D01*
X94106978Y-57314500D01*
X94106980Y-57314500D01*
X94317297Y-57275185D01*
X94516810Y-57197893D01*
X94698722Y-57085258D01*
X94856841Y-56941114D01*
X94985781Y-56770370D01*
X95081151Y-56578840D01*
X95081151Y-56578837D01*
X95081153Y-56578835D01*
X95115639Y-56457628D01*
X95139704Y-56373048D01*
X95159446Y-56160000D01*
X95152546Y-56085543D01*
X95139704Y-55946952D01*
X95139703Y-55946949D01*
X95081153Y-55741164D01*
X95081150Y-55741158D01*
X95059992Y-55698667D01*
X94985781Y-55549630D01*
X94856841Y-55378886D01*
X94698722Y-55234742D01*
X94698716Y-55234738D01*
X94698713Y-55234736D01*
X94511936Y-55119089D01*
X94512736Y-55117796D01*
X94466821Y-55075218D01*
X94449406Y-55007553D01*
X94451448Y-54988944D01*
X94458518Y-54951126D01*
X94461452Y-54881319D01*
X94451216Y-54780119D01*
X94464055Y-54711443D01*
X94511987Y-54660607D01*
X94515448Y-54658735D01*
X94516804Y-54657895D01*
X94516810Y-54657893D01*
X94698722Y-54545258D01*
X94856841Y-54401114D01*
X94985781Y-54230370D01*
X95081151Y-54038840D01*
X95081151Y-54038837D01*
X95081153Y-54038835D01*
X95127995Y-53874201D01*
X95139704Y-53833048D01*
X95159446Y-53620000D01*
X95139704Y-53406952D01*
X95131200Y-53377065D01*
X95081153Y-53201164D01*
X95081150Y-53201158D01*
X95070241Y-53179249D01*
X94985781Y-53009630D01*
X94856841Y-52838886D01*
X94856839Y-52838883D01*
X94782019Y-52770676D01*
X94745737Y-52710965D01*
X94747498Y-52641117D01*
X94754269Y-52624348D01*
X94755455Y-52621931D01*
X94755467Y-52621912D01*
X94781725Y-52557164D01*
X94781726Y-52557161D01*
X94816271Y-52417489D01*
X94853803Y-52042161D01*
X94880062Y-51977413D01*
X94937157Y-51937140D01*
X94977189Y-51930500D01*
X109025113Y-51930500D01*
X109030148Y-51930705D01*
X109049762Y-51932301D01*
X109085367Y-51935201D01*
X109165592Y-51924270D01*
X109246110Y-51915514D01*
X109246114Y-51915512D01*
X109247236Y-51915266D01*
X109267507Y-51910515D01*
X109268662Y-51910228D01*
X109268662Y-51910227D01*
X109268668Y-51910227D01*
X109344686Y-51882299D01*
X109421421Y-51856444D01*
X109421427Y-51856439D01*
X109422551Y-51855920D01*
X109441323Y-51846923D01*
X109442312Y-51846433D01*
X109442316Y-51846432D01*
X109510553Y-51802815D01*
X109579936Y-51761070D01*
X109579941Y-51761065D01*
X109580869Y-51760360D01*
X109597276Y-51747533D01*
X109598186Y-51746802D01*
X109598186Y-51746801D01*
X109598189Y-51746800D01*
X109626818Y-51718170D01*
X109655449Y-51689540D01*
X109686481Y-51660144D01*
X109714241Y-51633849D01*
X109714245Y-51633842D01*
X109714957Y-51633005D01*
X109729104Y-51615883D01*
X111575192Y-49769795D01*
X111578859Y-49766415D01*
X111621100Y-49730537D01*
X111645594Y-49698314D01*
X111670090Y-49666092D01*
X111688505Y-49643181D01*
X111720842Y-49602954D01*
X111720845Y-49602947D01*
X111721451Y-49601999D01*
X111732449Y-49584269D01*
X111733051Y-49583269D01*
X111733052Y-49583266D01*
X111733054Y-49583264D01*
X111767060Y-49509760D01*
X111803036Y-49437221D01*
X111803037Y-49437214D01*
X111803434Y-49436135D01*
X111810389Y-49416383D01*
X111810727Y-49415377D01*
X111810732Y-49415367D01*
X111828141Y-49336273D01*
X111847684Y-49257695D01*
X111847683Y-49257695D01*
X111847685Y-49257691D01*
X111847830Y-49256626D01*
X111850371Y-49235877D01*
X111850500Y-49234697D01*
X111850500Y-49153731D01*
X111852693Y-49072764D01*
X111852608Y-49071720D01*
X111850500Y-49049552D01*
X111850500Y-27070687D01*
X111850705Y-27065652D01*
X111855201Y-27010436D01*
X111854816Y-27007613D01*
X111844270Y-26930207D01*
X111835514Y-26849690D01*
X111835513Y-26849688D01*
X111835513Y-26849684D01*
X111835280Y-26848626D01*
X111830497Y-26828221D01*
X111830227Y-26827132D01*
X111802299Y-26751113D01*
X111802299Y-26751112D01*
X111776444Y-26674379D01*
X111776441Y-26674375D01*
X111776441Y-26674373D01*
X111776006Y-26673431D01*
X111766895Y-26654418D01*
X111766433Y-26653487D01*
X111766432Y-26653484D01*
X111722815Y-26585246D01*
X111681070Y-26515864D01*
X111681069Y-26515863D01*
X111681068Y-26515861D01*
X111680457Y-26515058D01*
X111667493Y-26498474D01*
X111666804Y-26497618D01*
X111666800Y-26497611D01*
X111609539Y-26440350D01*
X111553849Y-26381559D01*
X111553088Y-26380912D01*
X111535881Y-26366692D01*
X105565454Y-20396264D01*
X105565425Y-20396237D01*
X105506061Y-20336873D01*
X105371808Y-20202619D01*
X105368405Y-20198927D01*
X105332536Y-20156699D01*
X105332535Y-20156697D01*
X105308156Y-20138165D01*
X105301830Y-20132642D01*
X97632843Y-12463655D01*
X89649207Y-4480018D01*
X89645804Y-4476326D01*
X89609936Y-4434099D01*
X89545491Y-4385109D01*
X89482359Y-4334362D01*
X89482358Y-4334361D01*
X89482354Y-4334358D01*
X89482348Y-4334355D01*
X89481454Y-4333783D01*
X89463619Y-4322720D01*
X89462664Y-4322146D01*
X89389160Y-4288139D01*
X89316627Y-4252166D01*
X89315581Y-4251782D01*
X89295760Y-4244802D01*
X89294764Y-4244466D01*
X89215673Y-4227058D01*
X89137094Y-4207515D01*
X89136184Y-4207391D01*
X89115106Y-4204810D01*
X89114101Y-4204701D01*
X89114097Y-4204700D01*
X89114092Y-4204700D01*
X89033131Y-4204700D01*
X88952164Y-4202506D01*
X88951120Y-4202591D01*
X88928952Y-4204700D01*
X64941887Y-4204700D01*
X64936852Y-4204495D01*
X64881635Y-4199998D01*
X64881628Y-4199999D01*
X64801407Y-4210929D01*
X64720892Y-4219685D01*
X64719931Y-4219897D01*
X64699271Y-4224738D01*
X64698334Y-4224971D01*
X64622313Y-4252900D01*
X64545584Y-4278753D01*
X64544720Y-4279153D01*
X64525521Y-4288352D01*
X64524681Y-4288769D01*
X64456459Y-4332376D01*
X64387068Y-4374127D01*
X64386289Y-4374719D01*
X64369564Y-4387795D01*
X64368813Y-4388398D01*
X64311569Y-4445641D01*
X64252756Y-4501353D01*
X64252146Y-4502071D01*
X64237891Y-4519319D01*
X58144028Y-10613181D01*
X58082705Y-10646666D01*
X58056347Y-10649500D01*
X57062129Y-10649500D01*
X57062123Y-10649501D01*
X57002516Y-10655908D01*
X56867671Y-10706202D01*
X56867664Y-10706206D01*
X56752455Y-10792452D01*
X56752452Y-10792455D01*
X56666206Y-10907664D01*
X56666202Y-10907671D01*
X56615908Y-11042517D01*
X56609501Y-11102116D01*
X56609500Y-11102135D01*
X56609500Y-12897870D01*
X56609501Y-12897876D01*
X56615908Y-12957483D01*
X56666202Y-13092328D01*
X56666206Y-13092335D01*
X56752452Y-13207544D01*
X56752455Y-13207547D01*
X56867664Y-13293793D01*
X56867671Y-13293797D01*
X57002517Y-13344091D01*
X57002516Y-13344091D01*
X57009444Y-13344835D01*
X57062127Y-13350500D01*
X58857872Y-13350499D01*
X58917483Y-13344091D01*
X59052331Y-13293796D01*
X59167546Y-13207546D01*
X59253796Y-13092331D01*
X59304091Y-12957483D01*
X59310500Y-12897873D01*
X59310499Y-11903649D01*
X59330183Y-11836611D01*
X59346813Y-11815974D01*
X65220769Y-5942019D01*
X65282093Y-5908534D01*
X65308451Y-5905700D01*
X88617949Y-5905700D01*
X88684988Y-5925385D01*
X88705630Y-5942019D01*
X102479230Y-19715619D01*
X102512715Y-19776942D01*
X102507731Y-19846634D01*
X102465859Y-19902567D01*
X102400395Y-19926984D01*
X102391549Y-19927300D01*
X77196887Y-19927300D01*
X77191852Y-19927095D01*
X77136635Y-19922598D01*
X77136628Y-19922599D01*
X77056407Y-19933529D01*
X76975892Y-19942285D01*
X76974931Y-19942497D01*
X76954271Y-19947338D01*
X76953334Y-19947571D01*
X76877313Y-19975500D01*
X76800584Y-20001353D01*
X76799720Y-20001753D01*
X76780504Y-20010960D01*
X76779685Y-20011366D01*
X76711446Y-20054984D01*
X76642059Y-20096733D01*
X76641294Y-20097315D01*
X76624591Y-20110372D01*
X76623812Y-20110999D01*
X76566550Y-20168259D01*
X76507756Y-20223953D01*
X76507122Y-20224699D01*
X76492893Y-20241916D01*
X71349428Y-25385381D01*
X71288105Y-25418866D01*
X71261747Y-25421700D01*
X70267529Y-25421700D01*
X70267523Y-25421701D01*
X70207916Y-25428108D01*
X70073071Y-25478402D01*
X70073064Y-25478406D01*
X69957855Y-25564652D01*
X69957852Y-25564655D01*
X69871606Y-25679864D01*
X69871602Y-25679871D01*
X69821308Y-25814717D01*
X69814901Y-25874316D01*
X69814900Y-25874335D01*
X69814900Y-27670070D01*
X69814901Y-27670076D01*
X69821308Y-27729683D01*
X69871602Y-27864528D01*
X69871606Y-27864535D01*
X69957852Y-27979744D01*
X69957855Y-27979747D01*
X70073064Y-28065993D01*
X70073071Y-28065997D01*
X70207917Y-28116291D01*
X70207916Y-28116291D01*
X70214844Y-28117035D01*
X70267527Y-28122700D01*
X72063272Y-28122699D01*
X72122883Y-28116291D01*
X72257731Y-28065996D01*
X72372946Y-27979746D01*
X72459196Y-27864531D01*
X72509491Y-27729683D01*
X72515900Y-27670073D01*
X72515899Y-26675849D01*
X72535583Y-26608811D01*
X72552213Y-26588174D01*
X77475769Y-21664618D01*
X77537092Y-21631134D01*
X77563450Y-21628300D01*
X104340549Y-21628300D01*
X104407588Y-21647985D01*
X104428230Y-21664619D01*
X110113181Y-27349569D01*
X110146666Y-27410892D01*
X110149500Y-27437250D01*
X110149499Y-48738548D01*
X110129814Y-48805587D01*
X110113180Y-48826229D01*
X108746230Y-50193181D01*
X108684907Y-50226666D01*
X108658549Y-50229500D01*
X94932509Y-50229500D01*
X94865470Y-50209815D01*
X94832314Y-50178555D01*
X94816455Y-50156804D01*
X94816453Y-50156803D01*
X94816453Y-50156802D01*
X94702368Y-50069132D01*
X94643201Y-50035849D01*
X94641470Y-50034875D01*
X94580740Y-50011349D01*
X94507303Y-49982899D01*
X91314325Y-49246058D01*
X88189429Y-48524928D01*
X88185345Y-48524093D01*
X88177179Y-48522424D01*
X88169066Y-48520868D01*
X88165011Y-48520091D01*
X88165008Y-48520090D01*
X88021215Y-48515148D01*
X87955099Y-48522346D01*
X87954286Y-48522390D01*
X87951756Y-48522709D01*
X87812393Y-48558479D01*
X87812391Y-48558480D01*
X87688753Y-48632064D01*
X87688751Y-48632065D01*
X87688752Y-48632065D01*
X87634409Y-48675978D01*
X87634405Y-48675981D01*
X87634404Y-48675981D01*
X87634402Y-48675983D01*
X87634400Y-48675986D01*
X87536506Y-48781416D01*
X83219093Y-55017680D01*
X83164185Y-55120659D01*
X83143403Y-55173582D01*
X83143396Y-55173601D01*
X83132110Y-55216289D01*
X83095943Y-55276069D01*
X83095769Y-55276228D01*
X82983158Y-55378886D01*
X82854219Y-55549629D01*
X82758849Y-55741158D01*
X82758846Y-55741164D01*
X82700296Y-55946949D01*
X82700295Y-55946952D01*
X82693471Y-56020604D01*
X82667685Y-56085542D01*
X82610884Y-56126229D01*
X82541103Y-56129749D01*
X82480497Y-56094984D01*
X82448307Y-56032971D01*
X82446529Y-56020604D01*
X82439704Y-55946952D01*
X82439703Y-55946949D01*
X82381153Y-55741164D01*
X82381150Y-55741158D01*
X82359992Y-55698667D01*
X82285781Y-55549630D01*
X82156841Y-55378886D01*
X81998722Y-55234742D01*
X81998716Y-55234738D01*
X81998713Y-55234736D01*
X81816813Y-55122108D01*
X81816807Y-55122106D01*
X81813067Y-55120657D01*
X81617297Y-55044815D01*
X81406980Y-55005500D01*
X81193020Y-55005500D01*
X80982703Y-55044815D01*
X80904224Y-55075218D01*
X80783192Y-55122106D01*
X80783186Y-55122108D01*
X80601286Y-55234736D01*
X80601283Y-55234738D01*
X80601279Y-55234740D01*
X80601278Y-55234742D01*
X80555770Y-55276228D01*
X80443158Y-55378887D01*
X80314217Y-55549631D01*
X80275077Y-55628237D01*
X80227574Y-55679475D01*
X80159911Y-55696896D01*
X80152636Y-55696437D01*
X80033435Y-55685392D01*
X80033418Y-55685391D01*
X79963654Y-55688911D01*
X79963648Y-55688912D01*
X79963649Y-55688912D01*
X79922838Y-55696896D01*
X79921018Y-55697252D01*
X79851447Y-55690803D01*
X79796406Y-55647765D01*
X79786216Y-55630835D01*
X79745781Y-55549630D01*
X79616841Y-55378886D01*
X79458722Y-55234742D01*
X79458716Y-55234738D01*
X79458713Y-55234736D01*
X79276813Y-55122108D01*
X79276807Y-55122106D01*
X79273067Y-55120657D01*
X79077297Y-55044815D01*
X78866980Y-55005500D01*
X78653020Y-55005500D01*
X78442703Y-55044815D01*
X78364224Y-55075218D01*
X78243192Y-55122106D01*
X78243186Y-55122108D01*
X78061286Y-55234736D01*
X78061283Y-55234738D01*
X78061279Y-55234740D01*
X78061278Y-55234742D01*
X78015770Y-55276228D01*
X77903158Y-55378887D01*
X77774219Y-55549629D01*
X77678849Y-55741158D01*
X77678846Y-55741164D01*
X77620296Y-55946949D01*
X77620296Y-55946951D01*
X77613470Y-56020604D01*
X77587683Y-56085541D01*
X77530881Y-56126228D01*
X77461100Y-56129747D01*
X77400495Y-56094980D01*
X77368306Y-56032967D01*
X77366529Y-56020606D01*
X77359704Y-55946952D01*
X77351200Y-55917065D01*
X77301153Y-55741164D01*
X77301150Y-55741158D01*
X77279992Y-55698667D01*
X77205781Y-55549630D01*
X77076841Y-55378886D01*
X76918722Y-55234742D01*
X76918716Y-55234738D01*
X76918713Y-55234736D01*
X76736813Y-55122108D01*
X76736807Y-55122106D01*
X76733067Y-55120657D01*
X76537297Y-55044815D01*
X76326980Y-55005500D01*
X76113020Y-55005500D01*
X75902703Y-55044815D01*
X75824224Y-55075218D01*
X75703192Y-55122106D01*
X75703186Y-55122108D01*
X75521286Y-55234736D01*
X75521283Y-55234738D01*
X75521279Y-55234740D01*
X75521278Y-55234742D01*
X75475770Y-55276228D01*
X75363158Y-55378887D01*
X75234219Y-55549629D01*
X75138849Y-55741158D01*
X75138846Y-55741164D01*
X75080296Y-55946949D01*
X75080296Y-55946951D01*
X75073470Y-56020606D01*
X75047683Y-56085543D01*
X74990882Y-56126230D01*
X74921101Y-56129749D01*
X74860495Y-56094982D01*
X74828306Y-56032969D01*
X74826530Y-56020619D01*
X74819704Y-55946952D01*
X74811200Y-55917065D01*
X74761153Y-55741164D01*
X74761150Y-55741158D01*
X74739992Y-55698667D01*
X74665781Y-55549630D01*
X74536841Y-55378886D01*
X74378722Y-55234742D01*
X74378716Y-55234738D01*
X74378713Y-55234736D01*
X74196813Y-55122108D01*
X74196807Y-55122106D01*
X74193067Y-55120657D01*
X73997297Y-55044815D01*
X73786980Y-55005500D01*
X73573020Y-55005500D01*
X73362703Y-55044815D01*
X73284224Y-55075218D01*
X73163192Y-55122106D01*
X73163186Y-55122108D01*
X72981286Y-55234736D01*
X72981283Y-55234738D01*
X72981279Y-55234740D01*
X72981278Y-55234742D01*
X72935770Y-55276228D01*
X72823158Y-55378887D01*
X72694219Y-55549629D01*
X72598849Y-55741158D01*
X72598846Y-55741164D01*
X72540296Y-55946949D01*
X72540295Y-55946952D01*
X72533471Y-56020604D01*
X72507685Y-56085542D01*
X72450884Y-56126229D01*
X72381103Y-56129749D01*
X72320497Y-56094984D01*
X72288307Y-56032971D01*
X72286529Y-56020604D01*
X72279704Y-55946952D01*
X72279703Y-55946949D01*
X72221153Y-55741164D01*
X72221150Y-55741158D01*
X72199992Y-55698667D01*
X72125781Y-55549630D01*
X71996841Y-55378886D01*
X71838722Y-55234742D01*
X71838716Y-55234738D01*
X71838713Y-55234736D01*
X71656813Y-55122108D01*
X71656807Y-55122106D01*
X71653067Y-55120657D01*
X71457297Y-55044815D01*
X71246980Y-55005500D01*
X71033020Y-55005500D01*
X70822703Y-55044815D01*
X70744224Y-55075218D01*
X70623192Y-55122106D01*
X70623186Y-55122108D01*
X70441286Y-55234736D01*
X70441283Y-55234738D01*
X70441279Y-55234740D01*
X70441278Y-55234742D01*
X70395770Y-55276228D01*
X70283158Y-55378887D01*
X70154219Y-55549629D01*
X70058849Y-55741158D01*
X70058846Y-55741164D01*
X70000296Y-55946949D01*
X70000295Y-55946952D01*
X69993471Y-56020604D01*
X69967685Y-56085542D01*
X69910884Y-56126229D01*
X69841103Y-56129749D01*
X69780497Y-56094984D01*
X69748307Y-56032971D01*
X69746529Y-56020604D01*
X69739704Y-55946952D01*
X69739703Y-55946949D01*
X69681153Y-55741164D01*
X69681150Y-55741158D01*
X69659992Y-55698667D01*
X69585781Y-55549630D01*
X69456841Y-55378886D01*
X69298722Y-55234742D01*
X69298716Y-55234738D01*
X69298713Y-55234736D01*
X69116813Y-55122108D01*
X69116807Y-55122106D01*
X69113067Y-55120657D01*
X68917297Y-55044815D01*
X68706980Y-55005500D01*
X68493020Y-55005500D01*
X68282703Y-55044815D01*
X68204224Y-55075218D01*
X68083192Y-55122106D01*
X68083186Y-55122108D01*
X67901286Y-55234736D01*
X67901283Y-55234738D01*
X67901279Y-55234740D01*
X67901278Y-55234742D01*
X67855770Y-55276228D01*
X67743158Y-55378887D01*
X67614219Y-55549629D01*
X67518849Y-55741158D01*
X67518846Y-55741164D01*
X67460296Y-55946949D01*
X67460295Y-55946952D01*
X67453471Y-56020604D01*
X67427685Y-56085542D01*
X67370884Y-56126229D01*
X67301103Y-56129749D01*
X67240497Y-56094984D01*
X67208307Y-56032971D01*
X67206529Y-56020604D01*
X67199704Y-55946952D01*
X67199703Y-55946949D01*
X67141153Y-55741164D01*
X67141150Y-55741158D01*
X67119992Y-55698667D01*
X67045781Y-55549630D01*
X66916841Y-55378886D01*
X66758722Y-55234742D01*
X66758716Y-55234738D01*
X66758713Y-55234736D01*
X66576813Y-55122108D01*
X66576807Y-55122106D01*
X66573067Y-55120657D01*
X66377297Y-55044815D01*
X66166980Y-55005500D01*
X65953020Y-55005500D01*
X65742703Y-55044815D01*
X65664224Y-55075218D01*
X65543192Y-55122106D01*
X65543186Y-55122108D01*
X65361286Y-55234736D01*
X65361283Y-55234738D01*
X65361279Y-55234740D01*
X65361278Y-55234742D01*
X65315770Y-55276228D01*
X65203158Y-55378887D01*
X65074219Y-55549629D01*
X64978849Y-55741158D01*
X64978846Y-55741164D01*
X64920296Y-55946949D01*
X64920295Y-55946952D01*
X64913471Y-56020604D01*
X64887685Y-56085542D01*
X64830884Y-56126229D01*
X64761103Y-56129749D01*
X64700497Y-56094984D01*
X64668307Y-56032971D01*
X64666529Y-56020604D01*
X64659704Y-55946952D01*
X64659703Y-55946949D01*
X64601153Y-55741164D01*
X64601150Y-55741158D01*
X64579992Y-55698667D01*
X64505781Y-55549630D01*
X64376841Y-55378886D01*
X64218722Y-55234742D01*
X64218716Y-55234738D01*
X64218713Y-55234736D01*
X64036813Y-55122108D01*
X64036807Y-55122106D01*
X64033067Y-55120657D01*
X63837297Y-55044815D01*
X63626980Y-55005500D01*
X63413020Y-55005500D01*
X63202703Y-55044815D01*
X63124224Y-55075218D01*
X63003192Y-55122106D01*
X63003186Y-55122108D01*
X62821286Y-55234736D01*
X62821283Y-55234738D01*
X62821279Y-55234740D01*
X62821278Y-55234742D01*
X62775770Y-55276228D01*
X62663158Y-55378887D01*
X62534219Y-55549629D01*
X62438849Y-55741158D01*
X62438846Y-55741164D01*
X62380296Y-55946949D01*
X62380295Y-55946952D01*
X62373471Y-56020604D01*
X62347685Y-56085542D01*
X62290884Y-56126229D01*
X62221103Y-56129749D01*
X62160497Y-56094984D01*
X62128307Y-56032971D01*
X62126529Y-56020604D01*
X62119704Y-55946952D01*
X62119703Y-55946949D01*
X62061153Y-55741164D01*
X62061150Y-55741158D01*
X62039992Y-55698667D01*
X61965781Y-55549630D01*
X61836841Y-55378886D01*
X61678722Y-55234742D01*
X61678716Y-55234738D01*
X61678713Y-55234736D01*
X61496813Y-55122108D01*
X61496807Y-55122106D01*
X61493067Y-55120657D01*
X61297297Y-55044815D01*
X61086980Y-55005500D01*
X60873020Y-55005500D01*
X60662703Y-55044815D01*
X60584224Y-55075218D01*
X60463192Y-55122106D01*
X60463186Y-55122108D01*
X60281286Y-55234736D01*
X60281283Y-55234738D01*
X60281279Y-55234740D01*
X60281278Y-55234742D01*
X60235770Y-55276228D01*
X60123158Y-55378887D01*
X59994219Y-55549629D01*
X59898849Y-55741158D01*
X59898846Y-55741164D01*
X59840296Y-55946949D01*
X59840295Y-55946952D01*
X59833471Y-56020604D01*
X59807685Y-56085542D01*
X59750884Y-56126229D01*
X59681103Y-56129749D01*
X59620497Y-56094984D01*
X59588307Y-56032971D01*
X59586529Y-56020604D01*
X59579704Y-55946952D01*
X59579703Y-55946949D01*
X59521153Y-55741164D01*
X59521150Y-55741158D01*
X59499992Y-55698667D01*
X59425781Y-55549630D01*
X59296841Y-55378886D01*
X59138722Y-55234742D01*
X59138716Y-55234738D01*
X59138713Y-55234736D01*
X58956813Y-55122108D01*
X58956807Y-55122106D01*
X58953067Y-55120657D01*
X58757297Y-55044815D01*
X58546980Y-55005500D01*
X58333020Y-55005500D01*
X58122703Y-55044815D01*
X58044224Y-55075218D01*
X57923192Y-55122106D01*
X57923186Y-55122108D01*
X57741286Y-55234736D01*
X57741283Y-55234738D01*
X57741279Y-55234740D01*
X57741278Y-55234742D01*
X57695770Y-55276228D01*
X57583158Y-55378887D01*
X57454219Y-55549629D01*
X57358849Y-55741158D01*
X57358846Y-55741164D01*
X57300296Y-55946949D01*
X57300295Y-55946952D01*
X57293471Y-56020604D01*
X57267685Y-56085542D01*
X57210884Y-56126229D01*
X57141103Y-56129749D01*
X57080497Y-56094984D01*
X57048307Y-56032971D01*
X57046529Y-56020604D01*
X57039704Y-55946952D01*
X57039703Y-55946949D01*
X56981153Y-55741164D01*
X56981150Y-55741158D01*
X56959992Y-55698667D01*
X56885781Y-55549630D01*
X56756841Y-55378886D01*
X56598722Y-55234742D01*
X56598716Y-55234738D01*
X56598713Y-55234736D01*
X56416813Y-55122108D01*
X56416807Y-55122106D01*
X56413067Y-55120657D01*
X56217297Y-55044815D01*
X56006980Y-55005500D01*
X55793020Y-55005500D01*
X55582703Y-55044815D01*
X55504224Y-55075218D01*
X55383192Y-55122106D01*
X55383186Y-55122108D01*
X55201286Y-55234736D01*
X55201283Y-55234738D01*
X55201279Y-55234740D01*
X55201278Y-55234742D01*
X55155770Y-55276228D01*
X55043158Y-55378887D01*
X54914219Y-55549629D01*
X54818849Y-55741158D01*
X54818846Y-55741164D01*
X54760296Y-55946949D01*
X54760295Y-55946952D01*
X54753471Y-56020604D01*
X54727685Y-56085542D01*
X54670884Y-56126229D01*
X54601103Y-56129749D01*
X54540497Y-56094984D01*
X54508307Y-56032971D01*
X54506529Y-56020604D01*
X54499704Y-55946952D01*
X54499703Y-55946949D01*
X54441153Y-55741164D01*
X54441150Y-55741158D01*
X54419992Y-55698667D01*
X54345781Y-55549630D01*
X54216841Y-55378886D01*
X54058722Y-55234742D01*
X54058716Y-55234738D01*
X54058713Y-55234736D01*
X53876813Y-55122108D01*
X53876807Y-55122106D01*
X53873067Y-55120657D01*
X53677297Y-55044815D01*
X53466980Y-55005500D01*
X53253020Y-55005500D01*
X53042703Y-55044815D01*
X52964224Y-55075218D01*
X52843192Y-55122106D01*
X52843186Y-55122108D01*
X52661286Y-55234736D01*
X52661283Y-55234738D01*
X52661279Y-55234740D01*
X52661278Y-55234742D01*
X52615770Y-55276228D01*
X52503158Y-55378887D01*
X52374219Y-55549629D01*
X52278849Y-55741158D01*
X52278846Y-55741164D01*
X52220296Y-55946949D01*
X52220295Y-55946952D01*
X52213471Y-56020604D01*
X52187685Y-56085542D01*
X52130884Y-56126229D01*
X52061103Y-56129749D01*
X52000497Y-56094984D01*
X51968307Y-56032971D01*
X51966529Y-56020604D01*
X51959704Y-55946952D01*
X51959703Y-55946949D01*
X51901153Y-55741164D01*
X51901150Y-55741158D01*
X51879992Y-55698667D01*
X51805781Y-55549630D01*
X51676841Y-55378886D01*
X51518722Y-55234742D01*
X51518716Y-55234738D01*
X51518713Y-55234736D01*
X51336813Y-55122108D01*
X51336807Y-55122106D01*
X51333067Y-55120657D01*
X51137297Y-55044815D01*
X50926980Y-55005500D01*
X50713020Y-55005500D01*
X50502703Y-55044815D01*
X50424224Y-55075218D01*
X50303192Y-55122106D01*
X50303186Y-55122108D01*
X50121286Y-55234736D01*
X50121283Y-55234738D01*
X50121279Y-55234740D01*
X50121278Y-55234742D01*
X50075770Y-55276228D01*
X49963158Y-55378887D01*
X49834219Y-55549629D01*
X49738849Y-55741158D01*
X49738846Y-55741164D01*
X49680296Y-55946949D01*
X49680295Y-55946952D01*
X49660554Y-56159999D01*
X49660554Y-56160000D01*
X49680295Y-56373047D01*
X49680296Y-56373050D01*
X49738846Y-56578835D01*
X49738849Y-56578840D01*
X49834219Y-56770370D01*
X49963159Y-56941114D01*
X50121278Y-57085258D01*
X50121283Y-57085261D01*
X50121286Y-57085263D01*
X50303186Y-57197891D01*
X50303187Y-57197891D01*
X50303190Y-57197893D01*
X50502703Y-57275185D01*
X50713020Y-57314500D01*
X50713022Y-57314500D01*
X50926978Y-57314500D01*
X50926980Y-57314500D01*
X51137297Y-57275185D01*
X51336810Y-57197893D01*
X51518722Y-57085258D01*
X51676841Y-56941114D01*
X51805781Y-56770370D01*
X51901151Y-56578840D01*
X51901151Y-56578837D01*
X51901153Y-56578835D01*
X51935639Y-56457628D01*
X51959704Y-56373048D01*
X51966529Y-56299394D01*
X51992315Y-56234457D01*
X52049116Y-56193770D01*
X52118897Y-56190250D01*
X52179503Y-56225015D01*
X52211693Y-56287028D01*
X52213471Y-56299395D01*
X52220295Y-56373047D01*
X52220296Y-56373050D01*
X52278846Y-56578835D01*
X52278849Y-56578840D01*
X52374219Y-56770370D01*
X52503159Y-56941114D01*
X52661278Y-57085258D01*
X52661283Y-57085261D01*
X52661286Y-57085263D01*
X52843186Y-57197891D01*
X52843187Y-57197891D01*
X52843190Y-57197893D01*
X53042703Y-57275185D01*
X53253020Y-57314500D01*
X53253022Y-57314500D01*
X53466978Y-57314500D01*
X53466980Y-57314500D01*
X53677297Y-57275185D01*
X53876810Y-57197893D01*
X54058722Y-57085258D01*
X54216841Y-56941114D01*
X54345781Y-56770370D01*
X54441151Y-56578840D01*
X54441151Y-56578837D01*
X54441153Y-56578835D01*
X54475639Y-56457628D01*
X54499704Y-56373048D01*
X54506529Y-56299394D01*
X54532315Y-56234457D01*
X54589116Y-56193770D01*
X54658897Y-56190250D01*
X54719503Y-56225015D01*
X54751693Y-56287028D01*
X54753471Y-56299395D01*
X54760295Y-56373047D01*
X54760296Y-56373050D01*
X54818846Y-56578835D01*
X54818849Y-56578840D01*
X54914219Y-56770370D01*
X55043159Y-56941114D01*
X55201278Y-57085258D01*
X55201283Y-57085261D01*
X55201286Y-57085263D01*
X55383186Y-57197891D01*
X55383187Y-57197891D01*
X55383190Y-57197893D01*
X55582703Y-57275185D01*
X55793020Y-57314500D01*
X55793022Y-57314500D01*
X56006978Y-57314500D01*
X56006980Y-57314500D01*
X56217297Y-57275185D01*
X56416810Y-57197893D01*
X56598722Y-57085258D01*
X56756841Y-56941114D01*
X56885781Y-56770370D01*
X56981151Y-56578840D01*
X56981151Y-56578837D01*
X56981153Y-56578835D01*
X57015639Y-56457628D01*
X57039704Y-56373048D01*
X57046529Y-56299394D01*
X57072315Y-56234457D01*
X57129116Y-56193770D01*
X57198897Y-56190250D01*
X57259503Y-56225015D01*
X57291693Y-56287028D01*
X57293471Y-56299395D01*
X57300295Y-56373047D01*
X57300296Y-56373050D01*
X57358846Y-56578835D01*
X57358849Y-56578840D01*
X57454219Y-56770370D01*
X57583159Y-56941114D01*
X57741278Y-57085258D01*
X57741283Y-57085261D01*
X57741286Y-57085263D01*
X57923186Y-57197891D01*
X57923187Y-57197891D01*
X57923190Y-57197893D01*
X58122703Y-57275185D01*
X58333020Y-57314500D01*
X58333022Y-57314500D01*
X58546978Y-57314500D01*
X58546980Y-57314500D01*
X58757297Y-57275185D01*
X58956810Y-57197893D01*
X59138722Y-57085258D01*
X59296841Y-56941114D01*
X59425781Y-56770370D01*
X59521151Y-56578840D01*
X59521151Y-56578837D01*
X59521153Y-56578835D01*
X59555639Y-56457628D01*
X59579704Y-56373048D01*
X59586529Y-56299394D01*
X59612315Y-56234457D01*
X59669116Y-56193770D01*
X59738897Y-56190250D01*
X59799503Y-56225015D01*
X59831693Y-56287028D01*
X59833471Y-56299395D01*
X59840295Y-56373047D01*
X59840296Y-56373050D01*
X59898846Y-56578835D01*
X59898849Y-56578840D01*
X59994219Y-56770370D01*
X60123159Y-56941114D01*
X60281278Y-57085258D01*
X60281283Y-57085261D01*
X60281286Y-57085263D01*
X60463186Y-57197891D01*
X60463187Y-57197891D01*
X60463190Y-57197893D01*
X60662703Y-57275185D01*
X60873020Y-57314500D01*
X60873022Y-57314500D01*
X61086978Y-57314500D01*
X61086980Y-57314500D01*
X61297297Y-57275185D01*
X61496810Y-57197893D01*
X61678722Y-57085258D01*
X61836841Y-56941114D01*
X61965781Y-56770370D01*
X62061151Y-56578840D01*
X62061151Y-56578837D01*
X62061153Y-56578835D01*
X62095639Y-56457628D01*
X62119704Y-56373048D01*
X62126529Y-56299394D01*
X62152315Y-56234457D01*
X62209116Y-56193770D01*
X62278897Y-56190250D01*
X62339503Y-56225015D01*
X62371693Y-56287028D01*
X62373471Y-56299395D01*
X62380295Y-56373047D01*
X62380296Y-56373050D01*
X62438846Y-56578835D01*
X62438849Y-56578840D01*
X62534219Y-56770370D01*
X62663159Y-56941114D01*
X62821278Y-57085258D01*
X62821283Y-57085261D01*
X62821286Y-57085263D01*
X63003186Y-57197891D01*
X63003187Y-57197891D01*
X63003190Y-57197893D01*
X63202703Y-57275185D01*
X63413020Y-57314500D01*
X63413022Y-57314500D01*
X63626978Y-57314500D01*
X63626980Y-57314500D01*
X63837297Y-57275185D01*
X64036810Y-57197893D01*
X64218722Y-57085258D01*
X64376841Y-56941114D01*
X64505781Y-56770370D01*
X64601151Y-56578840D01*
X64601151Y-56578837D01*
X64601153Y-56578835D01*
X64635639Y-56457628D01*
X64659704Y-56373048D01*
X64666529Y-56299394D01*
X64692315Y-56234457D01*
X64749116Y-56193770D01*
X64818897Y-56190250D01*
X64879503Y-56225015D01*
X64911693Y-56287028D01*
X64913471Y-56299395D01*
X64920295Y-56373047D01*
X64920296Y-56373050D01*
X64978846Y-56578835D01*
X64978849Y-56578840D01*
X65074219Y-56770370D01*
X65203159Y-56941114D01*
X65361278Y-57085258D01*
X65361283Y-57085261D01*
X65361286Y-57085263D01*
X65543186Y-57197891D01*
X65543187Y-57197891D01*
X65543190Y-57197893D01*
X65742703Y-57275185D01*
X65953020Y-57314500D01*
X65953022Y-57314500D01*
X66166978Y-57314500D01*
X66166980Y-57314500D01*
X66377297Y-57275185D01*
X66576810Y-57197893D01*
X66758722Y-57085258D01*
X66916841Y-56941114D01*
X67045781Y-56770370D01*
X67141151Y-56578840D01*
X67141151Y-56578837D01*
X67141153Y-56578835D01*
X67175639Y-56457628D01*
X67199704Y-56373048D01*
X67206529Y-56299394D01*
X67232315Y-56234457D01*
X67289116Y-56193770D01*
X67358897Y-56190250D01*
X67419503Y-56225015D01*
X67451693Y-56287028D01*
X67453471Y-56299395D01*
X67460295Y-56373047D01*
X67460296Y-56373050D01*
X67518846Y-56578835D01*
X67518849Y-56578840D01*
X67614219Y-56770370D01*
X67743159Y-56941114D01*
X67901278Y-57085258D01*
X67901283Y-57085261D01*
X67901286Y-57085263D01*
X68083186Y-57197891D01*
X68083187Y-57197891D01*
X68083190Y-57197893D01*
X68282703Y-57275185D01*
X68493020Y-57314500D01*
X68493022Y-57314500D01*
X68706978Y-57314500D01*
X68706980Y-57314500D01*
X68917297Y-57275185D01*
X69116810Y-57197893D01*
X69298722Y-57085258D01*
X69456841Y-56941114D01*
X69585781Y-56770370D01*
X69681151Y-56578840D01*
X69681151Y-56578837D01*
X69681153Y-56578835D01*
X69715639Y-56457628D01*
X69739704Y-56373048D01*
X69746529Y-56299394D01*
X69772315Y-56234457D01*
X69829116Y-56193770D01*
X69898897Y-56190250D01*
X69959503Y-56225015D01*
X69991693Y-56287028D01*
X69993471Y-56299395D01*
X70000295Y-56373047D01*
X70000296Y-56373050D01*
X70058846Y-56578835D01*
X70058849Y-56578840D01*
X70154219Y-56770370D01*
X70283159Y-56941114D01*
X70441278Y-57085258D01*
X70441283Y-57085261D01*
X70441286Y-57085263D01*
X70623186Y-57197891D01*
X70623187Y-57197891D01*
X70623190Y-57197893D01*
X70822703Y-57275185D01*
X71033020Y-57314500D01*
X71033022Y-57314500D01*
X71246978Y-57314500D01*
X71246980Y-57314500D01*
X71457297Y-57275185D01*
X71656810Y-57197893D01*
X71838722Y-57085258D01*
X71996841Y-56941114D01*
X72125781Y-56770370D01*
X72221151Y-56578840D01*
X72221151Y-56578837D01*
X72221153Y-56578835D01*
X72255639Y-56457628D01*
X72279704Y-56373048D01*
X72286529Y-56299394D01*
X72312315Y-56234457D01*
X72369116Y-56193770D01*
X72438897Y-56190250D01*
X72499503Y-56225015D01*
X72531693Y-56287028D01*
X72533471Y-56299395D01*
X72540295Y-56373047D01*
X72540296Y-56373050D01*
X72598846Y-56578835D01*
X72598849Y-56578840D01*
X72694219Y-56770370D01*
X72823159Y-56941114D01*
X72981278Y-57085258D01*
X72981283Y-57085261D01*
X72981286Y-57085263D01*
X73163186Y-57197891D01*
X73163187Y-57197891D01*
X73163190Y-57197893D01*
X73362703Y-57275185D01*
X73573020Y-57314500D01*
X73573022Y-57314500D01*
X73623348Y-57314500D01*
X73690387Y-57334185D01*
X73736142Y-57386989D01*
X73746086Y-57456147D01*
X73717061Y-57519703D01*
X73711029Y-57526181D01*
X65154630Y-66082580D01*
X65150927Y-66085994D01*
X65108698Y-66121865D01*
X65059709Y-66186308D01*
X65008955Y-66249449D01*
X65008449Y-66250241D01*
X64997269Y-66268266D01*
X64996744Y-66269138D01*
X64962739Y-66342639D01*
X64926763Y-66415180D01*
X64926382Y-66416217D01*
X64919380Y-66436106D01*
X64919067Y-66437033D01*
X64901658Y-66516126D01*
X64882114Y-66594713D01*
X64881991Y-66595616D01*
X64879407Y-66616716D01*
X64879300Y-66617701D01*
X64879300Y-66698668D01*
X64877106Y-66779638D01*
X64877189Y-66780647D01*
X64879300Y-66802849D01*
X64879300Y-71864041D01*
X64859615Y-71931080D01*
X64842981Y-71951722D01*
X64691305Y-72103397D01*
X64555765Y-72296969D01*
X64555764Y-72296971D01*
X64455898Y-72511135D01*
X64455894Y-72511144D01*
X64394738Y-72739386D01*
X64394736Y-72739396D01*
X64374141Y-72974799D01*
X64374141Y-72974800D01*
X64394736Y-73210203D01*
X64394738Y-73210213D01*
X64455894Y-73438455D01*
X64455896Y-73438459D01*
X64455897Y-73438463D01*
X64515278Y-73565805D01*
X64555765Y-73652630D01*
X64555767Y-73652634D01*
X64664081Y-73807321D01*
X64691305Y-73846201D01*
X64858399Y-74013295D01*
X64955184Y-74081064D01*
X65051965Y-74148832D01*
X65051967Y-74148833D01*
X65051970Y-74148835D01*
X65266137Y-74248703D01*
X65494392Y-74309863D01*
X65670834Y-74325300D01*
X65729799Y-74330459D01*
X65729800Y-74330459D01*
X65729801Y-74330459D01*
X65788766Y-74325300D01*
X65965208Y-74309863D01*
X66193463Y-74248703D01*
X66407630Y-74148835D01*
X66601201Y-74013295D01*
X66768295Y-73846201D01*
X66898226Y-73660640D01*
X66952801Y-73617017D01*
X67022299Y-73609823D01*
X67084654Y-73641346D01*
X67101374Y-73660641D01*
X67231305Y-73846201D01*
X67231306Y-73846202D01*
X67382981Y-73997877D01*
X67416466Y-74059200D01*
X67419300Y-74085558D01*
X67419300Y-75680911D01*
X67419095Y-75685945D01*
X67414598Y-75741163D01*
X67425529Y-75821392D01*
X67434286Y-75901913D01*
X67434510Y-75902930D01*
X67439325Y-75923473D01*
X67439573Y-75924470D01*
X67467500Y-76000486D01*
X67493357Y-76077223D01*
X67493801Y-76078185D01*
X67502946Y-76097266D01*
X67503364Y-76098109D01*
X67546984Y-76166353D01*
X67588730Y-76235736D01*
X67589338Y-76236536D01*
X67602378Y-76253216D01*
X67603001Y-76253991D01*
X67660258Y-76311248D01*
X67715949Y-76370040D01*
X67716750Y-76370720D01*
X67733918Y-76384907D01*
X69420185Y-78071173D01*
X69423588Y-78074865D01*
X69449643Y-78105539D01*
X69459463Y-78117100D01*
X69463341Y-78120048D01*
X69523926Y-78166104D01*
X69587042Y-78216838D01*
X69587047Y-78216842D01*
X69587052Y-78216844D01*
X69587963Y-78217427D01*
X69605755Y-78228463D01*
X69606733Y-78229052D01*
X69606736Y-78229054D01*
X69680229Y-78263055D01*
X69752779Y-78299037D01*
X69752782Y-78299037D01*
X69752787Y-78299040D01*
X69753819Y-78299419D01*
X69773653Y-78306402D01*
X69774635Y-78306733D01*
X69853715Y-78324139D01*
X69853716Y-78324139D01*
X69932306Y-78343684D01*
X69932310Y-78343684D01*
X69932314Y-78343685D01*
X69933404Y-78343833D01*
X69954175Y-78346377D01*
X69955302Y-78346499D01*
X69955303Y-78346500D01*
X69955304Y-78346500D01*
X70036269Y-78346500D01*
X70117232Y-78348693D01*
X70117232Y-78348692D01*
X70117235Y-78348693D01*
X70118279Y-78348608D01*
X70140448Y-78346500D01*
X76513113Y-78346500D01*
X76518148Y-78346705D01*
X76537762Y-78348301D01*
X76573367Y-78351201D01*
X76653592Y-78340270D01*
X76734110Y-78331514D01*
X76734114Y-78331512D01*
X76735236Y-78331266D01*
X76755507Y-78326515D01*
X76756662Y-78326228D01*
X76756662Y-78326227D01*
X76756668Y-78326227D01*
X76832686Y-78298299D01*
X76909421Y-78272444D01*
X76909427Y-78272439D01*
X76910551Y-78271920D01*
X76929323Y-78262923D01*
X76930312Y-78262433D01*
X76930316Y-78262432D01*
X76998553Y-78218815D01*
X77067936Y-78177070D01*
X77067941Y-78177065D01*
X77068869Y-78176360D01*
X77085276Y-78163533D01*
X77086186Y-78162802D01*
X77086186Y-78162801D01*
X77086189Y-78162800D01*
X77114818Y-78134170D01*
X77143449Y-78105540D01*
X77179742Y-78071161D01*
X77202241Y-78049849D01*
X77202245Y-78049842D01*
X77202957Y-78049005D01*
X77217104Y-78031883D01*
X77252392Y-77996595D01*
X77256059Y-77993215D01*
X77298300Y-77957337D01*
X77327339Y-77919137D01*
X77347290Y-77892892D01*
X77365705Y-77869981D01*
X77398042Y-77829754D01*
X77398045Y-77829747D01*
X77398651Y-77828799D01*
X77409649Y-77811069D01*
X77410251Y-77810069D01*
X77410252Y-77810066D01*
X77410254Y-77810064D01*
X77444260Y-77736560D01*
X77480236Y-77664021D01*
X77480237Y-77664014D01*
X77480634Y-77662935D01*
X77487589Y-77643183D01*
X77487927Y-77642177D01*
X77487932Y-77642167D01*
X77505341Y-77563073D01*
X77524884Y-77484495D01*
X77524883Y-77484495D01*
X77524885Y-77484491D01*
X77525030Y-77483426D01*
X77527571Y-77462677D01*
X77527700Y-77461497D01*
X77527700Y-77380531D01*
X77529893Y-77299564D01*
X77529808Y-77298520D01*
X77527700Y-77276352D01*
X77527700Y-66495050D01*
X77547385Y-66428011D01*
X77564014Y-66407374D01*
X81875192Y-62096195D01*
X81878859Y-62092815D01*
X81921100Y-62056937D01*
X81970097Y-61992481D01*
X82020841Y-61929354D01*
X82020842Y-61929351D01*
X82021480Y-61928353D01*
X82032466Y-61910641D01*
X82033054Y-61909664D01*
X82033053Y-61909663D01*
X82067062Y-61836155D01*
X82103036Y-61763622D01*
X82103037Y-61763614D01*
X82103439Y-61762522D01*
X82110370Y-61742840D01*
X82110733Y-61741763D01*
X82128140Y-61662676D01*
X82147685Y-61584091D01*
X82147830Y-61583026D01*
X82150371Y-61562277D01*
X82150500Y-61561097D01*
X82150500Y-61480131D01*
X82152693Y-61399164D01*
X82152608Y-61398120D01*
X82150500Y-61375952D01*
X82150500Y-56991071D01*
X82170185Y-56924032D01*
X82175546Y-56916344D01*
X82285781Y-56770370D01*
X82381151Y-56578840D01*
X82381151Y-56578837D01*
X82381153Y-56578835D01*
X82415639Y-56457628D01*
X82439704Y-56373048D01*
X82446529Y-56299394D01*
X82472315Y-56234457D01*
X82529116Y-56193770D01*
X82598897Y-56190250D01*
X82659503Y-56225015D01*
X82691693Y-56287028D01*
X82693471Y-56299395D01*
X82700295Y-56373047D01*
X82700296Y-56373048D01*
X82705367Y-56390873D01*
X82710099Y-56424714D01*
X82710099Y-56426138D01*
X82710099Y-56427863D01*
X82707906Y-56508838D01*
X82707989Y-56509847D01*
X82710100Y-56532049D01*
X82710100Y-63554148D01*
X82690415Y-63621187D01*
X82673781Y-63641829D01*
X78464230Y-67851380D01*
X78460527Y-67854794D01*
X78418298Y-67890665D01*
X78369309Y-67955108D01*
X78318555Y-68018249D01*
X78318049Y-68019041D01*
X78306869Y-68037066D01*
X78306344Y-68037938D01*
X78272339Y-68111439D01*
X78236363Y-68183980D01*
X78235982Y-68185017D01*
X78228980Y-68204906D01*
X78228667Y-68205833D01*
X78211258Y-68284926D01*
X78191714Y-68363513D01*
X78191591Y-68364416D01*
X78189007Y-68385516D01*
X78188900Y-68386501D01*
X78188900Y-68467468D01*
X78186706Y-68548438D01*
X78186789Y-68549447D01*
X78188900Y-68571649D01*
X78188900Y-79305623D01*
X78169215Y-79372662D01*
X78116411Y-79418417D01*
X78089265Y-79425866D01*
X78089468Y-79426724D01*
X78081920Y-79428507D01*
X77947071Y-79478802D01*
X77947064Y-79478806D01*
X77831855Y-79565052D01*
X77831852Y-79565055D01*
X77745606Y-79680264D01*
X77745602Y-79680271D01*
X77695308Y-79815117D01*
X77693526Y-79822662D01*
X77691253Y-79822125D01*
X77668971Y-79875912D01*
X77611577Y-79915757D01*
X77572424Y-79922100D01*
X63390250Y-79922100D01*
X63323211Y-79902415D01*
X63302569Y-79885781D01*
X61536619Y-78119830D01*
X61503134Y-78058507D01*
X61500300Y-78032149D01*
X61500300Y-74441776D01*
X61519985Y-74374737D01*
X61572789Y-74328982D01*
X61599935Y-74321536D01*
X61599732Y-74320676D01*
X61607279Y-74318892D01*
X61607281Y-74318891D01*
X61607283Y-74318891D01*
X61742131Y-74268596D01*
X61857346Y-74182346D01*
X61943596Y-74067131D01*
X61993891Y-73932283D01*
X62000300Y-73872673D01*
X62000299Y-72076928D01*
X61993891Y-72017317D01*
X61943596Y-71882469D01*
X61943595Y-71882468D01*
X61943593Y-71882464D01*
X61857347Y-71767255D01*
X61857344Y-71767252D01*
X61742135Y-71681006D01*
X61742128Y-71681002D01*
X61607282Y-71630708D01*
X61607283Y-71630708D01*
X61547683Y-71624301D01*
X61547681Y-71624300D01*
X61547673Y-71624300D01*
X61547665Y-71624300D01*
X59816851Y-71624300D01*
X59749812Y-71604615D01*
X59729170Y-71587981D01*
X45712419Y-57571230D01*
X45678934Y-57509907D01*
X45676100Y-57483549D01*
X45676100Y-53490250D01*
X45695785Y-53423211D01*
X45712414Y-53402574D01*
X46004988Y-53110000D01*
X53495661Y-53110000D01*
X53514974Y-53318429D01*
X53572259Y-53519769D01*
X53665562Y-53707147D01*
X53665567Y-53707155D01*
X53791714Y-53874201D01*
X53888296Y-53962246D01*
X53946408Y-54015222D01*
X54124382Y-54125419D01*
X54124383Y-54125419D01*
X54124384Y-54125420D01*
X54165734Y-54141439D01*
X54319573Y-54201036D01*
X54525336Y-54239500D01*
X54525338Y-54239500D01*
X54734662Y-54239500D01*
X54734664Y-54239500D01*
X54940427Y-54201036D01*
X55135618Y-54125419D01*
X55313592Y-54015222D01*
X55468287Y-53874199D01*
X55594434Y-53707153D01*
X55687740Y-53519771D01*
X55745025Y-53318434D01*
X55764339Y-53110000D01*
X56035661Y-53110000D01*
X56054974Y-53318429D01*
X56112259Y-53519769D01*
X56205562Y-53707147D01*
X56205567Y-53707155D01*
X56331714Y-53874201D01*
X56428296Y-53962246D01*
X56486408Y-54015222D01*
X56664382Y-54125419D01*
X56664383Y-54125419D01*
X56664384Y-54125420D01*
X56705734Y-54141439D01*
X56859573Y-54201036D01*
X57065336Y-54239500D01*
X57065338Y-54239500D01*
X57274662Y-54239500D01*
X57274664Y-54239500D01*
X57480427Y-54201036D01*
X57675618Y-54125419D01*
X57853592Y-54015222D01*
X58008287Y-53874199D01*
X58134434Y-53707153D01*
X58227740Y-53519771D01*
X58285025Y-53318434D01*
X58304339Y-53110000D01*
X58575661Y-53110000D01*
X58594974Y-53318429D01*
X58652259Y-53519769D01*
X58745562Y-53707147D01*
X58745567Y-53707155D01*
X58871714Y-53874201D01*
X58968296Y-53962246D01*
X59026408Y-54015222D01*
X59204382Y-54125419D01*
X59204383Y-54125419D01*
X59204384Y-54125420D01*
X59245734Y-54141439D01*
X59399573Y-54201036D01*
X59605336Y-54239500D01*
X59605338Y-54239500D01*
X59814662Y-54239500D01*
X59814664Y-54239500D01*
X60020427Y-54201036D01*
X60215618Y-54125419D01*
X60393592Y-54015222D01*
X60548287Y-53874199D01*
X60674434Y-53707153D01*
X60767740Y-53519771D01*
X60825025Y-53318434D01*
X60844339Y-53110000D01*
X61115661Y-53110000D01*
X61134974Y-53318429D01*
X61192259Y-53519769D01*
X61285562Y-53707147D01*
X61285567Y-53707155D01*
X61411714Y-53874201D01*
X61508296Y-53962246D01*
X61566408Y-54015222D01*
X61744382Y-54125419D01*
X61744383Y-54125419D01*
X61744384Y-54125420D01*
X61785734Y-54141439D01*
X61939573Y-54201036D01*
X62145336Y-54239500D01*
X62145338Y-54239500D01*
X62354662Y-54239500D01*
X62354664Y-54239500D01*
X62560427Y-54201036D01*
X62755618Y-54125419D01*
X62933592Y-54015222D01*
X62958118Y-53992863D01*
X63020923Y-53962246D01*
X63041657Y-53960500D01*
X63998343Y-53960500D01*
X64065382Y-53980185D01*
X64081881Y-53992863D01*
X64106408Y-54015222D01*
X64284382Y-54125419D01*
X64284383Y-54125419D01*
X64284384Y-54125420D01*
X64325734Y-54141439D01*
X64479573Y-54201036D01*
X64685336Y-54239500D01*
X64685338Y-54239500D01*
X64894662Y-54239500D01*
X64894664Y-54239500D01*
X65100427Y-54201036D01*
X65295618Y-54125419D01*
X65473592Y-54015222D01*
X65628287Y-53874199D01*
X65754434Y-53707153D01*
X65847740Y-53519771D01*
X65905025Y-53318434D01*
X65924339Y-53110000D01*
X65905025Y-52901566D01*
X65847740Y-52700229D01*
X65779262Y-52562708D01*
X65754437Y-52512852D01*
X65754432Y-52512844D01*
X65628285Y-52345798D01*
X65473593Y-52204779D01*
X65473592Y-52204778D01*
X65295618Y-52094581D01*
X65295616Y-52094580D01*
X65295615Y-52094579D01*
X65141779Y-52034984D01*
X65100427Y-52018964D01*
X64894664Y-51980500D01*
X64685336Y-51980500D01*
X64479573Y-52018964D01*
X64479570Y-52018964D01*
X64479570Y-52018965D01*
X64284384Y-52094579D01*
X64284383Y-52094580D01*
X64106406Y-52204779D01*
X64081881Y-52227137D01*
X64019077Y-52257754D01*
X63998343Y-52259500D01*
X63041657Y-52259500D01*
X62974618Y-52239815D01*
X62958119Y-52227137D01*
X62933593Y-52204779D01*
X62933592Y-52204778D01*
X62755618Y-52094581D01*
X62755616Y-52094580D01*
X62755615Y-52094579D01*
X62601779Y-52034984D01*
X62560427Y-52018964D01*
X62354664Y-51980500D01*
X62145336Y-51980500D01*
X61939573Y-52018964D01*
X61939570Y-52018964D01*
X61939570Y-52018965D01*
X61744384Y-52094579D01*
X61744383Y-52094580D01*
X61566406Y-52204779D01*
X61411714Y-52345798D01*
X61285567Y-52512844D01*
X61285562Y-52512852D01*
X61192259Y-52700230D01*
X61134974Y-52901570D01*
X61115661Y-53109999D01*
X61115661Y-53110000D01*
X60844339Y-53110000D01*
X60825025Y-52901566D01*
X60767740Y-52700229D01*
X60699262Y-52562708D01*
X60674437Y-52512852D01*
X60674432Y-52512844D01*
X60548285Y-52345798D01*
X60393593Y-52204779D01*
X60393592Y-52204778D01*
X60215618Y-52094581D01*
X60215616Y-52094580D01*
X60215615Y-52094579D01*
X60061779Y-52034984D01*
X60020427Y-52018964D01*
X59814664Y-51980500D01*
X59605336Y-51980500D01*
X59399573Y-52018964D01*
X59399570Y-52018964D01*
X59399570Y-52018965D01*
X59204384Y-52094579D01*
X59204383Y-52094580D01*
X59026406Y-52204779D01*
X58871714Y-52345798D01*
X58745567Y-52512844D01*
X58745562Y-52512852D01*
X58652259Y-52700230D01*
X58594974Y-52901570D01*
X58575661Y-53109999D01*
X58575661Y-53110000D01*
X58304339Y-53110000D01*
X58285025Y-52901566D01*
X58227740Y-52700229D01*
X58159262Y-52562708D01*
X58134437Y-52512852D01*
X58134432Y-52512844D01*
X58008285Y-52345798D01*
X57853593Y-52204779D01*
X57853592Y-52204778D01*
X57675618Y-52094581D01*
X57675616Y-52094580D01*
X57675615Y-52094579D01*
X57521779Y-52034984D01*
X57480427Y-52018964D01*
X57274664Y-51980500D01*
X57065336Y-51980500D01*
X56859573Y-52018964D01*
X56859570Y-52018964D01*
X56859570Y-52018965D01*
X56664384Y-52094579D01*
X56664383Y-52094580D01*
X56486406Y-52204779D01*
X56331714Y-52345798D01*
X56205567Y-52512844D01*
X56205562Y-52512852D01*
X56112259Y-52700230D01*
X56054974Y-52901570D01*
X56035661Y-53109999D01*
X56035661Y-53110000D01*
X55764339Y-53110000D01*
X55745025Y-52901566D01*
X55687740Y-52700229D01*
X55619262Y-52562708D01*
X55594437Y-52512852D01*
X55594432Y-52512844D01*
X55468285Y-52345798D01*
X55313593Y-52204779D01*
X55313592Y-52204778D01*
X55135618Y-52094581D01*
X55135616Y-52094580D01*
X55135615Y-52094579D01*
X54981779Y-52034984D01*
X54940427Y-52018964D01*
X54734664Y-51980500D01*
X54525336Y-51980500D01*
X54319573Y-52018964D01*
X54319570Y-52018964D01*
X54319570Y-52018965D01*
X54124384Y-52094579D01*
X54124383Y-52094580D01*
X53946406Y-52204779D01*
X53791714Y-52345798D01*
X53665567Y-52512844D01*
X53665562Y-52512852D01*
X53572259Y-52700230D01*
X53514974Y-52901570D01*
X53495661Y-53109999D01*
X53495661Y-53110000D01*
X46004988Y-53110000D01*
X53935192Y-45179795D01*
X53938859Y-45176415D01*
X53981100Y-45140537D01*
X54030097Y-45076081D01*
X54080841Y-45012954D01*
X54080842Y-45012951D01*
X54081480Y-45011953D01*
X54092406Y-44994338D01*
X54093043Y-44993277D01*
X54093054Y-44993264D01*
X54127066Y-44919747D01*
X54163036Y-44847221D01*
X54163039Y-44847208D01*
X54163452Y-44846086D01*
X54170389Y-44826383D01*
X54170727Y-44825377D01*
X54170732Y-44825367D01*
X54188141Y-44746273D01*
X54207684Y-44667695D01*
X54207683Y-44667695D01*
X54207685Y-44667691D01*
X54207830Y-44666626D01*
X54210371Y-44645877D01*
X54210500Y-44644697D01*
X54210500Y-44563731D01*
X54212283Y-44497891D01*
X54212693Y-44482768D01*
X54212692Y-44482767D01*
X54212693Y-44482764D01*
X54212608Y-44481720D01*
X54210500Y-44459552D01*
X54210500Y-41751071D01*
X54230185Y-41684032D01*
X54235546Y-41676344D01*
X54258451Y-41646013D01*
X54345781Y-41530370D01*
X54441151Y-41338840D01*
X54441151Y-41338837D01*
X54441153Y-41338835D01*
X54499703Y-41133050D01*
X54499704Y-41133049D01*
X54499704Y-41133048D01*
X54506529Y-41059394D01*
X54532315Y-40994457D01*
X54589116Y-40953770D01*
X54658897Y-40950250D01*
X54719503Y-40985015D01*
X54751693Y-41047028D01*
X54753471Y-41059395D01*
X54760295Y-41133047D01*
X54760296Y-41133050D01*
X54818846Y-41338835D01*
X54818849Y-41338840D01*
X54914219Y-41530370D01*
X55043159Y-41701114D01*
X55201278Y-41845258D01*
X55201283Y-41845261D01*
X55201286Y-41845263D01*
X55383186Y-41957891D01*
X55383187Y-41957891D01*
X55383190Y-41957893D01*
X55582703Y-42035185D01*
X55793020Y-42074500D01*
X55793022Y-42074500D01*
X56006978Y-42074500D01*
X56006980Y-42074500D01*
X56217297Y-42035185D01*
X56416810Y-41957893D01*
X56598722Y-41845258D01*
X56756841Y-41701114D01*
X56885781Y-41530370D01*
X56981151Y-41338840D01*
X56981151Y-41338837D01*
X56981153Y-41338835D01*
X57039703Y-41133050D01*
X57039704Y-41133049D01*
X57039704Y-41133048D01*
X57046529Y-41059394D01*
X57072315Y-40994457D01*
X57129116Y-40953770D01*
X57198897Y-40950250D01*
X57259503Y-40985015D01*
X57291693Y-41047028D01*
X57293471Y-41059395D01*
X57300295Y-41133047D01*
X57300296Y-41133050D01*
X57358846Y-41338835D01*
X57358849Y-41338840D01*
X57454219Y-41530370D01*
X57583159Y-41701114D01*
X57741278Y-41845258D01*
X57741283Y-41845261D01*
X57741286Y-41845263D01*
X57923186Y-41957891D01*
X57923187Y-41957891D01*
X57923190Y-41957893D01*
X58122703Y-42035185D01*
X58333020Y-42074500D01*
X58333022Y-42074500D01*
X58546978Y-42074500D01*
X58546980Y-42074500D01*
X58757297Y-42035185D01*
X58956810Y-41957893D01*
X59138722Y-41845258D01*
X59296841Y-41701114D01*
X59425781Y-41530370D01*
X59521151Y-41338840D01*
X59521151Y-41338837D01*
X59521153Y-41338835D01*
X59579703Y-41133050D01*
X59579704Y-41133049D01*
X59579704Y-41133048D01*
X59586529Y-41059394D01*
X59612315Y-40994457D01*
X59669116Y-40953770D01*
X59738897Y-40950250D01*
X59799503Y-40985015D01*
X59831693Y-41047028D01*
X59833471Y-41059395D01*
X59840295Y-41133047D01*
X59840296Y-41133050D01*
X59898846Y-41338835D01*
X59898849Y-41338840D01*
X59994219Y-41530370D01*
X60123159Y-41701114D01*
X60281278Y-41845258D01*
X60281283Y-41845261D01*
X60281286Y-41845263D01*
X60463186Y-41957891D01*
X60463192Y-41957894D01*
X60558315Y-41994744D01*
X60660334Y-42034267D01*
X60715736Y-42076840D01*
X60739326Y-42142607D01*
X60739383Y-42143664D01*
X60742637Y-42208357D01*
X60757010Y-42281882D01*
X60750552Y-42351452D01*
X60707507Y-42406488D01*
X60700592Y-42411097D01*
X60581538Y-42484813D01*
X60581537Y-42484814D01*
X60430269Y-42622712D01*
X60306912Y-42786064D01*
X60215673Y-42969295D01*
X60159654Y-43166183D01*
X60140768Y-43369999D01*
X60140768Y-43370000D01*
X60159654Y-43573816D01*
X60159654Y-43573818D01*
X60159655Y-43573821D01*
X60187888Y-43673050D01*
X60215673Y-43770704D01*
X60306912Y-43953935D01*
X60430269Y-44117287D01*
X60581536Y-44255185D01*
X60586830Y-44258463D01*
X60596696Y-44264571D01*
X60643332Y-44316598D01*
X60654437Y-44385579D01*
X60626485Y-44449614D01*
X60596703Y-44475422D01*
X60581544Y-44484808D01*
X60581537Y-44484814D01*
X60430269Y-44622712D01*
X60306912Y-44786064D01*
X60215673Y-44969295D01*
X60159654Y-45166183D01*
X60140768Y-45369999D01*
X60140768Y-45370000D01*
X60159654Y-45573816D01*
X60159654Y-45573818D01*
X60159655Y-45573821D01*
X60178391Y-45639670D01*
X60215673Y-45770704D01*
X60306912Y-45953935D01*
X60430269Y-46117287D01*
X60581536Y-46255185D01*
X60586830Y-46258463D01*
X60596696Y-46264571D01*
X60643332Y-46316598D01*
X60654437Y-46385579D01*
X60626485Y-46449614D01*
X60596703Y-46475422D01*
X60581544Y-46484808D01*
X60581537Y-46484814D01*
X60430269Y-46622712D01*
X60306912Y-46786064D01*
X60215673Y-46969295D01*
X60159654Y-47166183D01*
X60140768Y-47369999D01*
X60140768Y-47370000D01*
X60159654Y-47573816D01*
X60215673Y-47770704D01*
X60306912Y-47953935D01*
X60430269Y-48117287D01*
X60581537Y-48255185D01*
X60581539Y-48255187D01*
X60755569Y-48362942D01*
X60755575Y-48362945D01*
X60796010Y-48378609D01*
X60946444Y-48436888D01*
X61147653Y-48474500D01*
X61147656Y-48474500D01*
X61352344Y-48474500D01*
X61352347Y-48474500D01*
X61553556Y-48436888D01*
X61744427Y-48362944D01*
X61918462Y-48255186D01*
X62069732Y-48117285D01*
X62151045Y-48009608D01*
X62207154Y-47967971D01*
X62276866Y-47963279D01*
X62338048Y-47997022D01*
X62348954Y-48009608D01*
X62430266Y-48117283D01*
X62430268Y-48117286D01*
X62581537Y-48255185D01*
X62581539Y-48255187D01*
X62755569Y-48362942D01*
X62755575Y-48362945D01*
X62796010Y-48378609D01*
X62946444Y-48436888D01*
X63147653Y-48474500D01*
X63147656Y-48474500D01*
X63352344Y-48474500D01*
X63352347Y-48474500D01*
X63553556Y-48436888D01*
X63744427Y-48362944D01*
X63918462Y-48255186D01*
X64069732Y-48117285D01*
X64193088Y-47953935D01*
X64284328Y-47770701D01*
X64340345Y-47573821D01*
X64359232Y-47370000D01*
X64340345Y-47166179D01*
X64284328Y-46969299D01*
X64193088Y-46786065D01*
X64069732Y-46622715D01*
X64069730Y-46622712D01*
X63918462Y-46484814D01*
X63918460Y-46484812D01*
X63744430Y-46377057D01*
X63744424Y-46377054D01*
X63588367Y-46316598D01*
X63553556Y-46303112D01*
X63352347Y-46265500D01*
X63147653Y-46265500D01*
X62946444Y-46303112D01*
X62946441Y-46303112D01*
X62946441Y-46303113D01*
X62755575Y-46377054D01*
X62755569Y-46377057D01*
X62581539Y-46484812D01*
X62581537Y-46484814D01*
X62430269Y-46622713D01*
X62348953Y-46730392D01*
X62292843Y-46772028D01*
X62223131Y-46776719D01*
X62161950Y-46742977D01*
X62151045Y-46730391D01*
X62069733Y-46622716D01*
X62069731Y-46622713D01*
X61918462Y-46484814D01*
X61918460Y-46484812D01*
X61903302Y-46475427D01*
X61856666Y-46423400D01*
X61845562Y-46354418D01*
X61873515Y-46290384D01*
X61903302Y-46264573D01*
X61918460Y-46255187D01*
X61918459Y-46255187D01*
X61918462Y-46255186D01*
X62069732Y-46117285D01*
X62193088Y-45953935D01*
X62284328Y-45770701D01*
X62340345Y-45573821D01*
X62359232Y-45370000D01*
X62340345Y-45166179D01*
X62284328Y-44969299D01*
X62193088Y-44786065D01*
X62102892Y-44666626D01*
X62069730Y-44622712D01*
X61918462Y-44484814D01*
X61918460Y-44484812D01*
X61903302Y-44475427D01*
X61856666Y-44423400D01*
X61845562Y-44354418D01*
X61873515Y-44290384D01*
X61903302Y-44264573D01*
X61918460Y-44255187D01*
X61918459Y-44255187D01*
X61918462Y-44255186D01*
X62069732Y-44117285D01*
X62151045Y-44009608D01*
X62207154Y-43967971D01*
X62276866Y-43963279D01*
X62338048Y-43997022D01*
X62348954Y-44009608D01*
X62430266Y-44117283D01*
X62430268Y-44117286D01*
X62581537Y-44255185D01*
X62581539Y-44255187D01*
X62755569Y-44362942D01*
X62755575Y-44362945D01*
X62792000Y-44377056D01*
X62946444Y-44436888D01*
X63147653Y-44474500D01*
X63147656Y-44474500D01*
X63352344Y-44474500D01*
X63352347Y-44474500D01*
X63553556Y-44436888D01*
X63744427Y-44362944D01*
X63918462Y-44255186D01*
X64069732Y-44117285D01*
X64193088Y-43953935D01*
X64284328Y-43770701D01*
X64340345Y-43573821D01*
X64359232Y-43370000D01*
X64340345Y-43166179D01*
X64284328Y-42969299D01*
X64193088Y-42786065D01*
X64069732Y-42622715D01*
X64069730Y-42622712D01*
X63918463Y-42484815D01*
X63918462Y-42484814D01*
X63832005Y-42431282D01*
X63800405Y-42411716D01*
X63753770Y-42359688D01*
X63742666Y-42290706D01*
X63744855Y-42278421D01*
X63751114Y-42251300D01*
X63751380Y-42250357D01*
X63751766Y-42248478D01*
X63751767Y-42248476D01*
X63760943Y-42139472D01*
X63786182Y-42074322D01*
X63839710Y-42034249D01*
X64036810Y-41957893D01*
X64218722Y-41845258D01*
X64376841Y-41701114D01*
X64505781Y-41530370D01*
X64601151Y-41338840D01*
X64601151Y-41338837D01*
X64601153Y-41338835D01*
X64659703Y-41133050D01*
X64659704Y-41133048D01*
X64666529Y-41059394D01*
X64692313Y-40994460D01*
X64749113Y-40953771D01*
X64818894Y-40950251D01*
X64879501Y-40985015D01*
X64911692Y-41047028D01*
X64913470Y-41059394D01*
X64920296Y-41133048D01*
X64920296Y-41133050D01*
X64978846Y-41338835D01*
X64978849Y-41338840D01*
X65074219Y-41530370D01*
X65203159Y-41701114D01*
X65361278Y-41845258D01*
X65361283Y-41845261D01*
X65361286Y-41845263D01*
X65543186Y-41957891D01*
X65543187Y-41957891D01*
X65543190Y-41957893D01*
X65742703Y-42035185D01*
X65953020Y-42074500D01*
X65953022Y-42074500D01*
X66166978Y-42074500D01*
X66166980Y-42074500D01*
X66377297Y-42035185D01*
X66576810Y-41957893D01*
X66758722Y-41845258D01*
X66916841Y-41701114D01*
X67045781Y-41530370D01*
X67141151Y-41338840D01*
X67141151Y-41338837D01*
X67141153Y-41338835D01*
X67199703Y-41133050D01*
X67199704Y-41133048D01*
X67206529Y-41059394D01*
X67232313Y-40994460D01*
X67289113Y-40953771D01*
X67358894Y-40950251D01*
X67419501Y-40985015D01*
X67451692Y-41047028D01*
X67453470Y-41059394D01*
X67460296Y-41133048D01*
X67460296Y-41133050D01*
X67518846Y-41338835D01*
X67518849Y-41338840D01*
X67614219Y-41530370D01*
X67743159Y-41701114D01*
X67901278Y-41845258D01*
X67901283Y-41845261D01*
X67901286Y-41845263D01*
X68083186Y-41957891D01*
X68083187Y-41957891D01*
X68083190Y-41957893D01*
X68282703Y-42035185D01*
X68493020Y-42074500D01*
X68493022Y-42074500D01*
X68706978Y-42074500D01*
X68706980Y-42074500D01*
X68917297Y-42035185D01*
X69116810Y-41957893D01*
X69298722Y-41845258D01*
X69456841Y-41701114D01*
X69585781Y-41530370D01*
X69681151Y-41338840D01*
X69681151Y-41338837D01*
X69681153Y-41338835D01*
X69739703Y-41133050D01*
X69739704Y-41133049D01*
X69739704Y-41133048D01*
X69746529Y-41059394D01*
X69772315Y-40994457D01*
X69829116Y-40953770D01*
X69898897Y-40950250D01*
X69959503Y-40985015D01*
X69991693Y-41047028D01*
X69993471Y-41059395D01*
X70000295Y-41133047D01*
X70000296Y-41133050D01*
X70058846Y-41338835D01*
X70058849Y-41338840D01*
X70154219Y-41530370D01*
X70283159Y-41701114D01*
X70441278Y-41845258D01*
X70441283Y-41845261D01*
X70441286Y-41845263D01*
X70623186Y-41957891D01*
X70623187Y-41957891D01*
X70623190Y-41957893D01*
X70822703Y-42035185D01*
X71033020Y-42074500D01*
X71033022Y-42074500D01*
X71246978Y-42074500D01*
X71246980Y-42074500D01*
X71457297Y-42035185D01*
X71656810Y-41957893D01*
X71838722Y-41845258D01*
X71996841Y-41701114D01*
X72125781Y-41530370D01*
X72221151Y-41338840D01*
X72221151Y-41338837D01*
X72221153Y-41338835D01*
X72279703Y-41133050D01*
X72279704Y-41133048D01*
X72281092Y-41118058D01*
X72306880Y-41053121D01*
X72363680Y-41012434D01*
X72404564Y-41005500D01*
X72415436Y-41005500D01*
X72482475Y-41025185D01*
X72528230Y-41077989D01*
X72538907Y-41118058D01*
X72540296Y-41133048D01*
X72540296Y-41133050D01*
X72598846Y-41338835D01*
X72598849Y-41338840D01*
X72694219Y-41530370D01*
X72823159Y-41701114D01*
X72981278Y-41845258D01*
X72981283Y-41845261D01*
X72981286Y-41845263D01*
X73163186Y-41957891D01*
X73163187Y-41957891D01*
X73163190Y-41957893D01*
X73362703Y-42035185D01*
X73573020Y-42074500D01*
X73573022Y-42074500D01*
X73786978Y-42074500D01*
X73786980Y-42074500D01*
X73997297Y-42035185D01*
X74196810Y-41957893D01*
X74378722Y-41845258D01*
X74536841Y-41701114D01*
X74665781Y-41530370D01*
X74761151Y-41338840D01*
X74761151Y-41338837D01*
X74761153Y-41338835D01*
X74819703Y-41133050D01*
X74819704Y-41133049D01*
X74819704Y-41133048D01*
X74826529Y-41059392D01*
X74852313Y-40994458D01*
X74909113Y-40953769D01*
X74978894Y-40950249D01*
X75039501Y-40985013D01*
X75071692Y-41047025D01*
X75073470Y-41059392D01*
X75080296Y-41133048D01*
X75080296Y-41133050D01*
X75138846Y-41338835D01*
X75138849Y-41338840D01*
X75234219Y-41530370D01*
X75363159Y-41701114D01*
X75521278Y-41845258D01*
X75521283Y-41845261D01*
X75521286Y-41845263D01*
X75703186Y-41957891D01*
X75703187Y-41957891D01*
X75703190Y-41957893D01*
X75902703Y-42035185D01*
X76113020Y-42074500D01*
X76113022Y-42074500D01*
X76326978Y-42074500D01*
X76326980Y-42074500D01*
X76537297Y-42035185D01*
X76736810Y-41957893D01*
X76918722Y-41845258D01*
X77076841Y-41701114D01*
X77205781Y-41530370D01*
X77301151Y-41338840D01*
X77301151Y-41338837D01*
X77301153Y-41338835D01*
X77359703Y-41133050D01*
X77359704Y-41133049D01*
X77359704Y-41133048D01*
X77366529Y-41059394D01*
X77392315Y-40994457D01*
X77449116Y-40953770D01*
X77518897Y-40950250D01*
X77579503Y-40985015D01*
X77611693Y-41047028D01*
X77613471Y-41059395D01*
X77620295Y-41133047D01*
X77620296Y-41133050D01*
X77678846Y-41338835D01*
X77678849Y-41338840D01*
X77774219Y-41530370D01*
X77903159Y-41701114D01*
X78061278Y-41845258D01*
X78061283Y-41845261D01*
X78061286Y-41845263D01*
X78243186Y-41957891D01*
X78243187Y-41957891D01*
X78243190Y-41957893D01*
X78442703Y-42035185D01*
X78653020Y-42074500D01*
X78653022Y-42074500D01*
X78866978Y-42074500D01*
X78866980Y-42074500D01*
X79077297Y-42035185D01*
X79276810Y-41957893D01*
X79458722Y-41845258D01*
X79616841Y-41701114D01*
X79745781Y-41530370D01*
X79841151Y-41338840D01*
X79841151Y-41338837D01*
X79841153Y-41338835D01*
X79899703Y-41133050D01*
X79899704Y-41133049D01*
X79899704Y-41133048D01*
X79906529Y-41059394D01*
X79932315Y-40994457D01*
X79989116Y-40953770D01*
X80058897Y-40950250D01*
X80119503Y-40985015D01*
X80151693Y-41047028D01*
X80153471Y-41059395D01*
X80160295Y-41133047D01*
X80160296Y-41133050D01*
X80218846Y-41338835D01*
X80218849Y-41338840D01*
X80314219Y-41530370D01*
X80443159Y-41701114D01*
X80601278Y-41845258D01*
X80601283Y-41845261D01*
X80601286Y-41845263D01*
X80783186Y-41957891D01*
X80783187Y-41957891D01*
X80783190Y-41957893D01*
X80982703Y-42035185D01*
X81193020Y-42074500D01*
X81193022Y-42074500D01*
X81406978Y-42074500D01*
X81406980Y-42074500D01*
X81617297Y-42035185D01*
X81816810Y-41957893D01*
X81998722Y-41845258D01*
X82156841Y-41701114D01*
X82285781Y-41530370D01*
X82381151Y-41338840D01*
X82381151Y-41338837D01*
X82381153Y-41338835D01*
X82439703Y-41133050D01*
X82439704Y-41133049D01*
X82439704Y-41133048D01*
X82450888Y-41012348D01*
X82476674Y-40947412D01*
X82486670Y-40936117D01*
X82502787Y-40920000D01*
X85220554Y-40920000D01*
X85240295Y-41133047D01*
X85240296Y-41133050D01*
X85298846Y-41338835D01*
X85298849Y-41338840D01*
X85394219Y-41530370D01*
X85523159Y-41701114D01*
X85681278Y-41845258D01*
X85681283Y-41845261D01*
X85681286Y-41845263D01*
X85863186Y-41957891D01*
X85863187Y-41957891D01*
X85863190Y-41957893D01*
X86062703Y-42035185D01*
X86273020Y-42074500D01*
X86273022Y-42074500D01*
X86486978Y-42074500D01*
X86486980Y-42074500D01*
X86697297Y-42035185D01*
X86896810Y-41957893D01*
X87078722Y-41845258D01*
X87236841Y-41701114D01*
X87365781Y-41530370D01*
X87461151Y-41338840D01*
X87461151Y-41338837D01*
X87461153Y-41338835D01*
X87519703Y-41133050D01*
X87519704Y-41133049D01*
X87519704Y-41133048D01*
X87526529Y-41059394D01*
X87552315Y-40994457D01*
X87609116Y-40953770D01*
X87678897Y-40950250D01*
X87739503Y-40985015D01*
X87771693Y-41047028D01*
X87773471Y-41059395D01*
X87780295Y-41133047D01*
X87780296Y-41133050D01*
X87838846Y-41338835D01*
X87838849Y-41338840D01*
X87934219Y-41530370D01*
X88063159Y-41701114D01*
X88221278Y-41845258D01*
X88221283Y-41845261D01*
X88221286Y-41845263D01*
X88403186Y-41957891D01*
X88403187Y-41957891D01*
X88403190Y-41957893D01*
X88602703Y-42035185D01*
X88813020Y-42074500D01*
X88813022Y-42074500D01*
X89026978Y-42074500D01*
X89026980Y-42074500D01*
X89237297Y-42035185D01*
X89436810Y-41957893D01*
X89618722Y-41845258D01*
X89776841Y-41701114D01*
X89905781Y-41530370D01*
X90001151Y-41338840D01*
X90001151Y-41338837D01*
X90001153Y-41338835D01*
X90059703Y-41133050D01*
X90059704Y-41133049D01*
X90059704Y-41133048D01*
X90066529Y-41059394D01*
X90092315Y-40994457D01*
X90149116Y-40953770D01*
X90218897Y-40950250D01*
X90279503Y-40985015D01*
X90311693Y-41047028D01*
X90313471Y-41059395D01*
X90320295Y-41133047D01*
X90320296Y-41133050D01*
X90378846Y-41338835D01*
X90378849Y-41338840D01*
X90474219Y-41530370D01*
X90603159Y-41701114D01*
X90761278Y-41845258D01*
X90761283Y-41845261D01*
X90761286Y-41845263D01*
X90943186Y-41957891D01*
X90943187Y-41957891D01*
X90943190Y-41957893D01*
X91142703Y-42035185D01*
X91353020Y-42074500D01*
X91353022Y-42074500D01*
X91566978Y-42074500D01*
X91566980Y-42074500D01*
X91777297Y-42035185D01*
X91976810Y-41957893D01*
X92158722Y-41845258D01*
X92316841Y-41701114D01*
X92445781Y-41530370D01*
X92541151Y-41338840D01*
X92541151Y-41338837D01*
X92541153Y-41338835D01*
X92599703Y-41133050D01*
X92599704Y-41133049D01*
X92599704Y-41133048D01*
X92606529Y-41059394D01*
X92632315Y-40994457D01*
X92689116Y-40953770D01*
X92758897Y-40950250D01*
X92819503Y-40985015D01*
X92851693Y-41047028D01*
X92853471Y-41059395D01*
X92860295Y-41133047D01*
X92860296Y-41133050D01*
X92918846Y-41338835D01*
X92918849Y-41338840D01*
X93014219Y-41530370D01*
X93143159Y-41701114D01*
X93301278Y-41845258D01*
X93301283Y-41845261D01*
X93301286Y-41845263D01*
X93483186Y-41957891D01*
X93483187Y-41957891D01*
X93483190Y-41957893D01*
X93682703Y-42035185D01*
X93858845Y-42068111D01*
X93921125Y-42099779D01*
X93956398Y-42160092D01*
X93953464Y-42229900D01*
X93913255Y-42287040D01*
X93858845Y-42311888D01*
X93682703Y-42344815D01*
X93623571Y-42367723D01*
X93483192Y-42422106D01*
X93483186Y-42422108D01*
X93301286Y-42534736D01*
X93301283Y-42534738D01*
X93301279Y-42534740D01*
X93301278Y-42534742D01*
X93204779Y-42622712D01*
X93143158Y-42678887D01*
X93014219Y-42849629D01*
X92918849Y-43041158D01*
X92918846Y-43041164D01*
X92860296Y-43246949D01*
X92860295Y-43246952D01*
X92840554Y-43459999D01*
X92840554Y-43460000D01*
X92860295Y-43673047D01*
X92860296Y-43673050D01*
X92918846Y-43878835D01*
X92918849Y-43878841D01*
X92977696Y-43997022D01*
X93014219Y-44070370D01*
X93143159Y-44241114D01*
X93301278Y-44385258D01*
X93301283Y-44385261D01*
X93301286Y-44385263D01*
X93483186Y-44497891D01*
X93483187Y-44497891D01*
X93483190Y-44497893D01*
X93682703Y-44575185D01*
X93858845Y-44608111D01*
X93921125Y-44639779D01*
X93956398Y-44700092D01*
X93953464Y-44769900D01*
X93913255Y-44827040D01*
X93858845Y-44851888D01*
X93682703Y-44884815D01*
X93556533Y-44933693D01*
X93483192Y-44962106D01*
X93483186Y-44962108D01*
X93301286Y-45074736D01*
X93301283Y-45074738D01*
X93301279Y-45074740D01*
X93301278Y-45074742D01*
X93229104Y-45140537D01*
X93143158Y-45218887D01*
X93014219Y-45389629D01*
X92918849Y-45581158D01*
X92918846Y-45581164D01*
X92860296Y-45786949D01*
X92860295Y-45786952D01*
X92840554Y-45999999D01*
X92840554Y-46000000D01*
X92860295Y-46213047D01*
X92860296Y-46213050D01*
X92918846Y-46418835D01*
X92918849Y-46418841D01*
X92951697Y-46484808D01*
X93014219Y-46610370D01*
X93143159Y-46781114D01*
X93301278Y-46925258D01*
X93301283Y-46925261D01*
X93301286Y-46925263D01*
X93483186Y-47037891D01*
X93483187Y-47037891D01*
X93483190Y-47037893D01*
X93682703Y-47115185D01*
X93893020Y-47154500D01*
X93893022Y-47154500D01*
X94106978Y-47154500D01*
X94106980Y-47154500D01*
X94317297Y-47115185D01*
X94516810Y-47037893D01*
X94698722Y-46925258D01*
X94856841Y-46781114D01*
X94985781Y-46610370D01*
X95081151Y-46418840D01*
X95081151Y-46418837D01*
X95081153Y-46418835D01*
X95127714Y-46255187D01*
X95139704Y-46213048D01*
X95159446Y-46000000D01*
X95139704Y-45786952D01*
X95097799Y-45639670D01*
X95081153Y-45581164D01*
X95081150Y-45581158D01*
X95046517Y-45511605D01*
X94985781Y-45389630D01*
X94856841Y-45218886D01*
X94698722Y-45074742D01*
X94698716Y-45074738D01*
X94698713Y-45074736D01*
X94516813Y-44962108D01*
X94516807Y-44962106D01*
X94317297Y-44884815D01*
X94141153Y-44851888D01*
X94078874Y-44820221D01*
X94043601Y-44759908D01*
X94046535Y-44690100D01*
X94086744Y-44632960D01*
X94141152Y-44608112D01*
X94317297Y-44575185D01*
X94516810Y-44497893D01*
X94698722Y-44385258D01*
X94856841Y-44241114D01*
X94985781Y-44070370D01*
X95081151Y-43878840D01*
X95081151Y-43878837D01*
X95081153Y-43878835D01*
X95139703Y-43673050D01*
X95139704Y-43673047D01*
X95159446Y-43460000D01*
X95159446Y-43459999D01*
X95139704Y-43246952D01*
X95139703Y-43246949D01*
X95081153Y-43041164D01*
X95081150Y-43041158D01*
X95045367Y-42969295D01*
X94985781Y-42849630D01*
X94856841Y-42678886D01*
X94698722Y-42534742D01*
X94698716Y-42534738D01*
X94698713Y-42534736D01*
X94516813Y-42422108D01*
X94516807Y-42422106D01*
X94317297Y-42344815D01*
X94141153Y-42311888D01*
X94078874Y-42280221D01*
X94043601Y-42219908D01*
X94046535Y-42150100D01*
X94086744Y-42092960D01*
X94141152Y-42068112D01*
X94317297Y-42035185D01*
X94516810Y-41957893D01*
X94698722Y-41845258D01*
X94856841Y-41701114D01*
X94985781Y-41530370D01*
X95081151Y-41338840D01*
X95081151Y-41338837D01*
X95081153Y-41338835D01*
X95139703Y-41133050D01*
X95139704Y-41133049D01*
X95139704Y-41133048D01*
X95146529Y-41059394D01*
X95172315Y-40994457D01*
X95229116Y-40953770D01*
X95298897Y-40950250D01*
X95359503Y-40985015D01*
X95391693Y-41047028D01*
X95393471Y-41059395D01*
X95400295Y-41133047D01*
X95400296Y-41133050D01*
X95458846Y-41338835D01*
X95458849Y-41338840D01*
X95554219Y-41530370D01*
X95683159Y-41701114D01*
X95841278Y-41845258D01*
X95841283Y-41845261D01*
X95841286Y-41845263D01*
X96023186Y-41957891D01*
X96023187Y-41957891D01*
X96023190Y-41957893D01*
X96222703Y-42035185D01*
X96433020Y-42074500D01*
X96433022Y-42074500D01*
X96646978Y-42074500D01*
X96646980Y-42074500D01*
X96857297Y-42035185D01*
X97056810Y-41957893D01*
X97238722Y-41845258D01*
X97396841Y-41701114D01*
X97525781Y-41530370D01*
X97621151Y-41338840D01*
X97621151Y-41338837D01*
X97621153Y-41338835D01*
X97679703Y-41133050D01*
X97679704Y-41133049D01*
X97679704Y-41133048D01*
X97686529Y-41059394D01*
X97712315Y-40994457D01*
X97769116Y-40953770D01*
X97838897Y-40950250D01*
X97899503Y-40985015D01*
X97931693Y-41047028D01*
X97933471Y-41059395D01*
X97940295Y-41133047D01*
X97940296Y-41133050D01*
X97998846Y-41338835D01*
X97998849Y-41338840D01*
X98094219Y-41530370D01*
X98223159Y-41701114D01*
X98381278Y-41845258D01*
X98381283Y-41845261D01*
X98381286Y-41845263D01*
X98563186Y-41957891D01*
X98563187Y-41957891D01*
X98563190Y-41957893D01*
X98762703Y-42035185D01*
X98973020Y-42074500D01*
X98973022Y-42074500D01*
X99186978Y-42074500D01*
X99186980Y-42074500D01*
X99397297Y-42035185D01*
X99596810Y-41957893D01*
X99778722Y-41845258D01*
X99936841Y-41701114D01*
X100065781Y-41530370D01*
X100161151Y-41338840D01*
X100161151Y-41338837D01*
X100161153Y-41338835D01*
X100219703Y-41133050D01*
X100219704Y-41133049D01*
X100219704Y-41133048D01*
X100226529Y-41059394D01*
X100252315Y-40994457D01*
X100309116Y-40953770D01*
X100378897Y-40950250D01*
X100439503Y-40985015D01*
X100471693Y-41047028D01*
X100473471Y-41059395D01*
X100480295Y-41133047D01*
X100480296Y-41133050D01*
X100538846Y-41338835D01*
X100538849Y-41338840D01*
X100634219Y-41530370D01*
X100763159Y-41701114D01*
X100921278Y-41845258D01*
X100921283Y-41845261D01*
X100921286Y-41845263D01*
X101103186Y-41957891D01*
X101103187Y-41957891D01*
X101103190Y-41957893D01*
X101302703Y-42035185D01*
X101513020Y-42074500D01*
X101513022Y-42074500D01*
X101726978Y-42074500D01*
X101726980Y-42074500D01*
X101937297Y-42035185D01*
X102136810Y-41957893D01*
X102318722Y-41845258D01*
X102476841Y-41701114D01*
X102605781Y-41530370D01*
X102701151Y-41338840D01*
X102701151Y-41338837D01*
X102701153Y-41338835D01*
X102759703Y-41133050D01*
X102759704Y-41133049D01*
X102759704Y-41133048D01*
X102766529Y-41059394D01*
X102792315Y-40994457D01*
X102849116Y-40953770D01*
X102918897Y-40950250D01*
X102979503Y-40985015D01*
X103011693Y-41047028D01*
X103013471Y-41059395D01*
X103020295Y-41133047D01*
X103020296Y-41133050D01*
X103078846Y-41338835D01*
X103078849Y-41338840D01*
X103174219Y-41530370D01*
X103303159Y-41701114D01*
X103461278Y-41845258D01*
X103461283Y-41845261D01*
X103461286Y-41845263D01*
X103643186Y-41957891D01*
X103643187Y-41957891D01*
X103643190Y-41957893D01*
X103842703Y-42035185D01*
X104053020Y-42074500D01*
X104053022Y-42074500D01*
X104266978Y-42074500D01*
X104266980Y-42074500D01*
X104477297Y-42035185D01*
X104676810Y-41957893D01*
X104858722Y-41845258D01*
X105016841Y-41701114D01*
X105145781Y-41530370D01*
X105241151Y-41338840D01*
X105241151Y-41338837D01*
X105241153Y-41338835D01*
X105299703Y-41133050D01*
X105299704Y-41133049D01*
X105299704Y-41133048D01*
X105306529Y-41059394D01*
X105332315Y-40994457D01*
X105389116Y-40953770D01*
X105458897Y-40950250D01*
X105519503Y-40985015D01*
X105551693Y-41047028D01*
X105553471Y-41059395D01*
X105560295Y-41133047D01*
X105560296Y-41133050D01*
X105618846Y-41338835D01*
X105618849Y-41338840D01*
X105714219Y-41530370D01*
X105843159Y-41701114D01*
X106001278Y-41845258D01*
X106001283Y-41845261D01*
X106001286Y-41845263D01*
X106183186Y-41957891D01*
X106183187Y-41957891D01*
X106183190Y-41957893D01*
X106382703Y-42035185D01*
X106593020Y-42074500D01*
X106593022Y-42074500D01*
X106806978Y-42074500D01*
X106806980Y-42074500D01*
X107017297Y-42035185D01*
X107216810Y-41957893D01*
X107398722Y-41845258D01*
X107556841Y-41701114D01*
X107685781Y-41530370D01*
X107781151Y-41338840D01*
X107781151Y-41338837D01*
X107781153Y-41338835D01*
X107839703Y-41133050D01*
X107839704Y-41133049D01*
X107839704Y-41133048D01*
X107859446Y-40920000D01*
X107839704Y-40706952D01*
X107831200Y-40677065D01*
X107781153Y-40501164D01*
X107781150Y-40501158D01*
X107759992Y-40458667D01*
X107685781Y-40309630D01*
X107556841Y-40138886D01*
X107398722Y-39994742D01*
X107398716Y-39994738D01*
X107398713Y-39994736D01*
X107216813Y-39882108D01*
X107216807Y-39882106D01*
X107017297Y-39804815D01*
X106806980Y-39765500D01*
X106593020Y-39765500D01*
X106382703Y-39804815D01*
X106256533Y-39853693D01*
X106183192Y-39882106D01*
X106183186Y-39882108D01*
X106001286Y-39994736D01*
X106001283Y-39994738D01*
X106001279Y-39994740D01*
X106001278Y-39994742D01*
X105843162Y-40138883D01*
X105843158Y-40138887D01*
X105714219Y-40309629D01*
X105618849Y-40501158D01*
X105618846Y-40501164D01*
X105560296Y-40706949D01*
X105560295Y-40706952D01*
X105553471Y-40780604D01*
X105527685Y-40845542D01*
X105470884Y-40886229D01*
X105401103Y-40889749D01*
X105340497Y-40854984D01*
X105308307Y-40792971D01*
X105306529Y-40780604D01*
X105299704Y-40706952D01*
X105299703Y-40706949D01*
X105241153Y-40501164D01*
X105241150Y-40501158D01*
X105219992Y-40458667D01*
X105145781Y-40309630D01*
X105016841Y-40138886D01*
X104858722Y-39994742D01*
X104858716Y-39994738D01*
X104858713Y-39994736D01*
X104676813Y-39882108D01*
X104676807Y-39882106D01*
X104477297Y-39804815D01*
X104266980Y-39765500D01*
X104053020Y-39765500D01*
X103842703Y-39804815D01*
X103716533Y-39853693D01*
X103643192Y-39882106D01*
X103643186Y-39882108D01*
X103461286Y-39994736D01*
X103461283Y-39994738D01*
X103461279Y-39994740D01*
X103461278Y-39994742D01*
X103303162Y-40138883D01*
X103303158Y-40138887D01*
X103174219Y-40309629D01*
X103078849Y-40501158D01*
X103078846Y-40501164D01*
X103020296Y-40706949D01*
X103020295Y-40706952D01*
X103013471Y-40780604D01*
X102987685Y-40845542D01*
X102930884Y-40886229D01*
X102861103Y-40889749D01*
X102800497Y-40854984D01*
X102768307Y-40792971D01*
X102766529Y-40780604D01*
X102759704Y-40706952D01*
X102759703Y-40706949D01*
X102701153Y-40501164D01*
X102701150Y-40501158D01*
X102679992Y-40458667D01*
X102605781Y-40309630D01*
X102476841Y-40138886D01*
X102318722Y-39994742D01*
X102318716Y-39994738D01*
X102318713Y-39994736D01*
X102136813Y-39882108D01*
X102136807Y-39882106D01*
X101937297Y-39804815D01*
X101726980Y-39765500D01*
X101513020Y-39765500D01*
X101302703Y-39804815D01*
X101176533Y-39853693D01*
X101103192Y-39882106D01*
X101103186Y-39882108D01*
X100921286Y-39994736D01*
X100921283Y-39994738D01*
X100921279Y-39994740D01*
X100921278Y-39994742D01*
X100763162Y-40138883D01*
X100763158Y-40138887D01*
X100634219Y-40309629D01*
X100538849Y-40501158D01*
X100538846Y-40501164D01*
X100480296Y-40706949D01*
X100480295Y-40706952D01*
X100473471Y-40780604D01*
X100447685Y-40845542D01*
X100390884Y-40886229D01*
X100321103Y-40889749D01*
X100260497Y-40854984D01*
X100228307Y-40792971D01*
X100226529Y-40780604D01*
X100219704Y-40706952D01*
X100219703Y-40706949D01*
X100161153Y-40501164D01*
X100161150Y-40501158D01*
X100139992Y-40458667D01*
X100065781Y-40309630D01*
X99936841Y-40138886D01*
X99778722Y-39994742D01*
X99778716Y-39994738D01*
X99778713Y-39994736D01*
X99596813Y-39882108D01*
X99596807Y-39882106D01*
X99397297Y-39804815D01*
X99186980Y-39765500D01*
X98973020Y-39765500D01*
X98762703Y-39804815D01*
X98636533Y-39853693D01*
X98563192Y-39882106D01*
X98563186Y-39882108D01*
X98381286Y-39994736D01*
X98381283Y-39994738D01*
X98381279Y-39994740D01*
X98381278Y-39994742D01*
X98223162Y-40138883D01*
X98223158Y-40138887D01*
X98094219Y-40309629D01*
X97998849Y-40501158D01*
X97998846Y-40501164D01*
X97940296Y-40706949D01*
X97940295Y-40706952D01*
X97933471Y-40780604D01*
X97907685Y-40845542D01*
X97850884Y-40886229D01*
X97781103Y-40889749D01*
X97720497Y-40854984D01*
X97688307Y-40792971D01*
X97686529Y-40780604D01*
X97679704Y-40706952D01*
X97679703Y-40706949D01*
X97621153Y-40501164D01*
X97621150Y-40501158D01*
X97599992Y-40458667D01*
X97525781Y-40309630D01*
X97396841Y-40138886D01*
X97238722Y-39994742D01*
X97238716Y-39994738D01*
X97238713Y-39994736D01*
X97056813Y-39882108D01*
X97056807Y-39882106D01*
X96857297Y-39804815D01*
X96646980Y-39765500D01*
X96433020Y-39765500D01*
X96222703Y-39804815D01*
X96096533Y-39853693D01*
X96023192Y-39882106D01*
X96023186Y-39882108D01*
X95841286Y-39994736D01*
X95841283Y-39994738D01*
X95841279Y-39994740D01*
X95841278Y-39994742D01*
X95683162Y-40138883D01*
X95683158Y-40138887D01*
X95554219Y-40309629D01*
X95458849Y-40501158D01*
X95458846Y-40501164D01*
X95400296Y-40706949D01*
X95400295Y-40706952D01*
X95393471Y-40780604D01*
X95367685Y-40845542D01*
X95310884Y-40886229D01*
X95241103Y-40889749D01*
X95180497Y-40854984D01*
X95148307Y-40792971D01*
X95146529Y-40780604D01*
X95139704Y-40706952D01*
X95139703Y-40706949D01*
X95081153Y-40501164D01*
X95081150Y-40501158D01*
X95059992Y-40458667D01*
X94985781Y-40309630D01*
X94856841Y-40138886D01*
X94698722Y-39994742D01*
X94698716Y-39994738D01*
X94698713Y-39994736D01*
X94516813Y-39882108D01*
X94516807Y-39882106D01*
X94317297Y-39804815D01*
X94106980Y-39765500D01*
X93893020Y-39765500D01*
X93682703Y-39804815D01*
X93556533Y-39853693D01*
X93483192Y-39882106D01*
X93483186Y-39882108D01*
X93301286Y-39994736D01*
X93301283Y-39994738D01*
X93301279Y-39994740D01*
X93301278Y-39994742D01*
X93143162Y-40138883D01*
X93143158Y-40138887D01*
X93014219Y-40309629D01*
X92918849Y-40501158D01*
X92918846Y-40501164D01*
X92860296Y-40706949D01*
X92860295Y-40706952D01*
X92853471Y-40780604D01*
X92827685Y-40845542D01*
X92770884Y-40886229D01*
X92701103Y-40889749D01*
X92640497Y-40854984D01*
X92608307Y-40792971D01*
X92606529Y-40780604D01*
X92599704Y-40706952D01*
X92599703Y-40706949D01*
X92541153Y-40501164D01*
X92541150Y-40501158D01*
X92519992Y-40458667D01*
X92445781Y-40309630D01*
X92316841Y-40138886D01*
X92158722Y-39994742D01*
X92158716Y-39994738D01*
X92158713Y-39994736D01*
X91976813Y-39882108D01*
X91976807Y-39882106D01*
X91777297Y-39804815D01*
X91566980Y-39765500D01*
X91353020Y-39765500D01*
X91142703Y-39804815D01*
X91016533Y-39853693D01*
X90943192Y-39882106D01*
X90943186Y-39882108D01*
X90761286Y-39994736D01*
X90761283Y-39994738D01*
X90761279Y-39994740D01*
X90761278Y-39994742D01*
X90603162Y-40138883D01*
X90603158Y-40138887D01*
X90474219Y-40309629D01*
X90378849Y-40501158D01*
X90378846Y-40501164D01*
X90320296Y-40706949D01*
X90320295Y-40706952D01*
X90313471Y-40780604D01*
X90287685Y-40845542D01*
X90230884Y-40886229D01*
X90161103Y-40889749D01*
X90100497Y-40854984D01*
X90068307Y-40792971D01*
X90066529Y-40780604D01*
X90059704Y-40706952D01*
X90059703Y-40706949D01*
X90001153Y-40501164D01*
X90001150Y-40501158D01*
X89979992Y-40458667D01*
X89905781Y-40309630D01*
X89776841Y-40138886D01*
X89618722Y-39994742D01*
X89618716Y-39994738D01*
X89618713Y-39994736D01*
X89436813Y-39882108D01*
X89436807Y-39882106D01*
X89237297Y-39804815D01*
X89026980Y-39765500D01*
X88813020Y-39765500D01*
X88602703Y-39804815D01*
X88476533Y-39853693D01*
X88403192Y-39882106D01*
X88403186Y-39882108D01*
X88221286Y-39994736D01*
X88221283Y-39994738D01*
X88221279Y-39994740D01*
X88221278Y-39994742D01*
X88063162Y-40138883D01*
X88063158Y-40138887D01*
X87934219Y-40309629D01*
X87838849Y-40501158D01*
X87838846Y-40501164D01*
X87780296Y-40706949D01*
X87780295Y-40706952D01*
X87773471Y-40780604D01*
X87747685Y-40845542D01*
X87690884Y-40886229D01*
X87621103Y-40889749D01*
X87560497Y-40854984D01*
X87528307Y-40792971D01*
X87526529Y-40780604D01*
X87519704Y-40706952D01*
X87519703Y-40706949D01*
X87461153Y-40501164D01*
X87461150Y-40501158D01*
X87439992Y-40458667D01*
X87365781Y-40309630D01*
X87236841Y-40138886D01*
X87078722Y-39994742D01*
X87078716Y-39994738D01*
X87078713Y-39994736D01*
X86896813Y-39882108D01*
X86896807Y-39882106D01*
X86697297Y-39804815D01*
X86486980Y-39765500D01*
X86273020Y-39765500D01*
X86062703Y-39804815D01*
X85936533Y-39853693D01*
X85863192Y-39882106D01*
X85863186Y-39882108D01*
X85681286Y-39994736D01*
X85681283Y-39994738D01*
X85681279Y-39994740D01*
X85681278Y-39994742D01*
X85523162Y-40138883D01*
X85523158Y-40138887D01*
X85394219Y-40309629D01*
X85298849Y-40501158D01*
X85298846Y-40501164D01*
X85240296Y-40706949D01*
X85240295Y-40706952D01*
X85220554Y-40919999D01*
X85220554Y-40920000D01*
X82502787Y-40920000D01*
X84075186Y-39347601D01*
X84078854Y-39344220D01*
X84121100Y-39308337D01*
X84170104Y-39243872D01*
X84220842Y-39180753D01*
X84220842Y-39180751D01*
X84220844Y-39180750D01*
X84221432Y-39179829D01*
X84232426Y-39162105D01*
X84233050Y-39161069D01*
X84233054Y-39161064D01*
X84267055Y-39087570D01*
X84303037Y-39015021D01*
X84303037Y-39015017D01*
X84303440Y-39013923D01*
X84310329Y-38994361D01*
X84310727Y-38993177D01*
X84310732Y-38993167D01*
X84328139Y-38914083D01*
X84347684Y-38835494D01*
X84347684Y-38835492D01*
X84347833Y-38834400D01*
X84350371Y-38813677D01*
X84350500Y-38812497D01*
X84350500Y-38731530D01*
X84352693Y-38650563D01*
X84352608Y-38649520D01*
X84350500Y-38627352D01*
X84350500Y-35466976D01*
X84370185Y-35399937D01*
X84422989Y-35354182D01*
X84450135Y-35346736D01*
X84449932Y-35345876D01*
X84457479Y-35344092D01*
X84457481Y-35344091D01*
X84457483Y-35344091D01*
X84592331Y-35293796D01*
X84707546Y-35207546D01*
X84793796Y-35092331D01*
X84844091Y-34957483D01*
X84850500Y-34897873D01*
X84850499Y-33102128D01*
X84844091Y-33042517D01*
X84793796Y-32907669D01*
X84793795Y-32907668D01*
X84793793Y-32907664D01*
X84707547Y-32792455D01*
X84707544Y-32792452D01*
X84592335Y-32706206D01*
X84592328Y-32706202D01*
X84457482Y-32655908D01*
X84457483Y-32655908D01*
X84397883Y-32649501D01*
X84397881Y-32649500D01*
X84397873Y-32649500D01*
X84397864Y-32649500D01*
X82602129Y-32649500D01*
X82602123Y-32649501D01*
X82542516Y-32655908D01*
X82407671Y-32706202D01*
X82407664Y-32706206D01*
X82292455Y-32792452D01*
X82292452Y-32792455D01*
X82206206Y-32907664D01*
X82206202Y-32907671D01*
X82155908Y-33042517D01*
X82149501Y-33102116D01*
X82149501Y-33102123D01*
X82149500Y-33102135D01*
X82149500Y-34897870D01*
X82149501Y-34897876D01*
X82155908Y-34957483D01*
X82206202Y-35092328D01*
X82206206Y-35092335D01*
X82292452Y-35207544D01*
X82292455Y-35207547D01*
X82407664Y-35293793D01*
X82407671Y-35293797D01*
X82542517Y-35344091D01*
X82550062Y-35345874D01*
X82549523Y-35348151D01*
X82603287Y-35370408D01*
X82643147Y-35427793D01*
X82649500Y-35466975D01*
X82649500Y-38316349D01*
X82629815Y-38383388D01*
X82613181Y-38404030D01*
X81288030Y-39729181D01*
X81226707Y-39762666D01*
X81200349Y-39765500D01*
X81193020Y-39765500D01*
X80982703Y-39804815D01*
X80856533Y-39853693D01*
X80783192Y-39882106D01*
X80783186Y-39882108D01*
X80601286Y-39994736D01*
X80601283Y-39994738D01*
X80601279Y-39994740D01*
X80601278Y-39994742D01*
X80443162Y-40138883D01*
X80443158Y-40138887D01*
X80314219Y-40309629D01*
X80218849Y-40501158D01*
X80218846Y-40501164D01*
X80160296Y-40706949D01*
X80160295Y-40706952D01*
X80153471Y-40780604D01*
X80127685Y-40845542D01*
X80070884Y-40886229D01*
X80001103Y-40889749D01*
X79940497Y-40854984D01*
X79908307Y-40792971D01*
X79906529Y-40780604D01*
X79899704Y-40706952D01*
X79899703Y-40706949D01*
X79841153Y-40501164D01*
X79841150Y-40501158D01*
X79819992Y-40458667D01*
X79745781Y-40309630D01*
X79616841Y-40138886D01*
X79458722Y-39994742D01*
X79458716Y-39994738D01*
X79458713Y-39994736D01*
X79276813Y-39882108D01*
X79276807Y-39882106D01*
X79077297Y-39804815D01*
X78866980Y-39765500D01*
X78653020Y-39765500D01*
X78442703Y-39804815D01*
X78316533Y-39853693D01*
X78243192Y-39882106D01*
X78243186Y-39882108D01*
X78061286Y-39994736D01*
X78061283Y-39994738D01*
X78061279Y-39994740D01*
X78061278Y-39994742D01*
X77903162Y-40138883D01*
X77903158Y-40138887D01*
X77774219Y-40309629D01*
X77678849Y-40501158D01*
X77678846Y-40501164D01*
X77620296Y-40706949D01*
X77620295Y-40706952D01*
X77613471Y-40780604D01*
X77587685Y-40845542D01*
X77530884Y-40886229D01*
X77461103Y-40889749D01*
X77400497Y-40854984D01*
X77368307Y-40792971D01*
X77366529Y-40780604D01*
X77359704Y-40706952D01*
X77359703Y-40706949D01*
X77301153Y-40501164D01*
X77301150Y-40501158D01*
X77279992Y-40458667D01*
X77205781Y-40309630D01*
X77076841Y-40138886D01*
X76918722Y-39994742D01*
X76918716Y-39994738D01*
X76918713Y-39994736D01*
X76736813Y-39882108D01*
X76736807Y-39882106D01*
X76537297Y-39804815D01*
X76326980Y-39765500D01*
X76326977Y-39765500D01*
X76326972Y-39765499D01*
X76324860Y-39765303D01*
X76323914Y-39764927D01*
X76321345Y-39764447D01*
X76321439Y-39763944D01*
X76259926Y-39739509D01*
X76219245Y-39682704D01*
X76215733Y-39612922D01*
X76248633Y-39554154D01*
X79360585Y-36442201D01*
X79364252Y-36438821D01*
X79406500Y-36402937D01*
X79455498Y-36338480D01*
X79506242Y-36275354D01*
X79506242Y-36275352D01*
X79506244Y-36275351D01*
X79506824Y-36274443D01*
X79517849Y-36256669D01*
X79518451Y-36255669D01*
X79518452Y-36255666D01*
X79518454Y-36255664D01*
X79552460Y-36182160D01*
X79588436Y-36109621D01*
X79588437Y-36109614D01*
X79588834Y-36108535D01*
X79595789Y-36088783D01*
X79596127Y-36087777D01*
X79596132Y-36087767D01*
X79613541Y-36008673D01*
X79633084Y-35930095D01*
X79633083Y-35930095D01*
X79633085Y-35930091D01*
X79633230Y-35929026D01*
X79635771Y-35908277D01*
X79635900Y-35907097D01*
X79635900Y-35826131D01*
X79638093Y-35745164D01*
X79638008Y-35744120D01*
X79635900Y-35721952D01*
X79635900Y-27882958D01*
X79655585Y-27815919D01*
X79672219Y-27795277D01*
X79737814Y-27729682D01*
X79823895Y-27643601D01*
X79953826Y-27458041D01*
X80008402Y-27414417D01*
X80077900Y-27407223D01*
X80140255Y-27438746D01*
X80156975Y-27458042D01*
X80286900Y-27643595D01*
X80286905Y-27643601D01*
X80453999Y-27810695D01*
X80550784Y-27878464D01*
X80647565Y-27946232D01*
X80647567Y-27946233D01*
X80647570Y-27946235D01*
X80861737Y-28046103D01*
X81089992Y-28107263D01*
X81266434Y-28122700D01*
X81325399Y-28127859D01*
X81325400Y-28127859D01*
X81325401Y-28127859D01*
X81384366Y-28122700D01*
X81560808Y-28107263D01*
X81789063Y-28046103D01*
X82003230Y-27946235D01*
X82196801Y-27810695D01*
X82363895Y-27643601D01*
X82493826Y-27458040D01*
X82548401Y-27414417D01*
X82617899Y-27407223D01*
X82680254Y-27438746D01*
X82696974Y-27458041D01*
X82826905Y-27643601D01*
X82993999Y-27810695D01*
X83090784Y-27878464D01*
X83187565Y-27946232D01*
X83187567Y-27946233D01*
X83187570Y-27946235D01*
X83401737Y-28046103D01*
X83629992Y-28107263D01*
X83806434Y-28122700D01*
X83865399Y-28127859D01*
X83865400Y-28127859D01*
X83865401Y-28127859D01*
X83924366Y-28122700D01*
X84100808Y-28107263D01*
X84329063Y-28046103D01*
X84543230Y-27946235D01*
X84736801Y-27810695D01*
X84903895Y-27643601D01*
X85033826Y-27458041D01*
X85088402Y-27414417D01*
X85157900Y-27407223D01*
X85220255Y-27438746D01*
X85236975Y-27458042D01*
X85366900Y-27643595D01*
X85366905Y-27643601D01*
X85533999Y-27810695D01*
X85630784Y-27878464D01*
X85727565Y-27946232D01*
X85727567Y-27946233D01*
X85727570Y-27946235D01*
X85941737Y-28046103D01*
X86169992Y-28107263D01*
X86346434Y-28122700D01*
X86405399Y-28127859D01*
X86405400Y-28127859D01*
X86405401Y-28127859D01*
X86464366Y-28122700D01*
X86640808Y-28107263D01*
X86869063Y-28046103D01*
X87083230Y-27946235D01*
X87276801Y-27810695D01*
X87443895Y-27643601D01*
X87573826Y-27458040D01*
X87628401Y-27414417D01*
X87697899Y-27407223D01*
X87760254Y-27438746D01*
X87776974Y-27458041D01*
X87906905Y-27643601D01*
X88073999Y-27810695D01*
X88170784Y-27878464D01*
X88267565Y-27946232D01*
X88267567Y-27946233D01*
X88267570Y-27946235D01*
X88481737Y-28046103D01*
X88709992Y-28107263D01*
X88886434Y-28122700D01*
X88945399Y-28127859D01*
X88945400Y-28127859D01*
X88945401Y-28127859D01*
X89004366Y-28122700D01*
X89180808Y-28107263D01*
X89409063Y-28046103D01*
X89623230Y-27946235D01*
X89816801Y-27810695D01*
X89983895Y-27643601D01*
X90119435Y-27450030D01*
X90219303Y-27235863D01*
X90280463Y-27007608D01*
X90301059Y-26772200D01*
X90280463Y-26536792D01*
X90219303Y-26308537D01*
X90119435Y-26094371D01*
X90113825Y-26086358D01*
X89983894Y-25900797D01*
X89816802Y-25733706D01*
X89816795Y-25733701D01*
X89623234Y-25598167D01*
X89623230Y-25598165D01*
X89623228Y-25598164D01*
X89409063Y-25498297D01*
X89409059Y-25498296D01*
X89409055Y-25498294D01*
X89180813Y-25437138D01*
X89180803Y-25437136D01*
X88945401Y-25416541D01*
X88945399Y-25416541D01*
X88709996Y-25437136D01*
X88709986Y-25437138D01*
X88481744Y-25498294D01*
X88481735Y-25498298D01*
X88267571Y-25598164D01*
X88267569Y-25598165D01*
X88073997Y-25733705D01*
X87906905Y-25900797D01*
X87776975Y-26086358D01*
X87722398Y-26129983D01*
X87652900Y-26137177D01*
X87590545Y-26105654D01*
X87573825Y-26086358D01*
X87443894Y-25900797D01*
X87276802Y-25733706D01*
X87276795Y-25733701D01*
X87083234Y-25598167D01*
X87083230Y-25598165D01*
X87083228Y-25598164D01*
X86869063Y-25498297D01*
X86869059Y-25498296D01*
X86869055Y-25498294D01*
X86640813Y-25437138D01*
X86640803Y-25437136D01*
X86405401Y-25416541D01*
X86405399Y-25416541D01*
X86169996Y-25437136D01*
X86169986Y-25437138D01*
X85941744Y-25498294D01*
X85941735Y-25498298D01*
X85727571Y-25598164D01*
X85727569Y-25598165D01*
X85533997Y-25733705D01*
X85366905Y-25900797D01*
X85236975Y-26086358D01*
X85182398Y-26129983D01*
X85112900Y-26137177D01*
X85050545Y-26105654D01*
X85033825Y-26086358D01*
X84903894Y-25900797D01*
X84736802Y-25733706D01*
X84736795Y-25733701D01*
X84543234Y-25598167D01*
X84543230Y-25598165D01*
X84543228Y-25598164D01*
X84329063Y-25498297D01*
X84329059Y-25498296D01*
X84329055Y-25498294D01*
X84100813Y-25437138D01*
X84100803Y-25437136D01*
X83865401Y-25416541D01*
X83865399Y-25416541D01*
X83629996Y-25437136D01*
X83629986Y-25437138D01*
X83401744Y-25498294D01*
X83401735Y-25498298D01*
X83187571Y-25598164D01*
X83187569Y-25598165D01*
X82993997Y-25733705D01*
X82826905Y-25900797D01*
X82696975Y-26086358D01*
X82642398Y-26129983D01*
X82572900Y-26137177D01*
X82510545Y-26105654D01*
X82493825Y-26086358D01*
X82363894Y-25900797D01*
X82196802Y-25733706D01*
X82196795Y-25733701D01*
X82003234Y-25598167D01*
X82003230Y-25598165D01*
X82003228Y-25598164D01*
X81789063Y-25498297D01*
X81789059Y-25498296D01*
X81789055Y-25498294D01*
X81560813Y-25437138D01*
X81560803Y-25437136D01*
X81325401Y-25416541D01*
X81325399Y-25416541D01*
X81089996Y-25437136D01*
X81089986Y-25437138D01*
X80861744Y-25498294D01*
X80861735Y-25498298D01*
X80647571Y-25598164D01*
X80647569Y-25598165D01*
X80453997Y-25733705D01*
X80286905Y-25900797D01*
X80156975Y-26086358D01*
X80102398Y-26129983D01*
X80032900Y-26137177D01*
X79970545Y-26105654D01*
X79953825Y-26086358D01*
X79823894Y-25900797D01*
X79656802Y-25733706D01*
X79656795Y-25733701D01*
X79463234Y-25598167D01*
X79463230Y-25598165D01*
X79463228Y-25598164D01*
X79249063Y-25498297D01*
X79249059Y-25498296D01*
X79249055Y-25498294D01*
X79020813Y-25437138D01*
X79020803Y-25437136D01*
X78785401Y-25416541D01*
X78785399Y-25416541D01*
X78549996Y-25437136D01*
X78549986Y-25437138D01*
X78321744Y-25498294D01*
X78321735Y-25498298D01*
X78107571Y-25598164D01*
X78107569Y-25598165D01*
X77913997Y-25733705D01*
X77746905Y-25900797D01*
X77616975Y-26086358D01*
X77562398Y-26129983D01*
X77492900Y-26137177D01*
X77430545Y-26105654D01*
X77413825Y-26086358D01*
X77283894Y-25900797D01*
X77116802Y-25733706D01*
X77116795Y-25733701D01*
X76923234Y-25598167D01*
X76923230Y-25598165D01*
X76923228Y-25598164D01*
X76709063Y-25498297D01*
X76709059Y-25498296D01*
X76709055Y-25498294D01*
X76480813Y-25437138D01*
X76480803Y-25437136D01*
X76245401Y-25416541D01*
X76245399Y-25416541D01*
X76009996Y-25437136D01*
X76009986Y-25437138D01*
X75781744Y-25498294D01*
X75781735Y-25498298D01*
X75567571Y-25598164D01*
X75567569Y-25598165D01*
X75373997Y-25733705D01*
X75206905Y-25900797D01*
X75071365Y-26094369D01*
X75071364Y-26094371D01*
X74971498Y-26308535D01*
X74971494Y-26308544D01*
X74910338Y-26536786D01*
X74910336Y-26536796D01*
X74889741Y-26772199D01*
X74889741Y-26772203D01*
X74896999Y-26855170D01*
X74883232Y-26923669D01*
X74861152Y-26953657D01*
X70564830Y-31249980D01*
X70561127Y-31253394D01*
X70518898Y-31289265D01*
X70469909Y-31353708D01*
X70419155Y-31416849D01*
X70418649Y-31417641D01*
X70407469Y-31435666D01*
X70406944Y-31436538D01*
X70372939Y-31510039D01*
X70336963Y-31582580D01*
X70336582Y-31583617D01*
X70329580Y-31603506D01*
X70329267Y-31604433D01*
X70311858Y-31683526D01*
X70292314Y-31762113D01*
X70292191Y-31763016D01*
X70289607Y-31784116D01*
X70289500Y-31785101D01*
X70289500Y-31866068D01*
X70287306Y-31947038D01*
X70287389Y-31948047D01*
X70289500Y-31970249D01*
X70289500Y-40088928D01*
X70269815Y-40155967D01*
X70264454Y-40163655D01*
X70154219Y-40309629D01*
X70058849Y-40501158D01*
X70058846Y-40501164D01*
X70000296Y-40706949D01*
X70000295Y-40706952D01*
X69993471Y-40780604D01*
X69967685Y-40845542D01*
X69910884Y-40886229D01*
X69841103Y-40889749D01*
X69780497Y-40854984D01*
X69748307Y-40792971D01*
X69746529Y-40780604D01*
X69739704Y-40706952D01*
X69739703Y-40706949D01*
X69681153Y-40501164D01*
X69681150Y-40501158D01*
X69659992Y-40458667D01*
X69585781Y-40309630D01*
X69456841Y-40138886D01*
X69298722Y-39994742D01*
X69298716Y-39994738D01*
X69298713Y-39994736D01*
X69116813Y-39882108D01*
X69116807Y-39882106D01*
X68917297Y-39804815D01*
X68706980Y-39765500D01*
X68706978Y-39765500D01*
X68699651Y-39765500D01*
X68632612Y-39745815D01*
X68611970Y-39729181D01*
X67886819Y-39004030D01*
X67853334Y-38942707D01*
X67850500Y-38916349D01*
X67850500Y-16014487D01*
X67850705Y-16009452D01*
X67855201Y-15954236D01*
X67852995Y-15938048D01*
X67844270Y-15874007D01*
X67835514Y-15793490D01*
X67835513Y-15793488D01*
X67835513Y-15793484D01*
X67835280Y-15792426D01*
X67830497Y-15772021D01*
X67830227Y-15770932D01*
X67802299Y-15694913D01*
X67776444Y-15618179D01*
X67776441Y-15618175D01*
X67776441Y-15618173D01*
X67776006Y-15617231D01*
X67766895Y-15598218D01*
X67766432Y-15597284D01*
X67766432Y-15597283D01*
X67722822Y-15529058D01*
X67681070Y-15459664D01*
X67681068Y-15459662D01*
X67681067Y-15459660D01*
X67680455Y-15458855D01*
X67667503Y-15442289D01*
X67666803Y-15441418D01*
X67666799Y-15441411D01*
X67609556Y-15384168D01*
X67594205Y-15367962D01*
X67553848Y-15325357D01*
X67553108Y-15324728D01*
X67535875Y-15310487D01*
X66565819Y-14340430D01*
X66532334Y-14279107D01*
X66529500Y-14252749D01*
X66529500Y-13011758D01*
X66549185Y-12944719D01*
X66565819Y-12924077D01*
X66592032Y-12897864D01*
X66618495Y-12871401D01*
X66754035Y-12677830D01*
X66853903Y-12463663D01*
X66915063Y-12235408D01*
X66935659Y-12000000D01*
X66915063Y-11764592D01*
X66853903Y-11536337D01*
X66754035Y-11322171D01*
X66748425Y-11314158D01*
X66618494Y-11128597D01*
X66451402Y-10961506D01*
X66451395Y-10961501D01*
X66257834Y-10825967D01*
X66257830Y-10825965D01*
X66257830Y-10825964D01*
X66043663Y-10726097D01*
X66043659Y-10726096D01*
X66043655Y-10726094D01*
X65815413Y-10664938D01*
X65815403Y-10664936D01*
X65580001Y-10644341D01*
X65579999Y-10644341D01*
X65344596Y-10664936D01*
X65344586Y-10664938D01*
X65116344Y-10726094D01*
X65116335Y-10726098D01*
X64902171Y-10825964D01*
X64902169Y-10825965D01*
X64708597Y-10961505D01*
X64541505Y-11128597D01*
X64411575Y-11314158D01*
X64356998Y-11357783D01*
X64287500Y-11364977D01*
X64225145Y-11333454D01*
X64208425Y-11314158D01*
X64078494Y-11128597D01*
X63911402Y-10961506D01*
X63911395Y-10961501D01*
X63717834Y-10825967D01*
X63717830Y-10825965D01*
X63717829Y-10825964D01*
X63503663Y-10726097D01*
X63503659Y-10726096D01*
X63503655Y-10726094D01*
X63275413Y-10664938D01*
X63275403Y-10664936D01*
X63040001Y-10644341D01*
X63039999Y-10644341D01*
X62804596Y-10664936D01*
X62804586Y-10664938D01*
X62576344Y-10726094D01*
X62576335Y-10726098D01*
X62362171Y-10825964D01*
X62362169Y-10825965D01*
X62168597Y-10961505D01*
X62001505Y-11128597D01*
X61865965Y-11322169D01*
X61865964Y-11322171D01*
X61766098Y-11536335D01*
X61766094Y-11536344D01*
X61704938Y-11764586D01*
X61704936Y-11764596D01*
X61684341Y-11999999D01*
X61684341Y-12000000D01*
X61704936Y-12235403D01*
X61704938Y-12235413D01*
X61766094Y-12463655D01*
X61766096Y-12463659D01*
X61766097Y-12463663D01*
X61865965Y-12677829D01*
X61865965Y-12677830D01*
X61865967Y-12677834D01*
X62001501Y-12871395D01*
X62001506Y-12871402D01*
X62153181Y-13023077D01*
X62186666Y-13084400D01*
X62189500Y-13110758D01*
X62189499Y-15307711D01*
X62189294Y-15312744D01*
X62184798Y-15367962D01*
X62195729Y-15448192D01*
X62204486Y-15528713D01*
X62204710Y-15529730D01*
X62209525Y-15550273D01*
X62209773Y-15551270D01*
X62237700Y-15627286D01*
X62263557Y-15704023D01*
X62264001Y-15704985D01*
X62273146Y-15724066D01*
X62273564Y-15724909D01*
X62317184Y-15793153D01*
X62358930Y-15862536D01*
X62359538Y-15863336D01*
X62372578Y-15880016D01*
X62373201Y-15880791D01*
X62430458Y-15938048D01*
X62486149Y-15996840D01*
X62486950Y-15997520D01*
X62504118Y-16011707D01*
X63613181Y-17120769D01*
X63646666Y-17182092D01*
X63649500Y-17208450D01*
X63649500Y-39322911D01*
X63649295Y-39327945D01*
X63644798Y-39383163D01*
X63655729Y-39463392D01*
X63664486Y-39543913D01*
X63664710Y-39544930D01*
X63669525Y-39565473D01*
X63669773Y-39566467D01*
X63681629Y-39598740D01*
X63686270Y-39668455D01*
X63652483Y-39729613D01*
X63590995Y-39762795D01*
X63565235Y-39765500D01*
X63413020Y-39765500D01*
X63202703Y-39804815D01*
X63076533Y-39853693D01*
X63003192Y-39882106D01*
X63003186Y-39882108D01*
X62821286Y-39994736D01*
X62821283Y-39994738D01*
X62821279Y-39994740D01*
X62821278Y-39994742D01*
X62663162Y-40138883D01*
X62663158Y-40138887D01*
X62534217Y-40309631D01*
X62495077Y-40388237D01*
X62447574Y-40439475D01*
X62379911Y-40456896D01*
X62372636Y-40456437D01*
X62253435Y-40445392D01*
X62253418Y-40445391D01*
X62183654Y-40448911D01*
X62183648Y-40448912D01*
X62183649Y-40448912D01*
X62142838Y-40456896D01*
X62141018Y-40457252D01*
X62071447Y-40450803D01*
X62016406Y-40407765D01*
X62006216Y-40390835D01*
X61965781Y-40309630D01*
X61836841Y-40138886D01*
X61678722Y-39994742D01*
X61678716Y-39994738D01*
X61678713Y-39994736D01*
X61496813Y-39882108D01*
X61496807Y-39882106D01*
X61297297Y-39804815D01*
X61086980Y-39765500D01*
X60873020Y-39765500D01*
X60662703Y-39804815D01*
X60536533Y-39853693D01*
X60463192Y-39882106D01*
X60463186Y-39882108D01*
X60281286Y-39994736D01*
X60281283Y-39994738D01*
X60281279Y-39994740D01*
X60281278Y-39994742D01*
X60123162Y-40138883D01*
X60123158Y-40138887D01*
X59994219Y-40309629D01*
X59898849Y-40501158D01*
X59898846Y-40501164D01*
X59840296Y-40706949D01*
X59840295Y-40706952D01*
X59833471Y-40780604D01*
X59807685Y-40845542D01*
X59750884Y-40886229D01*
X59681103Y-40889749D01*
X59620497Y-40854984D01*
X59588307Y-40792971D01*
X59586529Y-40780604D01*
X59579704Y-40706952D01*
X59579703Y-40706949D01*
X59521153Y-40501164D01*
X59521150Y-40501158D01*
X59499992Y-40458667D01*
X59425781Y-40309630D01*
X59315546Y-40163655D01*
X59290854Y-40098293D01*
X59290500Y-40088928D01*
X59290500Y-19340658D01*
X59310185Y-19273619D01*
X59312912Y-19269552D01*
X59436235Y-19093430D01*
X59536103Y-18879263D01*
X59597263Y-18651008D01*
X59617859Y-18415600D01*
X59597263Y-18180192D01*
X59536103Y-17951937D01*
X59436235Y-17737771D01*
X59430625Y-17729758D01*
X59300694Y-17544197D01*
X59133602Y-17377106D01*
X59133595Y-17377101D01*
X58940034Y-17241567D01*
X58940030Y-17241565D01*
X58940028Y-17241564D01*
X58725863Y-17141697D01*
X58725859Y-17141696D01*
X58725855Y-17141694D01*
X58497613Y-17080538D01*
X58497603Y-17080536D01*
X58262201Y-17059941D01*
X58262199Y-17059941D01*
X58026796Y-17080536D01*
X58026786Y-17080538D01*
X57798544Y-17141694D01*
X57798535Y-17141698D01*
X57584371Y-17241564D01*
X57584369Y-17241565D01*
X57390797Y-17377105D01*
X57223705Y-17544197D01*
X57093775Y-17729758D01*
X57039198Y-17773383D01*
X56969700Y-17780577D01*
X56907345Y-17749054D01*
X56890625Y-17729758D01*
X56760694Y-17544197D01*
X56593602Y-17377106D01*
X56593595Y-17377101D01*
X56400034Y-17241567D01*
X56400030Y-17241565D01*
X56400028Y-17241564D01*
X56185863Y-17141697D01*
X56185859Y-17141696D01*
X56185855Y-17141694D01*
X55957613Y-17080538D01*
X55957603Y-17080536D01*
X55722201Y-17059941D01*
X55722199Y-17059941D01*
X55486796Y-17080536D01*
X55486786Y-17080538D01*
X55258544Y-17141694D01*
X55258535Y-17141698D01*
X55044371Y-17241564D01*
X55044369Y-17241565D01*
X54850797Y-17377105D01*
X54683708Y-17544194D01*
X54553774Y-17729759D01*
X54499197Y-17773384D01*
X54429698Y-17780576D01*
X54367344Y-17749054D01*
X54350624Y-17729758D01*
X54220694Y-17544197D01*
X54053602Y-17377106D01*
X54053595Y-17377101D01*
X53860034Y-17241567D01*
X53860030Y-17241565D01*
X53860028Y-17241564D01*
X53645863Y-17141697D01*
X53645859Y-17141696D01*
X53645855Y-17141694D01*
X53417613Y-17080538D01*
X53417603Y-17080536D01*
X53182201Y-17059941D01*
X53182199Y-17059941D01*
X52946796Y-17080536D01*
X52946786Y-17080538D01*
X52718544Y-17141694D01*
X52718535Y-17141698D01*
X52504371Y-17241564D01*
X52504369Y-17241565D01*
X52310797Y-17377105D01*
X52143705Y-17544197D01*
X52008165Y-17737769D01*
X52008164Y-17737771D01*
X51908298Y-17951935D01*
X51908294Y-17951944D01*
X51847138Y-18180186D01*
X51847136Y-18180196D01*
X51826541Y-18415599D01*
X51826541Y-18415600D01*
X51847136Y-18651003D01*
X51847138Y-18651013D01*
X51908294Y-18879255D01*
X51908296Y-18879259D01*
X51908297Y-18879263D01*
X51912200Y-18887632D01*
X52008165Y-19093430D01*
X52008167Y-19093434D01*
X52116481Y-19248121D01*
X52143701Y-19286996D01*
X52143706Y-19287002D01*
X52295381Y-19438677D01*
X52328866Y-19500000D01*
X52331700Y-19526359D01*
X52331699Y-19739149D01*
X52312014Y-19806188D01*
X52295380Y-19826829D01*
X41424830Y-30697380D01*
X41421127Y-30700794D01*
X41378898Y-30736665D01*
X41329909Y-30801108D01*
X41279155Y-30864249D01*
X41278649Y-30865041D01*
X41267469Y-30883066D01*
X41266944Y-30883938D01*
X41232939Y-30957439D01*
X41196963Y-31029980D01*
X41196582Y-31031017D01*
X41189580Y-31050906D01*
X41189267Y-31051833D01*
X41171858Y-31130926D01*
X41152314Y-31209513D01*
X41152191Y-31210416D01*
X41149607Y-31231516D01*
X41149500Y-31232501D01*
X41149500Y-31313468D01*
X41147306Y-31394438D01*
X41147389Y-31395447D01*
X41149500Y-31417649D01*
X41149500Y-36304711D01*
X41149295Y-36309745D01*
X41144798Y-36364963D01*
X41155729Y-36445192D01*
X41164486Y-36525713D01*
X41164710Y-36526730D01*
X41169525Y-36547273D01*
X41169773Y-36548270D01*
X41197700Y-36624286D01*
X41223557Y-36701023D01*
X41224001Y-36701985D01*
X41233146Y-36721066D01*
X41233564Y-36721909D01*
X41277184Y-36790153D01*
X41318930Y-36859536D01*
X41319538Y-36860336D01*
X41332578Y-36877016D01*
X41333201Y-36877791D01*
X41390459Y-36935049D01*
X41446152Y-36993842D01*
X41446983Y-36994547D01*
X41464119Y-37008708D01*
X45950585Y-41495173D01*
X45953988Y-41498865D01*
X45989862Y-41541099D01*
X46054326Y-41590104D01*
X46117442Y-41640838D01*
X46117447Y-41640842D01*
X46117452Y-41640844D01*
X46118358Y-41641423D01*
X46137249Y-41653140D01*
X46141662Y-41656494D01*
X46183125Y-41712731D01*
X46187601Y-41782458D01*
X46154311Y-41842898D01*
X43804943Y-44192266D01*
X43784047Y-44209063D01*
X43754305Y-44228074D01*
X43742231Y-44235793D01*
X43716307Y-44251390D01*
X43672859Y-44277532D01*
X43672120Y-44278094D01*
X43655428Y-44291142D01*
X43654614Y-44291797D01*
X43597350Y-44349059D01*
X43538556Y-44404753D01*
X43537922Y-44405499D01*
X43523693Y-44422716D01*
X38941830Y-49004580D01*
X38938127Y-49007994D01*
X38895898Y-49043865D01*
X38846909Y-49108308D01*
X38796155Y-49171449D01*
X38795649Y-49172241D01*
X38784469Y-49190266D01*
X38783944Y-49191138D01*
X38749939Y-49264639D01*
X38713963Y-49337180D01*
X38713582Y-49338217D01*
X38706580Y-49358106D01*
X38706267Y-49359033D01*
X38688858Y-49438126D01*
X38669314Y-49516713D01*
X38669191Y-49517616D01*
X38666607Y-49538716D01*
X38666500Y-49539701D01*
X38666500Y-49620668D01*
X38664306Y-49701638D01*
X38664389Y-49702647D01*
X38666500Y-49724849D01*
X38666500Y-79211511D01*
X38666295Y-79216545D01*
X38661798Y-79271763D01*
X500Y-79271763D01*
X500Y-124500D01*
X20185Y-57461D01*
X72989Y-11706D01*
X124500Y-500D01*
X149875500Y-500D01*
X149942539Y-20185D01*
G37*
%TD.AperFunction*%
%TD*%
%TA.AperFunction,Conductor*%
%TO.N,3V3*%
G36*
X88081951Y-49018911D02*
G01*
X94393637Y-50475454D01*
X94454532Y-50509709D01*
X94487242Y-50571450D01*
X94489138Y-50608618D01*
X94313280Y-52367190D01*
X94287022Y-52431938D01*
X94229927Y-52472211D01*
X94167111Y-52476740D01*
X94135493Y-52470830D01*
X94106980Y-52465500D01*
X93893020Y-52465500D01*
X93682703Y-52504815D01*
X93556533Y-52553693D01*
X93483192Y-52582106D01*
X93483186Y-52582108D01*
X93301286Y-52694736D01*
X93301283Y-52694738D01*
X93301279Y-52694740D01*
X93301278Y-52694742D01*
X93143159Y-52838886D01*
X93143158Y-52838887D01*
X93014219Y-53009629D01*
X92918849Y-53201158D01*
X92918846Y-53201164D01*
X92860296Y-53406949D01*
X92860295Y-53406952D01*
X92840554Y-53619999D01*
X92840554Y-53620000D01*
X92860295Y-53833047D01*
X92860296Y-53833050D01*
X92918846Y-54038835D01*
X92918849Y-54038840D01*
X93014219Y-54230370D01*
X93143159Y-54401114D01*
X93301278Y-54545258D01*
X93301283Y-54545261D01*
X93301286Y-54545263D01*
X93483186Y-54657891D01*
X93483187Y-54657891D01*
X93483190Y-54657893D01*
X93682703Y-54735185D01*
X93858845Y-54768111D01*
X93921125Y-54799779D01*
X93956398Y-54860092D01*
X93953464Y-54929900D01*
X93913255Y-54987040D01*
X93858845Y-55011888D01*
X93682703Y-55044815D01*
X93556533Y-55093693D01*
X93483192Y-55122106D01*
X93483186Y-55122108D01*
X93301286Y-55234736D01*
X93301283Y-55234738D01*
X93301279Y-55234740D01*
X93301278Y-55234742D01*
X93223750Y-55305418D01*
X93143158Y-55378887D01*
X93088907Y-55450727D01*
X93032798Y-55492363D01*
X92989953Y-55500000D01*
X92470047Y-55500000D01*
X92403008Y-55480315D01*
X92371093Y-55450727D01*
X92353561Y-55427511D01*
X92316841Y-55378886D01*
X92158722Y-55234742D01*
X92158716Y-55234738D01*
X92158713Y-55234736D01*
X91976813Y-55122108D01*
X91976807Y-55122106D01*
X91777297Y-55044815D01*
X91566980Y-55005500D01*
X91353020Y-55005500D01*
X91142703Y-55044815D01*
X91016533Y-55093693D01*
X90943192Y-55122106D01*
X90943186Y-55122108D01*
X90761286Y-55234736D01*
X90761283Y-55234738D01*
X90761279Y-55234740D01*
X90761278Y-55234742D01*
X90683750Y-55305418D01*
X90603158Y-55378887D01*
X90548907Y-55450727D01*
X90492798Y-55492363D01*
X90449953Y-55500000D01*
X89930047Y-55500000D01*
X89863008Y-55480315D01*
X89831093Y-55450727D01*
X89813561Y-55427511D01*
X89776841Y-55378886D01*
X89618722Y-55234742D01*
X89618716Y-55234738D01*
X89618713Y-55234736D01*
X89436813Y-55122108D01*
X89436807Y-55122106D01*
X89237297Y-55044815D01*
X89026980Y-55005500D01*
X88813020Y-55005500D01*
X88602703Y-55044815D01*
X88476533Y-55093693D01*
X88403192Y-55122106D01*
X88403186Y-55122108D01*
X88221286Y-55234736D01*
X88221283Y-55234738D01*
X88221279Y-55234740D01*
X88221278Y-55234742D01*
X88143750Y-55305418D01*
X88063158Y-55378887D01*
X88008907Y-55450727D01*
X87952798Y-55492363D01*
X87909953Y-55500000D01*
X87390047Y-55500000D01*
X87323008Y-55480315D01*
X87291093Y-55450727D01*
X87273561Y-55427511D01*
X87236841Y-55378886D01*
X87078722Y-55234742D01*
X87078716Y-55234738D01*
X87078713Y-55234736D01*
X86896813Y-55122108D01*
X86896807Y-55122106D01*
X86697297Y-55044815D01*
X86486980Y-55005500D01*
X86273020Y-55005500D01*
X86062703Y-55044815D01*
X85936533Y-55093693D01*
X85863192Y-55122106D01*
X85863186Y-55122108D01*
X85681286Y-55234736D01*
X85681283Y-55234738D01*
X85681279Y-55234740D01*
X85681278Y-55234742D01*
X85603750Y-55305418D01*
X85523158Y-55378887D01*
X85468907Y-55450727D01*
X85412798Y-55492363D01*
X85369953Y-55500000D01*
X83736663Y-55500000D01*
X83669624Y-55480315D01*
X83623869Y-55427511D01*
X83613925Y-55358353D01*
X83634711Y-55305418D01*
X85520080Y-52582106D01*
X87952123Y-49069154D01*
X88006466Y-49025241D01*
X88075925Y-49017679D01*
X88081951Y-49018911D01*
G37*
%TD.AperFunction*%
%TD*%
%TA.AperFunction,NonConductor*%
G36*
X77600255Y-27438746D02*
G01*
X77616975Y-27458042D01*
X77746901Y-27643596D01*
X77746906Y-27643602D01*
X77761860Y-27658556D01*
X77774887Y-27673891D01*
X77792996Y-27699102D01*
X77883246Y-27780069D01*
X77885654Y-27782350D01*
X77898580Y-27795276D01*
X77898581Y-27795277D01*
X77932066Y-27856600D01*
X77934900Y-27882958D01*
X77934900Y-35410948D01*
X77915215Y-35477987D01*
X77898581Y-35498629D01*
X73668030Y-39729181D01*
X73606707Y-39762666D01*
X73580349Y-39765500D01*
X73573020Y-39765500D01*
X73362703Y-39804815D01*
X73236533Y-39853693D01*
X73163192Y-39882106D01*
X73163186Y-39882108D01*
X72981286Y-39994736D01*
X72981283Y-39994738D01*
X72981279Y-39994740D01*
X72981278Y-39994742D01*
X72823159Y-40138886D01*
X72823158Y-40138887D01*
X72694217Y-40309631D01*
X72633649Y-40431271D01*
X72586147Y-40482508D01*
X72522649Y-40500000D01*
X72297351Y-40500000D01*
X72230312Y-40480315D01*
X72186351Y-40431271D01*
X72125781Y-40309631D01*
X72125781Y-40309630D01*
X72015546Y-40163655D01*
X71990854Y-40098293D01*
X71990500Y-40088928D01*
X71990500Y-32281249D01*
X72010185Y-32214210D01*
X72026814Y-32193573D01*
X76063942Y-28156444D01*
X76125263Y-28122961D01*
X76162424Y-28120599D01*
X76245400Y-28127859D01*
X76480808Y-28107263D01*
X76709063Y-28046103D01*
X76923230Y-27946235D01*
X77116801Y-27810695D01*
X77283895Y-27643601D01*
X77413824Y-27458042D01*
X77468402Y-27414417D01*
X77537900Y-27407223D01*
X77600255Y-27438746D01*
G37*
%TD.AperFunction*%
%TA.AperFunction,NonConductor*%
G36*
X62339503Y-40985015D02*
G01*
X62371693Y-41047028D01*
X62373471Y-41059395D01*
X62380295Y-41133047D01*
X62380296Y-41133050D01*
X62438846Y-41338835D01*
X62438849Y-41338840D01*
X62534219Y-41530370D01*
X62663159Y-41701114D01*
X62821278Y-41845258D01*
X62821283Y-41845261D01*
X62821286Y-41845263D01*
X63003186Y-41957891D01*
X63003192Y-41957894D01*
X63003195Y-41957895D01*
X63180220Y-42026475D01*
X63235620Y-42069047D01*
X63259211Y-42134814D01*
X63243500Y-42202894D01*
X63193476Y-42251673D01*
X63153149Y-42263702D01*
X63153289Y-42264447D01*
X63147656Y-42265500D01*
X63147653Y-42265500D01*
X62946444Y-42303112D01*
X62946441Y-42303112D01*
X62946441Y-42303113D01*
X62755575Y-42377054D01*
X62755569Y-42377057D01*
X62581539Y-42484812D01*
X62581537Y-42484814D01*
X62430269Y-42622713D01*
X62348953Y-42730392D01*
X62292843Y-42772028D01*
X62223131Y-42776719D01*
X62161950Y-42742977D01*
X62151045Y-42730391D01*
X62069733Y-42622716D01*
X62069731Y-42622713D01*
X61918462Y-42484814D01*
X61918460Y-42484812D01*
X61744430Y-42377057D01*
X61744424Y-42377054D01*
X61593993Y-42318777D01*
X61553556Y-42303112D01*
X61352347Y-42265500D01*
X61352344Y-42265500D01*
X61346711Y-42264447D01*
X61346958Y-42263124D01*
X61288179Y-42239775D01*
X61247500Y-42182968D01*
X61243990Y-42113187D01*
X61278764Y-42052585D01*
X61319773Y-42026477D01*
X61496810Y-41957893D01*
X61678722Y-41845258D01*
X61836841Y-41701114D01*
X61965781Y-41530370D01*
X62061151Y-41338840D01*
X62061151Y-41338837D01*
X62061153Y-41338835D01*
X62119703Y-41133050D01*
X62119704Y-41133047D01*
X62126529Y-41059395D01*
X62152315Y-40994457D01*
X62209116Y-40953770D01*
X62278897Y-40950250D01*
X62339503Y-40985015D01*
G37*
%TD.AperFunction*%
%TA.AperFunction,NonConductor*%
G36*
X64296333Y-12699083D02*
G01*
X64402335Y-12725583D01*
X64462597Y-12760940D01*
X64473833Y-12774757D01*
X64541505Y-12871401D01*
X64708597Y-13038494D01*
X64775622Y-13085425D01*
X64819247Y-13140002D01*
X64828499Y-13187000D01*
X64828499Y-14619315D01*
X64828294Y-14624348D01*
X64823798Y-14679563D01*
X64834729Y-14759792D01*
X64843486Y-14840313D01*
X64843710Y-14841330D01*
X64848525Y-14861873D01*
X64848773Y-14862870D01*
X64876700Y-14938886D01*
X64902557Y-15015623D01*
X64903001Y-15016585D01*
X64912146Y-15035666D01*
X64912564Y-15036509D01*
X64956184Y-15104753D01*
X64997930Y-15174136D01*
X64998538Y-15174936D01*
X65011578Y-15191616D01*
X65012201Y-15192391D01*
X65069459Y-15249649D01*
X65125152Y-15308442D01*
X65125983Y-15309147D01*
X65143118Y-15323307D01*
X66113182Y-16293371D01*
X66146666Y-16354692D01*
X66149500Y-16381050D01*
X66149500Y-39282911D01*
X66149295Y-39287945D01*
X66144798Y-39343163D01*
X66155729Y-39423392D01*
X66165187Y-39510357D01*
X66152866Y-39579131D01*
X66105319Y-39630327D01*
X66037641Y-39647690D01*
X65971320Y-39625708D01*
X65954233Y-39611445D01*
X65725955Y-39383167D01*
X65386819Y-39044030D01*
X65353334Y-38982707D01*
X65350500Y-38956349D01*
X65350500Y-16841887D01*
X65350705Y-16836852D01*
X65355201Y-16781636D01*
X65344270Y-16701407D01*
X65335513Y-16620884D01*
X65335280Y-16619826D01*
X65330497Y-16599421D01*
X65330227Y-16598332D01*
X65302299Y-16522313D01*
X65276444Y-16445579D01*
X65276441Y-16445575D01*
X65276441Y-16445573D01*
X65276006Y-16444631D01*
X65266895Y-16425618D01*
X65266433Y-16424687D01*
X65266432Y-16424684D01*
X65222815Y-16356446D01*
X65181070Y-16287064D01*
X65181069Y-16287063D01*
X65181068Y-16287061D01*
X65180457Y-16286258D01*
X65167493Y-16269674D01*
X65166804Y-16268818D01*
X65166800Y-16268811D01*
X65109539Y-16211550D01*
X65053849Y-16152759D01*
X65053088Y-16152112D01*
X65035881Y-16137892D01*
X63926819Y-15028830D01*
X63893334Y-14967507D01*
X63890500Y-14941149D01*
X63890500Y-13110758D01*
X63910185Y-13043719D01*
X63926814Y-13023081D01*
X64078495Y-12871401D01*
X64164717Y-12748262D01*
X64219290Y-12704640D01*
X64288788Y-12697446D01*
X64296333Y-12699083D01*
G37*
%TD.AperFunction*%
%TA.AperFunction,NonConductor*%
G36*
X87731418Y-56499271D02*
G01*
X87762720Y-56561737D01*
X87764700Y-56583807D01*
X87764700Y-67795948D01*
X87745015Y-67862987D01*
X87728381Y-67883629D01*
X86084230Y-69527780D01*
X86080527Y-69531194D01*
X86038298Y-69567065D01*
X85989309Y-69631508D01*
X85938555Y-69694649D01*
X85938049Y-69695441D01*
X85926869Y-69713466D01*
X85926344Y-69714338D01*
X85892339Y-69787839D01*
X85856363Y-69860380D01*
X85855982Y-69861417D01*
X85848980Y-69881306D01*
X85848667Y-69882233D01*
X85831258Y-69961326D01*
X85811714Y-70039913D01*
X85811591Y-70040816D01*
X85809007Y-70061916D01*
X85808900Y-70062901D01*
X85808900Y-70143868D01*
X85806706Y-70224838D01*
X85806789Y-70225847D01*
X85808900Y-70248049D01*
X85808900Y-79661841D01*
X85789215Y-79728880D01*
X85772581Y-79749522D01*
X85620905Y-79901197D01*
X85490975Y-80086758D01*
X85436398Y-80130383D01*
X85366900Y-80137577D01*
X85304545Y-80106054D01*
X85287825Y-80086758D01*
X85157894Y-79901197D01*
X85006219Y-79749522D01*
X84972734Y-79688199D01*
X84969900Y-79661841D01*
X84969900Y-68603249D01*
X84989585Y-68536210D01*
X85006214Y-68515573D01*
X86624985Y-66896801D01*
X86628654Y-66893419D01*
X86670900Y-66857537D01*
X86719898Y-66793080D01*
X86770642Y-66729954D01*
X86770650Y-66729937D01*
X86771262Y-66728982D01*
X86782200Y-66711348D01*
X86782844Y-66710276D01*
X86782854Y-66710264D01*
X86816852Y-66636777D01*
X86852837Y-66564221D01*
X86852839Y-66564212D01*
X86853253Y-66563083D01*
X86860154Y-66543486D01*
X86860527Y-66542377D01*
X86860532Y-66542367D01*
X86877939Y-66463283D01*
X86897484Y-66384694D01*
X86897484Y-66384692D01*
X86897633Y-66383600D01*
X86900171Y-66362877D01*
X86900300Y-66361697D01*
X86900300Y-66280730D01*
X86902493Y-66199763D01*
X86902408Y-66198720D01*
X86900300Y-66176552D01*
X86900300Y-57264799D01*
X86919985Y-57197760D01*
X86959022Y-57159372D01*
X87078722Y-57085258D01*
X87236841Y-56941114D01*
X87365781Y-56770370D01*
X87461151Y-56578840D01*
X87463939Y-56569040D01*
X87501213Y-56509949D01*
X87543990Y-56485336D01*
X87601490Y-56466169D01*
X87671313Y-56463645D01*
X87731418Y-56499271D01*
G37*
%TD.AperFunction*%
%TA.AperFunction,NonConductor*%
G36*
X69882437Y-63862865D02*
G01*
X69938370Y-63904737D01*
X69962787Y-63970201D01*
X69962218Y-63987989D01*
X69962298Y-63987992D01*
X69962119Y-63994572D01*
X69959407Y-64016716D01*
X69959300Y-64017701D01*
X69959300Y-64098668D01*
X69957106Y-64179638D01*
X69957189Y-64180647D01*
X69959300Y-64202849D01*
X69959300Y-71864041D01*
X69939615Y-71931080D01*
X69922981Y-71951722D01*
X69771305Y-72103397D01*
X69641375Y-72288958D01*
X69586798Y-72332583D01*
X69517300Y-72339777D01*
X69454945Y-72308254D01*
X69438225Y-72288958D01*
X69308294Y-72103397D01*
X69141202Y-71936306D01*
X69141195Y-71936301D01*
X69133737Y-71931079D01*
X69102321Y-71909081D01*
X68947634Y-71800767D01*
X68947630Y-71800765D01*
X68947628Y-71800764D01*
X68733463Y-71700897D01*
X68733459Y-71700896D01*
X68733455Y-71700894D01*
X68505213Y-71639738D01*
X68505203Y-71639736D01*
X68269801Y-71619141D01*
X68269799Y-71619141D01*
X68034396Y-71639736D01*
X68034386Y-71639738D01*
X67806144Y-71700894D01*
X67806135Y-71700898D01*
X67591971Y-71800764D01*
X67591969Y-71800765D01*
X67398397Y-71936305D01*
X67231308Y-72103394D01*
X67158403Y-72207514D01*
X67103826Y-72251138D01*
X67034327Y-72258331D01*
X67026754Y-72256688D01*
X66888494Y-72222123D01*
X66828230Y-72186766D01*
X66816997Y-72172954D01*
X66768295Y-72103399D01*
X66768293Y-72103397D01*
X66768292Y-72103395D01*
X66616619Y-71951722D01*
X66583134Y-71890399D01*
X66580300Y-71864041D01*
X66580300Y-67113850D01*
X66599985Y-67046811D01*
X66616614Y-67026174D01*
X69751423Y-63891365D01*
X69812745Y-63857881D01*
X69882437Y-63862865D01*
G37*
%TD.AperFunction*%
%TA.AperFunction,NonConductor*%
G36*
X80119503Y-56225015D02*
G01*
X80151693Y-56287028D01*
X80153471Y-56299395D01*
X80160295Y-56373047D01*
X80160296Y-56373050D01*
X80218846Y-56578835D01*
X80218849Y-56578841D01*
X80314219Y-56770370D01*
X80424454Y-56916344D01*
X80449146Y-56981705D01*
X80449500Y-56991071D01*
X80449500Y-61064948D01*
X80429815Y-61131987D01*
X80413181Y-61152629D01*
X76102030Y-65463780D01*
X76098327Y-65467194D01*
X76056098Y-65503065D01*
X76007109Y-65567508D01*
X75956355Y-65630649D01*
X75955849Y-65631441D01*
X75944669Y-65649466D01*
X75944144Y-65650338D01*
X75910139Y-65723839D01*
X75874163Y-65796380D01*
X75873782Y-65797417D01*
X75866780Y-65817306D01*
X75866467Y-65818233D01*
X75849058Y-65897326D01*
X75829514Y-65975913D01*
X75829391Y-65976816D01*
X75826807Y-65997916D01*
X75826700Y-65998901D01*
X75826700Y-66079868D01*
X75824506Y-66160838D01*
X75824589Y-66161847D01*
X75826700Y-66184049D01*
X75826700Y-76521500D01*
X75807015Y-76588539D01*
X75754211Y-76634294D01*
X75702700Y-76645500D01*
X70451451Y-76645500D01*
X70384412Y-76625815D01*
X70363770Y-76609181D01*
X69156619Y-75402030D01*
X69123134Y-75340707D01*
X69120300Y-75314349D01*
X69120300Y-74085558D01*
X69139985Y-74018519D01*
X69156619Y-73997877D01*
X69156618Y-73997877D01*
X69308295Y-73846201D01*
X69438224Y-73660642D01*
X69492802Y-73617017D01*
X69562300Y-73609823D01*
X69624655Y-73641346D01*
X69641375Y-73660642D01*
X69771300Y-73846195D01*
X69771305Y-73846201D01*
X69938399Y-74013295D01*
X69945860Y-74018519D01*
X70131965Y-74148832D01*
X70131967Y-74148833D01*
X70131970Y-74148835D01*
X70346137Y-74248703D01*
X70574392Y-74309863D01*
X70762718Y-74326339D01*
X70809799Y-74330459D01*
X70809800Y-74330459D01*
X70809801Y-74330459D01*
X70849034Y-74327026D01*
X71045208Y-74309863D01*
X71273463Y-74248703D01*
X71487630Y-74148835D01*
X71681201Y-74013295D01*
X71848295Y-73846201D01*
X71978224Y-73660642D01*
X72032802Y-73617017D01*
X72102300Y-73609823D01*
X72164655Y-73641346D01*
X72181375Y-73660642D01*
X72311300Y-73846195D01*
X72311305Y-73846201D01*
X72478399Y-74013295D01*
X72485860Y-74018519D01*
X72671965Y-74148832D01*
X72671967Y-74148833D01*
X72671970Y-74148835D01*
X72886137Y-74248703D01*
X73114392Y-74309863D01*
X73302718Y-74326339D01*
X73349799Y-74330459D01*
X73349800Y-74330459D01*
X73349801Y-74330459D01*
X73389034Y-74327026D01*
X73585208Y-74309863D01*
X73813463Y-74248703D01*
X74027630Y-74148835D01*
X74221201Y-74013295D01*
X74388295Y-73846201D01*
X74523835Y-73652630D01*
X74623703Y-73438463D01*
X74684863Y-73210208D01*
X74705459Y-72974800D01*
X74684863Y-72739392D01*
X74623703Y-72511137D01*
X74523835Y-72296971D01*
X74518225Y-72288958D01*
X74388294Y-72103397D01*
X74236619Y-71951722D01*
X74203134Y-71890399D01*
X74200300Y-71864041D01*
X74200300Y-68474499D01*
X74219985Y-68407460D01*
X74272789Y-68361705D01*
X74324300Y-68350499D01*
X74397871Y-68350499D01*
X74397872Y-68350499D01*
X74457483Y-68344091D01*
X74592331Y-68293796D01*
X74707546Y-68207546D01*
X74793796Y-68092331D01*
X74844091Y-67957483D01*
X74850500Y-67897873D01*
X74850499Y-66102128D01*
X74844091Y-66042517D01*
X74827823Y-65998901D01*
X74793797Y-65907671D01*
X74793793Y-65907664D01*
X74707547Y-65792455D01*
X74707544Y-65792452D01*
X74592335Y-65706206D01*
X74592328Y-65706202D01*
X74457482Y-65655908D01*
X74457483Y-65655908D01*
X74397883Y-65649501D01*
X74397881Y-65649500D01*
X74397873Y-65649500D01*
X74397864Y-65649500D01*
X72602129Y-65649500D01*
X72602123Y-65649501D01*
X72542516Y-65655908D01*
X72407671Y-65706202D01*
X72407664Y-65706206D01*
X72292455Y-65792452D01*
X72292452Y-65792455D01*
X72206206Y-65907664D01*
X72206202Y-65907671D01*
X72155908Y-66042517D01*
X72149501Y-66102116D01*
X72149501Y-66102123D01*
X72149500Y-66102135D01*
X72149500Y-67897870D01*
X72149501Y-67897876D01*
X72155908Y-67957483D01*
X72206202Y-68092328D01*
X72206206Y-68092335D01*
X72292452Y-68207544D01*
X72292455Y-68207547D01*
X72407664Y-68293793D01*
X72407672Y-68293798D01*
X72418629Y-68297884D01*
X72474564Y-68339753D01*
X72498984Y-68405216D01*
X72499300Y-68414067D01*
X72499300Y-71864040D01*
X72479615Y-71931079D01*
X72462982Y-71951721D01*
X72311303Y-72103400D01*
X72181375Y-72288958D01*
X72126798Y-72332583D01*
X72057300Y-72339777D01*
X71994945Y-72308254D01*
X71978225Y-72288958D01*
X71848294Y-72103397D01*
X71696619Y-71951722D01*
X71663134Y-71890399D01*
X71660300Y-71864041D01*
X71660300Y-64513849D01*
X71679985Y-64446810D01*
X71696614Y-64426173D01*
X78771969Y-57350818D01*
X78833292Y-57317334D01*
X78859650Y-57314500D01*
X78866978Y-57314500D01*
X78866980Y-57314500D01*
X79077297Y-57275185D01*
X79276810Y-57197893D01*
X79458722Y-57085258D01*
X79616841Y-56941114D01*
X79745781Y-56770370D01*
X79841151Y-56578840D01*
X79841151Y-56578837D01*
X79841153Y-56578835D01*
X79874679Y-56461000D01*
X79899704Y-56373048D01*
X79906529Y-56299394D01*
X79932315Y-56234457D01*
X79989116Y-56193770D01*
X80058897Y-56190250D01*
X80119503Y-56225015D01*
G37*
%TD.AperFunction*%
M02*
