M48
; DRILL file {KiCad 7.0.7} date 2024 December 15, Sunday 19:27:06
; FORMAT={-:-/ absolute / metric / decimal}
; #@! TF.CreationDate,2024-12-15T19:27:06-03:00
; #@! TF.GenerationSoftware,Kicad,Pcbnew,7.0.7
; #@! TF.FileFunction,MixedPlating,1,2
FMAT,2
METRIC
; #@! TA.AperFunction,Plated,PTH,ComponentDrill
T1C0.700
; #@! TA.AperFunction,Plated,PTH,ComponentDrill
T2C0.750
; #@! TA.AperFunction,Plated,PTH,ComponentDrill
T3C0.800
; #@! TA.AperFunction,Plated,PTH,ComponentDrill
T4C1.000
%
G90
G05
T1
X61.25Y-43.37
X61.25Y-45.37
X61.25Y-47.37
X63.25Y-43.37
X63.25Y-45.37
X63.25Y-47.37
T2
X54.63Y-53.11
X57.17Y-53.11
X59.71Y-53.11
X62.25Y-53.11
X64.79Y-53.11
T3
X45.638Y-36.0
X48.28Y-40.92
X48.28Y-56.16
X50.82Y-40.92
X50.82Y-43.46
X50.82Y-56.16
X53.36Y-40.92
X53.36Y-56.16
X55.748Y-22.92
X55.748Y-33.08
X55.798Y-36.0
X55.9Y-40.92
X55.9Y-56.16
X58.44Y-40.92
X58.44Y-56.16
X60.98Y-40.92
X60.98Y-56.16
X63.52Y-40.92
X63.52Y-56.16
X66.06Y-40.92
X66.06Y-56.16
X68.6Y-40.92
X68.6Y-56.16
X71.14Y-40.92
X71.14Y-56.16
X73.68Y-40.92
X73.68Y-56.16
X76.22Y-40.92
X76.22Y-56.16
X78.76Y-40.92
X78.76Y-56.16
X81.3Y-40.92
X81.3Y-56.16
X83.84Y-40.92
X83.84Y-56.16
X86.38Y-40.92
X86.38Y-56.16
X88.92Y-40.92
X88.92Y-56.16
X90.92Y-62.586
X91.46Y-40.92
X91.46Y-56.16
X94.0Y-40.92
X94.0Y-43.46
X94.0Y-46.0
X94.0Y-48.54
X94.0Y-51.08
X94.0Y-53.62
X94.0Y-56.16
X96.54Y-40.92
X96.54Y-56.16
X99.08Y-40.92
X99.08Y-56.16
X101.0Y-66.92
X101.0Y-77.08
X101.08Y-62.586
X101.62Y-40.92
X101.62Y-56.16
X104.16Y-40.92
X104.16Y-56.16
X106.7Y-40.92
X106.7Y-56.16
T4
X53.182Y-18.416
X55.722Y-18.416
X57.96Y-12.0
X58.262Y-18.416
X60.5Y-12.0
X60.65Y-72.975
X60.802Y-18.416
X63.04Y-12.0
X63.19Y-72.975
X65.58Y-12.0
X65.73Y-72.975
X68.27Y-72.975
X70.81Y-72.975
X71.165Y-26.772
X73.35Y-72.975
X73.5Y-67.0
X73.705Y-26.772
X76.245Y-26.772
X78.785Y-26.772
X79.039Y-80.773
X81.325Y-26.772
X81.579Y-80.773
X83.5Y-34.0
X83.865Y-26.772
X84.119Y-80.773
X86.405Y-26.772
X86.659Y-80.773
X88.945Y-26.772
X89.199Y-80.773
X91.739Y-80.773
X94.279Y-80.773
X96.819Y-80.773
X99.309Y-86.843
X101.849Y-86.843
X104.389Y-86.843
X106.929Y-86.843
T0
M30
