M48
; DRILL file {KiCad 7.0.7} date 2024 December 18, Wednesday 18:43:59
; FORMAT={-:-/ absolute / metric / decimal}
; #@! TF.CreationDate,2024-12-18T18:43:59-03:00
; #@! TF.GenerationSoftware,Kicad,Pcbnew,7.0.7
; #@! TF.FileFunction,MixedPlating,1,2
FMAT,2
METRIC
; #@! TA.AperFunction,Plated,PTH,ComponentDrill
T1C0.700
; #@! TA.AperFunction,Plated,PTH,ComponentDrill
T2C0.750
; #@! TA.AperFunction,Plated,PTH,ComponentDrill
T3C0.800
; #@! TA.AperFunction,Plated,PTH,ComponentDrill
T4C1.000
%
G90
G05
T1
X-23.25Y6.13
X-23.25Y4.13
X-23.25Y2.13
X-21.25Y6.13
X-21.25Y4.13
X-21.25Y2.13
T2
X-29.87Y-3.61
X-27.33Y-3.61
X-24.79Y-3.61
X-22.25Y-3.61
X-19.71Y-3.61
T3
X-37.5Y34.58
X-37.5Y24.42
X-37.5Y20.0
X-36.22Y8.58
X-36.22Y-6.66
X-33.68Y8.58
X-33.68Y6.04
X-33.68Y-6.66
X-31.14Y8.58
X-31.14Y-6.66
X-28.6Y8.58
X-28.6Y-6.66
X-27.34Y20.0
X-26.06Y8.58
X-26.06Y-6.66
X-23.52Y8.58
X-23.52Y-6.66
X-20.98Y8.58
X-20.98Y-6.66
X-18.44Y8.58
X-18.44Y-6.66
X-15.9Y8.58
X-15.9Y-6.66
X-13.36Y8.58
X-13.36Y-6.66
X-10.82Y8.58
X-10.82Y-6.66
X-8.28Y8.58
X-8.28Y-6.66
X-5.74Y8.58
X-5.74Y-6.66
X-3.2Y8.58
X-3.2Y-6.66
X-0.66Y8.58
X-0.66Y-6.66
X1.88Y8.58
X1.88Y-6.66
X4.42Y8.58
X4.42Y-6.66
X6.96Y8.58
X6.96Y-6.66
X9.5Y8.58
X9.5Y6.04
X9.5Y3.5
X9.5Y0.96
X9.5Y-1.58
X9.5Y-4.12
X9.5Y-6.66
X12.04Y8.58
X12.04Y-6.66
X14.58Y8.58
X14.58Y-6.66
X17.12Y8.58
X17.12Y-6.66
X19.66Y8.58
X19.66Y-6.66
X22.2Y8.58
X22.2Y-6.66
T4
X-43.0Y40.0
X-40.46Y40.0
X-37.92Y40.0
X-35.38Y40.0
X-23.85Y-23.475
X-21.31Y-23.475
X-18.875Y34.0
X-18.77Y-23.475
X-16.335Y34.0
X-16.23Y-23.475
X-13.795Y34.0
X-13.69Y-23.475
X-11.255Y34.0
X-11.15Y-23.475
X-11.0Y-17.5
X-8.715Y34.0
X-6.175Y34.0
X-3.635Y34.0
X-1.095Y34.0
X0.26Y-23.5
X2.8Y-23.5
X3.5Y15.5
X5.34Y-23.5
X7.88Y-23.5
X9.2Y28.0
X10.42Y-23.5
X11.74Y28.0
X12.96Y-23.5
X14.28Y28.0
X15.5Y-23.5
X16.82Y28.0
X18.04Y-23.5
T0
M30
