M48
; DRILL file {KiCad 7.0.7} date 2024 December 15, Sunday 19:50:11
; FORMAT={-:-/ absolute / metric / decimal}
; #@! TF.CreationDate,2024-12-15T19:50:11-03:00
; #@! TF.GenerationSoftware,Kicad,Pcbnew,7.0.7
; #@! TF.FileFunction,MixedPlating,1,2
FMAT,2
METRIC
; #@! TA.AperFunction,Plated,PTH,ComponentDrill
T1C0.700
; #@! TA.AperFunction,Plated,PTH,ComponentDrill
T2C0.750
; #@! TA.AperFunction,Plated,PTH,ComponentDrill
T3C0.800
; #@! TA.AperFunction,Plated,PTH,ComponentDrill
T4C1.000
%
G90
G05
T1
X-23.25Y6.13
X-23.25Y4.13
X-23.25Y2.13
X-21.25Y6.13
X-21.25Y4.13
X-21.25Y2.13
T2
X-29.87Y-3.61
X-27.33Y-3.61
X-24.79Y-3.61
X-22.25Y-3.61
X-19.71Y-3.61
T3
X-38.862Y13.5
X-36.22Y8.58
X-36.22Y-6.66
X-33.68Y8.58
X-33.68Y6.04
X-33.68Y-6.66
X-31.14Y8.58
X-31.14Y-6.66
X-28.752Y26.58
X-28.752Y16.42
X-28.702Y13.5
X-28.6Y8.58
X-28.6Y-6.66
X-26.06Y8.58
X-26.06Y-6.66
X-23.52Y8.58
X-23.52Y-6.66
X-20.98Y8.58
X-20.98Y-6.66
X-18.44Y8.58
X-18.44Y-6.66
X-15.9Y8.58
X-15.9Y-6.66
X-13.36Y8.58
X-13.36Y-6.66
X-10.82Y8.58
X-10.82Y-6.66
X-8.28Y8.58
X-8.28Y-6.66
X-5.74Y8.58
X-5.74Y-6.66
X-3.2Y8.58
X-3.2Y-6.66
X-0.66Y8.58
X-0.66Y-6.66
X1.88Y8.58
X1.88Y-6.66
X4.42Y8.58
X4.42Y-6.66
X6.42Y-13.086
X6.96Y8.58
X6.96Y-6.66
X9.5Y8.58
X9.5Y6.04
X9.5Y3.5
X9.5Y0.96
X9.5Y-1.58
X9.5Y-4.12
X9.5Y-6.66
X12.04Y8.58
X12.04Y-6.66
X14.58Y8.58
X14.58Y-6.66
X16.5Y-17.42
X16.5Y-27.58
X16.58Y-13.086
X17.12Y8.58
X17.12Y-6.66
X19.66Y8.58
X19.66Y-6.66
X22.2Y8.58
X22.2Y-6.66
T4
X-31.318Y31.084
X-28.778Y31.084
X-26.54Y37.5
X-26.238Y31.084
X-24.0Y37.5
X-23.85Y-23.475
X-23.698Y31.084
X-21.46Y37.5
X-21.31Y-23.475
X-18.92Y37.5
X-18.77Y-23.475
X-16.23Y-23.475
X-13.69Y-23.475
X-13.335Y22.728
X-11.15Y-23.475
X-11.0Y-17.5
X-10.795Y22.728
X-8.255Y22.728
X-5.715Y22.728
X-5.461Y-31.273
X-3.175Y22.728
X-2.921Y-31.273
X-1.0Y15.5
X-0.635Y22.728
X-0.381Y-31.273
X1.905Y22.728
X2.159Y-31.273
X4.445Y22.728
X4.699Y-31.273
X7.239Y-31.273
X9.779Y-31.273
X12.319Y-31.273
X14.809Y-37.343
X17.349Y-37.343
X19.889Y-37.343
X22.429Y-37.343
T0
M30
