%TF.GenerationSoftware,KiCad,Pcbnew,7.0.7*%
%TF.CreationDate,2024-12-15T19:50:06-03:00*%
%TF.ProjectId,TeensyPCB,5465656e-7379-4504-9342-2e6b69636164,rev?*%
%TF.SameCoordinates,Original*%
%TF.FileFunction,Copper,L2,Bot*%
%TF.FilePolarity,Positive*%
%FSLAX46Y46*%
G04 Gerber Fmt 4.6, Leading zero omitted, Abs format (unit mm)*
G04 Created by KiCad (PCBNEW 7.0.7) date 2024-12-15 19:50:06*
%MOMM*%
%LPD*%
G01*
G04 APERTURE LIST*
%TA.AperFunction,ComponentPad*%
%ADD10R,1.700000X1.700000*%
%TD*%
%TA.AperFunction,ComponentPad*%
%ADD11O,1.700000X1.700000*%
%TD*%
%TA.AperFunction,ComponentPad*%
%ADD12C,1.600000*%
%TD*%
%TA.AperFunction,ComponentPad*%
%ADD13O,1.600000X1.600000*%
%TD*%
%TA.AperFunction,ComponentPad*%
%ADD14C,1.308000*%
%TD*%
%TA.AperFunction,ComponentPad*%
%ADD15C,1.208000*%
%TD*%
%TA.AperFunction,ComponentPad*%
%ADD16C,1.258000*%
%TD*%
%TA.AperFunction,Conductor*%
%ADD17C,0.700000*%
%TD*%
%TA.AperFunction,Conductor*%
%ADD18C,0.250000*%
%TD*%
G04 APERTURE END LIST*
D10*
%TO.P,J4,1,Pin_1*%
%TO.N,Net-(J4-Pin_1)*%
X-1000000Y15500000D03*
%TD*%
%TO.P,J9,1,Pin_1*%
%TO.N,3V3*%
X-26540000Y37500000D03*
D11*
%TO.P,J9,2,Pin_2*%
%TO.N,GND*%
X-24000000Y37500000D03*
%TO.P,J9,3,Pin_3*%
%TO.N,Net-(J9-Pin_3)*%
X-21460000Y37500000D03*
%TO.P,J9,4,Pin_4*%
%TO.N,Net-(J9-Pin_4)*%
X-18920000Y37500000D03*
%TD*%
D10*
%TO.P,J2,1,Pin_1*%
%TO.N,Net-(J2-Pin_1)*%
X-11000000Y-17500000D03*
%TD*%
D12*
%TO.P,R6,1*%
%TO.N,Net-(U1-A9)*%
X-28701600Y13500000D03*
D13*
%TO.P,R6,2*%
%TO.N,GND*%
X-38861600Y13500000D03*
%TD*%
D12*
%TO.P,R5,1*%
%TO.N,Net-(J8-Pin_3)*%
X-28752400Y26580000D03*
D13*
%TO.P,R5,2*%
%TO.N,Net-(U1-A9)*%
X-28752400Y16420000D03*
%TD*%
D12*
%TO.P,R2,1*%
%TO.N,Net-(U1-CRX3)*%
X16580000Y-13086200D03*
D13*
%TO.P,R2,2*%
%TO.N,GND*%
X6420000Y-13086200D03*
%TD*%
D12*
%TO.P,R1,1*%
%TO.N,Net-(J3-Pin_3)*%
X16500000Y-27580000D03*
D13*
%TO.P,R1,2*%
%TO.N,Net-(U1-CRX3)*%
X16500000Y-17420000D03*
%TD*%
D10*
%TO.P,J1,1,Pin_1*%
%TO.N,3V3*%
X-13334600Y22727800D03*
D11*
%TO.P,J1,2,Pin_2*%
%TO.N,GND*%
X-10794600Y22727800D03*
%TO.P,J1,3,Pin_3*%
%TO.N,Net-(J1-Pin_3)*%
X-8254600Y22727800D03*
%TO.P,J1,4,Pin_4*%
%TO.N,Net-(J1-Pin_4)*%
X-5714600Y22727800D03*
%TO.P,J1,5,Pin_5*%
%TO.N,unconnected-(J1-Pin_5-Pad5)*%
X-3174600Y22727800D03*
%TO.P,J1,6,Pin_6*%
%TO.N,unconnected-(J1-Pin_6-Pad6)*%
X-634600Y22727800D03*
%TO.P,J1,7,Pin_7*%
%TO.N,unconnected-(J1-Pin_7-Pad7)*%
X1905400Y22727800D03*
%TO.P,J1,8,Pin_8*%
%TO.N,unconnected-(J1-Pin_8-Pad8)*%
X4445400Y22727800D03*
%TD*%
D14*
%TO.P,U1,GND1,GND*%
%TO.N,GND*%
X-36220000Y-6660000D03*
%TO.P,U1,0,RX1*%
%TO.N,unconnected-(U1-RX1-Pad0)*%
X-33680000Y-6660000D03*
%TO.P,U1,VBAT,VBAT*%
%TO.N,unconnected-(U1-PadVBAT)*%
X9500000Y-4120000D03*
%TO.P,U1,3.3V_3,3.3V*%
%TO.N,3V3*%
X9500000Y-1580000D03*
%TO.P,U1,GND4,GND*%
%TO.N,GND*%
X9500000Y960000D03*
%TO.P,U1,ON/OFF,ON/OFF*%
%TO.N,unconnected-(U1-PadON{slash}OFF)*%
X9500000Y6040000D03*
%TO.P,U1,VUSB,VUSB*%
%TO.N,unconnected-(U1-PadVUSB)*%
X-33680000Y6040000D03*
%TO.P,U1,PROGRAM,PROGRAM*%
%TO.N,unconnected-(U1-PadPROGRAM)*%
X9500000Y3500000D03*
%TO.P,U1,GND2,GND*%
%TO.N,GND*%
X-660000Y8580000D03*
D15*
%TO.P,U1,R-,R-*%
%TO.N,unconnected-(U1-PadR-)*%
X-21250000Y6130000D03*
%TO.P,U1,R+,R+*%
%TO.N,unconnected-(U1-PadR+)*%
X-23250000Y6130000D03*
%TO.P,U1,GND5,GND*%
%TO.N,GND*%
X-21250000Y4130000D03*
%TO.P,U1,T+,T+*%
%TO.N,unconnected-(U1-PadT+)*%
X-21250000Y2130000D03*
%TO.P,U1,LED,LED*%
%TO.N,unconnected-(U1-PadLED)*%
X-23250000Y4130000D03*
%TO.P,U1,T-,T-*%
%TO.N,unconnected-(U1-PadT-)*%
X-23250000Y2130000D03*
D16*
%TO.P,U1,5V,5V*%
%TO.N,unconnected-(U1-Pad5V)*%
X-29870000Y-3610000D03*
%TO.P,U1,D-,D-*%
%TO.N,unconnected-(U1-PadD-)*%
X-27330000Y-3610000D03*
%TO.P,U1,D+,D+*%
%TO.N,unconnected-(U1-PadD+)*%
X-24790000Y-3610000D03*
%TO.P,U1,USB_GND1,USB_GND*%
%TO.N,Net-(U1-USB_GND-PadUSB_GND1)*%
X-22250000Y-3610000D03*
%TO.P,U1,USB_GND2,USB_GND*%
X-19710000Y-3610000D03*
D14*
%TO.P,U1,1,TX1*%
%TO.N,unconnected-(U1-TX1-Pad1)*%
X-31140000Y-6660000D03*
%TO.P,U1,2,OUT2*%
%TO.N,unconnected-(U1-OUT2-Pad2)*%
X-28600000Y-6660000D03*
%TO.P,U1,3,LRCLK2*%
%TO.N,unconnected-(U1-LRCLK2-Pad3)*%
X-26060000Y-6660000D03*
%TO.P,U1,4,BCLK2*%
%TO.N,unconnected-(U1-BCLK2-Pad4)*%
X-23520000Y-6660000D03*
%TO.P,U1,5,IN2*%
%TO.N,unconnected-(U1-IN2-Pad5)*%
X-20980000Y-6660000D03*
%TO.P,U1,6,OUT1D*%
%TO.N,unconnected-(U1-OUT1D-Pad6)*%
X-18440000Y-6660000D03*
%TO.P,U1,7,RX2*%
%TO.N,unconnected-(U1-RX2-Pad7)*%
X-15900000Y-6660000D03*
%TO.P,U1,8,TX2*%
%TO.N,unconnected-(U1-TX2-Pad8)*%
X-13360000Y-6660000D03*
%TO.P,U1,9,OUT1C*%
%TO.N,unconnected-(U1-OUT1C-Pad9)*%
X-10820000Y-6660000D03*
%TO.P,U1,10,CS1*%
%TO.N,Net-(J5-Pin_3)*%
X-8280000Y-6660000D03*
%TO.P,U1,11,MOSI*%
%TO.N,Net-(J5-Pin_5)*%
X-5740000Y-6660000D03*
%TO.P,U1,12,MISO*%
%TO.N,Net-(J5-Pin_4)*%
X-3200000Y-6660000D03*
%TO.P,U1,3.3V_1,3.3V*%
%TO.N,3V3*%
X-660000Y-6660000D03*
%TO.P,U1,13,SCK*%
%TO.N,Net-(J4-Pin_1)*%
X-3200000Y8580000D03*
%TO.P,U1,14,A0*%
%TO.N,unconnected-(U1-A0-Pad14)*%
X-5740000Y8580000D03*
%TO.P,U1,15,A1*%
%TO.N,unconnected-(U1-A1-Pad15)*%
X-8280000Y8580000D03*
%TO.P,U1,16,A2*%
%TO.N,Net-(J1-Pin_4)*%
X-10820000Y8580000D03*
%TO.P,U1,17,A3*%
%TO.N,Net-(J1-Pin_3)*%
X-13360000Y8580000D03*
%TO.P,U1,18,A4*%
%TO.N,Net-(J9-Pin_4)*%
X-15900000Y8580000D03*
%TO.P,U1,19,A5*%
%TO.N,Net-(J9-Pin_3)*%
X-18440000Y8580000D03*
%TO.P,U1,20,A6*%
%TO.N,unconnected-(U1-A6-Pad20)*%
X-20980000Y8580000D03*
%TO.P,U1,21,A7*%
%TO.N,unconnected-(U1-A7-Pad21)*%
X-23520000Y8580000D03*
%TO.P,U1,22,A8*%
%TO.N,Net-(J8-Pin_2)*%
X-26060000Y8580000D03*
%TO.P,U1,23,A9*%
%TO.N,Net-(U1-A9)*%
X-28600000Y8580000D03*
%TO.P,U1,3.3V_2,3.3V*%
%TO.N,3V3*%
X-31140000Y8580000D03*
%TO.P,U1,GND3,GND*%
%TO.N,GND*%
X-33680000Y8580000D03*
%TO.P,U1,VIN,VIN*%
%TO.N,5V*%
X-36220000Y8580000D03*
%TO.P,U1,24,A10*%
%TO.N,Net-(J7-Pin_3)*%
X1880000Y-6660000D03*
%TO.P,U1,25,A11*%
%TO.N,Net-(J7-Pin_4)*%
X4420000Y-6660000D03*
%TO.P,U1,26,A12*%
%TO.N,unconnected-(U1-A12-Pad26)*%
X6960000Y-6660000D03*
%TO.P,U1,27,A13*%
%TO.N,unconnected-(U1-A13-Pad27)*%
X9500000Y-6660000D03*
%TO.P,U1,28,RX7*%
%TO.N,GND*%
X12040000Y-6660000D03*
%TO.P,U1,29,TX7*%
%TO.N,unconnected-(U1-TX7-Pad29)*%
X14580000Y-6660000D03*
%TO.P,U1,30,CRX3*%
%TO.N,Net-(U1-CRX3)*%
X17120000Y-6660000D03*
%TO.P,U1,31,CTX3*%
%TO.N,Net-(J3-Pin_2)*%
X19660000Y-6660000D03*
%TO.P,U1,32,OUT1B*%
%TO.N,unconnected-(U1-OUT1B-Pad32)*%
X22200000Y-6660000D03*
%TO.P,U1,33,MCLK2*%
%TO.N,unconnected-(U1-MCLK2-Pad33)*%
X22200000Y8580000D03*
%TO.P,U1,34,RX8*%
%TO.N,unconnected-(U1-RX8-Pad34)*%
X19660000Y8580000D03*
%TO.P,U1,35,TX8*%
%TO.N,unconnected-(U1-TX8-Pad35)*%
X17120000Y8580000D03*
%TO.P,U1,36,CS2*%
%TO.N,unconnected-(U1-CS2-Pad36)*%
X14580000Y8580000D03*
%TO.P,U1,37,CS3*%
%TO.N,unconnected-(U1-CS3-Pad37)*%
X12040000Y8580000D03*
%TO.P,U1,38,A14*%
%TO.N,unconnected-(U1-A14-Pad38)*%
X9500000Y8580000D03*
%TO.P,U1,39,A15*%
%TO.N,unconnected-(U1-A15-Pad39)*%
X6960000Y8580000D03*
%TO.P,U1,40,A16*%
%TO.N,unconnected-(U1-A16-Pad40)*%
X4420000Y8580000D03*
%TO.P,U1,41,A17*%
%TO.N,unconnected-(U1-A17-Pad41)*%
X1880000Y8580000D03*
%TD*%
D10*
%TO.P,J8,1,Pin_1*%
%TO.N,GND*%
X-23697800Y31084400D03*
D11*
%TO.P,J8,2,Pin_2*%
%TO.N,Net-(J8-Pin_2)*%
X-26237800Y31084400D03*
%TO.P,J8,3,Pin_3*%
%TO.N,Net-(J8-Pin_3)*%
X-28777800Y31084400D03*
%TO.P,J8,4,Pin_4*%
%TO.N,5V*%
X-31317800Y31084400D03*
%TD*%
D10*
%TO.P,J7,1,Pin_1*%
%TO.N,3V3*%
X-5460600Y-31272600D03*
D11*
%TO.P,J7,2,Pin_2*%
%TO.N,GND*%
X-2920600Y-31272600D03*
%TO.P,J7,3,Pin_3*%
%TO.N,Net-(J7-Pin_3)*%
X-380600Y-31272600D03*
%TO.P,J7,4,Pin_4*%
%TO.N,Net-(J7-Pin_4)*%
X2159400Y-31272600D03*
%TO.P,J7,5,Pin_5*%
%TO.N,unconnected-(J7-Pin_5-Pad5)*%
X4699400Y-31272600D03*
%TO.P,J7,6,Pin_6*%
%TO.N,unconnected-(J7-Pin_6-Pad6)*%
X7239400Y-31272600D03*
%TO.P,J7,7,Pin_7*%
%TO.N,unconnected-(J7-Pin_7-Pad7)*%
X9779400Y-31272600D03*
%TO.P,J7,8,Pin_8*%
%TO.N,unconnected-(J7-Pin_8-Pad8)*%
X12319400Y-31272600D03*
%TD*%
D10*
%TO.P,J5,1,Pin_1*%
%TO.N,3V3*%
X-23850200Y-23474800D03*
D11*
%TO.P,J5,2,Pin_2*%
%TO.N,GND*%
X-21310200Y-23474800D03*
%TO.P,J5,3,Pin_3*%
%TO.N,Net-(J5-Pin_3)*%
X-18770200Y-23474800D03*
%TO.P,J5,4,Pin_4*%
%TO.N,Net-(J5-Pin_4)*%
X-16230200Y-23474800D03*
%TO.P,J5,5,Pin_5*%
%TO.N,Net-(J5-Pin_5)*%
X-13690200Y-23474800D03*
%TO.P,J5,6,Pin_6*%
%TO.N,Net-(J2-Pin_1)*%
X-11150200Y-23474800D03*
%TD*%
D10*
%TO.P,J3,1,Pin_1*%
%TO.N,GND*%
X22428600Y-37343200D03*
D11*
%TO.P,J3,2,Pin_2*%
%TO.N,Net-(J3-Pin_2)*%
X19888600Y-37343200D03*
%TO.P,J3,3,Pin_3*%
%TO.N,Net-(J3-Pin_3)*%
X17348600Y-37343200D03*
%TO.P,J3,4,Pin_4*%
%TO.N,5V*%
X14808600Y-37343200D03*
%TD*%
D17*
%TO.N,Net-(J9-Pin_4)*%
X-18920000Y37500000D02*
X-18821000Y37401000D01*
X-17500000Y10180000D02*
X-15900000Y8580000D01*
X-18821000Y37401000D02*
X-18821000Y34843600D01*
X-17500000Y33522600D02*
X-17500000Y10180000D01*
X-18821000Y34843600D02*
X-17500000Y33522600D01*
%TO.N,Net-(J9-Pin_3)*%
X-21460000Y37500000D02*
X-21460000Y34155200D01*
X-20000000Y10140000D02*
X-18440000Y8580000D01*
X-21460000Y34155200D02*
X-20000000Y32695200D01*
X-20000000Y32695200D02*
X-20000000Y10140000D01*
%TO.N,Net-(J2-Pin_1)*%
X-11150200Y-23474800D02*
X-11150200Y-17650200D01*
X-11150200Y-17650200D02*
X-11000000Y-17500000D01*
%TO.N,Net-(J4-Pin_1)*%
X-1000000Y15500000D02*
X-1000000Y10780000D01*
X-1000000Y10780000D02*
X-3200000Y8580000D01*
%TO.N,3V3*%
X20498200Y28468200D02*
X4521600Y44444800D01*
X4521600Y44444800D02*
X-19595200Y44444800D01*
X-19595200Y44444800D02*
X-26540000Y37500000D01*
%TO.N,Net-(J5-Pin_3)*%
X-18770200Y-23474800D02*
X-18770200Y-17210200D01*
X-18770200Y-17210200D02*
X-8280000Y-6720000D01*
X-8280000Y-6720000D02*
X-8280000Y-6660000D01*
%TO.N,Net-(J5-Pin_5)*%
X-13690200Y-23474800D02*
X-13690200Y-14610200D01*
X-13690200Y-14610200D02*
X-5740000Y-6660000D01*
%TO.N,Net-(J1-Pin_4)*%
X-10820000Y8580000D02*
X-5714600Y13685400D01*
X-5714600Y13685400D02*
X-5714600Y22727800D01*
%TO.N,Net-(J1-Pin_3)*%
X-13360000Y8580000D02*
X-13360000Y17622400D01*
X-13360000Y17622400D02*
X-8254600Y22727800D01*
%TO.N,5V*%
X-31317800Y31084400D02*
X-31317800Y29357200D01*
X-31317800Y29357200D02*
X-42500000Y18175000D01*
X-42500000Y18175000D02*
X-42500000Y13158200D01*
X-37921800Y8580000D02*
X-36220000Y8580000D01*
X-42500000Y13158200D02*
X-37921800Y8580000D01*
%TO.N,Net-(J8-Pin_3)*%
X-28752400Y26580000D02*
X-28752400Y31059000D01*
X-28752400Y31059000D02*
X-28777800Y31084400D01*
%TO.N,Net-(U1-A9)*%
X-28701600Y13500000D02*
X-28701600Y8681600D01*
X-28701600Y8681600D02*
X-28600000Y8580000D01*
X-28701600Y13500000D02*
X-28701600Y16369200D01*
X-28701600Y16369200D02*
X-28752400Y16420000D01*
%TO.N,Net-(J3-Pin_3)*%
X17348600Y-37343200D02*
X16500000Y-36494600D01*
X16500000Y-36494600D02*
X16500000Y-27580000D01*
%TO.N,Net-(U1-CRX3)*%
X16580000Y-13086200D02*
X17120000Y-12546200D01*
X17120000Y-12546200D02*
X17120000Y-6660000D01*
X16580000Y-13086200D02*
X16500000Y-13166200D01*
X16500000Y-13166200D02*
X16500000Y-17420000D01*
D18*
X16580000Y-17340000D02*
X16500000Y-17420000D01*
D17*
%TO.N,3V3*%
X9500000Y-1580000D02*
X24562200Y-1580000D01*
X26500000Y22466400D02*
X20498200Y28468200D01*
X24562200Y-1580000D02*
X26500000Y357800D01*
X26500000Y357800D02*
X26500000Y22466400D01*
%TO.N,Net-(J5-Pin_4)*%
X-16230200Y-23474800D02*
X-16230200Y-26218000D01*
X-3200000Y-11968600D02*
X-3200000Y-6660000D01*
X-16230200Y-26218000D02*
X-14452200Y-27996000D01*
X-14452200Y-27996000D02*
X-7949800Y-27996000D01*
X-7949800Y-27996000D02*
X-7822800Y-27869000D01*
X-7822800Y-27869000D02*
X-7822800Y-16591400D01*
X-7822800Y-16591400D02*
X-3200000Y-11968600D01*
%TO.N,Net-(U1-USB_GND-PadUSB_GND1)*%
X-22250000Y-3610000D02*
X-19710000Y-3610000D01*
%TO.N,GND*%
X-23901000Y37434400D02*
X-23901000Y37536000D01*
%TO.N,3V3*%
X20498200Y28468200D02*
X20244200Y28722200D01*
X20244200Y28722200D02*
X-7340200Y28722200D01*
X-7340200Y28722200D02*
X-13334600Y22727800D01*
%TO.N,Net-(J1-Pin_4)*%
X-6070200Y22372200D02*
X-5714600Y22727800D01*
%TO.N,3V3*%
X-23850200Y-23474800D02*
X-24586800Y-23474800D01*
X-39674400Y-8387200D02*
X-39674400Y-3586600D01*
X-39674400Y-3586600D02*
X-31140000Y4947800D01*
X-24586800Y-23474800D02*
X-39674400Y-8387200D01*
X-31140000Y4947800D02*
X-31140000Y8580000D01*
X-23850200Y-23474800D02*
X-23850200Y-28935800D01*
X-23850200Y-28935800D02*
X-21513400Y-31272600D01*
X-21513400Y-31272600D02*
X-5460600Y-31272600D01*
%TO.N,5V*%
X14529200Y-37343200D02*
X14453000Y-37419400D01*
X-44983000Y-29748600D02*
X-44983000Y-132200D01*
X14453000Y-37419400D02*
X-37312200Y-37419400D01*
X-37312200Y-37419400D02*
X-44983000Y-29748600D01*
X-44983000Y-132200D02*
X-40309400Y4541400D01*
X-40309400Y4541400D02*
X-40258600Y4541400D01*
X-40258600Y4541400D02*
X-36220000Y8580000D01*
%TO.N,3V3*%
X-660000Y-6660000D02*
X4420000Y-1580000D01*
X4420000Y-1580000D02*
X9500000Y-1580000D01*
X-5460600Y-18979000D02*
X-939400Y-14457800D01*
X-5460600Y-31272600D02*
X-5460600Y-18979000D01*
X-939400Y-14457800D02*
X-939400Y-6939400D01*
X-939400Y-6939400D02*
X-660000Y-6660000D01*
%TO.N,Net-(J7-Pin_4)*%
X2159400Y-20655400D02*
X4115200Y-18699600D01*
X2159400Y-31272600D02*
X2159400Y-20655400D01*
X4115200Y-18699600D02*
X4115200Y-6964800D01*
X4115200Y-6964800D02*
X4420000Y-6660000D01*
%TO.N,Net-(J7-Pin_3)*%
X-380600Y-18699600D02*
X1549800Y-16769200D01*
X-380600Y-31272600D02*
X-380600Y-18699600D01*
X1549800Y-16769200D02*
X1549800Y-6990200D01*
X1549800Y-6990200D02*
X1880000Y-6660000D01*
%TO.N,Net-(J3-Pin_2)*%
X19660000Y-6660000D02*
X19660000Y-37114600D01*
X19660000Y-37114600D02*
X19888600Y-37343200D01*
%TO.N,Net-(J5-Pin_3)*%
X-8203800Y-6736200D02*
X-8280000Y-6660000D01*
%TO.N,Net-(J8-Pin_2)*%
X-26060000Y8580000D02*
X-26060000Y30906600D01*
X-26060000Y30906600D02*
X-26237800Y31084400D01*
%TO.N,Net-(J3-Pin_2)*%
X19685400Y-6685400D02*
X19660000Y-6660000D01*
%TO.N,Net-(U1-CRX3)*%
X16993000Y-13163200D02*
X17070000Y-13086200D01*
%TD*%
%TA.AperFunction,Conductor*%
%TO.N,GND*%
G36*
X29942539Y49479815D02*
G01*
X29988294Y49427011D01*
X29999500Y49375500D01*
X29999500Y-50375500D01*
X29979815Y-50442539D01*
X29927011Y-50488294D01*
X29875500Y-50499500D01*
X-49875500Y-50499500D01*
X-49942539Y-50479815D01*
X-49988294Y-50427011D01*
X-49999500Y-50375500D01*
X-49999500Y-29771767D01*
X-45838201Y-29771767D01*
X-45827270Y-29851992D01*
X-45818514Y-29932510D01*
X-45818513Y-29932512D01*
X-45818266Y-29933636D01*
X-45813515Y-29953907D01*
X-45813228Y-29955062D01*
X-45813227Y-29955068D01*
X-45785299Y-30031086D01*
X-45759444Y-30107821D01*
X-45759439Y-30107827D01*
X-45758920Y-30108951D01*
X-45749923Y-30127723D01*
X-45749433Y-30128712D01*
X-45749432Y-30128716D01*
X-45705815Y-30196953D01*
X-45664070Y-30266336D01*
X-45664065Y-30266340D01*
X-45664066Y-30266340D01*
X-45663360Y-30267269D01*
X-45650533Y-30283676D01*
X-45649801Y-30284586D01*
X-45649800Y-30284589D01*
X-45621170Y-30313218D01*
X-45592540Y-30341849D01*
X-45563144Y-30372881D01*
X-45536849Y-30400641D01*
X-45536842Y-30400645D01*
X-45536005Y-30401357D01*
X-45518883Y-30415504D01*
X-37939795Y-37994592D01*
X-37936415Y-37998259D01*
X-37900537Y-38040500D01*
X-37836081Y-38089497D01*
X-37772954Y-38140241D01*
X-37772951Y-38140242D01*
X-37771953Y-38140880D01*
X-37754338Y-38151806D01*
X-37753277Y-38152443D01*
X-37753264Y-38152454D01*
X-37679747Y-38186466D01*
X-37607221Y-38222436D01*
X-37607208Y-38222439D01*
X-37606086Y-38222852D01*
X-37586383Y-38229789D01*
X-37585377Y-38230127D01*
X-37585367Y-38230132D01*
X-37506273Y-38247541D01*
X-37427691Y-38267085D01*
X-37426626Y-38267230D01*
X-37405877Y-38269771D01*
X-37404697Y-38269900D01*
X-37323731Y-38269900D01*
X-37242768Y-38272093D01*
X-37242767Y-38272092D01*
X-37242764Y-38272093D01*
X-37241720Y-38272008D01*
X-37219552Y-38269900D01*
X13774042Y-38269900D01*
X13841081Y-38289585D01*
X13861723Y-38306219D01*
X13937199Y-38381695D01*
X14033984Y-38449464D01*
X14130765Y-38517232D01*
X14130767Y-38517233D01*
X14130770Y-38517235D01*
X14344937Y-38617103D01*
X14573192Y-38678263D01*
X14761518Y-38694739D01*
X14808599Y-38698859D01*
X14808600Y-38698859D01*
X14808601Y-38698859D01*
X14847834Y-38695426D01*
X15044008Y-38678263D01*
X15272263Y-38617103D01*
X15486430Y-38517235D01*
X15680001Y-38381695D01*
X15847095Y-38214601D01*
X15977024Y-38029042D01*
X16031602Y-37985417D01*
X16101100Y-37978223D01*
X16163455Y-38009746D01*
X16180175Y-38029042D01*
X16310100Y-38214595D01*
X16310105Y-38214601D01*
X16477199Y-38381695D01*
X16573984Y-38449464D01*
X16670765Y-38517232D01*
X16670767Y-38517233D01*
X16670770Y-38517235D01*
X16884937Y-38617103D01*
X17113192Y-38678263D01*
X17301518Y-38694739D01*
X17348599Y-38698859D01*
X17348600Y-38698859D01*
X17348601Y-38698859D01*
X17387834Y-38695426D01*
X17584008Y-38678263D01*
X17812263Y-38617103D01*
X18026430Y-38517235D01*
X18220001Y-38381695D01*
X18387095Y-38214601D01*
X18517024Y-38029042D01*
X18571602Y-37985417D01*
X18641100Y-37978223D01*
X18703455Y-38009746D01*
X18720175Y-38029042D01*
X18850100Y-38214595D01*
X18850105Y-38214601D01*
X19017199Y-38381695D01*
X19113984Y-38449464D01*
X19210765Y-38517232D01*
X19210767Y-38517233D01*
X19210770Y-38517235D01*
X19424937Y-38617103D01*
X19653192Y-38678263D01*
X19841518Y-38694739D01*
X19888599Y-38698859D01*
X19888600Y-38698859D01*
X19888601Y-38698859D01*
X19927834Y-38695426D01*
X20124008Y-38678263D01*
X20352263Y-38617103D01*
X20566430Y-38517235D01*
X20760001Y-38381695D01*
X20927095Y-38214601D01*
X21062635Y-38021030D01*
X21162503Y-37806863D01*
X21223663Y-37578608D01*
X21244259Y-37343200D01*
X21223663Y-37107792D01*
X21162503Y-36879537D01*
X21062635Y-36665371D01*
X20927095Y-36471799D01*
X20927094Y-36471797D01*
X20760002Y-36304706D01*
X20760001Y-36304705D01*
X20572340Y-36173303D01*
X20563376Y-36167026D01*
X20519751Y-36112449D01*
X20510500Y-36065451D01*
X20510500Y-7491071D01*
X20530185Y-7424032D01*
X20535546Y-7416344D01*
X20645781Y-7270370D01*
X20741151Y-7078840D01*
X20741151Y-7078837D01*
X20741153Y-7078835D01*
X20775639Y-6957628D01*
X20799704Y-6873048D01*
X20806529Y-6799394D01*
X20832315Y-6734457D01*
X20889116Y-6693770D01*
X20958897Y-6690250D01*
X21019503Y-6725015D01*
X21051693Y-6787028D01*
X21053471Y-6799395D01*
X21060295Y-6873047D01*
X21060296Y-6873050D01*
X21118846Y-7078835D01*
X21118849Y-7078840D01*
X21214219Y-7270370D01*
X21343159Y-7441114D01*
X21501278Y-7585258D01*
X21501283Y-7585261D01*
X21501286Y-7585263D01*
X21683186Y-7697891D01*
X21683187Y-7697891D01*
X21683190Y-7697893D01*
X21882703Y-7775185D01*
X22093020Y-7814500D01*
X22093022Y-7814500D01*
X22306978Y-7814500D01*
X22306980Y-7814500D01*
X22517297Y-7775185D01*
X22716810Y-7697893D01*
X22898722Y-7585258D01*
X23056841Y-7441114D01*
X23185781Y-7270370D01*
X23281151Y-7078840D01*
X23281151Y-7078837D01*
X23281153Y-7078835D01*
X23315639Y-6957628D01*
X23339704Y-6873048D01*
X23359446Y-6660000D01*
X23339704Y-6446952D01*
X23331200Y-6417065D01*
X23281153Y-6241164D01*
X23281150Y-6241158D01*
X23253382Y-6185392D01*
X23185781Y-6049630D01*
X23056841Y-5878886D01*
X22898722Y-5734742D01*
X22898716Y-5734738D01*
X22898713Y-5734736D01*
X22716813Y-5622108D01*
X22716807Y-5622106D01*
X22713067Y-5620657D01*
X22517297Y-5544815D01*
X22306980Y-5505500D01*
X22093020Y-5505500D01*
X21882703Y-5544815D01*
X21804224Y-5575218D01*
X21683192Y-5622106D01*
X21683186Y-5622108D01*
X21501286Y-5734736D01*
X21501283Y-5734738D01*
X21501279Y-5734740D01*
X21501278Y-5734742D01*
X21455948Y-5776066D01*
X21343158Y-5878887D01*
X21214219Y-6049629D01*
X21118849Y-6241158D01*
X21118846Y-6241164D01*
X21060296Y-6446949D01*
X21060295Y-6446952D01*
X21053471Y-6520604D01*
X21027685Y-6585542D01*
X20970884Y-6626229D01*
X20901103Y-6629749D01*
X20840497Y-6594984D01*
X20808307Y-6532971D01*
X20806529Y-6520604D01*
X20799704Y-6446952D01*
X20799703Y-6446949D01*
X20741153Y-6241164D01*
X20741150Y-6241158D01*
X20713382Y-6185392D01*
X20645781Y-6049630D01*
X20516841Y-5878886D01*
X20358722Y-5734742D01*
X20358716Y-5734738D01*
X20358713Y-5734736D01*
X20176813Y-5622108D01*
X20176807Y-5622106D01*
X20173067Y-5620657D01*
X19977297Y-5544815D01*
X19766980Y-5505500D01*
X19553020Y-5505500D01*
X19342703Y-5544815D01*
X19264224Y-5575218D01*
X19143192Y-5622106D01*
X19143186Y-5622108D01*
X18961286Y-5734736D01*
X18961283Y-5734738D01*
X18961279Y-5734740D01*
X18961278Y-5734742D01*
X18915948Y-5776066D01*
X18803158Y-5878887D01*
X18674219Y-6049629D01*
X18578849Y-6241158D01*
X18578846Y-6241164D01*
X18520296Y-6446949D01*
X18520295Y-6446952D01*
X18513471Y-6520604D01*
X18487685Y-6585542D01*
X18430884Y-6626229D01*
X18361103Y-6629749D01*
X18300497Y-6594984D01*
X18268307Y-6532971D01*
X18266529Y-6520604D01*
X18259704Y-6446952D01*
X18259703Y-6446949D01*
X18201153Y-6241164D01*
X18201150Y-6241158D01*
X18173382Y-6185392D01*
X18105781Y-6049630D01*
X17976841Y-5878886D01*
X17818722Y-5734742D01*
X17818716Y-5734738D01*
X17818713Y-5734736D01*
X17636813Y-5622108D01*
X17636807Y-5622106D01*
X17633067Y-5620657D01*
X17437297Y-5544815D01*
X17226980Y-5505500D01*
X17013020Y-5505500D01*
X16802703Y-5544815D01*
X16724224Y-5575218D01*
X16603192Y-5622106D01*
X16603186Y-5622108D01*
X16421286Y-5734736D01*
X16421283Y-5734738D01*
X16421279Y-5734740D01*
X16421278Y-5734742D01*
X16375948Y-5776066D01*
X16263158Y-5878887D01*
X16134219Y-6049629D01*
X16038849Y-6241158D01*
X16038846Y-6241164D01*
X15980296Y-6446949D01*
X15980295Y-6446952D01*
X15973471Y-6520604D01*
X15947685Y-6585542D01*
X15890884Y-6626229D01*
X15821103Y-6629749D01*
X15760497Y-6594984D01*
X15728307Y-6532971D01*
X15726529Y-6520604D01*
X15719704Y-6446952D01*
X15719703Y-6446949D01*
X15661153Y-6241164D01*
X15661150Y-6241158D01*
X15633382Y-6185392D01*
X15565781Y-6049630D01*
X15436841Y-5878886D01*
X15278722Y-5734742D01*
X15278716Y-5734738D01*
X15278713Y-5734736D01*
X15096813Y-5622108D01*
X15096807Y-5622106D01*
X15093067Y-5620657D01*
X14897297Y-5544815D01*
X14686980Y-5505500D01*
X14473020Y-5505500D01*
X14262703Y-5544815D01*
X14184224Y-5575218D01*
X14063192Y-5622106D01*
X14063186Y-5622108D01*
X13881286Y-5734736D01*
X13881283Y-5734738D01*
X13881279Y-5734740D01*
X13881278Y-5734742D01*
X13835948Y-5776066D01*
X13723158Y-5878887D01*
X13594219Y-6049629D01*
X13498849Y-6241158D01*
X13498846Y-6241164D01*
X13440296Y-6446949D01*
X13440295Y-6446952D01*
X13420554Y-6659999D01*
X13420554Y-6660000D01*
X13440295Y-6873047D01*
X13440296Y-6873050D01*
X13498846Y-7078835D01*
X13498849Y-7078840D01*
X13594219Y-7270370D01*
X13723159Y-7441114D01*
X13881278Y-7585258D01*
X13881283Y-7585261D01*
X13881286Y-7585263D01*
X14063186Y-7697891D01*
X14063187Y-7697891D01*
X14063190Y-7697893D01*
X14262703Y-7775185D01*
X14473020Y-7814500D01*
X14473022Y-7814500D01*
X14686978Y-7814500D01*
X14686980Y-7814500D01*
X14897297Y-7775185D01*
X15096810Y-7697893D01*
X15278722Y-7585258D01*
X15436841Y-7441114D01*
X15565781Y-7270370D01*
X15661151Y-7078840D01*
X15661151Y-7078837D01*
X15661153Y-7078835D01*
X15695639Y-6957628D01*
X15719704Y-6873048D01*
X15726529Y-6799394D01*
X15752315Y-6734457D01*
X15809116Y-6693770D01*
X15878897Y-6690250D01*
X15939503Y-6725015D01*
X15971693Y-6787028D01*
X15973471Y-6799395D01*
X15980295Y-6873047D01*
X15980296Y-6873050D01*
X16038846Y-7078835D01*
X16038849Y-7078841D01*
X16134219Y-7270370D01*
X16244453Y-7416344D01*
X16269145Y-7481706D01*
X16269499Y-7491071D01*
X16269499Y-11727872D01*
X16249814Y-11794911D01*
X16197010Y-11840666D01*
X16177593Y-11847647D01*
X16133509Y-11859459D01*
X16133502Y-11859461D01*
X15927267Y-11955631D01*
X15927265Y-11955632D01*
X15740858Y-12086154D01*
X15579954Y-12247058D01*
X15449432Y-12433465D01*
X15449431Y-12433467D01*
X15353261Y-12639702D01*
X15353258Y-12639711D01*
X15294366Y-12859502D01*
X15294364Y-12859513D01*
X15274532Y-13086198D01*
X15274532Y-13086201D01*
X15294364Y-13312886D01*
X15294366Y-13312897D01*
X15353258Y-13532688D01*
X15353261Y-13532697D01*
X15449431Y-13738932D01*
X15449432Y-13738934D01*
X15579953Y-13925340D01*
X15613180Y-13958566D01*
X15646666Y-14019888D01*
X15649500Y-14046248D01*
X15649499Y-16379951D01*
X15629814Y-16446991D01*
X15613181Y-16467632D01*
X15499951Y-16580862D01*
X15369432Y-16767265D01*
X15369431Y-16767267D01*
X15273261Y-16973502D01*
X15273258Y-16973511D01*
X15214366Y-17193302D01*
X15214364Y-17193313D01*
X15194532Y-17419998D01*
X15194532Y-17420001D01*
X15214364Y-17646686D01*
X15214366Y-17646697D01*
X15273258Y-17866488D01*
X15273261Y-17866497D01*
X15369431Y-18072732D01*
X15369432Y-18072734D01*
X15499954Y-18259141D01*
X15660858Y-18420045D01*
X15660861Y-18420047D01*
X15847266Y-18550568D01*
X16053504Y-18646739D01*
X16273308Y-18705635D01*
X16435230Y-18719801D01*
X16499998Y-18725468D01*
X16500000Y-18725468D01*
X16500002Y-18725468D01*
X16556672Y-18720509D01*
X16726692Y-18705635D01*
X16946496Y-18646739D01*
X17152734Y-18550568D01*
X17339139Y-18420047D01*
X17500047Y-18259139D01*
X17630568Y-18072734D01*
X17726739Y-17866496D01*
X17785635Y-17646692D01*
X17805468Y-17420000D01*
X17785635Y-17193308D01*
X17726739Y-16973504D01*
X17630568Y-16767266D01*
X17500047Y-16580861D01*
X17386818Y-16467631D01*
X17353334Y-16406308D01*
X17350500Y-16379950D01*
X17350500Y-14198858D01*
X17370185Y-14131819D01*
X17403378Y-14097282D01*
X17419139Y-14086247D01*
X17580047Y-13925339D01*
X17710568Y-13738934D01*
X17806739Y-13532696D01*
X17813916Y-13505910D01*
X17822598Y-13482919D01*
X17873036Y-13381222D01*
X17917684Y-13201695D01*
X17922693Y-13016768D01*
X17906373Y-12931722D01*
X17913070Y-12862178D01*
X17917060Y-12853268D01*
X17923036Y-12841221D01*
X17923037Y-12841218D01*
X17923445Y-12840108D01*
X17930384Y-12820398D01*
X17930727Y-12819377D01*
X17930732Y-12819367D01*
X17948141Y-12740273D01*
X17967684Y-12661695D01*
X17967683Y-12661695D01*
X17967685Y-12661691D01*
X17967830Y-12660626D01*
X17970371Y-12639877D01*
X17970500Y-12638697D01*
X17970500Y-12557731D01*
X17972693Y-12476764D01*
X17972608Y-12475720D01*
X17970500Y-12453552D01*
X17970500Y-7491071D01*
X17990185Y-7424032D01*
X17995546Y-7416344D01*
X18105781Y-7270370D01*
X18201151Y-7078840D01*
X18201151Y-7078837D01*
X18201153Y-7078835D01*
X18235639Y-6957628D01*
X18259704Y-6873048D01*
X18266529Y-6799394D01*
X18292315Y-6734457D01*
X18349116Y-6693770D01*
X18418897Y-6690250D01*
X18479503Y-6725015D01*
X18511693Y-6787028D01*
X18513471Y-6799395D01*
X18520295Y-6873047D01*
X18520296Y-6873050D01*
X18578846Y-7078835D01*
X18578849Y-7078841D01*
X18674219Y-7270370D01*
X18784454Y-7416344D01*
X18809146Y-7481705D01*
X18809500Y-7491071D01*
X18809500Y-36490692D01*
X18789815Y-36557731D01*
X18787075Y-36561815D01*
X18720175Y-36657359D01*
X18665598Y-36700984D01*
X18596100Y-36708178D01*
X18533745Y-36676655D01*
X18517025Y-36657359D01*
X18387094Y-36471797D01*
X18220002Y-36304706D01*
X18219995Y-36304701D01*
X18026434Y-36169167D01*
X18026430Y-36169165D01*
X17904802Y-36112449D01*
X17812263Y-36069297D01*
X17812259Y-36069296D01*
X17812255Y-36069294D01*
X17584013Y-36008138D01*
X17584003Y-36008136D01*
X17463692Y-35997610D01*
X17398623Y-35972157D01*
X17357645Y-35915566D01*
X17350500Y-35874082D01*
X17350500Y-28620047D01*
X17370185Y-28553008D01*
X17386813Y-28532371D01*
X17500047Y-28419139D01*
X17630568Y-28232734D01*
X17726739Y-28026496D01*
X17785635Y-27806692D01*
X17805468Y-27580000D01*
X17785635Y-27353308D01*
X17726739Y-27133504D01*
X17630568Y-26927266D01*
X17508600Y-26753076D01*
X17500045Y-26740858D01*
X17339141Y-26579954D01*
X17152734Y-26449432D01*
X17152732Y-26449431D01*
X16946497Y-26353261D01*
X16946488Y-26353258D01*
X16726697Y-26294366D01*
X16726693Y-26294365D01*
X16726692Y-26294365D01*
X16726691Y-26294364D01*
X16726686Y-26294364D01*
X16500002Y-26274532D01*
X16499998Y-26274532D01*
X16273313Y-26294364D01*
X16273302Y-26294366D01*
X16053511Y-26353258D01*
X16053502Y-26353261D01*
X15847267Y-26449431D01*
X15847265Y-26449432D01*
X15660858Y-26579954D01*
X15499954Y-26740858D01*
X15369432Y-26927265D01*
X15369431Y-26927267D01*
X15273261Y-27133502D01*
X15273258Y-27133511D01*
X15214366Y-27353302D01*
X15214364Y-27353313D01*
X15194532Y-27579998D01*
X15194532Y-27580001D01*
X15214364Y-27806686D01*
X15214366Y-27806697D01*
X15273258Y-28026488D01*
X15273261Y-28026497D01*
X15369431Y-28232732D01*
X15369432Y-28232734D01*
X15499949Y-28419134D01*
X15499954Y-28419140D01*
X15613181Y-28532367D01*
X15646666Y-28593690D01*
X15649500Y-28620048D01*
X15649500Y-36050565D01*
X15629815Y-36117604D01*
X15577011Y-36163359D01*
X15507853Y-36173303D01*
X15473095Y-36162947D01*
X15364802Y-36112449D01*
X15272263Y-36069297D01*
X15272259Y-36069296D01*
X15272255Y-36069294D01*
X15044013Y-36008138D01*
X15044003Y-36008136D01*
X14808601Y-35987541D01*
X14808599Y-35987541D01*
X14573196Y-36008136D01*
X14573186Y-36008138D01*
X14344944Y-36069294D01*
X14344935Y-36069298D01*
X14130771Y-36169164D01*
X14130769Y-36169165D01*
X13937197Y-36304705D01*
X13770105Y-36471798D01*
X13739138Y-36516024D01*
X13684561Y-36559649D01*
X13637564Y-36568900D01*
X-36908550Y-36568900D01*
X-36975589Y-36549215D01*
X-36996231Y-36532581D01*
X-44096181Y-29432630D01*
X-44129666Y-29371307D01*
X-44132500Y-29344949D01*
X-44132500Y-535850D01*
X-44112815Y-468811D01*
X-44096181Y-448169D01*
X-39872942Y3775068D01*
X-39852043Y3791868D01*
X-39810246Y3818583D01*
X-39740865Y3860328D01*
X-39740094Y3860915D01*
X-39723391Y3873972D01*
X-39722612Y3874599D01*
X-39665350Y3931859D01*
X-39606556Y3987553D01*
X-39605922Y3988299D01*
X-39591693Y4005516D01*
X-37557212Y6039999D01*
X-34839446Y6039999D01*
X-34819704Y5826952D01*
X-34819703Y5826949D01*
X-34761153Y5621164D01*
X-34761151Y5621160D01*
X-34665781Y5429630D01*
X-34536841Y5258886D01*
X-34378722Y5114742D01*
X-34378716Y5114738D01*
X-34378713Y5114736D01*
X-34196813Y5002108D01*
X-34196810Y5002107D01*
X-33997297Y4924815D01*
X-33786980Y4885500D01*
X-33786978Y4885500D01*
X-33573022Y4885500D01*
X-33573020Y4885500D01*
X-33362703Y4924815D01*
X-33236533Y4973693D01*
X-33163192Y5002106D01*
X-33163186Y5002108D01*
X-32981286Y5114736D01*
X-32981283Y5114738D01*
X-32981279Y5114740D01*
X-32981278Y5114742D01*
X-32823159Y5258886D01*
X-32823158Y5258887D01*
X-32694219Y5429629D01*
X-32598849Y5621158D01*
X-32598846Y5621164D01*
X-32540296Y5826949D01*
X-32540295Y5826952D01*
X-32520554Y6039999D01*
X-32520554Y6040000D01*
X-32540295Y6253047D01*
X-32540296Y6253050D01*
X-32598846Y6458835D01*
X-32598849Y6458841D01*
X-32694219Y6650370D01*
X-32742221Y6713935D01*
X-32823159Y6821114D01*
X-32981278Y6965258D01*
X-33061913Y7015185D01*
X-33163186Y7077891D01*
X-33163187Y7077891D01*
X-33163190Y7077893D01*
X-33362703Y7155185D01*
X-33573020Y7194500D01*
X-33786980Y7194500D01*
X-33997297Y7155185D01*
X-34196810Y7077893D01*
X-34378722Y6965258D01*
X-34536841Y6821114D01*
X-34665781Y6650370D01*
X-34761151Y6458840D01*
X-34761153Y6458835D01*
X-34819703Y6253050D01*
X-34819704Y6253047D01*
X-34839446Y6040000D01*
X-34839446Y6039999D01*
X-37557212Y6039999D01*
X-36208031Y7389181D01*
X-36146708Y7422666D01*
X-36120350Y7425500D01*
X-36113022Y7425500D01*
X-36113020Y7425500D01*
X-35902703Y7464815D01*
X-35703195Y7542105D01*
X-35703192Y7542106D01*
X-35703186Y7542108D01*
X-35521286Y7654736D01*
X-35521283Y7654738D01*
X-35521279Y7654740D01*
X-35521278Y7654742D01*
X-35363159Y7798886D01*
X-35329467Y7843501D01*
X-35234219Y7969629D01*
X-35138849Y8161158D01*
X-35138846Y8161164D01*
X-35080296Y8366949D01*
X-35080295Y8366952D01*
X-35060554Y8579999D01*
X-35060554Y8580000D01*
X-35080295Y8793047D01*
X-35080296Y8793050D01*
X-35138846Y8998835D01*
X-35138849Y8998841D01*
X-35234219Y9190370D01*
X-35248659Y9209492D01*
X-35363159Y9361114D01*
X-35521278Y9505258D01*
X-35535825Y9514265D01*
X-35703186Y9617891D01*
X-35703187Y9617891D01*
X-35703190Y9617893D01*
X-35902703Y9695185D01*
X-36113020Y9734500D01*
X-36326980Y9734500D01*
X-36537297Y9695185D01*
X-36736810Y9617893D01*
X-36918722Y9505258D01*
X-36965230Y9462860D01*
X-37028031Y9432246D01*
X-37048765Y9430500D01*
X-37518149Y9430500D01*
X-37585188Y9450185D01*
X-37605830Y9466819D01*
X-41613181Y13474170D01*
X-41646666Y13535493D01*
X-41649500Y13561851D01*
X-41649500Y17771348D01*
X-41629815Y17838387D01*
X-41613181Y17859029D01*
X-30742636Y28729574D01*
X-30738933Y28732988D01*
X-30696698Y28768864D01*
X-30647701Y28833319D01*
X-30596963Y28896438D01*
X-30596436Y28897263D01*
X-30585253Y28915293D01*
X-30584744Y28916138D01*
X-30550739Y28989639D01*
X-30514763Y29062180D01*
X-30514382Y29063217D01*
X-30507380Y29083106D01*
X-30507067Y29084033D01*
X-30489658Y29163126D01*
X-30470114Y29241713D01*
X-30469991Y29242616D01*
X-30467407Y29263716D01*
X-30467300Y29264701D01*
X-30467300Y29345668D01*
X-30465106Y29426638D01*
X-30465189Y29427647D01*
X-30467300Y29449849D01*
X-30467300Y29973641D01*
X-30447615Y30040680D01*
X-30430982Y30061322D01*
X-30279301Y30213003D01*
X-30279299Y30213006D01*
X-30149373Y30398558D01*
X-30094796Y30442183D01*
X-30025298Y30449375D01*
X-29962943Y30417853D01*
X-29946224Y30398557D01*
X-29816298Y30213003D01*
X-29816293Y30212997D01*
X-29649200Y30045904D01*
X-29647184Y30044212D01*
X-29646540Y30043244D01*
X-29645373Y30042077D01*
X-29645607Y30041842D01*
X-29608488Y29986036D01*
X-29602900Y29949231D01*
X-29602900Y27620047D01*
X-29622585Y27553008D01*
X-29639213Y27532371D01*
X-29752447Y27419139D01*
X-29882968Y27232734D01*
X-29979139Y27026496D01*
X-30038035Y26806692D01*
X-30057868Y26580000D01*
X-30038035Y26353308D01*
X-29979139Y26133504D01*
X-29882968Y25927266D01*
X-29882967Y25927265D01*
X-29752445Y25740858D01*
X-29591541Y25579954D01*
X-29405134Y25449432D01*
X-29405132Y25449431D01*
X-29198897Y25353261D01*
X-29198888Y25353258D01*
X-28979097Y25294366D01*
X-28979086Y25294364D01*
X-28752402Y25274532D01*
X-28752400Y25274532D01*
X-28752398Y25274532D01*
X-28525713Y25294364D01*
X-28525702Y25294366D01*
X-28305911Y25353258D01*
X-28305902Y25353261D01*
X-28099667Y25449431D01*
X-28099665Y25449432D01*
X-27913258Y25579954D01*
X-27752354Y25740858D01*
X-27621832Y25927265D01*
X-27621831Y25927267D01*
X-27525661Y26133502D01*
X-27525658Y26133511D01*
X-27466766Y26353302D01*
X-27466764Y26353313D01*
X-27446932Y26579998D01*
X-27446932Y26580001D01*
X-27466764Y26806686D01*
X-27466766Y26806697D01*
X-27525658Y27026488D01*
X-27525661Y27026497D01*
X-27621831Y27232732D01*
X-27621832Y27232734D01*
X-27752351Y27419137D01*
X-27752353Y27419139D01*
X-27865582Y27532368D01*
X-27899066Y27593689D01*
X-27901900Y27620048D01*
X-27901899Y29999040D01*
X-27882214Y30066080D01*
X-27865581Y30086721D01*
X-27739302Y30213001D01*
X-27609373Y30398558D01*
X-27554796Y30442183D01*
X-27485298Y30449375D01*
X-27422943Y30417853D01*
X-27406225Y30398558D01*
X-27276295Y30212999D01*
X-27109201Y30045905D01*
X-27023699Y29986036D01*
X-26963376Y29943797D01*
X-26919752Y29889220D01*
X-26910500Y29842222D01*
X-26910500Y9411067D01*
X-26930184Y9344032D01*
X-26935527Y9336369D01*
X-27045781Y9190370D01*
X-27141151Y8998840D01*
X-27141153Y8998835D01*
X-27199703Y8793050D01*
X-27199704Y8793047D01*
X-27206529Y8719395D01*
X-27232315Y8654457D01*
X-27289116Y8613770D01*
X-27358897Y8610250D01*
X-27419503Y8645015D01*
X-27451693Y8707028D01*
X-27453471Y8719395D01*
X-27460295Y8793047D01*
X-27460296Y8793050D01*
X-27518846Y8998835D01*
X-27518849Y8998841D01*
X-27614219Y9190370D01*
X-27743155Y9361109D01*
X-27743159Y9361114D01*
X-27810640Y9422630D01*
X-27846919Y9482338D01*
X-27851100Y9514265D01*
X-27851099Y12459951D01*
X-27831414Y12526990D01*
X-27814781Y12547632D01*
X-27701551Y12660862D01*
X-27571032Y12847265D01*
X-27571031Y12847267D01*
X-27474861Y13053502D01*
X-27474858Y13053511D01*
X-27415966Y13273302D01*
X-27415964Y13273313D01*
X-27396132Y13499998D01*
X-27396132Y13500001D01*
X-27415964Y13726686D01*
X-27415966Y13726697D01*
X-27474858Y13946488D01*
X-27474861Y13946497D01*
X-27571031Y14152732D01*
X-27571032Y14152734D01*
X-27701549Y14339134D01*
X-27701550Y14339135D01*
X-27701553Y14339139D01*
X-27814782Y14452367D01*
X-27848266Y14513688D01*
X-27851100Y14540047D01*
X-27851100Y15430751D01*
X-27831415Y15497790D01*
X-27814781Y15518432D01*
X-27752354Y15580858D01*
X-27621832Y15767265D01*
X-27621831Y15767267D01*
X-27525661Y15973502D01*
X-27525658Y15973511D01*
X-27466766Y16193302D01*
X-27466764Y16193313D01*
X-27446932Y16419998D01*
X-27446932Y16420001D01*
X-27466764Y16646686D01*
X-27466766Y16646697D01*
X-27525658Y16866488D01*
X-27525661Y16866497D01*
X-27621831Y17072732D01*
X-27621832Y17072734D01*
X-27752354Y17259141D01*
X-27913258Y17420045D01*
X-27960093Y17452839D01*
X-28099666Y17550568D01*
X-28305904Y17646739D01*
X-28525708Y17705635D01*
X-28687630Y17719801D01*
X-28752398Y17725468D01*
X-28752402Y17725468D01*
X-28809073Y17720509D01*
X-28979092Y17705635D01*
X-29198896Y17646739D01*
X-29405134Y17550568D01*
X-29591539Y17420047D01*
X-29752447Y17259139D01*
X-29882968Y17072734D01*
X-29979139Y16866496D01*
X-30038035Y16646692D01*
X-30042791Y16592331D01*
X-30057868Y16420001D01*
X-30057868Y16419998D01*
X-30055932Y16397873D01*
X-30038035Y16193308D01*
X-29979139Y15973504D01*
X-29882968Y15767266D01*
X-29882967Y15767265D01*
X-29752445Y15580858D01*
X-29588419Y15416832D01*
X-29554934Y15355509D01*
X-29552100Y15329151D01*
X-29552100Y14540048D01*
X-29571785Y14473009D01*
X-29588419Y14452367D01*
X-29633115Y14407671D01*
X-29701647Y14339139D01*
X-29832168Y14152734D01*
X-29928339Y13946496D01*
X-29987235Y13726692D01*
X-30007068Y13500000D01*
X-29987235Y13273308D01*
X-29942516Y13106415D01*
X-29929962Y13059559D01*
X-29928339Y13053504D01*
X-29832168Y12847266D01*
X-29791377Y12789010D01*
X-29701645Y12660858D01*
X-29588419Y12547632D01*
X-29554934Y12486309D01*
X-29552100Y12459951D01*
X-29552100Y9276531D01*
X-29571785Y9209492D01*
X-29577148Y9201802D01*
X-29585781Y9190370D01*
X-29681151Y8998840D01*
X-29681153Y8998835D01*
X-29739703Y8793050D01*
X-29739704Y8793047D01*
X-29746529Y8719395D01*
X-29772315Y8654457D01*
X-29829116Y8613770D01*
X-29898897Y8610250D01*
X-29959503Y8645015D01*
X-29991693Y8707028D01*
X-29993471Y8719395D01*
X-30000295Y8793047D01*
X-30000296Y8793050D01*
X-30058846Y8998835D01*
X-30058849Y8998841D01*
X-30154219Y9190370D01*
X-30168659Y9209492D01*
X-30283159Y9361114D01*
X-30441278Y9505258D01*
X-30455825Y9514265D01*
X-30623186Y9617891D01*
X-30623187Y9617891D01*
X-30623190Y9617893D01*
X-30822703Y9695185D01*
X-31033020Y9734500D01*
X-31246980Y9734500D01*
X-31457297Y9695185D01*
X-31656810Y9617893D01*
X-31838722Y9505258D01*
X-31996841Y9361114D01*
X-32125781Y9190370D01*
X-32221151Y8998840D01*
X-32221153Y8998835D01*
X-32279703Y8793050D01*
X-32279704Y8793047D01*
X-32299446Y8580000D01*
X-32299446Y8579999D01*
X-32279704Y8366952D01*
X-32279703Y8366949D01*
X-32221153Y8161164D01*
X-32221151Y8161160D01*
X-32125781Y7969630D01*
X-32117678Y7958900D01*
X-32015546Y7823655D01*
X-31990854Y7758293D01*
X-31990500Y7748928D01*
X-31990500Y5351450D01*
X-32010185Y5284411D01*
X-32026818Y5263769D01*
X-40249580Y-2958991D01*
X-40253260Y-2962384D01*
X-40295500Y-2998263D01*
X-40344490Y-3062708D01*
X-40395242Y-3125846D01*
X-40395811Y-3126736D01*
X-40406904Y-3144623D01*
X-40407453Y-3145534D01*
X-40407454Y-3145536D01*
X-40441460Y-3219039D01*
X-40477436Y-3291579D01*
X-40477437Y-3291584D01*
X-40477439Y-3291588D01*
X-40477858Y-3292727D01*
X-40484776Y-3312376D01*
X-40485132Y-3313434D01*
X-40502541Y-3392525D01*
X-40522084Y-3471105D01*
X-40522232Y-3472194D01*
X-40524777Y-3492975D01*
X-40524900Y-3494104D01*
X-40524900Y-3575068D01*
X-40527093Y-3656038D01*
X-40527010Y-3657047D01*
X-40524900Y-3679249D01*
X-40524900Y-8350111D01*
X-40525105Y-8355145D01*
X-40527099Y-8379647D01*
X-40529601Y-8410367D01*
X-40518670Y-8490592D01*
X-40509914Y-8571110D01*
X-40509913Y-8571112D01*
X-40509666Y-8572236D01*
X-40504915Y-8592507D01*
X-40504628Y-8593662D01*
X-40504627Y-8593668D01*
X-40476699Y-8669686D01*
X-40450844Y-8746421D01*
X-40450839Y-8746427D01*
X-40450320Y-8747551D01*
X-40441323Y-8766323D01*
X-40440833Y-8767312D01*
X-40440832Y-8767316D01*
X-40397215Y-8835553D01*
X-40355470Y-8904936D01*
X-40355465Y-8904940D01*
X-40355466Y-8904940D01*
X-40354760Y-8905869D01*
X-40341933Y-8922276D01*
X-40341201Y-8923186D01*
X-40341200Y-8923189D01*
X-40312570Y-8951818D01*
X-40283940Y-8980449D01*
X-40254544Y-9011481D01*
X-40228249Y-9039241D01*
X-40228242Y-9039245D01*
X-40227405Y-9039957D01*
X-40210283Y-9054104D01*
X-32683526Y-16580861D01*
X-25237018Y-24027369D01*
X-25203533Y-24088692D01*
X-25200698Y-24115050D01*
X-25200699Y-24372672D01*
X-25194291Y-24432283D01*
X-25143996Y-24567131D01*
X-25057746Y-24682346D01*
X-24942531Y-24768596D01*
X-24807683Y-24818891D01*
X-24807681Y-24818891D01*
X-24800138Y-24820674D01*
X-24800676Y-24822951D01*
X-24746913Y-24845208D01*
X-24707053Y-24902593D01*
X-24700700Y-24941775D01*
X-24700700Y-28898711D01*
X-24700905Y-28903745D01*
X-24702899Y-28928247D01*
X-24705401Y-28958967D01*
X-24694470Y-29039192D01*
X-24685714Y-29119710D01*
X-24685713Y-29119712D01*
X-24685466Y-29120836D01*
X-24680715Y-29141107D01*
X-24680428Y-29142262D01*
X-24680427Y-29142268D01*
X-24652499Y-29218286D01*
X-24626644Y-29295021D01*
X-24626639Y-29295027D01*
X-24626120Y-29296151D01*
X-24617123Y-29314923D01*
X-24616633Y-29315912D01*
X-24616632Y-29315916D01*
X-24573015Y-29384153D01*
X-24531270Y-29453536D01*
X-24531265Y-29453540D01*
X-24531266Y-29453540D01*
X-24530560Y-29454469D01*
X-24517733Y-29470876D01*
X-24517001Y-29471786D01*
X-24517000Y-29471789D01*
X-24488370Y-29500418D01*
X-24459740Y-29529049D01*
X-24430344Y-29560081D01*
X-24404049Y-29587841D01*
X-24404042Y-29587845D01*
X-24403205Y-29588557D01*
X-24386083Y-29602704D01*
X-22140995Y-31847792D01*
X-22137615Y-31851459D01*
X-22101737Y-31893700D01*
X-22037281Y-31942697D01*
X-21974154Y-31993441D01*
X-21974151Y-31993442D01*
X-21973153Y-31994080D01*
X-21955538Y-32005006D01*
X-21954477Y-32005643D01*
X-21954464Y-32005654D01*
X-21880947Y-32039666D01*
X-21808421Y-32075636D01*
X-21808408Y-32075639D01*
X-21807286Y-32076052D01*
X-21787583Y-32082989D01*
X-21786577Y-32083327D01*
X-21786567Y-32083332D01*
X-21707473Y-32100741D01*
X-21628891Y-32120285D01*
X-21627826Y-32120430D01*
X-21607077Y-32122971D01*
X-21605897Y-32123100D01*
X-21524931Y-32123100D01*
X-21443968Y-32125293D01*
X-21443967Y-32125292D01*
X-21443964Y-32125293D01*
X-21442920Y-32125208D01*
X-21420752Y-32123100D01*
X-6927577Y-32123100D01*
X-6860538Y-32142785D01*
X-6814783Y-32195589D01*
X-6807333Y-32222734D01*
X-6806476Y-32222532D01*
X-6804692Y-32230079D01*
X-6804691Y-32230081D01*
X-6804691Y-32230083D01*
X-6754396Y-32364931D01*
X-6668146Y-32480146D01*
X-6552931Y-32566396D01*
X-6418083Y-32616691D01*
X-6358473Y-32623100D01*
X-4562728Y-32623099D01*
X-4514357Y-32617899D01*
X-4503116Y-32616691D01*
X-4368271Y-32566397D01*
X-4368264Y-32566393D01*
X-4253055Y-32480147D01*
X-4253052Y-32480144D01*
X-4166806Y-32364935D01*
X-4166802Y-32364928D01*
X-4116508Y-32230082D01*
X-4110101Y-32170483D01*
X-4110100Y-32170464D01*
X-4110100Y-30374729D01*
X-4110101Y-30374723D01*
X-4116508Y-30315116D01*
X-4166802Y-30180271D01*
X-4166806Y-30180264D01*
X-4253052Y-30065055D01*
X-4253055Y-30065052D01*
X-4368264Y-29978806D01*
X-4368271Y-29978802D01*
X-4503117Y-29928508D01*
X-4510662Y-29926726D01*
X-4510125Y-29924453D01*
X-4563912Y-29902171D01*
X-4603757Y-29844777D01*
X-4610100Y-29805624D01*
X-4610100Y-19382651D01*
X-4590415Y-19315612D01*
X-4573781Y-19294970D01*
X-2472113Y-17193302D01*
X-364218Y-15085407D01*
X-360526Y-15082004D01*
X-318299Y-15046137D01*
X-290462Y-15009517D01*
X-269302Y-14981681D01*
X-249101Y-14956550D01*
X-218561Y-14918558D01*
X-217950Y-14917602D01*
X-206943Y-14899857D01*
X-206343Y-14898860D01*
X-172333Y-14825347D01*
X-136362Y-14752816D01*
X-135973Y-14751758D01*
X-129002Y-14731960D01*
X-128666Y-14730964D01*
X-111258Y-14651873D01*
X-91715Y-14573294D01*
X-91587Y-14572359D01*
X-89016Y-14551362D01*
X-88901Y-14550301D01*
X-88900Y-14550297D01*
X-88900Y-14469331D01*
X-86706Y-14388364D01*
X-86791Y-14387320D01*
X-88900Y-14365152D01*
X-88900Y-7733345D01*
X-69215Y-7666306D01*
X-30180Y-7627920D01*
X38722Y-7585258D01*
X196841Y-7441114D01*
X325781Y-7270370D01*
X421151Y-7078840D01*
X455639Y-6957625D01*
X492918Y-6898535D01*
X556227Y-6868977D01*
X625467Y-6878339D01*
X678653Y-6923648D01*
X698901Y-6990520D01*
X698860Y-6994920D01*
X697106Y-7059638D01*
X697189Y-7060647D01*
X699300Y-7082849D01*
X699300Y-16365549D01*
X679615Y-16432588D01*
X662981Y-16453229D01*
X-955780Y-18071991D01*
X-959460Y-18075384D01*
X-1001700Y-18111263D01*
X-1050690Y-18175708D01*
X-1101442Y-18238846D01*
X-1102011Y-18239736D01*
X-1113104Y-18257623D01*
X-1113653Y-18258534D01*
X-1113654Y-18258536D01*
X-1147660Y-18332039D01*
X-1183636Y-18404579D01*
X-1183637Y-18404584D01*
X-1183639Y-18404588D01*
X-1184058Y-18405727D01*
X-1190976Y-18425376D01*
X-1191332Y-18426434D01*
X-1208741Y-18505525D01*
X-1228284Y-18584105D01*
X-1228432Y-18585194D01*
X-1230977Y-18605975D01*
X-1231100Y-18607104D01*
X-1231100Y-18688068D01*
X-1233293Y-18769038D01*
X-1233210Y-18770047D01*
X-1231100Y-18792249D01*
X-1231100Y-30161840D01*
X-1250785Y-30228879D01*
X-1267418Y-30249521D01*
X-1419096Y-30401200D01*
X-1549024Y-30586758D01*
X-1554635Y-30594771D01*
X-1654503Y-30808937D01*
X-1715663Y-31037192D01*
X-1736259Y-31272600D01*
X-1715663Y-31508008D01*
X-1654503Y-31736263D01*
X-1554635Y-31950430D01*
X-1419095Y-32144001D01*
X-1252001Y-32311095D01*
X-1058430Y-32446635D01*
X-844263Y-32546503D01*
X-616008Y-32607663D01*
X-439566Y-32623100D01*
X-380601Y-32628259D01*
X-380600Y-32628259D01*
X-380599Y-32628259D01*
X-321634Y-32623100D01*
X-145192Y-32607663D01*
X83063Y-32546503D01*
X297230Y-32446635D01*
X490801Y-32311095D01*
X657895Y-32144001D01*
X787826Y-31958441D01*
X842402Y-31914817D01*
X911900Y-31907623D01*
X974255Y-31939146D01*
X990975Y-31958442D01*
X1120900Y-32143995D01*
X1120905Y-32144001D01*
X1287999Y-32311095D01*
X1384784Y-32378865D01*
X1481565Y-32446632D01*
X1481567Y-32446633D01*
X1481570Y-32446635D01*
X1695737Y-32546503D01*
X1923992Y-32607663D01*
X2100434Y-32623100D01*
X2159399Y-32628259D01*
X2159400Y-32628259D01*
X2159401Y-32628259D01*
X2218366Y-32623100D01*
X2394808Y-32607663D01*
X2623063Y-32546503D01*
X2837230Y-32446635D01*
X3030801Y-32311095D01*
X3197895Y-32144001D01*
X3327826Y-31958440D01*
X3382401Y-31914817D01*
X3451899Y-31907623D01*
X3514254Y-31939146D01*
X3530974Y-31958441D01*
X3564033Y-32005653D01*
X3660905Y-32144001D01*
X3827999Y-32311095D01*
X3924784Y-32378865D01*
X4021565Y-32446632D01*
X4021567Y-32446633D01*
X4021570Y-32446635D01*
X4235737Y-32546503D01*
X4463992Y-32607663D01*
X4640434Y-32623100D01*
X4699399Y-32628259D01*
X4699400Y-32628259D01*
X4699401Y-32628259D01*
X4758366Y-32623100D01*
X4934808Y-32607663D01*
X5163063Y-32546503D01*
X5377230Y-32446635D01*
X5570801Y-32311095D01*
X5737895Y-32144001D01*
X5867826Y-31958440D01*
X5922401Y-31914817D01*
X5991899Y-31907623D01*
X6054254Y-31939146D01*
X6070974Y-31958441D01*
X6104033Y-32005653D01*
X6200905Y-32144001D01*
X6367999Y-32311095D01*
X6464784Y-32378865D01*
X6561565Y-32446632D01*
X6561567Y-32446633D01*
X6561570Y-32446635D01*
X6775737Y-32546503D01*
X7003992Y-32607663D01*
X7180434Y-32623100D01*
X7239399Y-32628259D01*
X7239400Y-32628259D01*
X7239401Y-32628259D01*
X7298366Y-32623100D01*
X7474808Y-32607663D01*
X7703063Y-32546503D01*
X7917230Y-32446635D01*
X8110801Y-32311095D01*
X8277895Y-32144001D01*
X8407826Y-31958440D01*
X8462401Y-31914817D01*
X8531899Y-31907623D01*
X8594254Y-31939146D01*
X8610974Y-31958441D01*
X8644033Y-32005653D01*
X8740905Y-32144001D01*
X8907999Y-32311095D01*
X9004784Y-32378865D01*
X9101565Y-32446632D01*
X9101567Y-32446633D01*
X9101570Y-32446635D01*
X9315737Y-32546503D01*
X9543992Y-32607663D01*
X9720434Y-32623100D01*
X9779399Y-32628259D01*
X9779400Y-32628259D01*
X9779401Y-32628259D01*
X9838366Y-32623100D01*
X10014808Y-32607663D01*
X10243063Y-32546503D01*
X10457230Y-32446635D01*
X10650801Y-32311095D01*
X10817895Y-32144001D01*
X10947826Y-31958441D01*
X11002402Y-31914817D01*
X11071900Y-31907623D01*
X11134255Y-31939146D01*
X11150975Y-31958442D01*
X11280900Y-32143995D01*
X11280905Y-32144001D01*
X11447999Y-32311095D01*
X11544784Y-32378865D01*
X11641565Y-32446632D01*
X11641567Y-32446633D01*
X11641570Y-32446635D01*
X11855737Y-32546503D01*
X12083992Y-32607663D01*
X12260434Y-32623100D01*
X12319399Y-32628259D01*
X12319400Y-32628259D01*
X12319401Y-32628259D01*
X12378366Y-32623100D01*
X12554808Y-32607663D01*
X12783063Y-32546503D01*
X12997230Y-32446635D01*
X13190801Y-32311095D01*
X13357895Y-32144001D01*
X13493435Y-31950430D01*
X13593303Y-31736263D01*
X13654463Y-31508008D01*
X13675059Y-31272600D01*
X13654463Y-31037192D01*
X13593303Y-30808937D01*
X13493435Y-30594771D01*
X13487825Y-30586758D01*
X13357894Y-30401197D01*
X13190802Y-30234106D01*
X13190795Y-30234101D01*
X13183337Y-30228879D01*
X13151921Y-30206881D01*
X12997234Y-30098567D01*
X12997230Y-30098565D01*
X12997228Y-30098564D01*
X12783063Y-29998697D01*
X12783059Y-29998696D01*
X12783055Y-29998694D01*
X12554813Y-29937538D01*
X12554803Y-29937536D01*
X12319401Y-29916941D01*
X12319399Y-29916941D01*
X12083996Y-29937536D01*
X12083986Y-29937538D01*
X11855744Y-29998694D01*
X11855735Y-29998698D01*
X11641571Y-30098564D01*
X11641569Y-30098565D01*
X11447997Y-30234105D01*
X11280905Y-30401197D01*
X11150975Y-30586758D01*
X11096398Y-30630383D01*
X11026900Y-30637577D01*
X10964545Y-30606054D01*
X10947825Y-30586758D01*
X10817894Y-30401197D01*
X10650802Y-30234106D01*
X10650795Y-30234101D01*
X10643337Y-30228879D01*
X10611921Y-30206881D01*
X10457234Y-30098567D01*
X10457230Y-30098565D01*
X10457228Y-30098564D01*
X10243063Y-29998697D01*
X10243059Y-29998696D01*
X10243055Y-29998694D01*
X10014813Y-29937538D01*
X10014803Y-29937536D01*
X9779401Y-29916941D01*
X9779399Y-29916941D01*
X9543996Y-29937536D01*
X9543986Y-29937538D01*
X9315744Y-29998694D01*
X9315735Y-29998698D01*
X9101571Y-30098564D01*
X9101569Y-30098565D01*
X8907997Y-30234105D01*
X8740905Y-30401197D01*
X8610975Y-30586758D01*
X8556398Y-30630383D01*
X8486900Y-30637577D01*
X8424545Y-30606054D01*
X8407825Y-30586758D01*
X8277894Y-30401197D01*
X8110802Y-30234106D01*
X8110795Y-30234101D01*
X8103337Y-30228879D01*
X8071921Y-30206881D01*
X7917234Y-30098567D01*
X7917230Y-30098565D01*
X7917228Y-30098564D01*
X7703063Y-29998697D01*
X7703059Y-29998696D01*
X7703055Y-29998694D01*
X7474813Y-29937538D01*
X7474803Y-29937536D01*
X7239401Y-29916941D01*
X7239399Y-29916941D01*
X7003996Y-29937536D01*
X7003986Y-29937538D01*
X6775744Y-29998694D01*
X6775735Y-29998698D01*
X6561571Y-30098564D01*
X6561569Y-30098565D01*
X6367997Y-30234105D01*
X6200905Y-30401197D01*
X6070975Y-30586758D01*
X6016398Y-30630383D01*
X5946900Y-30637577D01*
X5884545Y-30606054D01*
X5867825Y-30586758D01*
X5737894Y-30401197D01*
X5570802Y-30234106D01*
X5570795Y-30234101D01*
X5563337Y-30228879D01*
X5531921Y-30206881D01*
X5377234Y-30098567D01*
X5377230Y-30098565D01*
X5377230Y-30098564D01*
X5163063Y-29998697D01*
X5163059Y-29998696D01*
X5163055Y-29998694D01*
X4934813Y-29937538D01*
X4934803Y-29937536D01*
X4699401Y-29916941D01*
X4699399Y-29916941D01*
X4463996Y-29937536D01*
X4463986Y-29937538D01*
X4235744Y-29998694D01*
X4235735Y-29998698D01*
X4021571Y-30098564D01*
X4021569Y-30098565D01*
X3827997Y-30234105D01*
X3660908Y-30401194D01*
X3530974Y-30586759D01*
X3476397Y-30630384D01*
X3406898Y-30637576D01*
X3344544Y-30606054D01*
X3327824Y-30586758D01*
X3197893Y-30401196D01*
X3046219Y-30249522D01*
X3012734Y-30188199D01*
X3009900Y-30161841D01*
X3009900Y-21059049D01*
X3029585Y-20992010D01*
X3046214Y-20971373D01*
X4690385Y-19327201D01*
X4694054Y-19323819D01*
X4736300Y-19287937D01*
X4785298Y-19223480D01*
X4836042Y-19160354D01*
X4836050Y-19160337D01*
X4836662Y-19159382D01*
X4847600Y-19141748D01*
X4848244Y-19140676D01*
X4848254Y-19140664D01*
X4882252Y-19067177D01*
X4918237Y-18994621D01*
X4918239Y-18994612D01*
X4918653Y-18993483D01*
X4925554Y-18973886D01*
X4925927Y-18972777D01*
X4925932Y-18972767D01*
X4943339Y-18893683D01*
X4962884Y-18815094D01*
X4962884Y-18815092D01*
X4963033Y-18814000D01*
X4965571Y-18793277D01*
X4965700Y-18792097D01*
X4965700Y-18711130D01*
X4967893Y-18630163D01*
X4967808Y-18629120D01*
X4965700Y-18606952D01*
X4965700Y-7749072D01*
X4985385Y-7682033D01*
X5024422Y-7643645D01*
X5118722Y-7585258D01*
X5276841Y-7441114D01*
X5405781Y-7270370D01*
X5501151Y-7078840D01*
X5501151Y-7078837D01*
X5501153Y-7078835D01*
X5535639Y-6957628D01*
X5559704Y-6873048D01*
X5566529Y-6799394D01*
X5592315Y-6734457D01*
X5649116Y-6693770D01*
X5718897Y-6690250D01*
X5779503Y-6725015D01*
X5811693Y-6787028D01*
X5813471Y-6799395D01*
X5820295Y-6873047D01*
X5820296Y-6873050D01*
X5878846Y-7078835D01*
X5878849Y-7078840D01*
X5974219Y-7270370D01*
X6103159Y-7441114D01*
X6261278Y-7585258D01*
X6261283Y-7585261D01*
X6261286Y-7585263D01*
X6443186Y-7697891D01*
X6443187Y-7697891D01*
X6443190Y-7697893D01*
X6642703Y-7775185D01*
X6853020Y-7814500D01*
X6853022Y-7814500D01*
X7066978Y-7814500D01*
X7066980Y-7814500D01*
X7277297Y-7775185D01*
X7476810Y-7697893D01*
X7658722Y-7585258D01*
X7816841Y-7441114D01*
X7945781Y-7270370D01*
X8041151Y-7078840D01*
X8041151Y-7078837D01*
X8041153Y-7078835D01*
X8075639Y-6957628D01*
X8099704Y-6873048D01*
X8106529Y-6799394D01*
X8132315Y-6734457D01*
X8189116Y-6693770D01*
X8258897Y-6690250D01*
X8319503Y-6725015D01*
X8351693Y-6787028D01*
X8353471Y-6799395D01*
X8360295Y-6873047D01*
X8360296Y-6873050D01*
X8418846Y-7078835D01*
X8418849Y-7078840D01*
X8514219Y-7270370D01*
X8643159Y-7441114D01*
X8801278Y-7585258D01*
X8801283Y-7585261D01*
X8801286Y-7585263D01*
X8983186Y-7697891D01*
X8983187Y-7697891D01*
X8983190Y-7697893D01*
X9182703Y-7775185D01*
X9393020Y-7814500D01*
X9393022Y-7814500D01*
X9606978Y-7814500D01*
X9606980Y-7814500D01*
X9817297Y-7775185D01*
X10016810Y-7697893D01*
X10198722Y-7585258D01*
X10356841Y-7441114D01*
X10485781Y-7270370D01*
X10581151Y-7078840D01*
X10581151Y-7078837D01*
X10581153Y-7078835D01*
X10615639Y-6957628D01*
X10639704Y-6873048D01*
X10659446Y-6660000D01*
X10639704Y-6446952D01*
X10631200Y-6417065D01*
X10581153Y-6241164D01*
X10581150Y-6241158D01*
X10553382Y-6185392D01*
X10485781Y-6049630D01*
X10356841Y-5878886D01*
X10198722Y-5734742D01*
X10198716Y-5734738D01*
X10198713Y-5734736D01*
X10011936Y-5619089D01*
X10012736Y-5617796D01*
X9966821Y-5575218D01*
X9949406Y-5507553D01*
X9951448Y-5488944D01*
X9958518Y-5451126D01*
X9961452Y-5381319D01*
X9951216Y-5280119D01*
X9964055Y-5211443D01*
X10011987Y-5160607D01*
X10015448Y-5158735D01*
X10016804Y-5157895D01*
X10016810Y-5157893D01*
X10198722Y-5045258D01*
X10356841Y-4901114D01*
X10485781Y-4730370D01*
X10581151Y-4538840D01*
X10581151Y-4538837D01*
X10581153Y-4538835D01*
X10627995Y-4374201D01*
X10639704Y-4333048D01*
X10659446Y-4120000D01*
X10639704Y-3906952D01*
X10631200Y-3877065D01*
X10581153Y-3701164D01*
X10581150Y-3701158D01*
X10570241Y-3679249D01*
X10485781Y-3509630D01*
X10356841Y-3338886D01*
X10356839Y-3338883D01*
X10282019Y-3270676D01*
X10245737Y-3210965D01*
X10247498Y-3141117D01*
X10254269Y-3124348D01*
X10255455Y-3121931D01*
X10255467Y-3121912D01*
X10281725Y-3057164D01*
X10281726Y-3057161D01*
X10316271Y-2917489D01*
X10353803Y-2542161D01*
X10380062Y-2477413D01*
X10437157Y-2437140D01*
X10477189Y-2430500D01*
X24525113Y-2430500D01*
X24530148Y-2430705D01*
X24549762Y-2432301D01*
X24585367Y-2435201D01*
X24665592Y-2424270D01*
X24746110Y-2415514D01*
X24746114Y-2415512D01*
X24747236Y-2415266D01*
X24767507Y-2410515D01*
X24768662Y-2410228D01*
X24768662Y-2410227D01*
X24768668Y-2410227D01*
X24844686Y-2382299D01*
X24921421Y-2356444D01*
X24921427Y-2356439D01*
X24922551Y-2355920D01*
X24941323Y-2346923D01*
X24942312Y-2346433D01*
X24942316Y-2346432D01*
X25010553Y-2302815D01*
X25079936Y-2261070D01*
X25079941Y-2261065D01*
X25080869Y-2260360D01*
X25097276Y-2247533D01*
X25098186Y-2246802D01*
X25098186Y-2246801D01*
X25098189Y-2246800D01*
X25126818Y-2218170D01*
X25155449Y-2189540D01*
X25186481Y-2160144D01*
X25214241Y-2133849D01*
X25214245Y-2133842D01*
X25214957Y-2133005D01*
X25229104Y-2115883D01*
X27075192Y-269795D01*
X27078859Y-266415D01*
X27121100Y-230537D01*
X27145594Y-198314D01*
X27170090Y-166092D01*
X27188505Y-143181D01*
X27220842Y-102954D01*
X27220845Y-102947D01*
X27221451Y-101999D01*
X27232449Y-84269D01*
X27233051Y-83268D01*
X27233051Y-83267D01*
X27233054Y-83264D01*
X27267060Y-9760D01*
X27303036Y62779D01*
X27303038Y62783D01*
X27303452Y63910D01*
X27310376Y83576D01*
X27310732Y84634D01*
X27328141Y163725D01*
X27347684Y242305D01*
X27347832Y243394D01*
X27350377Y264175D01*
X27350500Y265304D01*
X27350500Y346268D01*
X27352693Y427238D01*
X27352610Y428247D01*
X27350500Y450449D01*
X27350500Y22429311D01*
X27350705Y22434345D01*
X27352699Y22458847D01*
X27355201Y22489567D01*
X27344270Y22569792D01*
X27335514Y22650310D01*
X27335512Y22650314D01*
X27335266Y22651436D01*
X27330515Y22671707D01*
X27330228Y22672862D01*
X27330227Y22672862D01*
X27330227Y22672868D01*
X27302299Y22748886D01*
X27276444Y22825621D01*
X27276439Y22825627D01*
X27275920Y22826751D01*
X27266923Y22845523D01*
X27266433Y22846512D01*
X27266432Y22846516D01*
X27222815Y22914753D01*
X27181070Y22984136D01*
X27181065Y22984141D01*
X27180360Y22985069D01*
X27167533Y23001476D01*
X27166802Y23002386D01*
X27166801Y23002386D01*
X27166800Y23002389D01*
X27138170Y23031018D01*
X27109540Y23059649D01*
X27080144Y23090681D01*
X27053849Y23118441D01*
X27053842Y23118445D01*
X27053005Y23119157D01*
X27035883Y23133304D01*
X21066988Y29102201D01*
X21066985Y29102202D01*
X21059926Y29109262D01*
X21059919Y29109267D01*
X20871809Y29297378D01*
X20868416Y29301059D01*
X20832537Y29343300D01*
X20808146Y29361840D01*
X20801850Y29367336D01*
X5149195Y45019992D01*
X5145815Y45023659D01*
X5109937Y45065900D01*
X5077714Y45090395D01*
X5045492Y45114890D01*
X5022581Y45133305D01*
X4982354Y45165642D01*
X4982347Y45165645D01*
X4981399Y45166251D01*
X4963669Y45177249D01*
X4962669Y45177851D01*
X4962666Y45177852D01*
X4962664Y45177854D01*
X4889160Y45211860D01*
X4816621Y45247836D01*
X4816614Y45247837D01*
X4815535Y45248234D01*
X4795783Y45255189D01*
X4794777Y45255527D01*
X4794767Y45255532D01*
X4715673Y45272941D01*
X4637095Y45292484D01*
X4637091Y45292485D01*
X4636026Y45292630D01*
X4615277Y45295171D01*
X4614097Y45295300D01*
X4533131Y45295300D01*
X4452168Y45297493D01*
X4452167Y45297492D01*
X4452164Y45297493D01*
X4451120Y45297408D01*
X4428952Y45295300D01*
X-19558113Y45295300D01*
X-19563148Y45295505D01*
X-19582762Y45297101D01*
X-19618367Y45300001D01*
X-19698592Y45289070D01*
X-19779110Y45280314D01*
X-19779114Y45280312D01*
X-19780236Y45280066D01*
X-19800507Y45275315D01*
X-19801662Y45275028D01*
X-19801662Y45275027D01*
X-19801668Y45275027D01*
X-19877686Y45247099D01*
X-19954421Y45221244D01*
X-19954427Y45221239D01*
X-19955551Y45220720D01*
X-19974323Y45211723D01*
X-19975311Y45211233D01*
X-19975316Y45211232D01*
X-20043541Y45167622D01*
X-20112936Y45125870D01*
X-20112938Y45125867D01*
X-20113817Y45125200D01*
X-20130280Y45112329D01*
X-20131186Y45111601D01*
X-20131189Y45111599D01*
X-20159808Y45082978D01*
X-20188430Y45054358D01*
X-20218631Y45025748D01*
X-20247241Y44998649D01*
X-20247244Y44998643D01*
X-20247980Y44997779D01*
X-20262108Y44980678D01*
X-26320175Y38922612D01*
X-26355970Y38886818D01*
X-26417293Y38853333D01*
X-26443651Y38850499D01*
X-27437872Y38850499D01*
X-27497483Y38844091D01*
X-27632331Y38793796D01*
X-27747546Y38707546D01*
X-27833796Y38592331D01*
X-27884091Y38457483D01*
X-27890500Y38397873D01*
X-27890499Y36602128D01*
X-27887682Y36575920D01*
X-27884091Y36542516D01*
X-27833797Y36407671D01*
X-27833793Y36407664D01*
X-27747547Y36292455D01*
X-27747544Y36292452D01*
X-27632335Y36206206D01*
X-27632328Y36206202D01*
X-27497482Y36155908D01*
X-27497483Y36155908D01*
X-27437883Y36149501D01*
X-27437881Y36149500D01*
X-27437873Y36149500D01*
X-27437864Y36149500D01*
X-25642129Y36149500D01*
X-25642123Y36149501D01*
X-25582516Y36155908D01*
X-25447671Y36206202D01*
X-25447664Y36206206D01*
X-25332455Y36292452D01*
X-25332452Y36292455D01*
X-25246206Y36407664D01*
X-25246202Y36407671D01*
X-25195908Y36542517D01*
X-25189501Y36602116D01*
X-25189499Y36602135D01*
X-25189499Y37596348D01*
X-25169814Y37663388D01*
X-25153180Y37684029D01*
X-19279230Y43557981D01*
X-19217907Y43591466D01*
X-19191549Y43594300D01*
X4117949Y43594300D01*
X4184988Y43574615D01*
X4205630Y43557981D01*
X17979230Y29784381D01*
X18012715Y29723058D01*
X18007731Y29653366D01*
X17965859Y29597433D01*
X17900395Y29573016D01*
X17891549Y29572700D01*
X-7303113Y29572700D01*
X-7308148Y29572905D01*
X-7327762Y29574501D01*
X-7363367Y29577401D01*
X-7443592Y29566470D01*
X-7524110Y29557714D01*
X-7524114Y29557712D01*
X-7525236Y29557466D01*
X-7545507Y29552715D01*
X-7546662Y29552428D01*
X-7546662Y29552427D01*
X-7546668Y29552427D01*
X-7622686Y29524499D01*
X-7699421Y29498644D01*
X-7699427Y29498639D01*
X-7700551Y29498120D01*
X-7719323Y29489123D01*
X-7720312Y29488633D01*
X-7720316Y29488632D01*
X-7788553Y29445015D01*
X-7857936Y29403270D01*
X-7857940Y29403266D01*
X-7858869Y29402560D01*
X-7875276Y29389733D01*
X-7876186Y29389002D01*
X-7876189Y29389000D01*
X-7904818Y29360370D01*
X-7933449Y29331740D01*
X-7964481Y29302344D01*
X-7992241Y29276049D01*
X-7992245Y29276042D01*
X-7992957Y29275205D01*
X-8007104Y29258083D01*
X-10685187Y26580001D01*
X-13150570Y24114618D01*
X-13211893Y24081133D01*
X-13238251Y24078299D01*
X-14232472Y24078299D01*
X-14292083Y24071891D01*
X-14426931Y24021596D01*
X-14542146Y23935346D01*
X-14628396Y23820131D01*
X-14678691Y23685283D01*
X-14685100Y23625673D01*
X-14685099Y21829928D01*
X-14679899Y21781557D01*
X-14678691Y21770316D01*
X-14628397Y21635471D01*
X-14628393Y21635464D01*
X-14542147Y21520255D01*
X-14542144Y21520252D01*
X-14426935Y21434006D01*
X-14426928Y21434002D01*
X-14292082Y21383708D01*
X-14292083Y21383708D01*
X-14232483Y21377301D01*
X-14232481Y21377300D01*
X-14232473Y21377300D01*
X-14232464Y21377300D01*
X-12436729Y21377300D01*
X-12436723Y21377301D01*
X-12377116Y21383708D01*
X-12242271Y21434002D01*
X-12242264Y21434006D01*
X-12127055Y21520252D01*
X-12127052Y21520255D01*
X-12040806Y21635464D01*
X-12040802Y21635471D01*
X-11990508Y21770317D01*
X-11984101Y21829916D01*
X-11984100Y21829919D01*
X-11984100Y21829927D01*
X-11984100Y22824148D01*
X-11964415Y22891187D01*
X-11947781Y22911829D01*
X-7024231Y27835381D01*
X-6962908Y27868866D01*
X-6936550Y27871700D01*
X19840549Y27871700D01*
X19907588Y27852015D01*
X19928230Y27835381D01*
X25613181Y22150429D01*
X25646666Y22089106D01*
X25649500Y22062748D01*
X25649500Y761450D01*
X25629815Y694411D01*
X25613185Y673774D01*
X24929651Y-9760D01*
X24246230Y-693181D01*
X24184907Y-726666D01*
X24158549Y-729500D01*
X10432509Y-729500D01*
X10365470Y-709815D01*
X10332314Y-678555D01*
X10316455Y-656804D01*
X10316453Y-656803D01*
X10316453Y-656802D01*
X10202368Y-569132D01*
X10143203Y-535850D01*
X10141470Y-534875D01*
X10080740Y-511349D01*
X10007303Y-482899D01*
X7258090Y151534D01*
X3689465Y975062D01*
X3677242Y977563D01*
X3672348Y978501D01*
X3665010Y979908D01*
X3521215Y984851D01*
X3464031Y978625D01*
X3451763Y977290D01*
X3451758Y977289D01*
X3451756Y977289D01*
X3451748Y977288D01*
X3312386Y941516D01*
X3188746Y867930D01*
X3134402Y824015D01*
X3134401Y824014D01*
X3036505Y718581D01*
X3036504Y718579D01*
X-1272473Y-5505500D01*
X-1280907Y-5517682D01*
X-1335814Y-5620657D01*
X-1356599Y-5673590D01*
X-1356600Y-5673593D01*
X-1367887Y-5716284D01*
X-1404052Y-5776066D01*
X-1516841Y-5878886D01*
X-1645781Y-6049630D01*
X-1713382Y-6185392D01*
X-1741150Y-6241158D01*
X-1741153Y-6241164D01*
X-1799703Y-6446949D01*
X-1799704Y-6446952D01*
X-1806529Y-6520604D01*
X-1832315Y-6585542D01*
X-1889116Y-6626229D01*
X-1958897Y-6629749D01*
X-2019503Y-6594984D01*
X-2051693Y-6532971D01*
X-2053471Y-6520604D01*
X-2060295Y-6446952D01*
X-2060296Y-6446949D01*
X-2118846Y-6241164D01*
X-2118849Y-6241158D01*
X-2214219Y-6049629D01*
X-2343158Y-5878887D01*
X-2455948Y-5776066D01*
X-2501278Y-5734742D01*
X-2501279Y-5734740D01*
X-2501283Y-5734738D01*
X-2501286Y-5734736D01*
X-2683186Y-5622108D01*
X-2683192Y-5622106D01*
X-2804224Y-5575218D01*
X-2882703Y-5544815D01*
X-3093020Y-5505500D01*
X-3306980Y-5505500D01*
X-3517297Y-5544815D01*
X-3713067Y-5620657D01*
X-3716807Y-5622106D01*
X-3716813Y-5622108D01*
X-3898713Y-5734736D01*
X-3898716Y-5734738D01*
X-3898722Y-5734742D01*
X-4056841Y-5878886D01*
X-4185781Y-6049630D01*
X-4224921Y-6128236D01*
X-4272424Y-6179474D01*
X-4340086Y-6196896D01*
X-4347362Y-6196437D01*
X-4466563Y-6185392D01*
X-4466581Y-6185391D01*
X-4536350Y-6188911D01*
X-4578980Y-6197251D01*
X-4648552Y-6190803D01*
X-4703593Y-6147766D01*
X-4713786Y-6130830D01*
X-4754219Y-6049629D01*
X-4883158Y-5878887D01*
X-4995948Y-5776066D01*
X-5041278Y-5734742D01*
X-5041279Y-5734740D01*
X-5041283Y-5734738D01*
X-5041286Y-5734736D01*
X-5223186Y-5622108D01*
X-5223192Y-5622106D01*
X-5344224Y-5575218D01*
X-5422703Y-5544815D01*
X-5633020Y-5505500D01*
X-5846980Y-5505500D01*
X-6057297Y-5544815D01*
X-6253067Y-5620657D01*
X-6256807Y-5622106D01*
X-6256813Y-5622108D01*
X-6438713Y-5734736D01*
X-6438716Y-5734738D01*
X-6438722Y-5734742D01*
X-6596841Y-5878886D01*
X-6725781Y-6049630D01*
X-6793382Y-6185392D01*
X-6821150Y-6241158D01*
X-6821153Y-6241164D01*
X-6871200Y-6417065D01*
X-6879704Y-6446952D01*
X-6886528Y-6520606D01*
X-6912313Y-6585541D01*
X-6969113Y-6626230D01*
X-7038894Y-6629750D01*
X-7099501Y-6594986D01*
X-7131692Y-6532973D01*
X-7133470Y-6520607D01*
X-7140296Y-6446951D01*
X-7140296Y-6446949D01*
X-7198846Y-6241164D01*
X-7198849Y-6241158D01*
X-7294219Y-6049629D01*
X-7423158Y-5878887D01*
X-7535948Y-5776066D01*
X-7581278Y-5734742D01*
X-7581279Y-5734740D01*
X-7581283Y-5734738D01*
X-7581286Y-5734736D01*
X-7763186Y-5622108D01*
X-7763192Y-5622106D01*
X-7884224Y-5575218D01*
X-7962703Y-5544815D01*
X-8173020Y-5505500D01*
X-8386980Y-5505500D01*
X-8597297Y-5544815D01*
X-8793067Y-5620657D01*
X-8796807Y-5622106D01*
X-8796813Y-5622108D01*
X-8978713Y-5734736D01*
X-8978716Y-5734738D01*
X-8978722Y-5734742D01*
X-9136841Y-5878886D01*
X-9265781Y-6049630D01*
X-9333382Y-6185392D01*
X-9361150Y-6241158D01*
X-9361153Y-6241164D01*
X-9411200Y-6417065D01*
X-9419704Y-6446952D01*
X-9426529Y-6520605D01*
X-9452313Y-6585540D01*
X-9509113Y-6626229D01*
X-9578894Y-6629749D01*
X-9639501Y-6594985D01*
X-9671692Y-6532972D01*
X-9673470Y-6520606D01*
X-9680296Y-6446951D01*
X-9680296Y-6446949D01*
X-9738846Y-6241164D01*
X-9738849Y-6241158D01*
X-9834219Y-6049629D01*
X-9963158Y-5878887D01*
X-10075948Y-5776066D01*
X-10121278Y-5734742D01*
X-10121279Y-5734740D01*
X-10121283Y-5734738D01*
X-10121286Y-5734736D01*
X-10303186Y-5622108D01*
X-10303192Y-5622106D01*
X-10424224Y-5575218D01*
X-10502703Y-5544815D01*
X-10713020Y-5505500D01*
X-10926980Y-5505500D01*
X-11137297Y-5544815D01*
X-11333067Y-5620657D01*
X-11336807Y-5622106D01*
X-11336813Y-5622108D01*
X-11518713Y-5734736D01*
X-11518716Y-5734738D01*
X-11518722Y-5734742D01*
X-11676841Y-5878886D01*
X-11805781Y-6049630D01*
X-11873382Y-6185392D01*
X-11901150Y-6241158D01*
X-11901153Y-6241164D01*
X-11959703Y-6446949D01*
X-11959704Y-6446952D01*
X-11966529Y-6520604D01*
X-11992315Y-6585542D01*
X-12049116Y-6626229D01*
X-12118897Y-6629749D01*
X-12179503Y-6594984D01*
X-12211693Y-6532971D01*
X-12213471Y-6520604D01*
X-12220295Y-6446952D01*
X-12220296Y-6446949D01*
X-12278846Y-6241164D01*
X-12278849Y-6241158D01*
X-12374219Y-6049629D01*
X-12503158Y-5878887D01*
X-12615948Y-5776066D01*
X-12661278Y-5734742D01*
X-12661279Y-5734740D01*
X-12661283Y-5734738D01*
X-12661286Y-5734736D01*
X-12843186Y-5622108D01*
X-12843192Y-5622106D01*
X-12964224Y-5575218D01*
X-13042703Y-5544815D01*
X-13253020Y-5505500D01*
X-13466980Y-5505500D01*
X-13677297Y-5544815D01*
X-13873067Y-5620657D01*
X-13876807Y-5622106D01*
X-13876813Y-5622108D01*
X-14058713Y-5734736D01*
X-14058716Y-5734738D01*
X-14058722Y-5734742D01*
X-14216841Y-5878886D01*
X-14345781Y-6049630D01*
X-14413382Y-6185392D01*
X-14441150Y-6241158D01*
X-14441153Y-6241164D01*
X-14499703Y-6446949D01*
X-14499704Y-6446952D01*
X-14506529Y-6520604D01*
X-14532315Y-6585542D01*
X-14589116Y-6626229D01*
X-14658897Y-6629749D01*
X-14719503Y-6594984D01*
X-14751693Y-6532971D01*
X-14753471Y-6520604D01*
X-14760295Y-6446952D01*
X-14760296Y-6446949D01*
X-14818846Y-6241164D01*
X-14818849Y-6241158D01*
X-14914219Y-6049629D01*
X-15043158Y-5878887D01*
X-15155948Y-5776066D01*
X-15201278Y-5734742D01*
X-15201279Y-5734740D01*
X-15201283Y-5734738D01*
X-15201286Y-5734736D01*
X-15383186Y-5622108D01*
X-15383192Y-5622106D01*
X-15504224Y-5575218D01*
X-15582703Y-5544815D01*
X-15793020Y-5505500D01*
X-16006980Y-5505500D01*
X-16217297Y-5544815D01*
X-16413067Y-5620657D01*
X-16416807Y-5622106D01*
X-16416813Y-5622108D01*
X-16598713Y-5734736D01*
X-16598716Y-5734738D01*
X-16598722Y-5734742D01*
X-16756841Y-5878886D01*
X-16885781Y-6049630D01*
X-16953382Y-6185392D01*
X-16981150Y-6241158D01*
X-16981153Y-6241164D01*
X-17039703Y-6446949D01*
X-17039704Y-6446952D01*
X-17046529Y-6520604D01*
X-17072315Y-6585542D01*
X-17129116Y-6626229D01*
X-17198897Y-6629749D01*
X-17259503Y-6594984D01*
X-17291693Y-6532971D01*
X-17293471Y-6520604D01*
X-17300295Y-6446952D01*
X-17300296Y-6446949D01*
X-17358846Y-6241164D01*
X-17358849Y-6241158D01*
X-17454219Y-6049629D01*
X-17583158Y-5878887D01*
X-17695948Y-5776066D01*
X-17741278Y-5734742D01*
X-17741279Y-5734740D01*
X-17741283Y-5734738D01*
X-17741286Y-5734736D01*
X-17923186Y-5622108D01*
X-17923192Y-5622106D01*
X-18044224Y-5575218D01*
X-18122703Y-5544815D01*
X-18333020Y-5505500D01*
X-18546980Y-5505500D01*
X-18757297Y-5544815D01*
X-18953067Y-5620657D01*
X-18956807Y-5622106D01*
X-18956813Y-5622108D01*
X-19138713Y-5734736D01*
X-19138716Y-5734738D01*
X-19138722Y-5734742D01*
X-19296841Y-5878886D01*
X-19425781Y-6049630D01*
X-19493382Y-6185392D01*
X-19521150Y-6241158D01*
X-19521153Y-6241164D01*
X-19579703Y-6446949D01*
X-19579704Y-6446952D01*
X-19586529Y-6520604D01*
X-19612315Y-6585542D01*
X-19669116Y-6626229D01*
X-19738897Y-6629749D01*
X-19799503Y-6594984D01*
X-19831693Y-6532971D01*
X-19833471Y-6520604D01*
X-19840295Y-6446952D01*
X-19840296Y-6446949D01*
X-19898846Y-6241164D01*
X-19898849Y-6241158D01*
X-19994219Y-6049629D01*
X-20123158Y-5878887D01*
X-20235948Y-5776066D01*
X-20281278Y-5734742D01*
X-20281279Y-5734740D01*
X-20281283Y-5734738D01*
X-20281286Y-5734736D01*
X-20463186Y-5622108D01*
X-20463192Y-5622106D01*
X-20584224Y-5575218D01*
X-20662703Y-5544815D01*
X-20873020Y-5505500D01*
X-21086980Y-5505500D01*
X-21297297Y-5544815D01*
X-21493067Y-5620657D01*
X-21496807Y-5622106D01*
X-21496813Y-5622108D01*
X-21678713Y-5734736D01*
X-21678716Y-5734738D01*
X-21678722Y-5734742D01*
X-21836841Y-5878886D01*
X-21965781Y-6049630D01*
X-22033382Y-6185392D01*
X-22061150Y-6241158D01*
X-22061153Y-6241164D01*
X-22119703Y-6446949D01*
X-22119704Y-6446952D01*
X-22126529Y-6520604D01*
X-22152315Y-6585542D01*
X-22209116Y-6626229D01*
X-22278897Y-6629749D01*
X-22339503Y-6594984D01*
X-22371693Y-6532971D01*
X-22373471Y-6520604D01*
X-22380295Y-6446952D01*
X-22380296Y-6446949D01*
X-22438846Y-6241164D01*
X-22438849Y-6241158D01*
X-22534219Y-6049629D01*
X-22663158Y-5878887D01*
X-22775948Y-5776066D01*
X-22821278Y-5734742D01*
X-22821279Y-5734740D01*
X-22821283Y-5734738D01*
X-22821286Y-5734736D01*
X-23003186Y-5622108D01*
X-23003192Y-5622106D01*
X-23124224Y-5575218D01*
X-23202703Y-5544815D01*
X-23413020Y-5505500D01*
X-23626980Y-5505500D01*
X-23837297Y-5544815D01*
X-24033067Y-5620657D01*
X-24036807Y-5622106D01*
X-24036813Y-5622108D01*
X-24218713Y-5734736D01*
X-24218716Y-5734738D01*
X-24218722Y-5734742D01*
X-24376841Y-5878886D01*
X-24505781Y-6049630D01*
X-24573382Y-6185392D01*
X-24601150Y-6241158D01*
X-24601153Y-6241164D01*
X-24659703Y-6446949D01*
X-24659704Y-6446952D01*
X-24666529Y-6520604D01*
X-24692315Y-6585542D01*
X-24749116Y-6626229D01*
X-24818897Y-6629749D01*
X-24879503Y-6594984D01*
X-24911693Y-6532971D01*
X-24913471Y-6520604D01*
X-24920295Y-6446952D01*
X-24920296Y-6446949D01*
X-24978846Y-6241164D01*
X-24978849Y-6241158D01*
X-25074219Y-6049629D01*
X-25203158Y-5878887D01*
X-25315948Y-5776066D01*
X-25361278Y-5734742D01*
X-25361279Y-5734740D01*
X-25361283Y-5734738D01*
X-25361286Y-5734736D01*
X-25543186Y-5622108D01*
X-25543192Y-5622106D01*
X-25664224Y-5575218D01*
X-25742703Y-5544815D01*
X-25953020Y-5505500D01*
X-26166980Y-5505500D01*
X-26377297Y-5544815D01*
X-26573067Y-5620657D01*
X-26576807Y-5622106D01*
X-26576813Y-5622108D01*
X-26758713Y-5734736D01*
X-26758716Y-5734738D01*
X-26758722Y-5734742D01*
X-26916841Y-5878886D01*
X-27045781Y-6049630D01*
X-27113382Y-6185392D01*
X-27141150Y-6241158D01*
X-27141153Y-6241164D01*
X-27199703Y-6446949D01*
X-27199704Y-6446952D01*
X-27206529Y-6520604D01*
X-27232315Y-6585542D01*
X-27289116Y-6626229D01*
X-27358897Y-6629749D01*
X-27419503Y-6594984D01*
X-27451693Y-6532971D01*
X-27453471Y-6520604D01*
X-27460295Y-6446952D01*
X-27460296Y-6446949D01*
X-27518846Y-6241164D01*
X-27518849Y-6241158D01*
X-27614219Y-6049629D01*
X-27743158Y-5878887D01*
X-27855948Y-5776066D01*
X-27901278Y-5734742D01*
X-27901279Y-5734740D01*
X-27901283Y-5734738D01*
X-27901286Y-5734736D01*
X-28083186Y-5622108D01*
X-28083192Y-5622106D01*
X-28204224Y-5575218D01*
X-28282703Y-5544815D01*
X-28493020Y-5505500D01*
X-28706980Y-5505500D01*
X-28917297Y-5544815D01*
X-29113067Y-5620657D01*
X-29116807Y-5622106D01*
X-29116813Y-5622108D01*
X-29298713Y-5734736D01*
X-29298716Y-5734738D01*
X-29298722Y-5734742D01*
X-29456841Y-5878886D01*
X-29585781Y-6049630D01*
X-29653382Y-6185392D01*
X-29681150Y-6241158D01*
X-29681153Y-6241164D01*
X-29739703Y-6446949D01*
X-29739704Y-6446952D01*
X-29746529Y-6520604D01*
X-29772315Y-6585542D01*
X-29829116Y-6626229D01*
X-29898897Y-6629749D01*
X-29959503Y-6594984D01*
X-29991693Y-6532971D01*
X-29993471Y-6520604D01*
X-30000295Y-6446952D01*
X-30000296Y-6446949D01*
X-30058846Y-6241164D01*
X-30058849Y-6241158D01*
X-30154219Y-6049629D01*
X-30283158Y-5878887D01*
X-30395948Y-5776066D01*
X-30441278Y-5734742D01*
X-30441279Y-5734740D01*
X-30441283Y-5734738D01*
X-30441286Y-5734736D01*
X-30623186Y-5622108D01*
X-30623192Y-5622106D01*
X-30744224Y-5575218D01*
X-30822703Y-5544815D01*
X-31033020Y-5505500D01*
X-31246980Y-5505500D01*
X-31457297Y-5544815D01*
X-31653067Y-5620657D01*
X-31656807Y-5622106D01*
X-31656813Y-5622108D01*
X-31838713Y-5734736D01*
X-31838716Y-5734738D01*
X-31838722Y-5734742D01*
X-31996841Y-5878886D01*
X-32125781Y-6049630D01*
X-32193382Y-6185392D01*
X-32221150Y-6241158D01*
X-32221153Y-6241164D01*
X-32279703Y-6446949D01*
X-32279704Y-6446952D01*
X-32286529Y-6520604D01*
X-32312315Y-6585542D01*
X-32369116Y-6626229D01*
X-32438897Y-6629749D01*
X-32499503Y-6594984D01*
X-32531693Y-6532971D01*
X-32533471Y-6520604D01*
X-32540295Y-6446952D01*
X-32540296Y-6446949D01*
X-32598846Y-6241164D01*
X-32598849Y-6241158D01*
X-32694219Y-6049629D01*
X-32823158Y-5878887D01*
X-32935948Y-5776066D01*
X-32981278Y-5734742D01*
X-32981279Y-5734740D01*
X-32981283Y-5734738D01*
X-32981286Y-5734736D01*
X-33163186Y-5622108D01*
X-33163192Y-5622106D01*
X-33284224Y-5575218D01*
X-33362703Y-5544815D01*
X-33573020Y-5505500D01*
X-33786980Y-5505500D01*
X-33997297Y-5544815D01*
X-34193067Y-5620657D01*
X-34196807Y-5622106D01*
X-34196813Y-5622108D01*
X-34378713Y-5734736D01*
X-34378716Y-5734738D01*
X-34378722Y-5734742D01*
X-34536841Y-5878886D01*
X-34665781Y-6049630D01*
X-34733382Y-6185392D01*
X-34761150Y-6241158D01*
X-34761153Y-6241164D01*
X-34811200Y-6417065D01*
X-34819704Y-6446952D01*
X-34839446Y-6660000D01*
X-34819704Y-6873048D01*
X-34795639Y-6957628D01*
X-34761153Y-7078835D01*
X-34761151Y-7078837D01*
X-34761151Y-7078840D01*
X-34665781Y-7270370D01*
X-34536841Y-7441114D01*
X-34378722Y-7585258D01*
X-34196810Y-7697893D01*
X-33997297Y-7775185D01*
X-33786980Y-7814500D01*
X-33786978Y-7814500D01*
X-33573022Y-7814500D01*
X-33573020Y-7814500D01*
X-33362703Y-7775185D01*
X-33163190Y-7697893D01*
X-33163187Y-7697891D01*
X-33163186Y-7697891D01*
X-32981286Y-7585263D01*
X-32981283Y-7585261D01*
X-32981278Y-7585258D01*
X-32823159Y-7441114D01*
X-32694219Y-7270370D01*
X-32598849Y-7078840D01*
X-32598846Y-7078835D01*
X-32540296Y-6873050D01*
X-32540295Y-6873047D01*
X-32533471Y-6799395D01*
X-32507685Y-6734457D01*
X-32450884Y-6693770D01*
X-32381103Y-6690250D01*
X-32320497Y-6725015D01*
X-32288307Y-6787028D01*
X-32286529Y-6799394D01*
X-32279704Y-6873048D01*
X-32255639Y-6957628D01*
X-32221153Y-7078835D01*
X-32221151Y-7078837D01*
X-32221151Y-7078840D01*
X-32125781Y-7270370D01*
X-31996841Y-7441114D01*
X-31838722Y-7585258D01*
X-31656810Y-7697893D01*
X-31457297Y-7775185D01*
X-31246980Y-7814500D01*
X-31246978Y-7814500D01*
X-31033022Y-7814500D01*
X-31033020Y-7814500D01*
X-30822703Y-7775185D01*
X-30623190Y-7697893D01*
X-30623187Y-7697891D01*
X-30623186Y-7697891D01*
X-30441286Y-7585263D01*
X-30441283Y-7585261D01*
X-30441278Y-7585258D01*
X-30283159Y-7441114D01*
X-30154219Y-7270370D01*
X-30058849Y-7078840D01*
X-30058846Y-7078835D01*
X-30000296Y-6873050D01*
X-30000295Y-6873047D01*
X-29993471Y-6799395D01*
X-29967685Y-6734457D01*
X-29910884Y-6693770D01*
X-29841103Y-6690250D01*
X-29780497Y-6725015D01*
X-29748307Y-6787028D01*
X-29746529Y-6799394D01*
X-29739704Y-6873048D01*
X-29715639Y-6957628D01*
X-29681153Y-7078835D01*
X-29681151Y-7078837D01*
X-29681151Y-7078840D01*
X-29585781Y-7270370D01*
X-29456841Y-7441114D01*
X-29298722Y-7585258D01*
X-29116810Y-7697893D01*
X-28917297Y-7775185D01*
X-28706980Y-7814500D01*
X-28706978Y-7814500D01*
X-28493022Y-7814500D01*
X-28493020Y-7814500D01*
X-28282703Y-7775185D01*
X-28083190Y-7697893D01*
X-28083187Y-7697891D01*
X-28083186Y-7697891D01*
X-27901286Y-7585263D01*
X-27901283Y-7585261D01*
X-27901278Y-7585258D01*
X-27743159Y-7441114D01*
X-27614219Y-7270370D01*
X-27518849Y-7078840D01*
X-27518846Y-7078835D01*
X-27460296Y-6873050D01*
X-27460295Y-6873047D01*
X-27453471Y-6799395D01*
X-27427685Y-6734457D01*
X-27370884Y-6693770D01*
X-27301103Y-6690250D01*
X-27240497Y-6725015D01*
X-27208307Y-6787028D01*
X-27206529Y-6799394D01*
X-27199704Y-6873048D01*
X-27175639Y-6957628D01*
X-27141153Y-7078835D01*
X-27141151Y-7078837D01*
X-27141151Y-7078840D01*
X-27045781Y-7270370D01*
X-26916841Y-7441114D01*
X-26758722Y-7585258D01*
X-26576810Y-7697893D01*
X-26377297Y-7775185D01*
X-26166980Y-7814500D01*
X-26166978Y-7814500D01*
X-25953022Y-7814500D01*
X-25953020Y-7814500D01*
X-25742703Y-7775185D01*
X-25543190Y-7697893D01*
X-25543187Y-7697891D01*
X-25543186Y-7697891D01*
X-25361286Y-7585263D01*
X-25361283Y-7585261D01*
X-25361278Y-7585258D01*
X-25203159Y-7441114D01*
X-25074219Y-7270370D01*
X-24978849Y-7078840D01*
X-24978846Y-7078835D01*
X-24920296Y-6873050D01*
X-24920295Y-6873047D01*
X-24913471Y-6799395D01*
X-24887685Y-6734457D01*
X-24830884Y-6693770D01*
X-24761103Y-6690250D01*
X-24700497Y-6725015D01*
X-24668307Y-6787028D01*
X-24666529Y-6799394D01*
X-24659704Y-6873048D01*
X-24635639Y-6957628D01*
X-24601153Y-7078835D01*
X-24601151Y-7078837D01*
X-24601151Y-7078840D01*
X-24505781Y-7270370D01*
X-24376841Y-7441114D01*
X-24218722Y-7585258D01*
X-24036810Y-7697893D01*
X-23837297Y-7775185D01*
X-23626980Y-7814500D01*
X-23626978Y-7814500D01*
X-23413022Y-7814500D01*
X-23413020Y-7814500D01*
X-23202703Y-7775185D01*
X-23003190Y-7697893D01*
X-23003187Y-7697891D01*
X-23003186Y-7697891D01*
X-22821286Y-7585263D01*
X-22821283Y-7585261D01*
X-22821278Y-7585258D01*
X-22663159Y-7441114D01*
X-22534219Y-7270370D01*
X-22438849Y-7078840D01*
X-22438846Y-7078835D01*
X-22380296Y-6873050D01*
X-22380295Y-6873047D01*
X-22373471Y-6799395D01*
X-22347685Y-6734457D01*
X-22290884Y-6693770D01*
X-22221103Y-6690250D01*
X-22160497Y-6725015D01*
X-22128307Y-6787028D01*
X-22126529Y-6799394D01*
X-22119704Y-6873048D01*
X-22095639Y-6957628D01*
X-22061153Y-7078835D01*
X-22061151Y-7078837D01*
X-22061151Y-7078840D01*
X-21965781Y-7270370D01*
X-21836841Y-7441114D01*
X-21678722Y-7585258D01*
X-21496810Y-7697893D01*
X-21297297Y-7775185D01*
X-21086980Y-7814500D01*
X-21086978Y-7814500D01*
X-20873022Y-7814500D01*
X-20873020Y-7814500D01*
X-20662703Y-7775185D01*
X-20463190Y-7697893D01*
X-20463187Y-7697891D01*
X-20463186Y-7697891D01*
X-20281286Y-7585263D01*
X-20281283Y-7585261D01*
X-20281278Y-7585258D01*
X-20123159Y-7441114D01*
X-19994219Y-7270370D01*
X-19898849Y-7078840D01*
X-19898846Y-7078835D01*
X-19840296Y-6873050D01*
X-19840295Y-6873047D01*
X-19833471Y-6799395D01*
X-19807685Y-6734457D01*
X-19750884Y-6693770D01*
X-19681103Y-6690250D01*
X-19620497Y-6725015D01*
X-19588307Y-6787028D01*
X-19586529Y-6799394D01*
X-19579704Y-6873048D01*
X-19555639Y-6957628D01*
X-19521153Y-7078835D01*
X-19521151Y-7078837D01*
X-19521151Y-7078840D01*
X-19425781Y-7270370D01*
X-19296841Y-7441114D01*
X-19138722Y-7585258D01*
X-18956810Y-7697893D01*
X-18757297Y-7775185D01*
X-18546980Y-7814500D01*
X-18546978Y-7814500D01*
X-18333022Y-7814500D01*
X-18333020Y-7814500D01*
X-18122703Y-7775185D01*
X-17923190Y-7697893D01*
X-17923187Y-7697891D01*
X-17923186Y-7697891D01*
X-17741286Y-7585263D01*
X-17741283Y-7585261D01*
X-17741278Y-7585258D01*
X-17583159Y-7441114D01*
X-17454219Y-7270370D01*
X-17358849Y-7078840D01*
X-17358846Y-7078835D01*
X-17300296Y-6873050D01*
X-17300295Y-6873047D01*
X-17293471Y-6799395D01*
X-17267685Y-6734457D01*
X-17210884Y-6693770D01*
X-17141103Y-6690250D01*
X-17080497Y-6725015D01*
X-17048307Y-6787028D01*
X-17046529Y-6799394D01*
X-17039704Y-6873048D01*
X-17015639Y-6957628D01*
X-16981153Y-7078835D01*
X-16981151Y-7078837D01*
X-16981151Y-7078840D01*
X-16885781Y-7270370D01*
X-16756841Y-7441114D01*
X-16598722Y-7585258D01*
X-16416810Y-7697893D01*
X-16217297Y-7775185D01*
X-16006980Y-7814500D01*
X-16006978Y-7814500D01*
X-15793022Y-7814500D01*
X-15793020Y-7814500D01*
X-15582703Y-7775185D01*
X-15383190Y-7697893D01*
X-15383187Y-7697891D01*
X-15383186Y-7697891D01*
X-15201286Y-7585263D01*
X-15201283Y-7585261D01*
X-15201278Y-7585258D01*
X-15043159Y-7441114D01*
X-14914219Y-7270370D01*
X-14818849Y-7078840D01*
X-14818846Y-7078835D01*
X-14760296Y-6873050D01*
X-14760295Y-6873047D01*
X-14753471Y-6799395D01*
X-14727685Y-6734457D01*
X-14670884Y-6693770D01*
X-14601103Y-6690250D01*
X-14540497Y-6725015D01*
X-14508307Y-6787028D01*
X-14506529Y-6799394D01*
X-14499704Y-6873048D01*
X-14475639Y-6957628D01*
X-14441153Y-7078835D01*
X-14441151Y-7078837D01*
X-14441151Y-7078840D01*
X-14345781Y-7270370D01*
X-14216841Y-7441114D01*
X-14058722Y-7585258D01*
X-13876810Y-7697893D01*
X-13677297Y-7775185D01*
X-13466980Y-7814500D01*
X-13466978Y-7814500D01*
X-13253022Y-7814500D01*
X-13253020Y-7814500D01*
X-13042703Y-7775185D01*
X-12843190Y-7697893D01*
X-12843187Y-7697891D01*
X-12843186Y-7697891D01*
X-12661286Y-7585263D01*
X-12661283Y-7585261D01*
X-12661278Y-7585258D01*
X-12503159Y-7441114D01*
X-12374219Y-7270370D01*
X-12278849Y-7078840D01*
X-12278846Y-7078835D01*
X-12220296Y-6873050D01*
X-12220295Y-6873047D01*
X-12213471Y-6799395D01*
X-12187685Y-6734457D01*
X-12130884Y-6693770D01*
X-12061103Y-6690250D01*
X-12000497Y-6725015D01*
X-11968307Y-6787028D01*
X-11966529Y-6799394D01*
X-11959704Y-6873048D01*
X-11935639Y-6957628D01*
X-11901153Y-7078835D01*
X-11901151Y-7078837D01*
X-11901151Y-7078840D01*
X-11805781Y-7270370D01*
X-11676841Y-7441114D01*
X-11518722Y-7585258D01*
X-11336810Y-7697893D01*
X-11137297Y-7775185D01*
X-10926980Y-7814500D01*
X-10926978Y-7814500D01*
X-10876651Y-7814500D01*
X-10809612Y-7834185D01*
X-10763857Y-7886989D01*
X-10753913Y-7956147D01*
X-10782938Y-8019703D01*
X-10788970Y-8026181D01*
X-19345380Y-16582591D01*
X-19349060Y-16585984D01*
X-19391300Y-16621863D01*
X-19440290Y-16686308D01*
X-19491042Y-16749446D01*
X-19491611Y-16750336D01*
X-19502704Y-16768223D01*
X-19503253Y-16769134D01*
X-19503254Y-16769136D01*
X-19537260Y-16842639D01*
X-19573236Y-16915179D01*
X-19573237Y-16915184D01*
X-19573239Y-16915188D01*
X-19573658Y-16916327D01*
X-19580576Y-16935976D01*
X-19580932Y-16937034D01*
X-19598341Y-17016125D01*
X-19617884Y-17094705D01*
X-19618032Y-17095794D01*
X-19620577Y-17116575D01*
X-19620700Y-17117704D01*
X-19620700Y-17198668D01*
X-19622893Y-17279638D01*
X-19622810Y-17280647D01*
X-19620700Y-17302849D01*
X-19620700Y-22364041D01*
X-19640385Y-22431080D01*
X-19657019Y-22451722D01*
X-19808694Y-22603397D01*
X-19808695Y-22603399D01*
X-19944235Y-22796971D01*
X-20044103Y-23011137D01*
X-20105263Y-23239392D01*
X-20125859Y-23474800D01*
X-20105263Y-23710208D01*
X-20044103Y-23938463D01*
X-19944235Y-24152630D01*
X-19808695Y-24346201D01*
X-19641601Y-24513295D01*
X-19448030Y-24648835D01*
X-19233863Y-24748703D01*
X-19005608Y-24809863D01*
X-18829166Y-24825300D01*
X-18770201Y-24830459D01*
X-18770200Y-24830459D01*
X-18770199Y-24830459D01*
X-18711234Y-24825300D01*
X-18534792Y-24809863D01*
X-18306537Y-24748703D01*
X-18092370Y-24648835D01*
X-18092367Y-24648833D01*
X-18092365Y-24648832D01*
X-17995584Y-24581065D01*
X-17898799Y-24513295D01*
X-17731705Y-24346201D01*
X-17731700Y-24346195D01*
X-17601775Y-24160642D01*
X-17547198Y-24117017D01*
X-17477700Y-24109823D01*
X-17415345Y-24141346D01*
X-17398624Y-24160642D01*
X-17268695Y-24346201D01*
X-17182614Y-24432282D01*
X-17117019Y-24497877D01*
X-17083534Y-24559200D01*
X-17080700Y-24585558D01*
X-17080700Y-26180911D01*
X-17080905Y-26185945D01*
X-17082899Y-26210447D01*
X-17085401Y-26241167D01*
X-17074470Y-26321392D01*
X-17065714Y-26401910D01*
X-17065713Y-26401912D01*
X-17065466Y-26403036D01*
X-17060715Y-26423307D01*
X-17060428Y-26424462D01*
X-17060427Y-26424468D01*
X-17032499Y-26500486D01*
X-17006644Y-26577221D01*
X-17006639Y-26577227D01*
X-17006120Y-26578351D01*
X-16997123Y-26597123D01*
X-16996633Y-26598112D01*
X-16996632Y-26598116D01*
X-16953015Y-26666353D01*
X-16911270Y-26735736D01*
X-16911265Y-26735740D01*
X-16911266Y-26735740D01*
X-16910560Y-26736669D01*
X-16897733Y-26753076D01*
X-16897001Y-26753986D01*
X-16897000Y-26753989D01*
X-16868370Y-26782617D01*
X-16839741Y-26811248D01*
X-16813935Y-26838490D01*
X-16784049Y-26870041D01*
X-16784045Y-26870043D01*
X-16784045Y-26870044D01*
X-16783212Y-26870751D01*
X-16766082Y-26884905D01*
X-15079801Y-28571185D01*
X-15076419Y-28574854D01*
X-15040537Y-28617100D01*
X-14976072Y-28666104D01*
X-14912953Y-28716842D01*
X-14912951Y-28716842D01*
X-14912950Y-28716844D01*
X-14912029Y-28717432D01*
X-14894305Y-28728426D01*
X-14893269Y-28729050D01*
X-14893264Y-28729054D01*
X-14819770Y-28763055D01*
X-14747221Y-28799037D01*
X-14747217Y-28799037D01*
X-14746123Y-28799440D01*
X-14726561Y-28806329D01*
X-14725377Y-28806727D01*
X-14725367Y-28806732D01*
X-14646283Y-28824139D01*
X-14567694Y-28843684D01*
X-14567692Y-28843684D01*
X-14566600Y-28843833D01*
X-14545877Y-28846371D01*
X-14544697Y-28846500D01*
X-14463731Y-28846500D01*
X-14382768Y-28848693D01*
X-14382767Y-28848692D01*
X-14382764Y-28848693D01*
X-14381720Y-28848608D01*
X-14359552Y-28846500D01*
X-7986887Y-28846500D01*
X-7981852Y-28846705D01*
X-7926636Y-28851201D01*
X-7926634Y-28851200D01*
X-7926633Y-28851201D01*
X-7846407Y-28840270D01*
X-7765890Y-28831514D01*
X-7765888Y-28831513D01*
X-7765884Y-28831513D01*
X-7764826Y-28831280D01*
X-7744421Y-28826497D01*
X-7743332Y-28826227D01*
X-7667313Y-28798299D01*
X-7590579Y-28772444D01*
X-7590575Y-28772441D01*
X-7590573Y-28772441D01*
X-7589631Y-28772006D01*
X-7570618Y-28762895D01*
X-7569687Y-28762433D01*
X-7569684Y-28762432D01*
X-7501446Y-28718815D01*
X-7432064Y-28677070D01*
X-7432063Y-28677069D01*
X-7432061Y-28677068D01*
X-7431258Y-28676457D01*
X-7414674Y-28663493D01*
X-7413818Y-28662804D01*
X-7413811Y-28662800D01*
X-7356550Y-28605539D01*
X-7297759Y-28549849D01*
X-7297112Y-28549088D01*
X-7282892Y-28531881D01*
X-7247618Y-28496607D01*
X-7243926Y-28493204D01*
X-7201699Y-28457336D01*
X-7152709Y-28392891D01*
X-7101962Y-28329759D01*
X-7101961Y-28329758D01*
X-7101958Y-28329754D01*
X-7101955Y-28329748D01*
X-7101383Y-28328854D01*
X-7090320Y-28311019D01*
X-7089746Y-28310064D01*
X-7055739Y-28236560D01*
X-7019766Y-28164027D01*
X-7019382Y-28162981D01*
X-7012402Y-28143160D01*
X-7012066Y-28142164D01*
X-6994658Y-28063073D01*
X-6975115Y-27984494D01*
X-6974991Y-27983584D01*
X-6972410Y-27962506D01*
X-6972301Y-27961501D01*
X-6972300Y-27961497D01*
X-6972300Y-27880531D01*
X-6970107Y-27799568D01*
X-6970107Y-27799567D01*
X-6970197Y-27798464D01*
X-6972299Y-27776356D01*
X-6972299Y-16995050D01*
X-6952614Y-16928011D01*
X-6935980Y-16907369D01*
X-4781427Y-14752816D01*
X-2624818Y-12596207D01*
X-2621126Y-12592804D01*
X-2578899Y-12556937D01*
X-2551062Y-12520317D01*
X-2529902Y-12492481D01*
X-2508085Y-12465339D01*
X-2479161Y-12429358D01*
X-2478550Y-12428402D01*
X-2467543Y-12410657D01*
X-2466947Y-12409666D01*
X-2432937Y-12336155D01*
X-2396965Y-12263625D01*
X-2396592Y-12262611D01*
X-2389580Y-12242692D01*
X-2389267Y-12241763D01*
X-2371859Y-12162676D01*
X-2352315Y-12084094D01*
X-2352191Y-12083184D01*
X-2349610Y-12062106D01*
X-2349501Y-12061101D01*
X-2349500Y-12061097D01*
X-2349500Y-11980131D01*
X-2348836Y-11955631D01*
X-2347306Y-11899164D01*
X-2347391Y-11898120D01*
X-2349500Y-11875952D01*
X-2349500Y-7491071D01*
X-2329815Y-7424032D01*
X-2324454Y-7416344D01*
X-2214219Y-7270370D01*
X-2118849Y-7078841D01*
X-2118846Y-7078835D01*
X-2060296Y-6873050D01*
X-2060295Y-6873047D01*
X-2053471Y-6799395D01*
X-2027685Y-6734457D01*
X-1970884Y-6693770D01*
X-1901103Y-6690250D01*
X-1840497Y-6725015D01*
X-1808307Y-6787028D01*
X-1806529Y-6799394D01*
X-1799704Y-6873048D01*
X-1795922Y-6886341D01*
X-1794634Y-6890867D01*
X-1789900Y-6924802D01*
X-1789900Y-6927868D01*
X-1792093Y-7008838D01*
X-1792010Y-7009847D01*
X-1789900Y-7032049D01*
X-1789900Y-14054149D01*
X-1809585Y-14121188D01*
X-1826219Y-14141830D01*
X-6035780Y-18351391D01*
X-6039460Y-18354784D01*
X-6081700Y-18390663D01*
X-6130690Y-18455108D01*
X-6181442Y-18518246D01*
X-6182011Y-18519136D01*
X-6193104Y-18537023D01*
X-6193653Y-18537934D01*
X-6193654Y-18537936D01*
X-6227660Y-18611439D01*
X-6263636Y-18683979D01*
X-6263637Y-18683984D01*
X-6263639Y-18683988D01*
X-6264058Y-18685127D01*
X-6270976Y-18704776D01*
X-6271332Y-18705834D01*
X-6288741Y-18784925D01*
X-6308284Y-18863505D01*
X-6308432Y-18864594D01*
X-6310977Y-18885375D01*
X-6311099Y-18886502D01*
X-6311100Y-18886503D01*
X-6311100Y-18967468D01*
X-6311243Y-18972766D01*
X-6313293Y-19048438D01*
X-6313210Y-19049447D01*
X-6311100Y-19071649D01*
X-6311100Y-29805626D01*
X-6330784Y-29872662D01*
X-6383588Y-29918417D01*
X-6410734Y-29925865D01*
X-6410532Y-29926724D01*
X-6418079Y-29928507D01*
X-6552928Y-29978802D01*
X-6552935Y-29978806D01*
X-6668144Y-30065052D01*
X-6668147Y-30065055D01*
X-6754393Y-30180264D01*
X-6754397Y-30180271D01*
X-6804691Y-30315117D01*
X-6806474Y-30322662D01*
X-6808746Y-30322125D01*
X-6831029Y-30375912D01*
X-6888423Y-30415757D01*
X-6927576Y-30422100D01*
X-21109750Y-30422100D01*
X-21176789Y-30402415D01*
X-21197431Y-30385781D01*
X-22963381Y-28619830D01*
X-22996866Y-28558507D01*
X-22999700Y-28532149D01*
X-22999700Y-24941776D01*
X-22980015Y-24874737D01*
X-22927211Y-24828982D01*
X-22900064Y-24821536D01*
X-22900268Y-24820676D01*
X-22892720Y-24818892D01*
X-22757871Y-24768597D01*
X-22757864Y-24768593D01*
X-22642655Y-24682347D01*
X-22642652Y-24682344D01*
X-22556406Y-24567135D01*
X-22556402Y-24567128D01*
X-22506108Y-24432282D01*
X-22499701Y-24372683D01*
X-22499700Y-24372681D01*
X-22499700Y-24372673D01*
X-22499700Y-23710203D01*
X-22499700Y-22576929D01*
X-22499701Y-22576923D01*
X-22506108Y-22517316D01*
X-22556402Y-22382471D01*
X-22556406Y-22382464D01*
X-22642652Y-22267255D01*
X-22642655Y-22267252D01*
X-22757864Y-22181006D01*
X-22757871Y-22181002D01*
X-22892717Y-22130708D01*
X-22892716Y-22130708D01*
X-22952316Y-22124301D01*
X-22952319Y-22124300D01*
X-22952327Y-22124300D01*
X-22952335Y-22124300D01*
X-24683148Y-22124300D01*
X-24750187Y-22104615D01*
X-24770829Y-22087981D01*
X-38787581Y-8071229D01*
X-38821066Y-8009906D01*
X-38823900Y-7983548D01*
X-38823900Y-3990250D01*
X-38804215Y-3923211D01*
X-38787581Y-3902569D01*
X-38495012Y-3610000D01*
X-31004339Y-3610000D01*
X-30985025Y-3818434D01*
X-30927740Y-4019771D01*
X-30834434Y-4207153D01*
X-30708287Y-4374199D01*
X-30553592Y-4515222D01*
X-30375618Y-4625419D01*
X-30180427Y-4701036D01*
X-29974664Y-4739500D01*
X-29974662Y-4739500D01*
X-29765338Y-4739500D01*
X-29765336Y-4739500D01*
X-29559573Y-4701036D01*
X-29405734Y-4641439D01*
X-29364384Y-4625420D01*
X-29364383Y-4625419D01*
X-29364382Y-4625419D01*
X-29186408Y-4515222D01*
X-29128296Y-4462246D01*
X-29031714Y-4374201D01*
X-28905567Y-4207155D01*
X-28905562Y-4207147D01*
X-28812259Y-4019769D01*
X-28754974Y-3818429D01*
X-28735661Y-3610000D01*
X-28464339Y-3610000D01*
X-28445025Y-3818434D01*
X-28387740Y-4019771D01*
X-28294434Y-4207153D01*
X-28168287Y-4374199D01*
X-28013592Y-4515222D01*
X-27835618Y-4625419D01*
X-27640427Y-4701036D01*
X-27434664Y-4739500D01*
X-27434662Y-4739500D01*
X-27225338Y-4739500D01*
X-27225336Y-4739500D01*
X-27019573Y-4701036D01*
X-26865734Y-4641439D01*
X-26824384Y-4625420D01*
X-26824383Y-4625419D01*
X-26824382Y-4625419D01*
X-26646408Y-4515222D01*
X-26588296Y-4462246D01*
X-26491714Y-4374201D01*
X-26365567Y-4207155D01*
X-26365562Y-4207147D01*
X-26272259Y-4019769D01*
X-26214974Y-3818429D01*
X-26195661Y-3610000D01*
X-25924339Y-3610000D01*
X-25905025Y-3818434D01*
X-25847740Y-4019771D01*
X-25754434Y-4207153D01*
X-25628287Y-4374199D01*
X-25473592Y-4515222D01*
X-25295618Y-4625419D01*
X-25100427Y-4701036D01*
X-24894664Y-4739500D01*
X-24894662Y-4739500D01*
X-24685338Y-4739500D01*
X-24685336Y-4739500D01*
X-24479573Y-4701036D01*
X-24325734Y-4641439D01*
X-24284384Y-4625420D01*
X-24284383Y-4625419D01*
X-24284382Y-4625419D01*
X-24106408Y-4515222D01*
X-24048296Y-4462246D01*
X-23951714Y-4374201D01*
X-23825567Y-4207155D01*
X-23825562Y-4207147D01*
X-23732259Y-4019769D01*
X-23674974Y-3818429D01*
X-23655661Y-3610000D01*
X-23384339Y-3610000D01*
X-23365025Y-3818434D01*
X-23307740Y-4019771D01*
X-23214434Y-4207153D01*
X-23088287Y-4374199D01*
X-22933592Y-4515222D01*
X-22755618Y-4625419D01*
X-22560427Y-4701036D01*
X-22354664Y-4739500D01*
X-22354662Y-4739500D01*
X-22145338Y-4739500D01*
X-22145336Y-4739500D01*
X-21939573Y-4701036D01*
X-21785734Y-4641439D01*
X-21744384Y-4625420D01*
X-21744383Y-4625419D01*
X-21744382Y-4625419D01*
X-21566408Y-4515222D01*
X-21541881Y-4492863D01*
X-21479077Y-4462246D01*
X-21458343Y-4460500D01*
X-20501657Y-4460500D01*
X-20434618Y-4480185D01*
X-20418119Y-4492863D01*
X-20393592Y-4515222D01*
X-20215618Y-4625419D01*
X-20020427Y-4701036D01*
X-19814664Y-4739500D01*
X-19814662Y-4739500D01*
X-19605338Y-4739500D01*
X-19605336Y-4739500D01*
X-19399573Y-4701036D01*
X-19245734Y-4641439D01*
X-19204384Y-4625420D01*
X-19204383Y-4625419D01*
X-19204382Y-4625419D01*
X-19026408Y-4515222D01*
X-18968296Y-4462246D01*
X-18871714Y-4374201D01*
X-18745567Y-4207155D01*
X-18745562Y-4207147D01*
X-18652259Y-4019769D01*
X-18594974Y-3818429D01*
X-18575661Y-3610000D01*
X-18575661Y-3609999D01*
X-18594974Y-3401570D01*
X-18652259Y-3200230D01*
X-18745562Y-3012852D01*
X-18745567Y-3012844D01*
X-18871714Y-2845798D01*
X-19026406Y-2704779D01*
X-19204383Y-2594580D01*
X-19204384Y-2594579D01*
X-19399570Y-2518965D01*
X-19399570Y-2518964D01*
X-19399573Y-2518964D01*
X-19605336Y-2480500D01*
X-19814664Y-2480500D01*
X-20020427Y-2518964D01*
X-20061779Y-2534984D01*
X-20215615Y-2594579D01*
X-20215616Y-2594580D01*
X-20215618Y-2594581D01*
X-20393592Y-2704778D01*
X-20393593Y-2704779D01*
X-20418119Y-2727137D01*
X-20480923Y-2757754D01*
X-20501657Y-2759500D01*
X-21458343Y-2759500D01*
X-21525382Y-2739815D01*
X-21541881Y-2727137D01*
X-21566406Y-2704779D01*
X-21744383Y-2594580D01*
X-21744384Y-2594579D01*
X-21939570Y-2518965D01*
X-21939570Y-2518964D01*
X-21939573Y-2518964D01*
X-22145336Y-2480500D01*
X-22354664Y-2480500D01*
X-22560427Y-2518964D01*
X-22601779Y-2534984D01*
X-22755615Y-2594579D01*
X-22755616Y-2594580D01*
X-22755618Y-2594581D01*
X-22933592Y-2704778D01*
X-22933593Y-2704779D01*
X-23088285Y-2845798D01*
X-23214432Y-3012844D01*
X-23214437Y-3012852D01*
X-23239262Y-3062708D01*
X-23307740Y-3200229D01*
X-23365025Y-3401566D01*
X-23384339Y-3610000D01*
X-23655661Y-3610000D01*
X-23655661Y-3609999D01*
X-23674974Y-3401570D01*
X-23732259Y-3200230D01*
X-23825562Y-3012852D01*
X-23825567Y-3012844D01*
X-23951714Y-2845798D01*
X-24106406Y-2704779D01*
X-24284383Y-2594580D01*
X-24284384Y-2594579D01*
X-24479570Y-2518965D01*
X-24479570Y-2518964D01*
X-24479573Y-2518964D01*
X-24685336Y-2480500D01*
X-24894664Y-2480500D01*
X-25100427Y-2518964D01*
X-25141779Y-2534984D01*
X-25295615Y-2594579D01*
X-25295616Y-2594580D01*
X-25295618Y-2594581D01*
X-25473592Y-2704778D01*
X-25473593Y-2704779D01*
X-25628285Y-2845798D01*
X-25754432Y-3012844D01*
X-25754437Y-3012852D01*
X-25779262Y-3062708D01*
X-25847740Y-3200229D01*
X-25905025Y-3401566D01*
X-25924339Y-3610000D01*
X-26195661Y-3610000D01*
X-26195661Y-3609999D01*
X-26214974Y-3401570D01*
X-26272259Y-3200230D01*
X-26365562Y-3012852D01*
X-26365567Y-3012844D01*
X-26491714Y-2845798D01*
X-26646406Y-2704779D01*
X-26824383Y-2594580D01*
X-26824384Y-2594579D01*
X-27019570Y-2518965D01*
X-27019570Y-2518964D01*
X-27019573Y-2518964D01*
X-27225336Y-2480500D01*
X-27434664Y-2480500D01*
X-27640427Y-2518964D01*
X-27681779Y-2534984D01*
X-27835615Y-2594579D01*
X-27835616Y-2594580D01*
X-27835618Y-2594581D01*
X-28013592Y-2704778D01*
X-28013593Y-2704779D01*
X-28168285Y-2845798D01*
X-28294432Y-3012844D01*
X-28294437Y-3012852D01*
X-28319262Y-3062708D01*
X-28387740Y-3200229D01*
X-28445025Y-3401566D01*
X-28464339Y-3610000D01*
X-28735661Y-3610000D01*
X-28735661Y-3609999D01*
X-28754974Y-3401570D01*
X-28812259Y-3200230D01*
X-28905562Y-3012852D01*
X-28905567Y-3012844D01*
X-29031714Y-2845798D01*
X-29186406Y-2704779D01*
X-29364383Y-2594580D01*
X-29364384Y-2594579D01*
X-29559570Y-2518965D01*
X-29559570Y-2518964D01*
X-29559573Y-2518964D01*
X-29765336Y-2480500D01*
X-29974664Y-2480500D01*
X-30180427Y-2518964D01*
X-30221779Y-2534984D01*
X-30375615Y-2594579D01*
X-30375616Y-2594580D01*
X-30375618Y-2594581D01*
X-30553592Y-2704778D01*
X-30553593Y-2704779D01*
X-30708285Y-2845798D01*
X-30834432Y-3012844D01*
X-30834437Y-3012852D01*
X-30859262Y-3062708D01*
X-30927740Y-3200229D01*
X-30985025Y-3401566D01*
X-31004339Y-3610000D01*
X-38495012Y-3610000D01*
X-30564829Y4320180D01*
X-30561126Y4323594D01*
X-30518898Y4359464D01*
X-30491777Y4395141D01*
X-30469902Y4423918D01*
X-30419159Y4487046D01*
X-30419158Y4487046D01*
X-30419155Y4487051D01*
X-30418629Y4487874D01*
X-30407448Y4505901D01*
X-30406946Y4506736D01*
X-30372933Y4580252D01*
X-30336963Y4652780D01*
X-30336573Y4653841D01*
X-30329580Y4673706D01*
X-30329267Y4674633D01*
X-30311858Y4753726D01*
X-30292314Y4832313D01*
X-30292191Y4833216D01*
X-30289607Y4854316D01*
X-30289500Y4855301D01*
X-30289500Y4936268D01*
X-30287306Y5017238D01*
X-30287389Y5018247D01*
X-30289500Y5040449D01*
X-30289499Y7748928D01*
X-30269814Y7815967D01*
X-30264453Y7823654D01*
X-30154220Y7969626D01*
X-30058849Y8161158D01*
X-30058846Y8161164D01*
X-30000296Y8366949D01*
X-30000295Y8366952D01*
X-29993471Y8440604D01*
X-29967685Y8505542D01*
X-29910884Y8546229D01*
X-29841103Y8549749D01*
X-29780497Y8514984D01*
X-29748307Y8452971D01*
X-29746529Y8440604D01*
X-29739704Y8366952D01*
X-29739703Y8366949D01*
X-29681153Y8161164D01*
X-29681151Y8161160D01*
X-29585781Y7969630D01*
X-29456841Y7798886D01*
X-29298722Y7654742D01*
X-29298716Y7654738D01*
X-29298713Y7654736D01*
X-29116813Y7542108D01*
X-29116810Y7542107D01*
X-28917297Y7464815D01*
X-28706980Y7425500D01*
X-28706978Y7425500D01*
X-28493022Y7425500D01*
X-28493020Y7425500D01*
X-28282703Y7464815D01*
X-28083195Y7542105D01*
X-28083192Y7542106D01*
X-28083186Y7542108D01*
X-27901286Y7654736D01*
X-27901283Y7654738D01*
X-27901279Y7654740D01*
X-27901278Y7654742D01*
X-27743159Y7798886D01*
X-27709467Y7843501D01*
X-27614219Y7969629D01*
X-27518849Y8161158D01*
X-27518846Y8161164D01*
X-27460296Y8366949D01*
X-27460295Y8366952D01*
X-27453471Y8440604D01*
X-27427685Y8505542D01*
X-27370884Y8546229D01*
X-27301103Y8549749D01*
X-27240497Y8514984D01*
X-27208307Y8452971D01*
X-27206529Y8440604D01*
X-27199704Y8366952D01*
X-27199703Y8366949D01*
X-27141153Y8161164D01*
X-27141151Y8161160D01*
X-27045781Y7969630D01*
X-26916841Y7798886D01*
X-26758722Y7654742D01*
X-26758716Y7654738D01*
X-26758713Y7654736D01*
X-26576813Y7542108D01*
X-26576810Y7542107D01*
X-26377297Y7464815D01*
X-26166980Y7425500D01*
X-26166978Y7425500D01*
X-25953022Y7425500D01*
X-25953020Y7425500D01*
X-25742703Y7464815D01*
X-25543195Y7542105D01*
X-25543192Y7542106D01*
X-25543186Y7542108D01*
X-25361286Y7654736D01*
X-25361283Y7654738D01*
X-25361279Y7654740D01*
X-25361278Y7654742D01*
X-25203159Y7798886D01*
X-25169467Y7843501D01*
X-25074219Y7969629D01*
X-24978849Y8161158D01*
X-24978846Y8161164D01*
X-24920296Y8366949D01*
X-24920295Y8366952D01*
X-24913471Y8440604D01*
X-24887685Y8505542D01*
X-24830884Y8546229D01*
X-24761103Y8549749D01*
X-24700497Y8514984D01*
X-24668307Y8452971D01*
X-24666529Y8440604D01*
X-24659704Y8366952D01*
X-24659703Y8366949D01*
X-24601153Y8161164D01*
X-24601151Y8161160D01*
X-24505781Y7969630D01*
X-24376841Y7798886D01*
X-24218722Y7654742D01*
X-24218716Y7654738D01*
X-24218713Y7654736D01*
X-24036813Y7542108D01*
X-24036807Y7542105D01*
X-23839669Y7465734D01*
X-23784267Y7423161D01*
X-23760677Y7357394D01*
X-23760621Y7356357D01*
X-23757428Y7293095D01*
X-23757401Y7292066D01*
X-23757349Y7291528D01*
X-23757349Y7291522D01*
X-23748956Y7248633D01*
X-23742990Y7218143D01*
X-23749434Y7148571D01*
X-23792468Y7093527D01*
X-23799404Y7088903D01*
X-23918462Y7015186D01*
X-24069732Y6877285D01*
X-24193088Y6713935D01*
X-24284328Y6530701D01*
X-24340345Y6333821D01*
X-24359232Y6130000D01*
X-24340345Y5926179D01*
X-24284328Y5729299D01*
X-24193088Y5546065D01*
X-24151046Y5490392D01*
X-24069730Y5382712D01*
X-23918462Y5244814D01*
X-23918460Y5244812D01*
X-23903302Y5235427D01*
X-23856666Y5183400D01*
X-23845562Y5114418D01*
X-23873515Y5050384D01*
X-23903302Y5024573D01*
X-23911960Y5019211D01*
X-23918462Y5015186D01*
X-24069732Y4877285D01*
X-24193088Y4713935D01*
X-24284328Y4530701D01*
X-24340345Y4333821D01*
X-24359232Y4130000D01*
X-24340345Y3926179D01*
X-24284328Y3729299D01*
X-24193088Y3546065D01*
X-24193087Y3546064D01*
X-24069730Y3382712D01*
X-23918462Y3244814D01*
X-23918460Y3244812D01*
X-23903302Y3235427D01*
X-23856666Y3183400D01*
X-23845562Y3114418D01*
X-23873515Y3050384D01*
X-23903302Y3024573D01*
X-23911960Y3019211D01*
X-23918462Y3015186D01*
X-24069732Y2877285D01*
X-24193088Y2713935D01*
X-24284328Y2530701D01*
X-24340345Y2333821D01*
X-24359232Y2130000D01*
X-24340345Y1926179D01*
X-24284328Y1729299D01*
X-24193088Y1546065D01*
X-24151046Y1490392D01*
X-24069730Y1382712D01*
X-23918462Y1244814D01*
X-23918460Y1244812D01*
X-23744430Y1137057D01*
X-23744424Y1137054D01*
X-23593993Y1078777D01*
X-23553556Y1063112D01*
X-23352347Y1025500D01*
X-23352344Y1025500D01*
X-23147656Y1025500D01*
X-23147653Y1025500D01*
X-22946444Y1063112D01*
X-22946441Y1063113D01*
X-22755575Y1137054D01*
X-22755569Y1137057D01*
X-22581539Y1244812D01*
X-22581537Y1244814D01*
X-22430269Y1382712D01*
X-22348954Y1490392D01*
X-22292845Y1532028D01*
X-22223133Y1536719D01*
X-22161951Y1502977D01*
X-22151046Y1490392D01*
X-22069730Y1382712D01*
X-21918462Y1244814D01*
X-21918460Y1244812D01*
X-21744430Y1137057D01*
X-21744424Y1137054D01*
X-21593993Y1078777D01*
X-21553556Y1063112D01*
X-21352347Y1025500D01*
X-21352344Y1025500D01*
X-21147656Y1025500D01*
X-21147653Y1025500D01*
X-20946444Y1063112D01*
X-20946441Y1063113D01*
X-20755575Y1137054D01*
X-20755569Y1137057D01*
X-20581539Y1244812D01*
X-20581537Y1244814D01*
X-20430269Y1382712D01*
X-20306912Y1546064D01*
X-20215673Y1729295D01*
X-20159654Y1926183D01*
X-20140768Y2129999D01*
X-20140768Y2130000D01*
X-20159654Y2333816D01*
X-20196156Y2462107D01*
X-20215672Y2530701D01*
X-20250000Y2599640D01*
X-20306912Y2713935D01*
X-20430269Y2877287D01*
X-20581537Y3015185D01*
X-20581539Y3015187D01*
X-20755569Y3122942D01*
X-20755575Y3122945D01*
X-20814016Y3145585D01*
X-20946444Y3196888D01*
X-21147653Y3234500D01*
X-21352347Y3234500D01*
X-21553556Y3196888D01*
X-21744427Y3122944D01*
X-21918462Y3015186D01*
X-22069732Y2877285D01*
X-22125637Y2803254D01*
X-22151046Y2769608D01*
X-22207154Y2727971D01*
X-22276866Y2723279D01*
X-22338048Y2757022D01*
X-22348954Y2769608D01*
X-22430266Y2877283D01*
X-22430268Y2877286D01*
X-22581537Y3015185D01*
X-22581538Y3015186D01*
X-22596699Y3024574D01*
X-22643334Y3076603D01*
X-22654437Y3145585D01*
X-22626483Y3209619D01*
X-22596699Y3235426D01*
X-22581538Y3244813D01*
X-22581537Y3244814D01*
X-22430269Y3382712D01*
X-22306912Y3546064D01*
X-22215673Y3729295D01*
X-22174331Y3874599D01*
X-22159655Y3926179D01*
X-22159654Y3926179D01*
X-22159654Y3926183D01*
X-22140768Y4129999D01*
X-22140768Y4130000D01*
X-22159654Y4333816D01*
X-22185673Y4425263D01*
X-22215672Y4530701D01*
X-22240346Y4580252D01*
X-22306912Y4713935D01*
X-22430269Y4877287D01*
X-22581537Y5015185D01*
X-22581538Y5015186D01*
X-22596699Y5024574D01*
X-22643334Y5076603D01*
X-22654437Y5145585D01*
X-22626483Y5209619D01*
X-22596699Y5235426D01*
X-22581538Y5244813D01*
X-22581537Y5244814D01*
X-22430269Y5382712D01*
X-22348954Y5490392D01*
X-22292845Y5532028D01*
X-22223133Y5536719D01*
X-22161951Y5502977D01*
X-22151046Y5490392D01*
X-22069730Y5382712D01*
X-21918462Y5244814D01*
X-21918460Y5244812D01*
X-21744430Y5137057D01*
X-21744424Y5137054D01*
X-21611651Y5085618D01*
X-21553556Y5063112D01*
X-21352347Y5025500D01*
X-21352344Y5025500D01*
X-21147656Y5025500D01*
X-21147653Y5025500D01*
X-20946444Y5063112D01*
X-20946441Y5063113D01*
X-20755575Y5137054D01*
X-20755569Y5137057D01*
X-20581539Y5244812D01*
X-20581537Y5244814D01*
X-20430269Y5382712D01*
X-20306912Y5546064D01*
X-20215673Y5729295D01*
X-20159654Y5926183D01*
X-20140768Y6129999D01*
X-20140768Y6130000D01*
X-20159654Y6333816D01*
X-20195225Y6458835D01*
X-20215672Y6530701D01*
X-20306912Y6713935D01*
X-20387848Y6821112D01*
X-20430269Y6877287D01*
X-20581537Y7015185D01*
X-20581539Y7015187D01*
X-20699590Y7088281D01*
X-20746226Y7140309D01*
X-20757330Y7209291D01*
X-20755138Y7221587D01*
X-20748898Y7248633D01*
X-20748622Y7249611D01*
X-20748230Y7251520D01*
X-20739053Y7360528D01*
X-20713814Y7425679D01*
X-20660284Y7465751D01*
X-20463201Y7542101D01*
X-20463186Y7542108D01*
X-20281286Y7654736D01*
X-20281283Y7654738D01*
X-20281279Y7654740D01*
X-20281278Y7654742D01*
X-20123159Y7798886D01*
X-20089467Y7843501D01*
X-19994219Y7969629D01*
X-19898849Y8161158D01*
X-19898846Y8161164D01*
X-19840296Y8366949D01*
X-19840296Y8366951D01*
X-19833470Y8440607D01*
X-19807683Y8505544D01*
X-19750882Y8546231D01*
X-19681101Y8549750D01*
X-19620495Y8514984D01*
X-19588306Y8452970D01*
X-19586530Y8440618D01*
X-19579704Y8366952D01*
X-19579703Y8366949D01*
X-19521153Y8161164D01*
X-19521151Y8161160D01*
X-19425781Y7969630D01*
X-19296841Y7798886D01*
X-19138722Y7654742D01*
X-19138716Y7654738D01*
X-19138713Y7654736D01*
X-18956813Y7542108D01*
X-18956810Y7542107D01*
X-18757297Y7464815D01*
X-18546980Y7425500D01*
X-18546978Y7425500D01*
X-18333022Y7425500D01*
X-18333020Y7425500D01*
X-18122703Y7464815D01*
X-17923195Y7542105D01*
X-17923192Y7542106D01*
X-17923186Y7542108D01*
X-17741286Y7654736D01*
X-17741283Y7654738D01*
X-17741279Y7654740D01*
X-17741278Y7654742D01*
X-17583159Y7798886D01*
X-17549467Y7843501D01*
X-17454219Y7969629D01*
X-17358849Y8161158D01*
X-17358846Y8161164D01*
X-17300296Y8366949D01*
X-17300296Y8366951D01*
X-17293470Y8440607D01*
X-17267683Y8505544D01*
X-17210882Y8546231D01*
X-17141101Y8549750D01*
X-17080495Y8514984D01*
X-17048306Y8452970D01*
X-17046529Y8440617D01*
X-17039704Y8366952D01*
X-17039703Y8366949D01*
X-16981153Y8161164D01*
X-16981151Y8161160D01*
X-16885781Y7969630D01*
X-16756841Y7798886D01*
X-16598722Y7654742D01*
X-16598716Y7654738D01*
X-16598713Y7654736D01*
X-16416813Y7542108D01*
X-16416810Y7542107D01*
X-16217297Y7464815D01*
X-16006980Y7425500D01*
X-16006978Y7425500D01*
X-15793022Y7425500D01*
X-15793020Y7425500D01*
X-15582703Y7464815D01*
X-15383195Y7542105D01*
X-15383192Y7542106D01*
X-15383186Y7542108D01*
X-15201286Y7654736D01*
X-15201283Y7654738D01*
X-15201279Y7654740D01*
X-15201278Y7654742D01*
X-15043159Y7798886D01*
X-15009467Y7843501D01*
X-14914219Y7969629D01*
X-14818849Y8161158D01*
X-14818846Y8161164D01*
X-14760296Y8366949D01*
X-14760295Y8366952D01*
X-14753471Y8440604D01*
X-14727685Y8505542D01*
X-14670884Y8546229D01*
X-14601103Y8549749D01*
X-14540497Y8514984D01*
X-14508307Y8452971D01*
X-14506529Y8440604D01*
X-14499704Y8366952D01*
X-14499703Y8366949D01*
X-14441153Y8161164D01*
X-14441151Y8161160D01*
X-14345781Y7969630D01*
X-14216841Y7798886D01*
X-14058722Y7654742D01*
X-14058716Y7654738D01*
X-14058713Y7654736D01*
X-13876813Y7542108D01*
X-13876810Y7542107D01*
X-13677297Y7464815D01*
X-13466980Y7425500D01*
X-13466978Y7425500D01*
X-13253022Y7425500D01*
X-13253020Y7425500D01*
X-13042703Y7464815D01*
X-12843195Y7542105D01*
X-12843192Y7542106D01*
X-12843186Y7542108D01*
X-12661286Y7654736D01*
X-12661283Y7654738D01*
X-12661279Y7654740D01*
X-12661278Y7654742D01*
X-12503159Y7798886D01*
X-12469467Y7843501D01*
X-12374219Y7969629D01*
X-12278849Y8161158D01*
X-12278846Y8161164D01*
X-12220296Y8366949D01*
X-12220296Y8366951D01*
X-12218907Y8381942D01*
X-12193121Y8446879D01*
X-12136320Y8487566D01*
X-12095436Y8494500D01*
X-12084564Y8494500D01*
X-12017525Y8474815D01*
X-11971770Y8422011D01*
X-11961093Y8381942D01*
X-11959704Y8366952D01*
X-11959703Y8366949D01*
X-11901153Y8161164D01*
X-11901151Y8161160D01*
X-11805781Y7969630D01*
X-11676841Y7798886D01*
X-11518722Y7654742D01*
X-11518716Y7654738D01*
X-11518713Y7654736D01*
X-11336813Y7542108D01*
X-11336810Y7542107D01*
X-11137297Y7464815D01*
X-10926980Y7425500D01*
X-10926978Y7425500D01*
X-10713022Y7425500D01*
X-10713020Y7425500D01*
X-10502703Y7464815D01*
X-10303195Y7542105D01*
X-10303192Y7542106D01*
X-10303186Y7542108D01*
X-10121286Y7654736D01*
X-10121283Y7654738D01*
X-10121279Y7654740D01*
X-10121278Y7654742D01*
X-9963159Y7798886D01*
X-9929467Y7843501D01*
X-9834219Y7969629D01*
X-9738849Y8161158D01*
X-9738846Y8161164D01*
X-9680296Y8366949D01*
X-9680296Y8366951D01*
X-9673470Y8440604D01*
X-9647683Y8505541D01*
X-9590881Y8546228D01*
X-9521100Y8549747D01*
X-9460495Y8514980D01*
X-9428306Y8452967D01*
X-9426529Y8440613D01*
X-9419704Y8366952D01*
X-9419703Y8366949D01*
X-9361153Y8161164D01*
X-9361151Y8161160D01*
X-9265781Y7969630D01*
X-9136841Y7798886D01*
X-8978722Y7654742D01*
X-8978716Y7654738D01*
X-8978713Y7654736D01*
X-8796813Y7542108D01*
X-8796810Y7542107D01*
X-8597297Y7464815D01*
X-8386980Y7425500D01*
X-8386978Y7425500D01*
X-8173022Y7425500D01*
X-8173020Y7425500D01*
X-7962703Y7464815D01*
X-7763195Y7542105D01*
X-7763192Y7542106D01*
X-7763186Y7542108D01*
X-7581286Y7654736D01*
X-7581283Y7654738D01*
X-7581279Y7654740D01*
X-7581278Y7654742D01*
X-7423159Y7798886D01*
X-7389467Y7843501D01*
X-7294219Y7969629D01*
X-7198849Y8161158D01*
X-7198846Y8161164D01*
X-7140296Y8366949D01*
X-7140295Y8366952D01*
X-7133471Y8440604D01*
X-7107685Y8505542D01*
X-7050884Y8546229D01*
X-6981103Y8549749D01*
X-6920497Y8514984D01*
X-6888307Y8452971D01*
X-6886529Y8440604D01*
X-6879704Y8366952D01*
X-6879703Y8366949D01*
X-6821153Y8161164D01*
X-6821151Y8161160D01*
X-6725781Y7969630D01*
X-6596841Y7798886D01*
X-6438722Y7654742D01*
X-6438716Y7654738D01*
X-6438713Y7654736D01*
X-6256813Y7542108D01*
X-6256810Y7542107D01*
X-6057297Y7464815D01*
X-5846980Y7425500D01*
X-5846978Y7425500D01*
X-5633022Y7425500D01*
X-5633020Y7425500D01*
X-5422703Y7464815D01*
X-5223195Y7542105D01*
X-5223192Y7542106D01*
X-5223186Y7542108D01*
X-5041286Y7654736D01*
X-5041283Y7654738D01*
X-5041279Y7654740D01*
X-5041278Y7654742D01*
X-4883159Y7798886D01*
X-4849467Y7843501D01*
X-4754219Y7969629D01*
X-4658849Y8161158D01*
X-4658846Y8161164D01*
X-4600296Y8366949D01*
X-4600295Y8366952D01*
X-4593471Y8440604D01*
X-4567685Y8505542D01*
X-4510884Y8546229D01*
X-4441103Y8549749D01*
X-4380497Y8514984D01*
X-4348307Y8452971D01*
X-4346529Y8440604D01*
X-4339704Y8366952D01*
X-4339703Y8366949D01*
X-4281153Y8161164D01*
X-4281151Y8161160D01*
X-4185781Y7969630D01*
X-4056841Y7798886D01*
X-3898722Y7654742D01*
X-3898716Y7654738D01*
X-3898713Y7654736D01*
X-3716813Y7542108D01*
X-3716810Y7542107D01*
X-3517297Y7464815D01*
X-3306980Y7425500D01*
X-3306978Y7425500D01*
X-3093022Y7425500D01*
X-3093020Y7425500D01*
X-2882703Y7464815D01*
X-2683195Y7542105D01*
X-2683192Y7542106D01*
X-2683186Y7542108D01*
X-2501286Y7654736D01*
X-2501283Y7654738D01*
X-2501279Y7654740D01*
X-2501278Y7654742D01*
X-2343159Y7798886D01*
X-2309467Y7843501D01*
X-2214219Y7969629D01*
X-2118849Y8161158D01*
X-2118846Y8161164D01*
X-2060296Y8366949D01*
X-2060296Y8366952D01*
X-2049111Y8487649D01*
X-2023324Y8552586D01*
X-2013321Y8563888D01*
X-1997210Y8579999D01*
X720554Y8579999D01*
X740295Y8366952D01*
X740296Y8366949D01*
X798846Y8161164D01*
X798849Y8161158D01*
X894219Y7969629D01*
X989467Y7843501D01*
X1023159Y7798886D01*
X1181278Y7654742D01*
X1181279Y7654740D01*
X1181283Y7654738D01*
X1181286Y7654736D01*
X1363186Y7542108D01*
X1363192Y7542106D01*
X1363195Y7542105D01*
X1562703Y7464815D01*
X1773020Y7425500D01*
X1773022Y7425500D01*
X1986978Y7425500D01*
X1986980Y7425500D01*
X2197297Y7464815D01*
X2396810Y7542107D01*
X2396813Y7542108D01*
X2578713Y7654736D01*
X2578716Y7654738D01*
X2578722Y7654742D01*
X2736841Y7798886D01*
X2865781Y7969630D01*
X2961151Y8161160D01*
X2961153Y8161164D01*
X3019703Y8366949D01*
X3019704Y8366952D01*
X3026529Y8440604D01*
X3052315Y8505542D01*
X3109116Y8546229D01*
X3178897Y8549749D01*
X3239503Y8514984D01*
X3271693Y8452971D01*
X3273471Y8440604D01*
X3280295Y8366952D01*
X3280296Y8366949D01*
X3338846Y8161164D01*
X3338849Y8161158D01*
X3434219Y7969629D01*
X3529467Y7843501D01*
X3563159Y7798886D01*
X3721278Y7654742D01*
X3721279Y7654740D01*
X3721283Y7654738D01*
X3721286Y7654736D01*
X3903186Y7542108D01*
X3903192Y7542106D01*
X3903195Y7542105D01*
X4102703Y7464815D01*
X4313020Y7425500D01*
X4313022Y7425500D01*
X4526978Y7425500D01*
X4526980Y7425500D01*
X4737297Y7464815D01*
X4936810Y7542107D01*
X4936813Y7542108D01*
X5118713Y7654736D01*
X5118716Y7654738D01*
X5118722Y7654742D01*
X5276841Y7798886D01*
X5405781Y7969630D01*
X5501151Y8161160D01*
X5501153Y8161164D01*
X5559703Y8366949D01*
X5559704Y8366952D01*
X5566529Y8440604D01*
X5592315Y8505542D01*
X5649116Y8546229D01*
X5718897Y8549749D01*
X5779503Y8514984D01*
X5811693Y8452971D01*
X5813471Y8440604D01*
X5820295Y8366952D01*
X5820296Y8366949D01*
X5878846Y8161164D01*
X5878849Y8161158D01*
X5974219Y7969629D01*
X6069467Y7843501D01*
X6103159Y7798886D01*
X6261278Y7654742D01*
X6261279Y7654740D01*
X6261283Y7654738D01*
X6261286Y7654736D01*
X6443186Y7542108D01*
X6443192Y7542106D01*
X6443195Y7542105D01*
X6642703Y7464815D01*
X6853020Y7425500D01*
X6853022Y7425500D01*
X7066978Y7425500D01*
X7066980Y7425500D01*
X7277297Y7464815D01*
X7476810Y7542107D01*
X7476813Y7542108D01*
X7658713Y7654736D01*
X7658716Y7654738D01*
X7658722Y7654742D01*
X7816841Y7798886D01*
X7945781Y7969630D01*
X8041151Y8161160D01*
X8041153Y8161164D01*
X8099703Y8366949D01*
X8099704Y8366952D01*
X8106529Y8440604D01*
X8132315Y8505542D01*
X8189116Y8546229D01*
X8258897Y8549749D01*
X8319503Y8514984D01*
X8351693Y8452971D01*
X8353471Y8440604D01*
X8360295Y8366952D01*
X8360296Y8366949D01*
X8418846Y8161164D01*
X8418849Y8161158D01*
X8514219Y7969629D01*
X8609467Y7843501D01*
X8643159Y7798886D01*
X8801278Y7654742D01*
X8801279Y7654740D01*
X8801283Y7654738D01*
X8801286Y7654736D01*
X8983186Y7542108D01*
X8983192Y7542106D01*
X8983195Y7542105D01*
X9182703Y7464815D01*
X9358845Y7431888D01*
X9421125Y7400221D01*
X9456398Y7339908D01*
X9453464Y7270100D01*
X9413255Y7212960D01*
X9358845Y7188111D01*
X9182703Y7155185D01*
X8983190Y7077893D01*
X8983187Y7077891D01*
X8983186Y7077891D01*
X8881913Y7015185D01*
X8801278Y6965258D01*
X8643159Y6821114D01*
X8562221Y6713935D01*
X8514219Y6650370D01*
X8418849Y6458841D01*
X8418846Y6458835D01*
X8360296Y6253050D01*
X8360295Y6253047D01*
X8340554Y6040000D01*
X8340554Y6039999D01*
X8360295Y5826952D01*
X8360296Y5826949D01*
X8418846Y5621164D01*
X8418849Y5621158D01*
X8514219Y5429629D01*
X8643158Y5258887D01*
X8643159Y5258886D01*
X8801278Y5114742D01*
X8801279Y5114740D01*
X8801283Y5114738D01*
X8801286Y5114736D01*
X8983186Y5002108D01*
X8983192Y5002106D01*
X9056533Y4973693D01*
X9182703Y4924815D01*
X9358845Y4891888D01*
X9421125Y4860221D01*
X9456398Y4799908D01*
X9453464Y4730100D01*
X9413255Y4672960D01*
X9358845Y4648111D01*
X9182703Y4615185D01*
X8983190Y4537893D01*
X8983187Y4537891D01*
X8983186Y4537891D01*
X8902406Y4487874D01*
X8801278Y4425258D01*
X8643159Y4281114D01*
X8529043Y4130000D01*
X8514219Y4110370D01*
X8418849Y3918841D01*
X8418846Y3918835D01*
X8360296Y3713050D01*
X8360295Y3713047D01*
X8340554Y3500000D01*
X8340554Y3499999D01*
X8360295Y3286952D01*
X8360296Y3286949D01*
X8418846Y3081164D01*
X8418849Y3081158D01*
X8514219Y2889629D01*
X8643158Y2718887D01*
X8643159Y2718886D01*
X8801278Y2574742D01*
X8801279Y2574740D01*
X8801283Y2574738D01*
X8801286Y2574736D01*
X8983186Y2462108D01*
X8983192Y2462106D01*
X9056533Y2433693D01*
X9182703Y2384815D01*
X9393020Y2345500D01*
X9393022Y2345500D01*
X9606978Y2345500D01*
X9606980Y2345500D01*
X9817297Y2384815D01*
X10016810Y2462107D01*
X10016813Y2462108D01*
X10198713Y2574736D01*
X10198716Y2574738D01*
X10198722Y2574742D01*
X10356841Y2718886D01*
X10485781Y2889630D01*
X10581151Y3081160D01*
X10581153Y3081164D01*
X10639703Y3286949D01*
X10639704Y3286952D01*
X10659446Y3499999D01*
X10659446Y3500000D01*
X10639704Y3713047D01*
X10639703Y3713050D01*
X10581153Y3918835D01*
X10581151Y3918840D01*
X10485781Y4110370D01*
X10356841Y4281114D01*
X10198722Y4425258D01*
X10016810Y4537893D01*
X9817297Y4615185D01*
X9641153Y4648111D01*
X9578874Y4679779D01*
X9543601Y4740092D01*
X9546535Y4809900D01*
X9586744Y4867040D01*
X9641152Y4891887D01*
X9817297Y4924815D01*
X10016810Y5002107D01*
X10016813Y5002108D01*
X10198713Y5114736D01*
X10198716Y5114738D01*
X10198722Y5114742D01*
X10356841Y5258886D01*
X10485781Y5429630D01*
X10581151Y5621160D01*
X10581153Y5621164D01*
X10639703Y5826949D01*
X10639704Y5826952D01*
X10659446Y6039999D01*
X10659446Y6040000D01*
X10639704Y6253047D01*
X10639703Y6253050D01*
X10581153Y6458835D01*
X10581151Y6458840D01*
X10485781Y6650370D01*
X10356841Y6821114D01*
X10198722Y6965258D01*
X10016810Y7077893D01*
X9817297Y7155185D01*
X9641153Y7188111D01*
X9578874Y7219779D01*
X9543601Y7280092D01*
X9546535Y7349900D01*
X9586744Y7407040D01*
X9641152Y7431887D01*
X9817297Y7464815D01*
X10016810Y7542107D01*
X10016813Y7542108D01*
X10198713Y7654736D01*
X10198716Y7654738D01*
X10198722Y7654742D01*
X10356841Y7798886D01*
X10485781Y7969630D01*
X10581151Y8161160D01*
X10581153Y8161164D01*
X10639703Y8366949D01*
X10639704Y8366952D01*
X10646529Y8440604D01*
X10672315Y8505542D01*
X10729116Y8546229D01*
X10798897Y8549749D01*
X10859503Y8514984D01*
X10891693Y8452971D01*
X10893471Y8440604D01*
X10900295Y8366952D01*
X10900296Y8366949D01*
X10958846Y8161164D01*
X10958849Y8161158D01*
X11054219Y7969629D01*
X11149467Y7843501D01*
X11183159Y7798886D01*
X11341278Y7654742D01*
X11341279Y7654740D01*
X11341283Y7654738D01*
X11341286Y7654736D01*
X11523186Y7542108D01*
X11523192Y7542106D01*
X11523195Y7542105D01*
X11722703Y7464815D01*
X11933020Y7425500D01*
X11933022Y7425500D01*
X12146978Y7425500D01*
X12146980Y7425500D01*
X12357297Y7464815D01*
X12556810Y7542107D01*
X12556813Y7542108D01*
X12738713Y7654736D01*
X12738716Y7654738D01*
X12738722Y7654742D01*
X12896841Y7798886D01*
X13025781Y7969630D01*
X13121151Y8161160D01*
X13121153Y8161164D01*
X13179703Y8366949D01*
X13179704Y8366952D01*
X13186529Y8440604D01*
X13212315Y8505542D01*
X13269116Y8546229D01*
X13338897Y8549749D01*
X13399503Y8514984D01*
X13431693Y8452971D01*
X13433471Y8440604D01*
X13440295Y8366952D01*
X13440296Y8366949D01*
X13498846Y8161164D01*
X13498849Y8161158D01*
X13594219Y7969629D01*
X13689467Y7843501D01*
X13723159Y7798886D01*
X13881278Y7654742D01*
X13881279Y7654740D01*
X13881283Y7654738D01*
X13881286Y7654736D01*
X14063186Y7542108D01*
X14063192Y7542106D01*
X14063195Y7542105D01*
X14262703Y7464815D01*
X14473020Y7425500D01*
X14473022Y7425500D01*
X14686978Y7425500D01*
X14686980Y7425500D01*
X14897297Y7464815D01*
X15096810Y7542107D01*
X15096813Y7542108D01*
X15278713Y7654736D01*
X15278716Y7654738D01*
X15278722Y7654742D01*
X15436841Y7798886D01*
X15565781Y7969630D01*
X15661151Y8161160D01*
X15661153Y8161164D01*
X15719703Y8366949D01*
X15719704Y8366952D01*
X15726529Y8440604D01*
X15752315Y8505542D01*
X15809116Y8546229D01*
X15878897Y8549749D01*
X15939503Y8514984D01*
X15971693Y8452971D01*
X15973471Y8440604D01*
X15980295Y8366952D01*
X15980296Y8366949D01*
X16038846Y8161164D01*
X16038849Y8161158D01*
X16134219Y7969629D01*
X16229467Y7843501D01*
X16263159Y7798886D01*
X16421278Y7654742D01*
X16421279Y7654740D01*
X16421283Y7654738D01*
X16421286Y7654736D01*
X16603186Y7542108D01*
X16603192Y7542106D01*
X16603195Y7542105D01*
X16802703Y7464815D01*
X17013020Y7425500D01*
X17013022Y7425500D01*
X17226978Y7425500D01*
X17226980Y7425500D01*
X17437297Y7464815D01*
X17636810Y7542107D01*
X17636813Y7542108D01*
X17818713Y7654736D01*
X17818716Y7654738D01*
X17818722Y7654742D01*
X17976841Y7798886D01*
X18105781Y7969630D01*
X18201151Y8161160D01*
X18201153Y8161164D01*
X18259703Y8366949D01*
X18259704Y8366952D01*
X18266529Y8440604D01*
X18292315Y8505542D01*
X18349116Y8546229D01*
X18418897Y8549749D01*
X18479503Y8514984D01*
X18511693Y8452971D01*
X18513471Y8440604D01*
X18520295Y8366952D01*
X18520296Y8366949D01*
X18578846Y8161164D01*
X18578849Y8161158D01*
X18674219Y7969629D01*
X18769467Y7843501D01*
X18803159Y7798886D01*
X18961278Y7654742D01*
X18961279Y7654740D01*
X18961283Y7654738D01*
X18961286Y7654736D01*
X19143186Y7542108D01*
X19143192Y7542106D01*
X19143195Y7542105D01*
X19342703Y7464815D01*
X19553020Y7425500D01*
X19553022Y7425500D01*
X19766978Y7425500D01*
X19766980Y7425500D01*
X19977297Y7464815D01*
X20176810Y7542107D01*
X20176813Y7542108D01*
X20358713Y7654736D01*
X20358716Y7654738D01*
X20358722Y7654742D01*
X20516841Y7798886D01*
X20645781Y7969630D01*
X20741151Y8161160D01*
X20741153Y8161164D01*
X20799703Y8366949D01*
X20799704Y8366952D01*
X20806529Y8440604D01*
X20832315Y8505542D01*
X20889116Y8546229D01*
X20958897Y8549749D01*
X21019503Y8514984D01*
X21051693Y8452971D01*
X21053471Y8440604D01*
X21060295Y8366952D01*
X21060296Y8366949D01*
X21118846Y8161164D01*
X21118849Y8161158D01*
X21214219Y7969629D01*
X21309467Y7843501D01*
X21343159Y7798886D01*
X21501278Y7654742D01*
X21501279Y7654740D01*
X21501283Y7654738D01*
X21501286Y7654736D01*
X21683186Y7542108D01*
X21683192Y7542106D01*
X21683195Y7542105D01*
X21882703Y7464815D01*
X22093020Y7425500D01*
X22093022Y7425500D01*
X22306978Y7425500D01*
X22306980Y7425500D01*
X22517297Y7464815D01*
X22716810Y7542107D01*
X22716813Y7542108D01*
X22898713Y7654736D01*
X22898716Y7654738D01*
X22898722Y7654742D01*
X23056841Y7798886D01*
X23185781Y7969630D01*
X23281151Y8161160D01*
X23281153Y8161164D01*
X23339703Y8366949D01*
X23339704Y8366952D01*
X23359446Y8579999D01*
X23359446Y8580000D01*
X23339704Y8793047D01*
X23339703Y8793050D01*
X23281153Y8998835D01*
X23281151Y8998840D01*
X23185781Y9190370D01*
X23056841Y9361114D01*
X22898722Y9505258D01*
X22716810Y9617893D01*
X22517297Y9695185D01*
X22306980Y9734500D01*
X22093020Y9734500D01*
X21882703Y9695185D01*
X21683190Y9617893D01*
X21683187Y9617891D01*
X21683186Y9617891D01*
X21515825Y9514265D01*
X21501278Y9505258D01*
X21343159Y9361114D01*
X21228659Y9209492D01*
X21214219Y9190370D01*
X21118849Y8998841D01*
X21118846Y8998835D01*
X21060296Y8793050D01*
X21060295Y8793047D01*
X21053471Y8719395D01*
X21027685Y8654457D01*
X20970884Y8613770D01*
X20901103Y8610250D01*
X20840497Y8645015D01*
X20808307Y8707028D01*
X20806529Y8719395D01*
X20799704Y8793047D01*
X20799703Y8793050D01*
X20741153Y8998835D01*
X20741151Y8998840D01*
X20645781Y9190370D01*
X20516841Y9361114D01*
X20358722Y9505258D01*
X20176810Y9617893D01*
X19977297Y9695185D01*
X19766980Y9734500D01*
X19553020Y9734500D01*
X19342703Y9695185D01*
X19143190Y9617893D01*
X19143187Y9617891D01*
X19143186Y9617891D01*
X18975825Y9514265D01*
X18961278Y9505258D01*
X18803159Y9361114D01*
X18688659Y9209492D01*
X18674219Y9190370D01*
X18578849Y8998841D01*
X18578846Y8998835D01*
X18520296Y8793050D01*
X18520295Y8793047D01*
X18513471Y8719395D01*
X18487685Y8654457D01*
X18430884Y8613770D01*
X18361103Y8610250D01*
X18300497Y8645015D01*
X18268307Y8707028D01*
X18266529Y8719395D01*
X18259704Y8793047D01*
X18259703Y8793050D01*
X18201153Y8998835D01*
X18201151Y8998840D01*
X18105781Y9190370D01*
X17976841Y9361114D01*
X17818722Y9505258D01*
X17636810Y9617893D01*
X17437297Y9695185D01*
X17226980Y9734500D01*
X17013020Y9734500D01*
X16802703Y9695185D01*
X16603190Y9617893D01*
X16603187Y9617891D01*
X16603186Y9617891D01*
X16435825Y9514265D01*
X16421278Y9505258D01*
X16263159Y9361114D01*
X16148659Y9209492D01*
X16134219Y9190370D01*
X16038849Y8998841D01*
X16038846Y8998835D01*
X15980296Y8793050D01*
X15980295Y8793047D01*
X15973471Y8719395D01*
X15947685Y8654457D01*
X15890884Y8613770D01*
X15821103Y8610250D01*
X15760497Y8645015D01*
X15728307Y8707028D01*
X15726529Y8719395D01*
X15719704Y8793047D01*
X15719703Y8793050D01*
X15661153Y8998835D01*
X15661151Y8998840D01*
X15565781Y9190370D01*
X15436841Y9361114D01*
X15278722Y9505258D01*
X15096810Y9617893D01*
X14897297Y9695185D01*
X14686980Y9734500D01*
X14473020Y9734500D01*
X14262703Y9695185D01*
X14063190Y9617893D01*
X14063187Y9617891D01*
X14063186Y9617891D01*
X13895825Y9514265D01*
X13881278Y9505258D01*
X13723159Y9361114D01*
X13608659Y9209492D01*
X13594219Y9190370D01*
X13498849Y8998841D01*
X13498846Y8998835D01*
X13440296Y8793050D01*
X13440295Y8793047D01*
X13433471Y8719395D01*
X13407685Y8654457D01*
X13350884Y8613770D01*
X13281103Y8610250D01*
X13220497Y8645015D01*
X13188307Y8707028D01*
X13186529Y8719395D01*
X13179704Y8793047D01*
X13179703Y8793050D01*
X13121153Y8998835D01*
X13121151Y8998840D01*
X13025781Y9190370D01*
X12896841Y9361114D01*
X12738722Y9505258D01*
X12556810Y9617893D01*
X12357297Y9695185D01*
X12146980Y9734500D01*
X11933020Y9734500D01*
X11722703Y9695185D01*
X11523190Y9617893D01*
X11523187Y9617891D01*
X11523186Y9617891D01*
X11355825Y9514265D01*
X11341278Y9505258D01*
X11183159Y9361114D01*
X11068659Y9209492D01*
X11054219Y9190370D01*
X10958849Y8998841D01*
X10958846Y8998835D01*
X10900296Y8793050D01*
X10900295Y8793047D01*
X10893471Y8719395D01*
X10867685Y8654457D01*
X10810884Y8613770D01*
X10741103Y8610250D01*
X10680497Y8645015D01*
X10648307Y8707028D01*
X10646529Y8719395D01*
X10639704Y8793047D01*
X10639703Y8793050D01*
X10581153Y8998835D01*
X10581151Y8998840D01*
X10485781Y9190370D01*
X10356841Y9361114D01*
X10198722Y9505258D01*
X10016810Y9617893D01*
X9817297Y9695185D01*
X9606980Y9734500D01*
X9393020Y9734500D01*
X9182703Y9695185D01*
X8983190Y9617893D01*
X8983187Y9617891D01*
X8983186Y9617891D01*
X8815825Y9514265D01*
X8801278Y9505258D01*
X8643159Y9361114D01*
X8528659Y9209492D01*
X8514219Y9190370D01*
X8418849Y8998841D01*
X8418846Y8998835D01*
X8360296Y8793050D01*
X8360295Y8793047D01*
X8353471Y8719395D01*
X8327685Y8654457D01*
X8270884Y8613770D01*
X8201103Y8610250D01*
X8140497Y8645015D01*
X8108307Y8707028D01*
X8106529Y8719395D01*
X8099704Y8793047D01*
X8099703Y8793050D01*
X8041153Y8998835D01*
X8041151Y8998840D01*
X7945781Y9190370D01*
X7816841Y9361114D01*
X7658722Y9505258D01*
X7476810Y9617893D01*
X7277297Y9695185D01*
X7066980Y9734500D01*
X6853020Y9734500D01*
X6642703Y9695185D01*
X6443190Y9617893D01*
X6443187Y9617891D01*
X6443186Y9617891D01*
X6275825Y9514265D01*
X6261278Y9505258D01*
X6103159Y9361114D01*
X5988659Y9209492D01*
X5974219Y9190370D01*
X5878849Y8998841D01*
X5878846Y8998835D01*
X5820296Y8793050D01*
X5820295Y8793047D01*
X5813471Y8719395D01*
X5787685Y8654457D01*
X5730884Y8613770D01*
X5661103Y8610250D01*
X5600497Y8645015D01*
X5568307Y8707028D01*
X5566529Y8719395D01*
X5559704Y8793047D01*
X5559703Y8793050D01*
X5501153Y8998835D01*
X5501151Y8998840D01*
X5405781Y9190370D01*
X5276841Y9361114D01*
X5118722Y9505258D01*
X4936810Y9617893D01*
X4737297Y9695185D01*
X4526980Y9734500D01*
X4313020Y9734500D01*
X4102703Y9695185D01*
X3903190Y9617893D01*
X3903187Y9617891D01*
X3903186Y9617891D01*
X3735825Y9514265D01*
X3721278Y9505258D01*
X3563159Y9361114D01*
X3448659Y9209492D01*
X3434219Y9190370D01*
X3338849Y8998841D01*
X3338846Y8998835D01*
X3280296Y8793050D01*
X3280295Y8793047D01*
X3273471Y8719395D01*
X3247685Y8654457D01*
X3190884Y8613770D01*
X3121103Y8610250D01*
X3060497Y8645015D01*
X3028307Y8707028D01*
X3026529Y8719395D01*
X3019704Y8793047D01*
X3019703Y8793050D01*
X2961153Y8998835D01*
X2961151Y8998840D01*
X2865781Y9190370D01*
X2736841Y9361114D01*
X2578722Y9505258D01*
X2396810Y9617893D01*
X2197297Y9695185D01*
X1986980Y9734500D01*
X1773020Y9734500D01*
X1562703Y9695185D01*
X1363190Y9617893D01*
X1363187Y9617891D01*
X1363186Y9617891D01*
X1195825Y9514265D01*
X1181278Y9505258D01*
X1023159Y9361114D01*
X908659Y9209492D01*
X894219Y9190370D01*
X798849Y8998841D01*
X798846Y8998835D01*
X740296Y8793050D01*
X740295Y8793047D01*
X720554Y8580000D01*
X720554Y8579999D01*
X-1997210Y8579999D01*
X-424834Y10152376D01*
X-421131Y10155789D01*
X-378900Y10191663D01*
X-378894Y10191669D01*
X-329895Y10256126D01*
X-279159Y10319245D01*
X-278599Y10320121D01*
X-267483Y10338043D01*
X-266942Y10338941D01*
X-232944Y10412429D01*
X-196966Y10484971D01*
X-196608Y10485945D01*
X-189572Y10505929D01*
X-189267Y10506835D01*
X-171860Y10585916D01*
X-152314Y10664511D01*
X-152189Y10665431D01*
X-149607Y10686516D01*
X-149500Y10687501D01*
X-149500Y10768469D01*
X-147306Y10849438D01*
X-147389Y10850447D01*
X-149500Y10872649D01*
X-149500Y14033023D01*
X-129815Y14100062D01*
X-77011Y14145817D01*
X-49865Y14153266D01*
X-50068Y14154124D01*
X-42520Y14155907D01*
X92328Y14206202D01*
X92335Y14206206D01*
X207544Y14292452D01*
X207547Y14292455D01*
X293793Y14407664D01*
X293797Y14407671D01*
X344091Y14542517D01*
X350500Y14602127D01*
X350499Y16397872D01*
X344091Y16457483D01*
X293796Y16592331D01*
X207546Y16707546D01*
X92331Y16793796D01*
X-42517Y16844091D01*
X-42516Y16844091D01*
X-48925Y16844779D01*
X-102127Y16850500D01*
X-1897872Y16850499D01*
X-1957483Y16844091D01*
X-2092331Y16793796D01*
X-2207546Y16707546D01*
X-2293796Y16592331D01*
X-2344091Y16457483D01*
X-2350500Y16397873D01*
X-2350499Y14602128D01*
X-2345299Y14553757D01*
X-2344091Y14542516D01*
X-2293797Y14407671D01*
X-2293793Y14407664D01*
X-2207547Y14292455D01*
X-2207544Y14292452D01*
X-2092335Y14206206D01*
X-2092328Y14206202D01*
X-1957482Y14155908D01*
X-1949938Y14154126D01*
X-1950474Y14151853D01*
X-1896688Y14129571D01*
X-1856843Y14072177D01*
X-1850500Y14033024D01*
X-1850500Y11183651D01*
X-1870185Y11116612D01*
X-1886819Y11095970D01*
X-3211970Y9770819D01*
X-3273293Y9737334D01*
X-3299651Y9734500D01*
X-3306980Y9734500D01*
X-3517297Y9695185D01*
X-3716810Y9617893D01*
X-3898722Y9505258D01*
X-4056841Y9361114D01*
X-4185781Y9190370D01*
X-4281151Y8998840D01*
X-4281153Y8998835D01*
X-4339703Y8793050D01*
X-4339704Y8793047D01*
X-4346529Y8719395D01*
X-4372315Y8654457D01*
X-4429116Y8613770D01*
X-4498897Y8610250D01*
X-4559503Y8645015D01*
X-4591693Y8707028D01*
X-4593471Y8719395D01*
X-4600295Y8793047D01*
X-4600296Y8793050D01*
X-4658846Y8998835D01*
X-4658849Y8998841D01*
X-4754219Y9190370D01*
X-4768659Y9209492D01*
X-4883159Y9361114D01*
X-5041278Y9505258D01*
X-5055825Y9514265D01*
X-5223186Y9617891D01*
X-5223187Y9617891D01*
X-5223190Y9617893D01*
X-5422703Y9695185D01*
X-5633020Y9734500D01*
X-5846980Y9734500D01*
X-6057297Y9695185D01*
X-6256810Y9617893D01*
X-6438722Y9505258D01*
X-6596841Y9361114D01*
X-6725781Y9190370D01*
X-6821151Y8998840D01*
X-6821153Y8998835D01*
X-6879703Y8793050D01*
X-6879704Y8793047D01*
X-6886529Y8719395D01*
X-6912315Y8654457D01*
X-6969116Y8613770D01*
X-7038897Y8610250D01*
X-7099503Y8645015D01*
X-7131693Y8707028D01*
X-7133471Y8719395D01*
X-7140295Y8793047D01*
X-7140296Y8793050D01*
X-7198846Y8998835D01*
X-7198849Y8998841D01*
X-7294219Y9190370D01*
X-7308659Y9209492D01*
X-7423159Y9361114D01*
X-7581278Y9505258D01*
X-7595825Y9514265D01*
X-7763186Y9617891D01*
X-7763187Y9617891D01*
X-7763190Y9617893D01*
X-7962703Y9695185D01*
X-8173020Y9734500D01*
X-8173031Y9734500D01*
X-8175109Y9734693D01*
X-8176047Y9735065D01*
X-8178655Y9735553D01*
X-8178559Y9736062D01*
X-8240049Y9760472D01*
X-8280743Y9817267D01*
X-8284271Y9887048D01*
X-8251363Y9945846D01*
X-5139436Y13057774D01*
X-5135733Y13061188D01*
X-5093498Y13097064D01*
X-5044501Y13161519D01*
X-4993763Y13224638D01*
X-4993236Y13225463D01*
X-4982053Y13243493D01*
X-4981544Y13244338D01*
X-4947539Y13317839D01*
X-4911563Y13390380D01*
X-4911182Y13391417D01*
X-4904180Y13411306D01*
X-4903867Y13412233D01*
X-4886458Y13491326D01*
X-4866914Y13569913D01*
X-4866791Y13570816D01*
X-4864207Y13591916D01*
X-4864100Y13592901D01*
X-4864100Y13673868D01*
X-4861906Y13754838D01*
X-4861989Y13755847D01*
X-4864100Y13778049D01*
X-4864100Y21617041D01*
X-4844415Y21684080D01*
X-4827782Y21704722D01*
X-4676103Y21856401D01*
X-4546175Y22041958D01*
X-4491598Y22085582D01*
X-4422099Y22092775D01*
X-4359745Y22061253D01*
X-4343025Y22041958D01*
X-4213095Y21856399D01*
X-4213093Y21856397D01*
X-4046002Y21689306D01*
X-4045995Y21689301D01*
X-3852434Y21553767D01*
X-3852430Y21553765D01*
X-3638263Y21453897D01*
X-3638259Y21453896D01*
X-3638255Y21453894D01*
X-3410013Y21392738D01*
X-3410003Y21392736D01*
X-3174601Y21372141D01*
X-3174600Y21372141D01*
X-3174599Y21372141D01*
X-2939196Y21392736D01*
X-2939186Y21392738D01*
X-2710944Y21453894D01*
X-2710935Y21453898D01*
X-2496769Y21553765D01*
X-2496765Y21553767D01*
X-2303204Y21689301D01*
X-2303197Y21689306D01*
X-2136106Y21856397D01*
X-2136105Y21856399D01*
X-2006175Y22041958D01*
X-1951598Y22085582D01*
X-1882099Y22092775D01*
X-1819745Y22061253D01*
X-1803025Y22041958D01*
X-1673095Y21856399D01*
X-1673093Y21856397D01*
X-1506002Y21689306D01*
X-1505995Y21689301D01*
X-1312434Y21553767D01*
X-1312430Y21553765D01*
X-1098263Y21453897D01*
X-1098259Y21453896D01*
X-1098255Y21453894D01*
X-870013Y21392738D01*
X-870003Y21392736D01*
X-634601Y21372141D01*
X-634600Y21372141D01*
X-634599Y21372141D01*
X-399196Y21392736D01*
X-399186Y21392738D01*
X-170944Y21453894D01*
X-170935Y21453898D01*
X43230Y21553765D01*
X43234Y21553767D01*
X236795Y21689301D01*
X236802Y21689306D01*
X403893Y21856397D01*
X403895Y21856399D01*
X533825Y22041958D01*
X588402Y22085582D01*
X657901Y22092775D01*
X720255Y22061253D01*
X736975Y22041958D01*
X866905Y21856399D01*
X866906Y21856397D01*
X1033997Y21689306D01*
X1034004Y21689301D01*
X1227565Y21553767D01*
X1227569Y21553765D01*
X1441735Y21453898D01*
X1441744Y21453894D01*
X1669986Y21392738D01*
X1669996Y21392736D01*
X1905399Y21372141D01*
X1905400Y21372141D01*
X1905401Y21372141D01*
X2140803Y21392736D01*
X2140813Y21392738D01*
X2369055Y21453894D01*
X2369059Y21453896D01*
X2369063Y21453897D01*
X2583230Y21553765D01*
X2583234Y21553767D01*
X2776795Y21689301D01*
X2776802Y21689306D01*
X2943893Y21856397D01*
X2943895Y21856399D01*
X3073825Y22041958D01*
X3128402Y22085582D01*
X3197901Y22092775D01*
X3260255Y22061253D01*
X3276975Y22041958D01*
X3406905Y21856399D01*
X3406906Y21856397D01*
X3573997Y21689306D01*
X3574004Y21689301D01*
X3767565Y21553767D01*
X3767569Y21553765D01*
X3981735Y21453898D01*
X3981744Y21453894D01*
X4209986Y21392738D01*
X4209996Y21392736D01*
X4445399Y21372141D01*
X4445400Y21372141D01*
X4445401Y21372141D01*
X4680803Y21392736D01*
X4680813Y21392738D01*
X4909055Y21453894D01*
X4909059Y21453896D01*
X4909063Y21453897D01*
X5123230Y21553765D01*
X5123234Y21553767D01*
X5316795Y21689301D01*
X5316802Y21689306D01*
X5483893Y21856397D01*
X5483895Y21856399D01*
X5613825Y22041958D01*
X5619432Y22049965D01*
X5619434Y22049969D01*
X5619435Y22049970D01*
X5719303Y22264137D01*
X5780463Y22492392D01*
X5801059Y22727800D01*
X5780463Y22963208D01*
X5719303Y23191463D01*
X5619435Y23405629D01*
X5483895Y23599201D01*
X5316801Y23766295D01*
X5123230Y23901835D01*
X4909063Y24001703D01*
X4680808Y24062863D01*
X4471986Y24081133D01*
X4445401Y24083459D01*
X4445399Y24083459D01*
X4418814Y24081133D01*
X4209992Y24062863D01*
X3981737Y24001703D01*
X3767570Y23901835D01*
X3767571Y23901835D01*
X3767569Y23901834D01*
X3573997Y23766294D01*
X3406906Y23599203D01*
X3406905Y23599201D01*
X3276973Y23413638D01*
X3222399Y23370015D01*
X3152900Y23362821D01*
X3090545Y23394343D01*
X3073828Y23413636D01*
X2943895Y23599201D01*
X2776801Y23766295D01*
X2583230Y23901835D01*
X2369063Y24001703D01*
X2140808Y24062863D01*
X1931986Y24081133D01*
X1905401Y24083459D01*
X1905399Y24083459D01*
X1878814Y24081133D01*
X1669992Y24062863D01*
X1441737Y24001703D01*
X1227570Y23901835D01*
X1227571Y23901835D01*
X1227569Y23901834D01*
X1033997Y23766294D01*
X866906Y23599203D01*
X866905Y23599201D01*
X736973Y23413638D01*
X682399Y23370015D01*
X612900Y23362821D01*
X550545Y23394343D01*
X533828Y23413636D01*
X403895Y23599201D01*
X236801Y23766295D01*
X43230Y23901835D01*
X-170937Y24001703D01*
X-399192Y24062863D01*
X-608014Y24081133D01*
X-634599Y24083459D01*
X-634601Y24083459D01*
X-661186Y24081133D01*
X-870008Y24062863D01*
X-1098263Y24001703D01*
X-1312429Y23901835D01*
X-1506001Y23766295D01*
X-1673095Y23599201D01*
X-1803026Y23413638D01*
X-1857601Y23370015D01*
X-1927100Y23362821D01*
X-1989455Y23394343D01*
X-2006171Y23413636D01*
X-2136105Y23599201D01*
X-2303199Y23766295D01*
X-2399984Y23834064D01*
X-2496765Y23901832D01*
X-2496769Y23901834D01*
X-2496770Y23901835D01*
X-2710937Y24001703D01*
X-2939192Y24062863D01*
X-3148014Y24081133D01*
X-3174599Y24083459D01*
X-3174601Y24083459D01*
X-3201186Y24081133D01*
X-3410008Y24062863D01*
X-3638263Y24001703D01*
X-3852429Y23901835D01*
X-4046001Y23766295D01*
X-4213095Y23599201D01*
X-4343029Y23413635D01*
X-4397600Y23370015D01*
X-4467098Y23362821D01*
X-4529453Y23394343D01*
X-4546174Y23413640D01*
X-4676105Y23599202D01*
X-4843197Y23766293D01*
X-4843198Y23766294D01*
X-4843199Y23766295D01*
X-4939984Y23834064D01*
X-5036765Y23901832D01*
X-5036769Y23901834D01*
X-5036770Y23901835D01*
X-5250937Y24001703D01*
X-5479192Y24062863D01*
X-5688014Y24081133D01*
X-5714599Y24083459D01*
X-5714601Y24083459D01*
X-5741186Y24081133D01*
X-5950008Y24062863D01*
X-6178263Y24001703D01*
X-6392429Y23901835D01*
X-6586001Y23766295D01*
X-6753095Y23599201D01*
X-6883029Y23413635D01*
X-6937600Y23370015D01*
X-7007098Y23362821D01*
X-7069453Y23394343D01*
X-7086174Y23413640D01*
X-7216105Y23599202D01*
X-7383197Y23766293D01*
X-7383198Y23766294D01*
X-7383199Y23766295D01*
X-7479984Y23834064D01*
X-7576765Y23901832D01*
X-7576769Y23901834D01*
X-7576770Y23901835D01*
X-7790937Y24001703D01*
X-8019192Y24062863D01*
X-8228014Y24081133D01*
X-8254599Y24083459D01*
X-8254601Y24083459D01*
X-8281186Y24081133D01*
X-8490008Y24062863D01*
X-8718263Y24001703D01*
X-8932429Y23901835D01*
X-9126001Y23766295D01*
X-9293095Y23599201D01*
X-9428635Y23405629D01*
X-9528503Y23191463D01*
X-9589663Y22963208D01*
X-9610259Y22727800D01*
X-9602999Y22644828D01*
X-9616765Y22576331D01*
X-9638843Y22546344D01*
X-13935192Y18249995D01*
X-13938859Y18246615D01*
X-13981100Y18210737D01*
X-13999501Y18186531D01*
X-14030090Y18146292D01*
X-14048505Y18123381D01*
X-14080842Y18083154D01*
X-14080843Y18083151D01*
X-14081451Y18082199D01*
X-14092449Y18064469D01*
X-14093051Y18063469D01*
X-14093052Y18063466D01*
X-14093054Y18063464D01*
X-14127060Y17989960D01*
X-14163036Y17917421D01*
X-14163036Y17917419D01*
X-14163434Y17916335D01*
X-14170389Y17896583D01*
X-14170727Y17895577D01*
X-14170732Y17895567D01*
X-14186768Y17822711D01*
X-14188141Y17816473D01*
X-14207685Y17737891D01*
X-14207830Y17736826D01*
X-14210371Y17716077D01*
X-14210500Y17714897D01*
X-14210500Y17633931D01*
X-14212693Y17552964D01*
X-14212606Y17551904D01*
X-14210499Y17529762D01*
X-14210499Y13412233D01*
X-14210499Y9411073D01*
X-14230184Y9344034D01*
X-14235545Y9336346D01*
X-14241560Y9328379D01*
X-14345781Y9190370D01*
X-14441151Y8998840D01*
X-14441153Y8998835D01*
X-14499703Y8793050D01*
X-14499704Y8793047D01*
X-14506529Y8719395D01*
X-14532315Y8654457D01*
X-14589116Y8613770D01*
X-14658897Y8610250D01*
X-14719503Y8645015D01*
X-14751693Y8707028D01*
X-14753471Y8719395D01*
X-14760295Y8793047D01*
X-14760296Y8793050D01*
X-14818846Y8998835D01*
X-14818849Y8998841D01*
X-14914219Y9190370D01*
X-14928659Y9209492D01*
X-15043159Y9361114D01*
X-15201278Y9505258D01*
X-15215825Y9514265D01*
X-15383186Y9617891D01*
X-15383187Y9617891D01*
X-15383190Y9617893D01*
X-15582703Y9695185D01*
X-15793020Y9734500D01*
X-15793022Y9734500D01*
X-15800349Y9734500D01*
X-15867388Y9754185D01*
X-15888030Y9770819D01*
X-16613180Y10495969D01*
X-16646665Y10557292D01*
X-16649499Y10583650D01*
X-16649499Y33485511D01*
X-16649294Y33490544D01*
X-16644798Y33545762D01*
X-16655729Y33625992D01*
X-16664486Y33706513D01*
X-16664710Y33707530D01*
X-16669525Y33728073D01*
X-16669773Y33729070D01*
X-16697700Y33805086D01*
X-16723557Y33881823D01*
X-16724001Y33882785D01*
X-16733146Y33901866D01*
X-16733565Y33902711D01*
X-16777177Y33970941D01*
X-16818931Y34040339D01*
X-16819505Y34041094D01*
X-16832555Y34057787D01*
X-16833202Y34058591D01*
X-16890442Y34115831D01*
X-16946152Y34174642D01*
X-16946962Y34175330D01*
X-16964122Y34189510D01*
X-17934181Y35159569D01*
X-17967666Y35220892D01*
X-17970500Y35247250D01*
X-17970500Y36488240D01*
X-17950815Y36555279D01*
X-17934182Y36575920D01*
X-17881506Y36628596D01*
X-17745967Y36822165D01*
X-17745965Y36822169D01*
X-17646098Y37036335D01*
X-17646094Y37036344D01*
X-17584938Y37264586D01*
X-17584936Y37264596D01*
X-17564341Y37499999D01*
X-17564341Y37500000D01*
X-17584936Y37735403D01*
X-17584938Y37735413D01*
X-17646094Y37963655D01*
X-17646096Y37963659D01*
X-17646097Y37963663D01*
X-17726003Y38135021D01*
X-17745964Y38177828D01*
X-17745965Y38177830D01*
X-17881505Y38371402D01*
X-18048597Y38538493D01*
X-18048598Y38538494D01*
X-18048599Y38538495D01*
X-18145384Y38606264D01*
X-18242165Y38674032D01*
X-18242169Y38674034D01*
X-18242170Y38674035D01*
X-18456337Y38773903D01*
X-18684592Y38835063D01*
X-18893414Y38853333D01*
X-18919999Y38855659D01*
X-18920001Y38855659D01*
X-18946586Y38853333D01*
X-19155408Y38835063D01*
X-19383663Y38773903D01*
X-19597829Y38674035D01*
X-19791401Y38538495D01*
X-19958495Y38371401D01*
X-20088429Y38185835D01*
X-20143000Y38142215D01*
X-20212498Y38135021D01*
X-20274853Y38166543D01*
X-20291574Y38185840D01*
X-20421505Y38371402D01*
X-20588597Y38538493D01*
X-20588598Y38538494D01*
X-20588599Y38538495D01*
X-20685384Y38606264D01*
X-20782165Y38674032D01*
X-20782169Y38674034D01*
X-20782170Y38674035D01*
X-20996337Y38773903D01*
X-21224592Y38835063D01*
X-21433414Y38853333D01*
X-21459999Y38855659D01*
X-21460001Y38855659D01*
X-21486586Y38853333D01*
X-21695408Y38835063D01*
X-21923663Y38773903D01*
X-22137829Y38674035D01*
X-22331401Y38538495D01*
X-22498495Y38371401D01*
X-22634035Y38177829D01*
X-22733903Y37963663D01*
X-22795063Y37735408D01*
X-22815659Y37500000D01*
X-22795063Y37264592D01*
X-22733903Y37036337D01*
X-22634035Y36822170D01*
X-22634034Y36822169D01*
X-22634032Y36822165D01*
X-22566265Y36725384D01*
X-22498495Y36628599D01*
X-22412413Y36542517D01*
X-22346818Y36476922D01*
X-22313334Y36415599D01*
X-22310500Y36389241D01*
X-22310500Y34192287D01*
X-22310705Y34187252D01*
X-22315201Y34132036D01*
X-22304270Y34051807D01*
X-22295513Y33971284D01*
X-22295280Y33970226D01*
X-22290497Y33949821D01*
X-22290227Y33948732D01*
X-22262299Y33872713D01*
X-22236444Y33795979D01*
X-22236441Y33795975D01*
X-22236441Y33795973D01*
X-22236006Y33795031D01*
X-22226895Y33776018D01*
X-22226433Y33775087D01*
X-22226432Y33775084D01*
X-22226431Y33775083D01*
X-22182815Y33706846D01*
X-22141068Y33637461D01*
X-22140457Y33636658D01*
X-22127493Y33620074D01*
X-22126804Y33619218D01*
X-22126800Y33619211D01*
X-22098169Y33590580D01*
X-22069541Y33561951D01*
X-22013849Y33503159D01*
X-22013064Y33502492D01*
X-21995879Y33488290D01*
X-20886819Y32379230D01*
X-20853334Y32317907D01*
X-20850500Y32291549D01*
X-20850500Y10177087D01*
X-20850705Y10172052D01*
X-20855201Y10116836D01*
X-20844270Y10036607D01*
X-20835513Y9956084D01*
X-20835280Y9955026D01*
X-20830497Y9934621D01*
X-20830227Y9933538D01*
X-20830227Y9933532D01*
X-20830225Y9933527D01*
X-20818372Y9901262D01*
X-20813730Y9831546D01*
X-20847516Y9770389D01*
X-20909003Y9737206D01*
X-20934765Y9734500D01*
X-21086980Y9734500D01*
X-21297297Y9695185D01*
X-21496810Y9617893D01*
X-21678722Y9505258D01*
X-21836841Y9361114D01*
X-21965781Y9190370D01*
X-22004922Y9111762D01*
X-22052425Y9060524D01*
X-22120087Y9043102D01*
X-22127345Y9043559D01*
X-22246570Y9054607D01*
X-22246576Y9054606D01*
X-22246581Y9054607D01*
X-22281460Y9052847D01*
X-22316351Y9051087D01*
X-22358978Y9042747D01*
X-22428548Y9049193D01*
X-22483590Y9092230D01*
X-22493785Y9109168D01*
X-22534219Y9190370D01*
X-22548659Y9209492D01*
X-22663159Y9361114D01*
X-22821278Y9505258D01*
X-22835825Y9514265D01*
X-23003186Y9617891D01*
X-23003187Y9617891D01*
X-23003190Y9617893D01*
X-23202703Y9695185D01*
X-23413020Y9734500D01*
X-23626980Y9734500D01*
X-23837297Y9695185D01*
X-24036810Y9617893D01*
X-24218722Y9505258D01*
X-24376841Y9361114D01*
X-24505781Y9190370D01*
X-24601151Y8998840D01*
X-24601153Y8998835D01*
X-24659703Y8793050D01*
X-24659704Y8793047D01*
X-24666529Y8719395D01*
X-24692315Y8654457D01*
X-24749116Y8613770D01*
X-24818897Y8610250D01*
X-24879503Y8645015D01*
X-24911693Y8707028D01*
X-24913471Y8719395D01*
X-24920295Y8793047D01*
X-24920296Y8793050D01*
X-24978846Y8998835D01*
X-24978849Y8998841D01*
X-25074219Y9190370D01*
X-25184453Y9336344D01*
X-25209145Y9401706D01*
X-25209499Y9411071D01*
X-25209499Y30159343D01*
X-25189814Y30226382D01*
X-25187074Y30230466D01*
X-25063767Y30406565D01*
X-25063765Y30406569D01*
X-24963898Y30620735D01*
X-24963894Y30620744D01*
X-24902738Y30848986D01*
X-24902736Y30848996D01*
X-24882141Y31084399D01*
X-24882141Y31084400D01*
X-24902736Y31319803D01*
X-24902738Y31319813D01*
X-24963894Y31548055D01*
X-24963896Y31548059D01*
X-24963897Y31548063D01*
X-25043803Y31719421D01*
X-25063764Y31762228D01*
X-25063765Y31762230D01*
X-25199305Y31955802D01*
X-25366397Y32122893D01*
X-25366398Y32122894D01*
X-25366399Y32122895D01*
X-25463184Y32190665D01*
X-25559965Y32258432D01*
X-25559969Y32258434D01*
X-25559970Y32258435D01*
X-25774137Y32358303D01*
X-26002392Y32419463D01*
X-26190718Y32435939D01*
X-26237799Y32440059D01*
X-26237801Y32440059D01*
X-26277034Y32436626D01*
X-26473208Y32419463D01*
X-26701463Y32358303D01*
X-26915629Y32258435D01*
X-27109201Y32122895D01*
X-27276295Y31955801D01*
X-27406226Y31770238D01*
X-27460801Y31726615D01*
X-27530300Y31719421D01*
X-27592655Y31750943D01*
X-27609371Y31770236D01*
X-27739305Y31955801D01*
X-27906399Y32122895D01*
X-28003184Y32190665D01*
X-28099965Y32258432D01*
X-28099969Y32258434D01*
X-28099970Y32258435D01*
X-28314137Y32358303D01*
X-28542392Y32419463D01*
X-28730718Y32435939D01*
X-28777799Y32440059D01*
X-28777801Y32440059D01*
X-28817034Y32436626D01*
X-29013208Y32419463D01*
X-29241463Y32358303D01*
X-29455629Y32258435D01*
X-29649201Y32122895D01*
X-29816295Y31955801D01*
X-29946226Y31770238D01*
X-30000801Y31726615D01*
X-30070300Y31719421D01*
X-30132655Y31750943D01*
X-30149371Y31770236D01*
X-30279305Y31955801D01*
X-30446399Y32122895D01*
X-30543184Y32190664D01*
X-30639965Y32258432D01*
X-30639969Y32258434D01*
X-30639970Y32258435D01*
X-30854137Y32358303D01*
X-31082392Y32419463D01*
X-31270718Y32435939D01*
X-31317799Y32440059D01*
X-31317801Y32440059D01*
X-31357034Y32436626D01*
X-31553208Y32419463D01*
X-31781463Y32358303D01*
X-31995629Y32258435D01*
X-32189201Y32122895D01*
X-32356295Y31955801D01*
X-32491835Y31762229D01*
X-32591703Y31548063D01*
X-32652863Y31319808D01*
X-32673459Y31084400D01*
X-32652863Y30848992D01*
X-32591703Y30620737D01*
X-32491835Y30406570D01*
X-32491834Y30406569D01*
X-32491832Y30406565D01*
X-32424064Y30309784D01*
X-32356295Y30212999D01*
X-32230017Y30086721D01*
X-32204617Y30061321D01*
X-32171133Y29999998D01*
X-32168299Y29973647D01*
X-32168299Y29842222D01*
X-32168299Y29760850D01*
X-32187984Y29693811D01*
X-32204613Y29673174D01*
X-43075192Y18802595D01*
X-43078859Y18799215D01*
X-43121100Y18763337D01*
X-43145595Y18731114D01*
X-43170090Y18698892D01*
X-43188505Y18675981D01*
X-43220842Y18635754D01*
X-43220843Y18635751D01*
X-43221451Y18634799D01*
X-43232449Y18617069D01*
X-43233051Y18616069D01*
X-43233052Y18616066D01*
X-43233054Y18616064D01*
X-43267060Y18542560D01*
X-43303036Y18470021D01*
X-43303036Y18470019D01*
X-43303434Y18468935D01*
X-43310389Y18449183D01*
X-43310727Y18448177D01*
X-43310732Y18448167D01*
X-43328141Y18369073D01*
X-43347685Y18290491D01*
X-43347830Y18289426D01*
X-43350371Y18268677D01*
X-43350500Y18267497D01*
X-43350500Y18186531D01*
X-43352693Y18105564D01*
X-43352608Y18104520D01*
X-43350500Y18082352D01*
X-43350500Y13195287D01*
X-43350705Y13190252D01*
X-43355201Y13135036D01*
X-43355201Y13135033D01*
X-43350027Y13097063D01*
X-43344270Y13054807D01*
X-43335513Y12974284D01*
X-43335280Y12973226D01*
X-43330497Y12952821D01*
X-43330227Y12951732D01*
X-43302299Y12875713D01*
X-43276444Y12798979D01*
X-43276441Y12798975D01*
X-43276441Y12798973D01*
X-43276006Y12798031D01*
X-43266895Y12779018D01*
X-43266433Y12778087D01*
X-43266432Y12778084D01*
X-43266431Y12778083D01*
X-43222815Y12709846D01*
X-43181068Y12640461D01*
X-43180457Y12639658D01*
X-43167493Y12623074D01*
X-43166804Y12622218D01*
X-43166800Y12622211D01*
X-43109539Y12564950D01*
X-43053849Y12506159D01*
X-43053088Y12505512D01*
X-43035881Y12491292D01*
X-38549413Y8004825D01*
X-38546010Y8001133D01*
X-38510140Y7958902D01*
X-38510138Y7958900D01*
X-38445671Y7909895D01*
X-38445672Y7909895D01*
X-38382553Y7859158D01*
X-38382550Y7859156D01*
X-38381705Y7858616D01*
X-38362747Y7846856D01*
X-38358333Y7843501D01*
X-38316872Y7787263D01*
X-38312398Y7717536D01*
X-38345685Y7657102D01*
X-40695060Y5307727D01*
X-40715951Y5290934D01*
X-40757768Y5264206D01*
X-40827136Y5222470D01*
X-40827140Y5222466D01*
X-40827142Y5222465D01*
X-40828042Y5221781D01*
X-40844468Y5208940D01*
X-40845386Y5208202D01*
X-40845389Y5208200D01*
X-40874018Y5179570D01*
X-40902649Y5150940D01*
X-40932203Y5122944D01*
X-40961441Y5095249D01*
X-40961445Y5095242D01*
X-40962157Y5094405D01*
X-40976304Y5077283D01*
X-45558192Y495395D01*
X-45561859Y492015D01*
X-45604100Y456137D01*
X-45625301Y428247D01*
X-45653090Y391692D01*
X-45671505Y368781D01*
X-45703842Y328554D01*
X-45703843Y328551D01*
X-45704451Y327599D01*
X-45715449Y309869D01*
X-45716051Y308869D01*
X-45716052Y308866D01*
X-45716054Y308864D01*
X-45750060Y235360D01*
X-45786036Y162821D01*
X-45786036Y162819D01*
X-45786434Y161735D01*
X-45793389Y141983D01*
X-45793727Y140977D01*
X-45793732Y140967D01*
X-45806131Y84634D01*
X-45811141Y61873D01*
X-45830685Y-16708D01*
X-45830829Y-17770D01*
X-45833377Y-38575D01*
X-45833500Y-39704D01*
X-45833500Y-120668D01*
X-45835693Y-201638D01*
X-45835610Y-202647D01*
X-45833500Y-224849D01*
X-45833500Y-29711511D01*
X-45833705Y-29716545D01*
X-45835699Y-29741047D01*
X-45838201Y-29771767D01*
X-49999500Y-29771767D01*
X-49999500Y49375500D01*
X-49979815Y49442539D01*
X-49927011Y49488294D01*
X-49875500Y49499500D01*
X29875500Y49499500D01*
X29942539Y49479815D01*
G37*
%TD.AperFunction*%
%TD*%
%TA.AperFunction,Conductor*%
%TO.N,3V3*%
G36*
X3581957Y481086D02*
G01*
X7665984Y-461381D01*
X9893637Y-975454D01*
X9954532Y-1009709D01*
X9987242Y-1071450D01*
X9989138Y-1108618D01*
X9813280Y-2867190D01*
X9787022Y-2931938D01*
X9729927Y-2972211D01*
X9667111Y-2976740D01*
X9635493Y-2970830D01*
X9606980Y-2965500D01*
X9393020Y-2965500D01*
X9182703Y-3004815D01*
X9056533Y-3053693D01*
X8983192Y-3082106D01*
X8983186Y-3082108D01*
X8801286Y-3194736D01*
X8801283Y-3194738D01*
X8801279Y-3194740D01*
X8801278Y-3194742D01*
X8643159Y-3338886D01*
X8643158Y-3338887D01*
X8514219Y-3509629D01*
X8418849Y-3701158D01*
X8418846Y-3701164D01*
X8360296Y-3906949D01*
X8360295Y-3906952D01*
X8340554Y-4119999D01*
X8340554Y-4120000D01*
X8360295Y-4333047D01*
X8360296Y-4333050D01*
X8418846Y-4538835D01*
X8418849Y-4538840D01*
X8514219Y-4730370D01*
X8643159Y-4901114D01*
X8801278Y-5045258D01*
X8801283Y-5045261D01*
X8801286Y-5045263D01*
X8983186Y-5157891D01*
X8983187Y-5157891D01*
X8983190Y-5157893D01*
X9182703Y-5235185D01*
X9358845Y-5268111D01*
X9421125Y-5299779D01*
X9456398Y-5360092D01*
X9453464Y-5429900D01*
X9413255Y-5487040D01*
X9358845Y-5511888D01*
X9182703Y-5544815D01*
X9056533Y-5593693D01*
X8983192Y-5622106D01*
X8983186Y-5622108D01*
X8801286Y-5734736D01*
X8801283Y-5734738D01*
X8801279Y-5734740D01*
X8801278Y-5734742D01*
X8723750Y-5805418D01*
X8643158Y-5878887D01*
X8588907Y-5950727D01*
X8532798Y-5992363D01*
X8489953Y-6000000D01*
X7970047Y-6000000D01*
X7903008Y-5980315D01*
X7871093Y-5950727D01*
X7853561Y-5927511D01*
X7816841Y-5878886D01*
X7658722Y-5734742D01*
X7658716Y-5734738D01*
X7658713Y-5734736D01*
X7476813Y-5622108D01*
X7476807Y-5622106D01*
X7277297Y-5544815D01*
X7066980Y-5505500D01*
X6853020Y-5505500D01*
X6642703Y-5544815D01*
X6516533Y-5593693D01*
X6443192Y-5622106D01*
X6443186Y-5622108D01*
X6261286Y-5734736D01*
X6261283Y-5734738D01*
X6261279Y-5734740D01*
X6261278Y-5734742D01*
X6183750Y-5805418D01*
X6103158Y-5878887D01*
X6048907Y-5950727D01*
X5992798Y-5992363D01*
X5949953Y-6000000D01*
X5430047Y-6000000D01*
X5363008Y-5980315D01*
X5331093Y-5950727D01*
X5313561Y-5927511D01*
X5276841Y-5878886D01*
X5118722Y-5734742D01*
X5118716Y-5734738D01*
X5118713Y-5734736D01*
X4936813Y-5622108D01*
X4936807Y-5622106D01*
X4737297Y-5544815D01*
X4526980Y-5505500D01*
X4313020Y-5505500D01*
X4102703Y-5544815D01*
X3976533Y-5593693D01*
X3903192Y-5622106D01*
X3903186Y-5622108D01*
X3721286Y-5734736D01*
X3721283Y-5734738D01*
X3721279Y-5734740D01*
X3721278Y-5734742D01*
X3643750Y-5805418D01*
X3563158Y-5878887D01*
X3508907Y-5950727D01*
X3452798Y-5992363D01*
X3409953Y-6000000D01*
X2890047Y-6000000D01*
X2823008Y-5980315D01*
X2791093Y-5950727D01*
X2773561Y-5927511D01*
X2736841Y-5878886D01*
X2578722Y-5734742D01*
X2578716Y-5734738D01*
X2578713Y-5734736D01*
X2396813Y-5622108D01*
X2396807Y-5622106D01*
X2197297Y-5544815D01*
X1986980Y-5505500D01*
X1773020Y-5505500D01*
X1562703Y-5544815D01*
X1436533Y-5593693D01*
X1363192Y-5622106D01*
X1363186Y-5622108D01*
X1181286Y-5734736D01*
X1181283Y-5734738D01*
X1181279Y-5734740D01*
X1181278Y-5734742D01*
X1103750Y-5805418D01*
X1023158Y-5878887D01*
X968907Y-5950727D01*
X912798Y-5992363D01*
X869953Y-6000000D01*
X-763337Y-6000000D01*
X-830376Y-5980315D01*
X-876131Y-5927511D01*
X-886075Y-5858353D01*
X-865289Y-5805418D01*
X3452122Y430843D01*
X3506466Y474758D01*
X3575925Y482320D01*
X3581957Y481086D01*
G37*
%TD.AperFunction*%
%TD*%
%TA.AperFunction,NonConductor*%
G36*
X-6899745Y22061253D02*
G01*
X-6883025Y22041958D01*
X-6753095Y21856399D01*
X-6753093Y21856397D01*
X-6738140Y21841444D01*
X-6725111Y21826105D01*
X-6709709Y21804665D01*
X-6707004Y21800898D01*
X-6707002Y21800896D01*
X-6707001Y21800895D01*
X-6616762Y21719938D01*
X-6614342Y21717646D01*
X-6601419Y21704723D01*
X-6567934Y21643400D01*
X-6565100Y21617042D01*
X-6565100Y14089050D01*
X-6584785Y14022011D01*
X-6601419Y14001369D01*
X-10831970Y9770819D01*
X-10893293Y9737334D01*
X-10919651Y9734500D01*
X-10926980Y9734500D01*
X-11137297Y9695185D01*
X-11336810Y9617893D01*
X-11518722Y9505258D01*
X-11676841Y9361114D01*
X-11805781Y9190370D01*
X-11805781Y9190368D01*
X-11805782Y9190368D01*
X-11866351Y9068729D01*
X-11913853Y9017492D01*
X-11977351Y9000000D01*
X-12202649Y9000000D01*
X-12269688Y9019685D01*
X-12313649Y9068729D01*
X-12374218Y9190368D01*
X-12374219Y9190370D01*
X-12427404Y9260798D01*
X-12484453Y9336344D01*
X-12509145Y9401706D01*
X-12509499Y9411071D01*
X-12509499Y17218749D01*
X-12489814Y17285788D01*
X-12473180Y17306430D01*
X-8436058Y21343552D01*
X-8374735Y21377037D01*
X-8337571Y21379399D01*
X-8254604Y21372141D01*
X-8254600Y21372141D01*
X-8254599Y21372141D01*
X-8019196Y21392736D01*
X-8019186Y21392738D01*
X-7790944Y21453894D01*
X-7790935Y21453898D01*
X-7576769Y21553765D01*
X-7576765Y21553767D01*
X-7383204Y21689301D01*
X-7383197Y21689306D01*
X-7216106Y21856397D01*
X-7216105Y21856399D01*
X-7086175Y22041958D01*
X-7031598Y22085582D01*
X-6962099Y22092775D01*
X-6899745Y22061253D01*
G37*
%TD.AperFunction*%
%TA.AperFunction,NonConductor*%
G36*
X-22160497Y8514984D02*
G01*
X-22128307Y8452971D01*
X-22126529Y8440604D01*
X-22119704Y8366952D01*
X-22119703Y8366949D01*
X-22061153Y8161164D01*
X-22061151Y8161160D01*
X-21965781Y7969630D01*
X-21836841Y7798886D01*
X-21678722Y7654742D01*
X-21678716Y7654738D01*
X-21678713Y7654736D01*
X-21496813Y7542108D01*
X-21496810Y7542107D01*
X-21319775Y7473523D01*
X-21264377Y7430952D01*
X-21240786Y7365185D01*
X-21256497Y7297105D01*
X-21306521Y7248326D01*
X-21346850Y7236300D01*
X-21346711Y7235553D01*
X-21352344Y7234500D01*
X-21352347Y7234500D01*
X-21553556Y7196888D01*
X-21744427Y7122944D01*
X-21918462Y7015186D01*
X-22069732Y6877285D01*
X-22125637Y6803254D01*
X-22151046Y6769608D01*
X-22207154Y6727971D01*
X-22276866Y6723279D01*
X-22338048Y6757022D01*
X-22348954Y6769608D01*
X-22430266Y6877283D01*
X-22430268Y6877286D01*
X-22581537Y7015185D01*
X-22581539Y7015187D01*
X-22755569Y7122942D01*
X-22755575Y7122945D01*
X-22796010Y7138609D01*
X-22946444Y7196888D01*
X-23147653Y7234500D01*
X-23147656Y7234500D01*
X-23153289Y7235553D01*
X-23153041Y7236879D01*
X-23211802Y7260210D01*
X-23252492Y7317009D01*
X-23256014Y7386790D01*
X-23221251Y7447398D01*
X-23180222Y7473523D01*
X-23136781Y7490353D01*
X-23003192Y7542105D01*
X-23003186Y7542108D01*
X-22821286Y7654736D01*
X-22821283Y7654738D01*
X-22821279Y7654740D01*
X-22821278Y7654742D01*
X-22663159Y7798886D01*
X-22663158Y7798887D01*
X-22534219Y7969629D01*
X-22438849Y8161158D01*
X-22438846Y8161164D01*
X-22380296Y8366949D01*
X-22380295Y8366952D01*
X-22373471Y8440604D01*
X-22347685Y8505542D01*
X-22290884Y8546229D01*
X-22221103Y8549749D01*
X-22160497Y8514984D01*
G37*
%TD.AperFunction*%
%TA.AperFunction,NonConductor*%
G36*
X-20203634Y36800908D02*
G01*
X-20097664Y36774415D01*
X-20037401Y36739058D01*
X-20026164Y36725240D01*
X-19969839Y36644799D01*
X-19958495Y36628599D01*
X-19791401Y36461505D01*
X-19791398Y36461503D01*
X-19724375Y36414572D01*
X-19680751Y36359995D01*
X-19671500Y36312998D01*
X-19671500Y34880687D01*
X-19671705Y34875652D01*
X-19676201Y34820436D01*
X-19665270Y34740207D01*
X-19656513Y34659684D01*
X-19656280Y34658626D01*
X-19651497Y34638221D01*
X-19651227Y34637132D01*
X-19623299Y34561113D01*
X-19597444Y34484379D01*
X-19597441Y34484375D01*
X-19597441Y34484373D01*
X-19597006Y34483431D01*
X-19587895Y34464418D01*
X-19587433Y34463487D01*
X-19587432Y34463484D01*
X-19587431Y34463483D01*
X-19543815Y34395246D01*
X-19502068Y34325861D01*
X-19501457Y34325058D01*
X-19488493Y34308474D01*
X-19487804Y34307618D01*
X-19487800Y34307611D01*
X-19430539Y34250350D01*
X-19374849Y34191559D01*
X-19374088Y34190912D01*
X-19356881Y34176692D01*
X-18386819Y33206630D01*
X-18353334Y33145307D01*
X-18350500Y33118949D01*
X-18350500Y10217087D01*
X-18350705Y10212052D01*
X-18355201Y10156833D01*
X-18344270Y10076607D01*
X-18335514Y9996090D01*
X-18335512Y9996086D01*
X-18334812Y9989642D01*
X-18347133Y9920868D01*
X-18394680Y9869672D01*
X-18462358Y9852309D01*
X-18528679Y9874291D01*
X-18545766Y9888554D01*
X-19113181Y10455969D01*
X-19146666Y10517292D01*
X-19149500Y10543650D01*
X-19149500Y32658111D01*
X-19149295Y32663145D01*
X-19144798Y32718363D01*
X-19155729Y32798592D01*
X-19164486Y32879113D01*
X-19164710Y32880130D01*
X-19169525Y32900673D01*
X-19169773Y32901670D01*
X-19197700Y32977686D01*
X-19223557Y33054423D01*
X-19224001Y33055385D01*
X-19233146Y33074466D01*
X-19233564Y33075309D01*
X-19277184Y33143553D01*
X-19318930Y33212936D01*
X-19319538Y33213736D01*
X-19332578Y33230416D01*
X-19333201Y33231191D01*
X-19390459Y33288449D01*
X-19446152Y33347242D01*
X-19446983Y33347947D01*
X-19464119Y33362108D01*
X-20573181Y34471170D01*
X-20606666Y34532493D01*
X-20609500Y34558851D01*
X-20609500Y36389241D01*
X-20589815Y36456280D01*
X-20573182Y36476922D01*
X-20421503Y36628601D01*
X-20421499Y36628606D01*
X-20335283Y36751734D01*
X-20280706Y36795359D01*
X-20211208Y36802551D01*
X-20203634Y36800908D01*
G37*
%TD.AperFunction*%
%TA.AperFunction,NonConductor*%
G36*
X3231418Y-6999271D02*
G01*
X3262720Y-7061737D01*
X3264700Y-7083807D01*
X3264700Y-18295948D01*
X3245015Y-18362987D01*
X3228381Y-18383629D01*
X1584230Y-20027780D01*
X1580527Y-20031194D01*
X1538298Y-20067065D01*
X1489309Y-20131508D01*
X1438555Y-20194649D01*
X1438049Y-20195441D01*
X1426869Y-20213466D01*
X1426344Y-20214338D01*
X1392339Y-20287839D01*
X1356363Y-20360380D01*
X1355982Y-20361417D01*
X1348980Y-20381306D01*
X1348667Y-20382233D01*
X1331258Y-20461326D01*
X1311714Y-20539913D01*
X1311591Y-20540816D01*
X1309007Y-20561916D01*
X1308900Y-20562901D01*
X1308900Y-20643868D01*
X1306706Y-20724838D01*
X1306789Y-20725847D01*
X1308900Y-20748049D01*
X1308900Y-30161841D01*
X1289215Y-30228880D01*
X1272581Y-30249522D01*
X1120908Y-30401194D01*
X990974Y-30586759D01*
X936397Y-30630384D01*
X866898Y-30637576D01*
X804544Y-30606054D01*
X787824Y-30586758D01*
X657893Y-30401196D01*
X506219Y-30249522D01*
X472734Y-30188199D01*
X469900Y-30161841D01*
X469900Y-19103249D01*
X489585Y-19036210D01*
X506214Y-19015573D01*
X2124985Y-17396801D01*
X2128654Y-17393419D01*
X2170900Y-17357537D01*
X2219898Y-17293080D01*
X2270642Y-17229954D01*
X2270650Y-17229937D01*
X2271262Y-17228982D01*
X2282200Y-17211348D01*
X2282844Y-17210276D01*
X2282854Y-17210264D01*
X2316852Y-17136777D01*
X2352837Y-17064221D01*
X2352839Y-17064212D01*
X2353253Y-17063083D01*
X2360154Y-17043486D01*
X2360527Y-17042377D01*
X2360532Y-17042367D01*
X2377939Y-16963283D01*
X2397484Y-16884694D01*
X2397484Y-16884692D01*
X2397633Y-16883600D01*
X2400171Y-16862877D01*
X2400300Y-16861697D01*
X2400300Y-16780730D01*
X2402493Y-16699763D01*
X2402408Y-16698720D01*
X2400300Y-16676552D01*
X2400300Y-7764799D01*
X2419985Y-7697760D01*
X2459022Y-7659372D01*
X2578722Y-7585258D01*
X2736841Y-7441114D01*
X2865781Y-7270370D01*
X2961151Y-7078840D01*
X2963939Y-7069040D01*
X3001213Y-7009949D01*
X3043990Y-6985336D01*
X3101490Y-6966169D01*
X3171313Y-6963645D01*
X3231418Y-6999271D01*
G37*
%TD.AperFunction*%
%TA.AperFunction,NonConductor*%
G36*
X-14617562Y-14362865D02*
G01*
X-14561629Y-14404737D01*
X-14537212Y-14470201D01*
X-14537781Y-14487963D01*
X-14537702Y-14487966D01*
X-14537879Y-14494539D01*
X-14540577Y-14516575D01*
X-14540700Y-14517704D01*
X-14540700Y-14598668D01*
X-14542893Y-14679638D01*
X-14542803Y-14680733D01*
X-14540699Y-14702838D01*
X-14540699Y-18592328D01*
X-14540699Y-22364040D01*
X-14560384Y-22431079D01*
X-14577018Y-22451721D01*
X-14728693Y-22603396D01*
X-14728695Y-22603399D01*
X-14836028Y-22756688D01*
X-14858624Y-22788958D01*
X-14913201Y-22832583D01*
X-14982699Y-22839777D01*
X-15045054Y-22808254D01*
X-15061774Y-22788959D01*
X-15191708Y-22603394D01*
X-15358797Y-22436306D01*
X-15358804Y-22436301D01*
X-15552365Y-22300767D01*
X-15552369Y-22300765D01*
X-15766535Y-22200898D01*
X-15766544Y-22200894D01*
X-15994786Y-22139738D01*
X-15994796Y-22139736D01*
X-16230199Y-22119141D01*
X-16230201Y-22119141D01*
X-16465603Y-22139736D01*
X-16465613Y-22139738D01*
X-16693855Y-22200894D01*
X-16693859Y-22200896D01*
X-16693863Y-22200897D01*
X-16800945Y-22250830D01*
X-16908028Y-22300764D01*
X-16908030Y-22300765D01*
X-17101602Y-22436305D01*
X-17268693Y-22603396D01*
X-17341596Y-22707513D01*
X-17396172Y-22751138D01*
X-17465671Y-22758332D01*
X-17473246Y-22756688D01*
X-17611505Y-22722123D01*
X-17671768Y-22686766D01*
X-17683004Y-22672949D01*
X-17731698Y-22603406D01*
X-17883382Y-22451722D01*
X-17916866Y-22390399D01*
X-17919700Y-22364041D01*
X-17919700Y-17613851D01*
X-17900015Y-17546812D01*
X-17883381Y-17526170D01*
X-14748577Y-14391366D01*
X-14687254Y-14357881D01*
X-14617562Y-14362865D01*
G37*
%TD.AperFunction*%
%TA.AperFunction,NonConductor*%
G36*
X-4380497Y-6725015D02*
G01*
X-4348307Y-6787028D01*
X-4346529Y-6799394D01*
X-4339704Y-6873048D01*
X-4314679Y-6961000D01*
X-4281153Y-7078835D01*
X-4281151Y-7078837D01*
X-4281151Y-7078840D01*
X-4185781Y-7270370D01*
X-4075543Y-7416347D01*
X-4050853Y-7481705D01*
X-4050500Y-7491044D01*
X-4050500Y-11564949D01*
X-4070185Y-11631988D01*
X-4086818Y-11652629D01*
X-8397980Y-15963791D01*
X-8401660Y-15967184D01*
X-8443900Y-16003063D01*
X-8492890Y-16067508D01*
X-8543642Y-16130646D01*
X-8544211Y-16131536D01*
X-8555304Y-16149423D01*
X-8555853Y-16150334D01*
X-8555854Y-16150336D01*
X-8589860Y-16223839D01*
X-8625836Y-16296379D01*
X-8625837Y-16296384D01*
X-8625839Y-16296388D01*
X-8626258Y-16297527D01*
X-8633176Y-16317176D01*
X-8633532Y-16318234D01*
X-8650941Y-16397325D01*
X-8670484Y-16475905D01*
X-8670632Y-16476994D01*
X-8673177Y-16497775D01*
X-8673300Y-16498904D01*
X-8673300Y-16579868D01*
X-8675493Y-16660838D01*
X-8675410Y-16661847D01*
X-8673300Y-16684049D01*
X-8673300Y-27021500D01*
X-8692985Y-27088539D01*
X-8745789Y-27134294D01*
X-8797300Y-27145500D01*
X-14048549Y-27145500D01*
X-14115588Y-27125815D01*
X-14136230Y-27109181D01*
X-15343381Y-25902029D01*
X-15376866Y-25840706D01*
X-15379700Y-25814348D01*
X-15379700Y-24585558D01*
X-15360015Y-24518519D01*
X-15343381Y-24497877D01*
X-15191706Y-24346202D01*
X-15191701Y-24346196D01*
X-15061775Y-24160642D01*
X-15007198Y-24117017D01*
X-14937700Y-24109823D01*
X-14875345Y-24141346D01*
X-14858624Y-24160642D01*
X-14728695Y-24346201D01*
X-14561601Y-24513295D01*
X-14368030Y-24648835D01*
X-14153863Y-24748703D01*
X-13925608Y-24809863D01*
X-13729434Y-24827026D01*
X-13690201Y-24830459D01*
X-13690200Y-24830459D01*
X-13690199Y-24830459D01*
X-13643118Y-24826339D01*
X-13454792Y-24809863D01*
X-13226537Y-24748703D01*
X-13012370Y-24648835D01*
X-13012367Y-24648833D01*
X-13012365Y-24648832D01*
X-12826260Y-24518519D01*
X-12818799Y-24513295D01*
X-12651705Y-24346201D01*
X-12651700Y-24346195D01*
X-12521775Y-24160642D01*
X-12467198Y-24117017D01*
X-12397700Y-24109823D01*
X-12335345Y-24141346D01*
X-12318624Y-24160642D01*
X-12188695Y-24346201D01*
X-12021601Y-24513295D01*
X-11828030Y-24648835D01*
X-11613863Y-24748703D01*
X-11385608Y-24809863D01*
X-11189434Y-24827026D01*
X-11150201Y-24830459D01*
X-11150200Y-24830459D01*
X-11150199Y-24830459D01*
X-11103118Y-24826339D01*
X-10914792Y-24809863D01*
X-10686537Y-24748703D01*
X-10472370Y-24648835D01*
X-10472367Y-24648833D01*
X-10472365Y-24648832D01*
X-10286260Y-24518519D01*
X-10278799Y-24513295D01*
X-10111705Y-24346201D01*
X-10084481Y-24307321D01*
X-9976167Y-24152634D01*
X-9976165Y-24152630D01*
X-9880200Y-23946832D01*
X-9876297Y-23938463D01*
X-9876296Y-23938459D01*
X-9876294Y-23938455D01*
X-9815138Y-23710213D01*
X-9815136Y-23710203D01*
X-9794541Y-23474800D01*
X-9794541Y-23474799D01*
X-9815136Y-23239396D01*
X-9815138Y-23239386D01*
X-9876294Y-23011144D01*
X-9876298Y-23011135D01*
X-9976164Y-22796971D01*
X-9976165Y-22796969D01*
X-10111705Y-22603397D01*
X-10263381Y-22451722D01*
X-10296866Y-22390399D01*
X-10299700Y-22364041D01*
X-10299700Y-18974499D01*
X-10280015Y-18907460D01*
X-10227211Y-18861705D01*
X-10175700Y-18850499D01*
X-10102129Y-18850499D01*
X-10102128Y-18850499D01*
X-10053757Y-18845299D01*
X-10042516Y-18844091D01*
X-9907671Y-18793797D01*
X-9907664Y-18793793D01*
X-9792455Y-18707547D01*
X-9792452Y-18707544D01*
X-9706206Y-18592335D01*
X-9706202Y-18592328D01*
X-9655908Y-18457482D01*
X-9649501Y-18397883D01*
X-9649500Y-18397881D01*
X-9649500Y-18397873D01*
X-9649500Y-17526170D01*
X-9649500Y-16602129D01*
X-9649501Y-16602123D01*
X-9655908Y-16542516D01*
X-9706202Y-16407671D01*
X-9706206Y-16407664D01*
X-9792452Y-16292455D01*
X-9792455Y-16292452D01*
X-9907664Y-16206206D01*
X-9907671Y-16206202D01*
X-10042517Y-16155908D01*
X-10042516Y-16155908D01*
X-10102116Y-16149501D01*
X-10102119Y-16149500D01*
X-10102127Y-16149500D01*
X-10102134Y-16149500D01*
X-10102135Y-16149500D01*
X-11897870Y-16149500D01*
X-11897876Y-16149501D01*
X-11957483Y-16155908D01*
X-12092328Y-16206202D01*
X-12092335Y-16206206D01*
X-12207544Y-16292452D01*
X-12207547Y-16292455D01*
X-12293793Y-16407664D01*
X-12293797Y-16407671D01*
X-12344091Y-16542516D01*
X-12344091Y-16542517D01*
X-12350500Y-16602127D01*
X-12350499Y-18397872D01*
X-12344091Y-18457483D01*
X-12293796Y-18592331D01*
X-12207546Y-18707546D01*
X-12092331Y-18793796D01*
X-12092329Y-18793796D01*
X-12092327Y-18793798D01*
X-12081371Y-18797884D01*
X-12025436Y-18839753D01*
X-12001016Y-18905216D01*
X-12000700Y-18914067D01*
X-12000700Y-22364041D01*
X-12020385Y-22431080D01*
X-12037019Y-22451722D01*
X-12188694Y-22603397D01*
X-12318625Y-22788958D01*
X-12373202Y-22832583D01*
X-12442700Y-22839777D01*
X-12505055Y-22808254D01*
X-12521775Y-22788958D01*
X-12651703Y-22603400D01*
X-12803382Y-22451721D01*
X-12836866Y-22390398D01*
X-12839700Y-22364040D01*
X-12839700Y-15013849D01*
X-12820015Y-14946810D01*
X-12803385Y-14926173D01*
X-5728031Y-7850819D01*
X-5666708Y-7817334D01*
X-5640350Y-7814500D01*
X-5633022Y-7814500D01*
X-5633020Y-7814500D01*
X-5422703Y-7775185D01*
X-5223190Y-7697893D01*
X-5223187Y-7697891D01*
X-5223186Y-7697891D01*
X-5041286Y-7585263D01*
X-5041283Y-7585261D01*
X-5041278Y-7585258D01*
X-4883159Y-7441114D01*
X-4754219Y-7270370D01*
X-4658849Y-7078840D01*
X-4658846Y-7078835D01*
X-4600296Y-6873050D01*
X-4600295Y-6873047D01*
X-4593471Y-6799395D01*
X-4567685Y-6734457D01*
X-4510884Y-6693770D01*
X-4441103Y-6690250D01*
X-4380497Y-6725015D01*
G37*
%TD.AperFunction*%
M02*
